G04 EAGLE Gerber RS-274X export*
G75*
%MOMM*%
%FSLAX34Y34*%
%LPD*%
%INBottom Solder Mask*%
%IPPOS*%
%AMOC8*
5,1,8,0,0,1.08239X$1,22.5*%
G01*
%ADD10C,0.703200*%
%ADD11C,1.727200*%
%ADD12R,2.133600X2.133600*%
%ADD13C,2.133600*%
%ADD14R,1.603200X1.403200*%
%ADD15R,1.703200X1.503200*%
%ADD16R,5.283200X2.743200*%
%ADD17C,2.082800*%
%ADD18P,1.649562X8X112.500000*%
%ADD19R,1.503200X1.703200*%
%ADD20R,2.743200X5.283200*%
%ADD21R,2.235200X0.863600*%
%ADD22P,1.649562X8X202.500000*%
%ADD23C,0.959600*%


D10*
X48000Y475000D03*
X48000Y485000D03*
X48000Y465000D03*
X48000Y455000D03*
X48000Y495000D03*
X48000Y445000D03*
X212000Y475000D03*
X212000Y485000D03*
X212000Y465000D03*
X212000Y455000D03*
X212000Y495000D03*
X212000Y445000D03*
X229000Y475000D03*
X229000Y485000D03*
X229000Y465000D03*
X229000Y455000D03*
X229000Y495000D03*
X229000Y445000D03*
X523000Y465000D03*
X523000Y475000D03*
X523000Y455000D03*
X523000Y445000D03*
X523000Y485000D03*
X523000Y435000D03*
X785200Y145100D03*
X785200Y135100D03*
X785200Y155100D03*
X785200Y165100D03*
X785200Y125100D03*
X785200Y175100D03*
X542200Y145100D03*
X542200Y135100D03*
X542200Y155100D03*
X542200Y165100D03*
X542200Y125100D03*
X542200Y175100D03*
X542200Y455100D03*
X542200Y445100D03*
X542200Y465100D03*
X542200Y475100D03*
X542200Y435100D03*
X542200Y485100D03*
X48000Y155000D03*
X48000Y165000D03*
X48000Y145000D03*
X48000Y135000D03*
X48000Y175000D03*
X48000Y125000D03*
X211000Y155000D03*
X211000Y165000D03*
X211000Y145000D03*
X211000Y135000D03*
X211000Y175000D03*
X211000Y125000D03*
X229000Y155000D03*
X229000Y165000D03*
X229000Y145000D03*
X229000Y135000D03*
X229000Y175000D03*
X229000Y125000D03*
X523000Y155000D03*
X523000Y165000D03*
X523000Y145000D03*
X523000Y135000D03*
X523000Y175000D03*
X523000Y125000D03*
X786200Y455100D03*
X786200Y445100D03*
X786200Y465100D03*
X786200Y475100D03*
X786200Y435100D03*
X786200Y485100D03*
X371000Y713000D03*
X361000Y713000D03*
X381000Y713000D03*
X391000Y713000D03*
X351000Y713000D03*
X401000Y713000D03*
X370500Y50700D03*
X360500Y50700D03*
X380500Y50700D03*
X390500Y50700D03*
X350500Y50700D03*
X400500Y50700D03*
D11*
X84020Y70520D02*
X68780Y70520D01*
X68780Y95920D02*
X84020Y95920D01*
X84020Y121320D02*
X68780Y121320D01*
X68780Y146720D02*
X84020Y146720D01*
X84020Y172120D02*
X68780Y172120D01*
X68780Y197520D02*
X84020Y197520D01*
X84020Y222920D02*
X68780Y222920D01*
X68780Y248320D02*
X84020Y248320D01*
X84020Y273720D02*
X68780Y273720D01*
X68780Y299120D02*
X84020Y299120D01*
X84020Y324520D02*
X68780Y324520D01*
X68780Y349920D02*
X84020Y349920D01*
X84020Y375320D02*
X68780Y375320D01*
X68780Y400720D02*
X84020Y400720D01*
X84020Y426120D02*
X68780Y426120D01*
X68780Y451520D02*
X84020Y451520D01*
X84020Y476920D02*
X68780Y476920D01*
X68780Y502320D02*
X84020Y502320D01*
X84020Y527720D02*
X68780Y527720D01*
X68780Y553120D02*
X84020Y553120D01*
D12*
X178000Y418500D03*
D13*
X152600Y418500D03*
X178000Y443900D03*
X152600Y443900D03*
X178000Y469300D03*
X152600Y469300D03*
X178000Y494700D03*
X152600Y494700D03*
X178000Y520100D03*
X152600Y520100D03*
D14*
X170380Y103300D03*
X170380Y73300D03*
D15*
X146250Y78800D03*
X146250Y97800D03*
X639320Y120390D03*
X639320Y101390D03*
D16*
X580260Y523000D03*
X580260Y483400D03*
X580260Y443800D03*
X580260Y404200D03*
X580260Y364600D03*
X580260Y325000D03*
X580260Y285400D03*
X580260Y245800D03*
X580260Y206200D03*
X580260Y166600D03*
X580260Y127000D03*
X580260Y87400D03*
D17*
X741682Y84474D03*
X676658Y84474D03*
X741682Y129686D03*
X676658Y129686D03*
D15*
X665990Y177590D03*
X665990Y196590D03*
D18*
X730760Y175660D03*
X730760Y201060D03*
D19*
X341100Y368800D03*
X322100Y368800D03*
X393170Y230370D03*
X374170Y230370D03*
D15*
X252860Y256430D03*
X252860Y275430D03*
D20*
X277050Y88760D03*
X316650Y88760D03*
X356250Y88760D03*
X395850Y88760D03*
X435450Y88760D03*
X475050Y88760D03*
D21*
X413134Y343400D03*
X351666Y343400D03*
X413134Y330700D03*
X413134Y318000D03*
X351666Y330700D03*
X351666Y318000D03*
X413134Y305300D03*
X351666Y305300D03*
X413134Y292600D03*
X413134Y279900D03*
X351666Y292600D03*
X351666Y279900D03*
X413134Y267200D03*
X351666Y267200D03*
X476634Y229100D03*
X415166Y229100D03*
X476634Y216400D03*
X476634Y203700D03*
X415166Y216400D03*
X415166Y203700D03*
X476634Y191000D03*
X415166Y191000D03*
X476634Y178300D03*
X476634Y165600D03*
X415166Y178300D03*
X415166Y165600D03*
X476634Y152900D03*
X415166Y152900D03*
X336934Y229100D03*
X275466Y229100D03*
X336934Y216400D03*
X336934Y203700D03*
X275466Y216400D03*
X275466Y203700D03*
X336934Y191000D03*
X275466Y191000D03*
X336934Y178300D03*
X336934Y165600D03*
X275466Y178300D03*
X275466Y165600D03*
X336934Y152900D03*
X275466Y152900D03*
D12*
X293500Y645660D03*
D13*
X318900Y645660D03*
X293500Y620260D03*
X318900Y620260D03*
X293500Y594860D03*
X318900Y594860D03*
X293500Y569460D03*
X318900Y569460D03*
X293500Y544060D03*
X318900Y544060D03*
D12*
X433200Y645660D03*
D13*
X458600Y645660D03*
X433200Y620260D03*
X458600Y620260D03*
X433200Y594860D03*
X458600Y594860D03*
X433200Y569460D03*
X458600Y569460D03*
X433200Y544060D03*
X458600Y544060D03*
D12*
X325250Y419600D03*
D13*
X325250Y445000D03*
X350650Y419600D03*
X350650Y445000D03*
X376050Y419600D03*
X376050Y445000D03*
X401450Y419600D03*
X401450Y445000D03*
X426850Y419600D03*
X426850Y445000D03*
D15*
X345570Y570120D03*
X345570Y589120D03*
X345570Y629760D03*
X345570Y610760D03*
D19*
X296700Y127500D03*
X315700Y127500D03*
D15*
X386210Y152240D03*
X386210Y133240D03*
X485270Y571390D03*
X485270Y590390D03*
X485270Y631030D03*
X485270Y612030D03*
X252860Y215790D03*
X252860Y234790D03*
D19*
X468100Y130040D03*
X449100Y130040D03*
D15*
X467490Y318660D03*
X467490Y337660D03*
D22*
X499240Y354830D03*
X473840Y354830D03*
D23*
X134580Y146720D03*
X141170Y248320D03*
X127200Y393100D03*
X611380Y541420D03*
X634240Y278530D03*
X640590Y245510D03*
X612650Y476650D03*
X621540Y352190D03*
X644400Y216300D03*
X618519Y342819D03*
X650750Y226460D03*
X650750Y359810D03*
X657316Y286150D03*
X650750Y406800D03*
X616200Y120650D03*
X480190Y119880D03*
X318900Y152900D03*
X298580Y144010D03*
X496700Y178300D03*
X269370Y321810D03*
X262992Y334510D03*
X433200Y267200D03*
X331600Y267200D03*
X331600Y305300D03*
X395100Y305300D03*
X442372Y358640D03*
X421262Y505960D03*
X471300Y381500D03*
X330330Y119880D03*
X437998Y216400D03*
X395100Y279900D03*
X368430Y318000D03*
X355730Y119880D03*
X277050Y123750D03*
X400180Y120540D03*
X458600Y203700D03*
X433200Y203700D03*
X321440Y179570D03*
X292230Y216400D03*
X458600Y165600D03*
X435740Y119880D03*
X431930Y229100D03*
X287981Y238821D03*
M02*
