M48
;GenerationSoftware,Autodesk,EAGLE,9.5.2*%
;CreationDate,2020-03-02T12:39:25Z*%
FMAT,2
ICI,OFF
METRIC,TZ,000.000
T5C0.350
T4C0.500
T3C0.813
T2C1.000
T1C1.016
%
G90
M71
T1
X17800Y49470
X31890Y59486
X29350Y59486
X31890Y62026
X29350Y62026
X31890Y64566
X29350Y64566
X29350Y54406
X35065Y44500
X67666Y12969
X74168Y12969
X67666Y8447
X74168Y8447
X15260Y52010
X17800Y52010
X15260Y49470
X29350Y56946
X15260Y46930
X17800Y46930
X15260Y44390
X17800Y44390
X15260Y41850
X17800Y41850
X31890Y56946
X31890Y54406
X43320Y64566
X45860Y64566
X43320Y62026
X45860Y62026
X43320Y59486
X45860Y59486
X43320Y56946
X45860Y56946
X43320Y54406
X45860Y54406
X32525Y41960
X32525Y44500
X35065Y41960
X37605Y41960
X37605Y44500
X40145Y41960
X40145Y44500
X42685Y41960
X42685Y44500
T2
X7640Y52772
X7640Y50232
X7640Y47692
X7640Y45152
X7640Y42612
X7640Y40072
X7640Y37532
X7640Y34992
X7640Y32452
X7640Y7052
X7640Y27372
X7640Y24832
X7640Y22292
X7640Y29912
X7640Y19752
X7640Y17212
X7640Y14672
X7640Y12132
X7640Y9592
X7640Y55312
T3
X73076Y20106
X73076Y17566
X49924Y35483
X47384Y35483
T4
X78520Y13510
X78520Y15510
X78520Y16510
X78520Y12510
X78520Y17510
X54220Y14510
X54220Y13510
X54220Y15510
X54220Y16510
X54220Y12510
X54220Y17510
X54220Y45510
X54220Y44510
X54220Y46510
X54220Y47510
X54220Y43510
X54220Y48510
X4800Y15500
X4800Y16500
X4800Y14500
X4800Y13500
X4800Y17500
X4800Y12500
X21100Y15500
X21100Y16500
X21100Y14500
X21100Y13500
X21100Y17500
X21100Y12500
X22900Y15500
X22900Y16500
X22900Y14500
X22900Y13500
X22900Y17500
X22900Y12500
X52300Y15500
X52300Y16500
X52300Y14500
X52300Y13500
X52300Y17500
X52300Y12500
X78620Y45510
X78620Y44510
X78620Y46510
X78620Y47510
X78620Y43510
X78620Y48510
X37100Y71300
X36100Y71300
X38100Y71300
X39100Y71300
X35100Y71300
X40100Y71300
X37050Y5070
X36050Y5070
X38050Y5070
X39050Y5070
X35050Y5070
X40050Y5070
X4800Y44500
X4800Y47500
X4800Y48500
X4800Y46500
X4800Y45500
X4800Y49500
X21200Y47500
X21200Y48500
X21200Y46500
X21200Y45500
X21200Y49500
X21200Y44500
X22900Y47500
X22900Y48500
X22900Y46500
X22900Y45500
X22900Y49500
X22900Y44500
X52300Y46500
X52300Y47500
X52300Y45500
X52300Y44500
X52300Y48500
X52300Y43500
X78520Y14510
T5
X29858Y14401
X31890Y15290
X48019Y11988
X61620Y12065
X65075Y40680
X65732Y28615
X65075Y35981
X65075Y22646
X61852Y34282
X64440Y21630
X62154Y35219
X61265Y47665
X64059Y24551
X63424Y27853
X61138Y54142
X12720Y39310
X14117Y24832
X39510Y30530
X13458Y14672
X28798Y23882
X43193Y22910
X43574Y11988
X45860Y16560
X29223Y21640
X32144Y17957
X43320Y20370
X45860Y20370
X40018Y12054
X27705Y12375
X35573Y11988
X36843Y31800
X39510Y27990
X43800Y21640
X33033Y11988
X47130Y38150
X42126Y50596
X44237Y35864
X33160Y30530
X33160Y26720
X43320Y26720
X26299Y33451
X26937Y32181
X49670Y17830
M30