G04 EAGLE Gerber RS-274X export*
G75*
%MOMM*%
%FSLAX34Y34*%
%LPD*%
%INTop Copper*%
%IPPOS*%
%AMOC8*
5,1,8,0,0,1.08239X$1,22.5*%
G01*
%ADD10C,1.524000*%
%ADD11R,1.930400X1.930400*%
%ADD12C,1.930400*%
%ADD13R,5.080000X2.540000*%
%ADD14C,1.879600*%
%ADD15P,1.429621X8X112.500000*%
%ADD16R,2.540000X5.080000*%
%ADD17P,1.429621X8X202.500000*%
%ADD18C,0.152400*%
%ADD19C,0.756400*%

G36*
X341831Y60175D02*
X341831Y60175D01*
X341921Y60183D01*
X341951Y60195D01*
X341983Y60200D01*
X342064Y60243D01*
X342148Y60279D01*
X342180Y60305D01*
X342201Y60316D01*
X342223Y60339D01*
X342279Y60384D01*
X342786Y60891D01*
X342798Y60907D01*
X342813Y60920D01*
X342869Y61007D01*
X342930Y61091D01*
X342935Y61110D01*
X342946Y61127D01*
X342972Y61227D01*
X343002Y61326D01*
X343001Y61346D01*
X343006Y61365D01*
X342998Y61468D01*
X342996Y61572D01*
X342989Y61591D01*
X342987Y61610D01*
X342947Y61705D01*
X342911Y61803D01*
X342899Y61818D01*
X342891Y61837D01*
X342786Y61968D01*
X342025Y62728D01*
X342025Y114792D01*
X342918Y115685D01*
X350583Y115685D01*
X350653Y115696D01*
X350725Y115698D01*
X350774Y115716D01*
X350825Y115724D01*
X350889Y115758D01*
X350956Y115783D01*
X350997Y115815D01*
X351043Y115840D01*
X351092Y115892D01*
X351148Y115936D01*
X351176Y115980D01*
X351212Y116018D01*
X351242Y116083D01*
X351281Y116143D01*
X351294Y116194D01*
X351316Y116241D01*
X351324Y116312D01*
X351341Y116382D01*
X351337Y116434D01*
X351343Y116485D01*
X351328Y116556D01*
X351322Y116627D01*
X351302Y116675D01*
X351291Y116726D01*
X351254Y116787D01*
X351226Y116853D01*
X351181Y116909D01*
X351164Y116937D01*
X351147Y116952D01*
X351121Y116984D01*
X350423Y117682D01*
X350423Y121638D01*
X350409Y121728D01*
X350401Y121819D01*
X350389Y121848D01*
X350384Y121880D01*
X350341Y121961D01*
X350305Y122045D01*
X350279Y122077D01*
X350268Y122098D01*
X350245Y122120D01*
X350200Y122176D01*
X347386Y124990D01*
X347312Y125043D01*
X347242Y125103D01*
X347212Y125115D01*
X347186Y125134D01*
X347099Y125161D01*
X347014Y125195D01*
X346973Y125199D01*
X346951Y125206D01*
X346919Y125205D01*
X346847Y125213D01*
X334339Y125213D01*
X334269Y125202D01*
X334197Y125200D01*
X334148Y125182D01*
X334097Y125174D01*
X334033Y125140D01*
X333966Y125115D01*
X333925Y125083D01*
X333879Y125058D01*
X333830Y125006D01*
X333774Y124962D01*
X333746Y124918D01*
X333710Y124880D01*
X333680Y124815D01*
X333641Y124755D01*
X333628Y124704D01*
X333606Y124657D01*
X333598Y124586D01*
X333581Y124516D01*
X333585Y124464D01*
X333579Y124413D01*
X333594Y124342D01*
X333600Y124271D01*
X333620Y124223D01*
X333631Y124172D01*
X333668Y124111D01*
X333696Y124045D01*
X333741Y123989D01*
X333758Y123961D01*
X333775Y123946D01*
X333801Y123914D01*
X335637Y122078D01*
X335637Y117682D01*
X332528Y114573D01*
X331636Y114573D01*
X331616Y114570D01*
X331597Y114572D01*
X331495Y114550D01*
X331393Y114534D01*
X331376Y114524D01*
X331356Y114520D01*
X331267Y114467D01*
X331176Y114418D01*
X331162Y114404D01*
X331145Y114394D01*
X331078Y114315D01*
X331006Y114240D01*
X330998Y114222D01*
X330985Y114207D01*
X330946Y114111D01*
X330903Y114017D01*
X330901Y113997D01*
X330893Y113979D01*
X330875Y113812D01*
X330875Y62728D01*
X329982Y61835D01*
X303318Y61835D01*
X302425Y62728D01*
X302425Y114792D01*
X303318Y115685D01*
X322585Y115685D01*
X322676Y115699D01*
X322766Y115707D01*
X322796Y115719D01*
X322828Y115724D01*
X322909Y115767D01*
X322993Y115803D01*
X323025Y115829D01*
X323046Y115840D01*
X323068Y115863D01*
X323124Y115908D01*
X324800Y117584D01*
X324853Y117658D01*
X324913Y117728D01*
X324925Y117758D01*
X324944Y117784D01*
X324971Y117871D01*
X325005Y117956D01*
X325009Y117997D01*
X325016Y118019D01*
X325015Y118051D01*
X325023Y118123D01*
X325023Y122078D01*
X326859Y123914D01*
X326901Y123972D01*
X326950Y124024D01*
X326972Y124071D01*
X327002Y124113D01*
X327024Y124182D01*
X327054Y124247D01*
X327059Y124299D01*
X327075Y124349D01*
X327073Y124420D01*
X327081Y124491D01*
X327070Y124542D01*
X327068Y124594D01*
X327044Y124662D01*
X327029Y124732D01*
X327002Y124777D01*
X326984Y124825D01*
X326939Y124881D01*
X326902Y124943D01*
X326863Y124977D01*
X326830Y125017D01*
X326770Y125056D01*
X326715Y125103D01*
X326667Y125122D01*
X326623Y125150D01*
X326554Y125168D01*
X326487Y125195D01*
X326416Y125203D01*
X326385Y125211D01*
X326362Y125209D01*
X326321Y125213D01*
X283118Y125213D01*
X283098Y125210D01*
X283079Y125212D01*
X282977Y125190D01*
X282875Y125174D01*
X282858Y125164D01*
X282838Y125160D01*
X282749Y125107D01*
X282658Y125058D01*
X282644Y125044D01*
X282627Y125034D01*
X282560Y124955D01*
X282488Y124880D01*
X282480Y124862D01*
X282467Y124847D01*
X282428Y124751D01*
X282385Y124657D01*
X282383Y124637D01*
X282375Y124619D01*
X282357Y124452D01*
X282357Y121552D01*
X279560Y118755D01*
X279507Y118681D01*
X279447Y118611D01*
X279435Y118581D01*
X279416Y118555D01*
X279389Y118468D01*
X279355Y118383D01*
X279351Y118342D01*
X279344Y118320D01*
X279345Y118288D01*
X279337Y118217D01*
X279337Y116446D01*
X279340Y116426D01*
X279338Y116407D01*
X279360Y116305D01*
X279376Y116203D01*
X279386Y116186D01*
X279390Y116166D01*
X279443Y116077D01*
X279492Y115986D01*
X279506Y115972D01*
X279516Y115955D01*
X279595Y115888D01*
X279670Y115816D01*
X279688Y115808D01*
X279703Y115795D01*
X279799Y115756D01*
X279893Y115713D01*
X279913Y115711D01*
X279931Y115703D01*
X280098Y115685D01*
X290382Y115685D01*
X291275Y114792D01*
X291275Y62728D01*
X290382Y61835D01*
X263718Y61835D01*
X262825Y62728D01*
X262825Y114792D01*
X263718Y115685D01*
X274002Y115685D01*
X274022Y115688D01*
X274041Y115686D01*
X274143Y115708D01*
X274245Y115724D01*
X274262Y115734D01*
X274282Y115738D01*
X274371Y115791D01*
X274462Y115840D01*
X274476Y115854D01*
X274493Y115864D01*
X274560Y115943D01*
X274632Y116018D01*
X274640Y116036D01*
X274653Y116051D01*
X274692Y116147D01*
X274735Y116241D01*
X274737Y116261D01*
X274745Y116279D01*
X274763Y116446D01*
X274763Y118217D01*
X274749Y118307D01*
X274741Y118398D01*
X274729Y118427D01*
X274724Y118459D01*
X274681Y118540D01*
X274645Y118624D01*
X274619Y118656D01*
X274608Y118677D01*
X274585Y118699D01*
X274540Y118755D01*
X271743Y121552D01*
X271743Y125948D01*
X274852Y129057D01*
X278808Y129057D01*
X278898Y129071D01*
X278989Y129079D01*
X279018Y129091D01*
X279050Y129096D01*
X279131Y129139D01*
X279215Y129175D01*
X279247Y129201D01*
X279268Y129212D01*
X279290Y129235D01*
X279346Y129280D01*
X279853Y129787D01*
X349057Y129787D01*
X353434Y125410D01*
X353508Y125357D01*
X353578Y125297D01*
X353608Y125285D01*
X353634Y125266D01*
X353721Y125239D01*
X353806Y125205D01*
X353847Y125201D01*
X353869Y125194D01*
X353901Y125195D01*
X353972Y125187D01*
X357928Y125187D01*
X361037Y122078D01*
X361037Y117682D01*
X360339Y116984D01*
X360297Y116926D01*
X360248Y116874D01*
X360226Y116827D01*
X360196Y116785D01*
X360174Y116716D01*
X360144Y116651D01*
X360139Y116599D01*
X360123Y116549D01*
X360125Y116478D01*
X360117Y116407D01*
X360128Y116356D01*
X360130Y116304D01*
X360154Y116236D01*
X360169Y116166D01*
X360196Y116121D01*
X360214Y116073D01*
X360259Y116017D01*
X360296Y115955D01*
X360335Y115921D01*
X360368Y115881D01*
X360428Y115842D01*
X360483Y115795D01*
X360531Y115776D01*
X360575Y115748D01*
X360644Y115730D01*
X360711Y115703D01*
X360782Y115695D01*
X360813Y115687D01*
X360836Y115689D01*
X360877Y115685D01*
X369582Y115685D01*
X370475Y114792D01*
X370475Y64122D01*
X370478Y64102D01*
X370476Y64083D01*
X370498Y63981D01*
X370514Y63879D01*
X370524Y63862D01*
X370528Y63842D01*
X370581Y63753D01*
X370630Y63662D01*
X370644Y63648D01*
X370654Y63631D01*
X370733Y63564D01*
X370808Y63492D01*
X370826Y63484D01*
X370841Y63471D01*
X370937Y63432D01*
X371031Y63389D01*
X371051Y63387D01*
X371069Y63379D01*
X371236Y63361D01*
X373018Y63361D01*
X375209Y62453D01*
X375297Y62433D01*
X375384Y62404D01*
X375417Y62405D01*
X375448Y62397D01*
X375539Y62406D01*
X375630Y62407D01*
X375670Y62418D01*
X375693Y62420D01*
X375722Y62433D01*
X375791Y62453D01*
X377982Y63361D01*
X380864Y63361D01*
X380884Y63364D01*
X380903Y63362D01*
X381005Y63384D01*
X381107Y63400D01*
X381124Y63410D01*
X381144Y63414D01*
X381233Y63467D01*
X381324Y63516D01*
X381338Y63530D01*
X381355Y63540D01*
X381422Y63619D01*
X381494Y63694D01*
X381502Y63712D01*
X381515Y63727D01*
X381554Y63823D01*
X381597Y63917D01*
X381599Y63937D01*
X381607Y63955D01*
X381625Y64122D01*
X381625Y114792D01*
X382518Y115685D01*
X392802Y115685D01*
X392822Y115688D01*
X392841Y115686D01*
X392943Y115708D01*
X393045Y115724D01*
X393062Y115734D01*
X393082Y115738D01*
X393171Y115791D01*
X393262Y115840D01*
X393276Y115854D01*
X393293Y115864D01*
X393360Y115943D01*
X393432Y116018D01*
X393440Y116036D01*
X393453Y116051D01*
X393492Y116147D01*
X393535Y116241D01*
X393537Y116261D01*
X393545Y116279D01*
X393563Y116446D01*
X393563Y117157D01*
X394650Y118244D01*
X394693Y118304D01*
X394736Y118349D01*
X394743Y118365D01*
X394763Y118388D01*
X394775Y118418D01*
X394794Y118444D01*
X394821Y118531D01*
X394821Y118532D01*
X394840Y118572D01*
X394841Y118580D01*
X394855Y118616D01*
X394859Y118657D01*
X394866Y118679D01*
X394865Y118711D01*
X394873Y118783D01*
X394873Y122738D01*
X397982Y125847D01*
X402378Y125847D01*
X405487Y122738D01*
X405487Y118342D01*
X404129Y116984D01*
X404087Y116926D01*
X404038Y116874D01*
X404016Y116827D01*
X403986Y116785D01*
X403964Y116716D01*
X403934Y116651D01*
X403929Y116599D01*
X403913Y116549D01*
X403915Y116478D01*
X403907Y116407D01*
X403918Y116356D01*
X403920Y116304D01*
X403944Y116236D01*
X403959Y116166D01*
X403986Y116121D01*
X404004Y116073D01*
X404049Y116017D01*
X404086Y115955D01*
X404125Y115921D01*
X404158Y115881D01*
X404218Y115842D01*
X404273Y115795D01*
X404321Y115776D01*
X404365Y115748D01*
X404434Y115730D01*
X404501Y115703D01*
X404572Y115695D01*
X404603Y115687D01*
X404626Y115689D01*
X404667Y115685D01*
X409182Y115685D01*
X410075Y114792D01*
X410075Y62728D01*
X409182Y61835D01*
X409108Y61835D01*
X409037Y61824D01*
X408965Y61822D01*
X408916Y61804D01*
X408865Y61796D01*
X408802Y61762D01*
X408734Y61737D01*
X408693Y61705D01*
X408647Y61680D01*
X408598Y61629D01*
X408542Y61584D01*
X408514Y61540D01*
X408478Y61502D01*
X408448Y61437D01*
X408409Y61377D01*
X408396Y61326D01*
X408374Y61279D01*
X408366Y61208D01*
X408349Y61138D01*
X408353Y61086D01*
X408347Y61035D01*
X408363Y60964D01*
X408368Y60893D01*
X408388Y60845D01*
X408400Y60794D01*
X408436Y60733D01*
X408464Y60667D01*
X408509Y60611D01*
X408526Y60583D01*
X408544Y60568D01*
X408569Y60536D01*
X408721Y60384D01*
X408795Y60331D01*
X408865Y60271D01*
X408895Y60259D01*
X408921Y60240D01*
X409008Y60213D01*
X409093Y60179D01*
X409134Y60175D01*
X409156Y60168D01*
X409188Y60169D01*
X409260Y60161D01*
X460118Y60161D01*
X460189Y60172D01*
X460261Y60174D01*
X460310Y60192D01*
X460361Y60200D01*
X460424Y60234D01*
X460492Y60259D01*
X460532Y60291D01*
X460578Y60316D01*
X460628Y60367D01*
X460684Y60412D01*
X460712Y60456D01*
X460748Y60494D01*
X460778Y60559D01*
X460817Y60619D01*
X460830Y60670D01*
X460851Y60717D01*
X460859Y60788D01*
X460877Y60858D01*
X460873Y60910D01*
X460879Y60961D01*
X460863Y61032D01*
X460858Y61103D01*
X460837Y61151D01*
X460826Y61202D01*
X460789Y61263D01*
X460761Y61329D01*
X460717Y61385D01*
X460700Y61413D01*
X460682Y61428D01*
X460657Y61460D01*
X460317Y61800D01*
X459982Y62379D01*
X459809Y63026D01*
X459809Y87237D01*
X474288Y87237D01*
X474308Y87240D01*
X474327Y87238D01*
X474429Y87260D01*
X474531Y87277D01*
X474548Y87286D01*
X474568Y87290D01*
X474657Y87343D01*
X474748Y87392D01*
X474762Y87406D01*
X474779Y87416D01*
X474846Y87495D01*
X474917Y87570D01*
X474926Y87588D01*
X474939Y87603D01*
X474978Y87699D01*
X475021Y87793D01*
X475023Y87813D01*
X475031Y87831D01*
X475049Y87998D01*
X475049Y88761D01*
X475051Y88761D01*
X475051Y87998D01*
X475054Y87978D01*
X475052Y87959D01*
X475074Y87857D01*
X475091Y87755D01*
X475100Y87738D01*
X475104Y87718D01*
X475157Y87629D01*
X475206Y87538D01*
X475220Y87524D01*
X475230Y87507D01*
X475309Y87440D01*
X475384Y87369D01*
X475402Y87360D01*
X475417Y87347D01*
X475513Y87308D01*
X475607Y87265D01*
X475627Y87263D01*
X475645Y87255D01*
X475812Y87237D01*
X490291Y87237D01*
X490291Y63026D01*
X490118Y62379D01*
X489783Y61800D01*
X489443Y61460D01*
X489402Y61402D01*
X489352Y61350D01*
X489330Y61303D01*
X489300Y61261D01*
X489279Y61192D01*
X489249Y61127D01*
X489243Y61075D01*
X489227Y61025D01*
X489229Y60954D01*
X489221Y60883D01*
X489233Y60832D01*
X489234Y60780D01*
X489258Y60712D01*
X489274Y60642D01*
X489300Y60597D01*
X489318Y60549D01*
X489363Y60493D01*
X489400Y60431D01*
X489439Y60397D01*
X489472Y60357D01*
X489532Y60318D01*
X489587Y60271D01*
X489635Y60252D01*
X489679Y60224D01*
X489748Y60206D01*
X489815Y60179D01*
X489886Y60171D01*
X489917Y60163D01*
X489941Y60165D01*
X489982Y60161D01*
X511078Y60161D01*
X511098Y60164D01*
X511117Y60162D01*
X511219Y60184D01*
X511321Y60200D01*
X511338Y60210D01*
X511358Y60214D01*
X511447Y60267D01*
X511538Y60316D01*
X511552Y60330D01*
X511569Y60340D01*
X511636Y60419D01*
X511708Y60494D01*
X511716Y60512D01*
X511729Y60527D01*
X511768Y60623D01*
X511811Y60717D01*
X511813Y60737D01*
X511821Y60755D01*
X511839Y60922D01*
X511839Y118709D01*
X511829Y118774D01*
X511828Y118839D01*
X511805Y118919D01*
X511800Y118952D01*
X511790Y118969D01*
X511781Y119000D01*
X510339Y122482D01*
X510339Y127518D01*
X511247Y129709D01*
X511267Y129797D01*
X511296Y129884D01*
X511295Y129917D01*
X511303Y129948D01*
X511294Y130039D01*
X511293Y130130D01*
X511282Y130170D01*
X511280Y130193D01*
X511267Y130222D01*
X511247Y130291D01*
X510339Y132482D01*
X510339Y137518D01*
X511247Y139709D01*
X511267Y139797D01*
X511296Y139884D01*
X511295Y139917D01*
X511303Y139948D01*
X511294Y140039D01*
X511293Y140130D01*
X511282Y140170D01*
X511280Y140193D01*
X511267Y140222D01*
X511247Y140291D01*
X510339Y142482D01*
X510339Y147518D01*
X511247Y149709D01*
X511256Y149751D01*
X511271Y149783D01*
X511276Y149824D01*
X511296Y149884D01*
X511295Y149917D01*
X511303Y149948D01*
X511297Y150011D01*
X511299Y150028D01*
X511294Y150049D01*
X511293Y150130D01*
X511282Y150170D01*
X511280Y150193D01*
X511267Y150222D01*
X511247Y150291D01*
X510339Y152482D01*
X510339Y157518D01*
X511247Y159709D01*
X511267Y159797D01*
X511296Y159884D01*
X511295Y159917D01*
X511303Y159948D01*
X511294Y160039D01*
X511293Y160130D01*
X511282Y160170D01*
X511280Y160193D01*
X511267Y160222D01*
X511247Y160291D01*
X510339Y162482D01*
X510339Y167518D01*
X511247Y169709D01*
X511267Y169797D01*
X511296Y169884D01*
X511295Y169917D01*
X511303Y169948D01*
X511294Y170039D01*
X511293Y170130D01*
X511282Y170170D01*
X511280Y170193D01*
X511267Y170222D01*
X511247Y170291D01*
X510339Y172482D01*
X510339Y177518D01*
X511781Y181000D01*
X511796Y181064D01*
X511821Y181124D01*
X511830Y181207D01*
X511837Y181239D01*
X511836Y181259D01*
X511839Y181291D01*
X511839Y428709D01*
X511829Y428774D01*
X511828Y428839D01*
X511805Y428919D01*
X511800Y428952D01*
X511790Y428969D01*
X511781Y429000D01*
X510339Y432482D01*
X510339Y437518D01*
X511247Y439709D01*
X511267Y439797D01*
X511296Y439884D01*
X511295Y439917D01*
X511303Y439948D01*
X511294Y440039D01*
X511293Y440130D01*
X511282Y440170D01*
X511280Y440193D01*
X511267Y440222D01*
X511247Y440291D01*
X510339Y442482D01*
X510339Y447518D01*
X511247Y449709D01*
X511267Y449797D01*
X511296Y449884D01*
X511295Y449917D01*
X511303Y449948D01*
X511294Y450039D01*
X511293Y450130D01*
X511282Y450170D01*
X511280Y450193D01*
X511267Y450222D01*
X511247Y450291D01*
X510339Y452482D01*
X510339Y457518D01*
X511247Y459709D01*
X511267Y459797D01*
X511296Y459884D01*
X511295Y459917D01*
X511303Y459948D01*
X511294Y460039D01*
X511293Y460130D01*
X511282Y460170D01*
X511280Y460193D01*
X511267Y460222D01*
X511247Y460291D01*
X510339Y462482D01*
X510339Y467518D01*
X511247Y469709D01*
X511267Y469797D01*
X511296Y469884D01*
X511295Y469917D01*
X511303Y469948D01*
X511294Y470039D01*
X511293Y470130D01*
X511282Y470170D01*
X511280Y470193D01*
X511267Y470222D01*
X511247Y470291D01*
X510339Y472482D01*
X510339Y477518D01*
X511247Y479709D01*
X511267Y479797D01*
X511296Y479884D01*
X511295Y479917D01*
X511303Y479948D01*
X511294Y480039D01*
X511293Y480130D01*
X511282Y480170D01*
X511280Y480193D01*
X511267Y480222D01*
X511247Y480291D01*
X510339Y482482D01*
X510339Y487518D01*
X511781Y491000D01*
X511796Y491064D01*
X511821Y491124D01*
X511830Y491207D01*
X511837Y491239D01*
X511836Y491259D01*
X511839Y491291D01*
X511839Y701078D01*
X511836Y701098D01*
X511838Y701117D01*
X511816Y701219D01*
X511800Y701321D01*
X511790Y701338D01*
X511786Y701358D01*
X511733Y701447D01*
X511684Y701538D01*
X511670Y701552D01*
X511660Y701569D01*
X511581Y701636D01*
X511506Y701708D01*
X511488Y701716D01*
X511473Y701729D01*
X511377Y701768D01*
X511283Y701811D01*
X511263Y701813D01*
X511245Y701821D01*
X511078Y701839D01*
X407291Y701839D01*
X407226Y701829D01*
X407161Y701828D01*
X407081Y701805D01*
X407048Y701800D01*
X407031Y701790D01*
X407000Y701781D01*
X403518Y700339D01*
X398482Y700339D01*
X396291Y701247D01*
X396203Y701267D01*
X396116Y701296D01*
X396083Y701295D01*
X396052Y701303D01*
X395961Y701294D01*
X395870Y701293D01*
X395830Y701282D01*
X395807Y701280D01*
X395778Y701267D01*
X395709Y701247D01*
X393518Y700339D01*
X388482Y700339D01*
X386291Y701247D01*
X386203Y701267D01*
X386116Y701296D01*
X386083Y701295D01*
X386052Y701303D01*
X385961Y701294D01*
X385870Y701293D01*
X385830Y701282D01*
X385807Y701280D01*
X385778Y701267D01*
X385709Y701247D01*
X383518Y700339D01*
X378482Y700339D01*
X376291Y701247D01*
X376203Y701267D01*
X376116Y701296D01*
X376083Y701295D01*
X376052Y701303D01*
X375961Y701294D01*
X375870Y701293D01*
X375830Y701282D01*
X375807Y701280D01*
X375778Y701267D01*
X375709Y701247D01*
X373518Y700339D01*
X368482Y700339D01*
X366291Y701247D01*
X366203Y701267D01*
X366116Y701296D01*
X366083Y701295D01*
X366052Y701303D01*
X365961Y701294D01*
X365870Y701293D01*
X365830Y701282D01*
X365807Y701280D01*
X365778Y701267D01*
X365709Y701247D01*
X363518Y700339D01*
X358482Y700339D01*
X356291Y701247D01*
X356203Y701267D01*
X356116Y701296D01*
X356083Y701295D01*
X356052Y701303D01*
X355961Y701294D01*
X355870Y701293D01*
X355830Y701282D01*
X355807Y701280D01*
X355778Y701267D01*
X355709Y701247D01*
X353518Y700339D01*
X348482Y700339D01*
X345000Y701781D01*
X344936Y701796D01*
X344876Y701821D01*
X344793Y701830D01*
X344761Y701837D01*
X344741Y701836D01*
X344709Y701839D01*
X240922Y701839D01*
X240902Y701836D01*
X240883Y701838D01*
X240781Y701816D01*
X240679Y701800D01*
X240662Y701790D01*
X240642Y701786D01*
X240553Y701733D01*
X240462Y701684D01*
X240448Y701670D01*
X240431Y701660D01*
X240364Y701581D01*
X240292Y701506D01*
X240284Y701488D01*
X240271Y701473D01*
X240232Y701377D01*
X240189Y701283D01*
X240187Y701263D01*
X240179Y701245D01*
X240161Y701078D01*
X240161Y501291D01*
X240171Y501226D01*
X240172Y501161D01*
X240195Y501081D01*
X240200Y501048D01*
X240210Y501031D01*
X240219Y501000D01*
X241661Y497518D01*
X241661Y492482D01*
X240753Y490291D01*
X240733Y490203D01*
X240704Y490116D01*
X240705Y490083D01*
X240697Y490052D01*
X240706Y489961D01*
X240707Y489870D01*
X240718Y489830D01*
X240720Y489807D01*
X240733Y489778D01*
X240753Y489709D01*
X241661Y487518D01*
X241661Y482482D01*
X240753Y480291D01*
X240733Y480203D01*
X240704Y480116D01*
X240705Y480083D01*
X240697Y480052D01*
X240706Y479961D01*
X240707Y479870D01*
X240718Y479830D01*
X240720Y479807D01*
X240733Y479778D01*
X240753Y479709D01*
X241661Y477518D01*
X241661Y472482D01*
X240753Y470291D01*
X240733Y470203D01*
X240704Y470116D01*
X240705Y470083D01*
X240697Y470052D01*
X240706Y469961D01*
X240707Y469870D01*
X240718Y469830D01*
X240720Y469807D01*
X240733Y469778D01*
X240753Y469709D01*
X241661Y467518D01*
X241661Y462482D01*
X240753Y460291D01*
X240733Y460203D01*
X240704Y460116D01*
X240705Y460083D01*
X240697Y460052D01*
X240706Y459961D01*
X240707Y459870D01*
X240718Y459830D01*
X240720Y459807D01*
X240733Y459778D01*
X240753Y459709D01*
X241661Y457518D01*
X241661Y452482D01*
X240753Y450291D01*
X240733Y450203D01*
X240704Y450116D01*
X240705Y450083D01*
X240697Y450052D01*
X240706Y449961D01*
X240707Y449870D01*
X240718Y449830D01*
X240720Y449807D01*
X240733Y449778D01*
X240753Y449709D01*
X241661Y447518D01*
X241661Y442482D01*
X240219Y439000D01*
X240204Y438936D01*
X240179Y438876D01*
X240170Y438793D01*
X240163Y438761D01*
X240164Y438741D01*
X240161Y438709D01*
X240161Y181291D01*
X240171Y181226D01*
X240172Y181161D01*
X240195Y181081D01*
X240200Y181048D01*
X240210Y181031D01*
X240219Y181000D01*
X241661Y177518D01*
X241661Y172482D01*
X240753Y170291D01*
X240733Y170203D01*
X240704Y170116D01*
X240705Y170083D01*
X240697Y170052D01*
X240706Y169961D01*
X240707Y169870D01*
X240718Y169830D01*
X240720Y169807D01*
X240733Y169778D01*
X240753Y169709D01*
X241661Y167518D01*
X241661Y162482D01*
X240753Y160291D01*
X240733Y160203D01*
X240704Y160116D01*
X240705Y160083D01*
X240697Y160052D01*
X240706Y159961D01*
X240707Y159870D01*
X240718Y159830D01*
X240720Y159807D01*
X240733Y159778D01*
X240753Y159709D01*
X241661Y157518D01*
X241661Y152482D01*
X240753Y150291D01*
X240733Y150203D01*
X240732Y150201D01*
X240729Y150193D01*
X240728Y150188D01*
X240704Y150116D01*
X240705Y150083D01*
X240697Y150052D01*
X240704Y149976D01*
X240701Y149949D01*
X240706Y149927D01*
X240707Y149870D01*
X240718Y149830D01*
X240720Y149807D01*
X240733Y149778D01*
X240753Y149709D01*
X241661Y147518D01*
X241661Y142482D01*
X240753Y140291D01*
X240733Y140203D01*
X240704Y140116D01*
X240705Y140083D01*
X240697Y140052D01*
X240706Y139961D01*
X240707Y139870D01*
X240718Y139830D01*
X240720Y139807D01*
X240733Y139778D01*
X240753Y139709D01*
X241661Y137518D01*
X241661Y132482D01*
X240753Y130291D01*
X240733Y130203D01*
X240704Y130116D01*
X240705Y130083D01*
X240697Y130052D01*
X240706Y129961D01*
X240707Y129870D01*
X240718Y129830D01*
X240720Y129807D01*
X240733Y129778D01*
X240753Y129709D01*
X241661Y127518D01*
X241661Y122482D01*
X240219Y119000D01*
X240204Y118936D01*
X240179Y118876D01*
X240170Y118793D01*
X240163Y118761D01*
X240164Y118741D01*
X240161Y118709D01*
X240161Y60922D01*
X240164Y60902D01*
X240162Y60883D01*
X240184Y60781D01*
X240200Y60679D01*
X240210Y60662D01*
X240214Y60642D01*
X240267Y60553D01*
X240316Y60462D01*
X240330Y60448D01*
X240340Y60431D01*
X240419Y60364D01*
X240494Y60292D01*
X240512Y60284D01*
X240527Y60271D01*
X240623Y60232D01*
X240717Y60189D01*
X240737Y60187D01*
X240755Y60179D01*
X240922Y60161D01*
X341740Y60161D01*
X341831Y60175D01*
G37*
G36*
X774098Y60164D02*
X774098Y60164D01*
X774117Y60162D01*
X774219Y60184D01*
X774321Y60200D01*
X774338Y60210D01*
X774358Y60214D01*
X774447Y60267D01*
X774538Y60316D01*
X774552Y60330D01*
X774569Y60340D01*
X774636Y60419D01*
X774708Y60494D01*
X774716Y60512D01*
X774729Y60527D01*
X774768Y60623D01*
X774811Y60717D01*
X774813Y60737D01*
X774821Y60755D01*
X774839Y60922D01*
X774839Y117240D01*
X774825Y117331D01*
X774817Y117421D01*
X774805Y117451D01*
X774800Y117483D01*
X774757Y117564D01*
X774721Y117648D01*
X774695Y117680D01*
X774684Y117701D01*
X774661Y117723D01*
X774654Y117732D01*
X774646Y117745D01*
X774637Y117753D01*
X774616Y117779D01*
X774467Y117928D01*
X772539Y122582D01*
X772539Y127618D01*
X773447Y129809D01*
X773467Y129897D01*
X773496Y129984D01*
X773495Y130017D01*
X773503Y130048D01*
X773494Y130139D01*
X773493Y130230D01*
X773482Y130270D01*
X773480Y130293D01*
X773467Y130322D01*
X773447Y130391D01*
X772539Y132582D01*
X772539Y137618D01*
X773447Y139809D01*
X773457Y139852D01*
X773473Y139887D01*
X773478Y139929D01*
X773496Y139984D01*
X773495Y140017D01*
X773503Y140048D01*
X773497Y140106D01*
X773500Y140131D01*
X773494Y140160D01*
X773493Y140230D01*
X773482Y140270D01*
X773480Y140293D01*
X773467Y140322D01*
X773447Y140391D01*
X772539Y142582D01*
X772539Y147618D01*
X773447Y149809D01*
X773467Y149897D01*
X773496Y149984D01*
X773495Y150017D01*
X773503Y150048D01*
X773494Y150139D01*
X773493Y150230D01*
X773482Y150270D01*
X773480Y150293D01*
X773467Y150322D01*
X773447Y150391D01*
X772539Y152582D01*
X772539Y157618D01*
X773447Y159809D01*
X773467Y159897D01*
X773496Y159984D01*
X773495Y160017D01*
X773503Y160048D01*
X773494Y160139D01*
X773493Y160230D01*
X773482Y160270D01*
X773480Y160293D01*
X773467Y160322D01*
X773447Y160391D01*
X772539Y162582D01*
X772539Y167618D01*
X773447Y169809D01*
X773467Y169897D01*
X773496Y169984D01*
X773495Y170017D01*
X773503Y170048D01*
X773494Y170139D01*
X773493Y170230D01*
X773482Y170270D01*
X773480Y170293D01*
X773467Y170322D01*
X773447Y170391D01*
X772539Y172582D01*
X772539Y177618D01*
X774467Y182272D01*
X774616Y182421D01*
X774669Y182495D01*
X774729Y182565D01*
X774741Y182595D01*
X774760Y182621D01*
X774787Y182708D01*
X774821Y182793D01*
X774825Y182834D01*
X774832Y182856D01*
X774831Y182888D01*
X774839Y182960D01*
X774839Y429292D01*
X774829Y429356D01*
X774828Y429422D01*
X774805Y429502D01*
X774800Y429535D01*
X774790Y429552D01*
X774781Y429583D01*
X773539Y432582D01*
X773539Y437618D01*
X774447Y439809D01*
X774467Y439897D01*
X774496Y439984D01*
X774495Y440017D01*
X774503Y440048D01*
X774494Y440139D01*
X774493Y440230D01*
X774482Y440270D01*
X774480Y440293D01*
X774467Y440322D01*
X774447Y440391D01*
X773539Y442582D01*
X773539Y447618D01*
X774447Y449809D01*
X774467Y449897D01*
X774496Y449984D01*
X774495Y450017D01*
X774503Y450048D01*
X774494Y450139D01*
X774493Y450230D01*
X774482Y450270D01*
X774480Y450293D01*
X774467Y450322D01*
X774447Y450391D01*
X773539Y452582D01*
X773539Y457618D01*
X774447Y459809D01*
X774467Y459897D01*
X774496Y459984D01*
X774495Y460017D01*
X774503Y460048D01*
X774494Y460139D01*
X774493Y460230D01*
X774482Y460270D01*
X774480Y460293D01*
X774467Y460322D01*
X774447Y460391D01*
X773539Y462582D01*
X773539Y467618D01*
X774447Y469809D01*
X774467Y469897D01*
X774496Y469984D01*
X774495Y470017D01*
X774503Y470048D01*
X774494Y470139D01*
X774493Y470230D01*
X774482Y470270D01*
X774480Y470293D01*
X774467Y470322D01*
X774447Y470391D01*
X773539Y472582D01*
X773539Y477618D01*
X774447Y479809D01*
X774467Y479897D01*
X774496Y479984D01*
X774495Y480017D01*
X774503Y480048D01*
X774494Y480139D01*
X774493Y480230D01*
X774482Y480270D01*
X774480Y480293D01*
X774467Y480322D01*
X774447Y480391D01*
X773539Y482582D01*
X773539Y487618D01*
X774781Y490617D01*
X774796Y490681D01*
X774821Y490742D01*
X774830Y490824D01*
X774837Y490856D01*
X774836Y490876D01*
X774839Y490908D01*
X774839Y549078D01*
X774836Y549098D01*
X774838Y549117D01*
X774816Y549219D01*
X774800Y549321D01*
X774790Y549338D01*
X774786Y549358D01*
X774733Y549447D01*
X774684Y549538D01*
X774670Y549552D01*
X774660Y549569D01*
X774581Y549636D01*
X774506Y549708D01*
X774488Y549716D01*
X774473Y549729D01*
X774377Y549768D01*
X774283Y549811D01*
X774263Y549813D01*
X774245Y549821D01*
X774078Y549839D01*
X552922Y549839D01*
X552902Y549836D01*
X552883Y549838D01*
X552781Y549816D01*
X552679Y549800D01*
X552662Y549790D01*
X552642Y549786D01*
X552553Y549733D01*
X552462Y549684D01*
X552448Y549670D01*
X552431Y549660D01*
X552364Y549581D01*
X552292Y549506D01*
X552284Y549488D01*
X552271Y549473D01*
X552232Y549377D01*
X552189Y549283D01*
X552187Y549263D01*
X552179Y549245D01*
X552161Y549078D01*
X552161Y538394D01*
X552176Y538300D01*
X552185Y538205D01*
X552196Y538179D01*
X552200Y538151D01*
X552245Y538067D01*
X552283Y537980D01*
X552302Y537959D01*
X552316Y537934D01*
X552385Y537868D01*
X552449Y537798D01*
X552473Y537784D01*
X552494Y537764D01*
X552580Y537724D01*
X552664Y537678D01*
X552691Y537673D01*
X552717Y537661D01*
X552812Y537650D01*
X552905Y537633D01*
X552933Y537637D01*
X552961Y537634D01*
X553055Y537654D01*
X553149Y537667D01*
X553181Y537681D01*
X553202Y537686D01*
X553230Y537703D01*
X553303Y537735D01*
X553879Y538068D01*
X554526Y538241D01*
X578737Y538241D01*
X578737Y523762D01*
X578740Y523742D01*
X578738Y523723D01*
X578760Y523621D01*
X578777Y523519D01*
X578786Y523502D01*
X578790Y523482D01*
X578843Y523393D01*
X578892Y523302D01*
X578906Y523288D01*
X578916Y523271D01*
X578995Y523204D01*
X579070Y523133D01*
X579088Y523124D01*
X579103Y523111D01*
X579199Y523072D01*
X579293Y523029D01*
X579313Y523027D01*
X579331Y523019D01*
X579498Y523001D01*
X580261Y523001D01*
X580261Y522999D01*
X579498Y522999D01*
X579478Y522996D01*
X579459Y522998D01*
X579357Y522976D01*
X579255Y522959D01*
X579238Y522950D01*
X579218Y522946D01*
X579129Y522893D01*
X579038Y522844D01*
X579024Y522830D01*
X579007Y522820D01*
X578940Y522741D01*
X578869Y522666D01*
X578860Y522648D01*
X578847Y522633D01*
X578808Y522537D01*
X578765Y522443D01*
X578763Y522423D01*
X578755Y522405D01*
X578737Y522238D01*
X578737Y507759D01*
X554526Y507759D01*
X553879Y507932D01*
X553303Y508265D01*
X553213Y508299D01*
X553127Y508339D01*
X553099Y508342D01*
X553073Y508352D01*
X552977Y508356D01*
X552883Y508366D01*
X552855Y508360D01*
X552827Y508361D01*
X552735Y508334D01*
X552642Y508314D01*
X552618Y508300D01*
X552591Y508292D01*
X552513Y508237D01*
X552431Y508188D01*
X552413Y508166D01*
X552390Y508150D01*
X552333Y508074D01*
X552271Y508001D01*
X552261Y507975D01*
X552244Y507952D01*
X552215Y507862D01*
X552179Y507773D01*
X552175Y507738D01*
X552169Y507718D01*
X552169Y507685D01*
X552161Y507606D01*
X552161Y497395D01*
X552172Y497324D01*
X552174Y497252D01*
X552192Y497203D01*
X552200Y497152D01*
X552234Y497089D01*
X552259Y497021D01*
X552291Y496981D01*
X552316Y496935D01*
X552368Y496885D01*
X552412Y496829D01*
X552456Y496801D01*
X552494Y496765D01*
X552559Y496735D01*
X552619Y496696D01*
X552670Y496684D01*
X552717Y496662D01*
X552788Y496654D01*
X552858Y496636D01*
X552910Y496640D01*
X552961Y496635D01*
X553032Y496650D01*
X553103Y496655D01*
X553151Y496676D01*
X553202Y496687D01*
X553263Y496724D01*
X553329Y496752D01*
X553385Y496797D01*
X553413Y496813D01*
X553428Y496831D01*
X553460Y496857D01*
X554228Y497625D01*
X606292Y497625D01*
X607185Y496732D01*
X607185Y480527D01*
X607196Y480457D01*
X607198Y480385D01*
X607216Y480336D01*
X607224Y480285D01*
X607258Y480221D01*
X607283Y480154D01*
X607315Y480113D01*
X607340Y480067D01*
X607392Y480018D01*
X607436Y479962D01*
X607480Y479934D01*
X607518Y479898D01*
X607583Y479868D01*
X607643Y479829D01*
X607694Y479816D01*
X607741Y479794D01*
X607812Y479786D01*
X607882Y479769D01*
X607934Y479773D01*
X607985Y479767D01*
X608056Y479782D01*
X608127Y479788D01*
X608175Y479808D01*
X608226Y479819D01*
X608287Y479856D01*
X608353Y479884D01*
X608409Y479929D01*
X608437Y479946D01*
X608452Y479963D01*
X608484Y479989D01*
X610452Y481957D01*
X614848Y481957D01*
X617957Y478848D01*
X617957Y474452D01*
X615160Y471655D01*
X615107Y471581D01*
X615047Y471511D01*
X615035Y471481D01*
X615016Y471455D01*
X614989Y471368D01*
X614955Y471283D01*
X614951Y471242D01*
X614944Y471220D01*
X614945Y471188D01*
X614937Y471117D01*
X614937Y409603D01*
X607408Y402074D01*
X607355Y402000D01*
X607295Y401930D01*
X607283Y401900D01*
X607264Y401874D01*
X607237Y401787D01*
X607203Y401702D01*
X607199Y401661D01*
X607192Y401639D01*
X607193Y401607D01*
X607185Y401535D01*
X607185Y390868D01*
X606292Y389975D01*
X554228Y389975D01*
X553460Y390743D01*
X553402Y390785D01*
X553350Y390835D01*
X553303Y390857D01*
X553261Y390887D01*
X553192Y390908D01*
X553127Y390938D01*
X553075Y390944D01*
X553025Y390959D01*
X552954Y390957D01*
X552883Y390965D01*
X552832Y390954D01*
X552780Y390953D01*
X552712Y390928D01*
X552642Y390913D01*
X552597Y390886D01*
X552549Y390869D01*
X552493Y390824D01*
X552431Y390787D01*
X552397Y390747D01*
X552357Y390715D01*
X552318Y390655D01*
X552271Y390600D01*
X552252Y390552D01*
X552224Y390508D01*
X552206Y390438D01*
X552179Y390372D01*
X552171Y390301D01*
X552163Y390269D01*
X552165Y390246D01*
X552161Y390205D01*
X552161Y378595D01*
X552172Y378524D01*
X552174Y378452D01*
X552192Y378403D01*
X552200Y378352D01*
X552234Y378289D01*
X552259Y378221D01*
X552291Y378181D01*
X552316Y378135D01*
X552368Y378085D01*
X552412Y378029D01*
X552456Y378001D01*
X552494Y377965D01*
X552559Y377935D01*
X552619Y377896D01*
X552670Y377884D01*
X552717Y377862D01*
X552788Y377854D01*
X552858Y377836D01*
X552910Y377840D01*
X552961Y377835D01*
X553032Y377850D01*
X553103Y377855D01*
X553151Y377876D01*
X553202Y377887D01*
X553263Y377924D01*
X553329Y377952D01*
X553385Y377997D01*
X553413Y378013D01*
X553428Y378031D01*
X553460Y378057D01*
X554228Y378825D01*
X606292Y378825D01*
X607185Y377932D01*
X607185Y367938D01*
X607188Y367918D01*
X607186Y367899D01*
X607208Y367797D01*
X607224Y367695D01*
X607234Y367678D01*
X607238Y367658D01*
X607291Y367569D01*
X607340Y367478D01*
X607354Y367464D01*
X607364Y367447D01*
X607443Y367380D01*
X607518Y367308D01*
X607536Y367300D01*
X607551Y367287D01*
X607647Y367248D01*
X607741Y367205D01*
X607761Y367203D01*
X607779Y367195D01*
X607946Y367177D01*
X609787Y367177D01*
X619244Y357720D01*
X619318Y357667D01*
X619388Y357607D01*
X619418Y357595D01*
X619444Y357576D01*
X619531Y357549D01*
X619616Y357515D01*
X619657Y357511D01*
X619679Y357504D01*
X619711Y357505D01*
X619783Y357497D01*
X623738Y357497D01*
X626847Y354388D01*
X626847Y349992D01*
X623727Y346872D01*
X623655Y346870D01*
X623606Y346852D01*
X623555Y346844D01*
X623492Y346810D01*
X623424Y346785D01*
X623384Y346753D01*
X623338Y346728D01*
X623288Y346676D01*
X623232Y346632D01*
X623204Y346588D01*
X623168Y346550D01*
X623138Y346485D01*
X623099Y346425D01*
X623087Y346374D01*
X623065Y346327D01*
X623057Y346256D01*
X623039Y346186D01*
X623043Y346134D01*
X623038Y346083D01*
X623053Y346012D01*
X623058Y345941D01*
X623079Y345893D01*
X623090Y345842D01*
X623127Y345781D01*
X623155Y345715D01*
X623200Y345659D01*
X623216Y345631D01*
X623234Y345616D01*
X623260Y345584D01*
X623826Y345017D01*
X623826Y341062D01*
X623829Y341042D01*
X623827Y341023D01*
X623842Y340953D01*
X623848Y340881D01*
X623860Y340851D01*
X623866Y340819D01*
X623875Y340801D01*
X623879Y340782D01*
X623916Y340721D01*
X623944Y340654D01*
X623970Y340622D01*
X623981Y340602D01*
X623996Y340588D01*
X624005Y340571D01*
X624023Y340556D01*
X624049Y340523D01*
X647164Y317409D01*
X647222Y317367D01*
X647274Y317317D01*
X647321Y317295D01*
X647363Y317265D01*
X647432Y317244D01*
X647497Y317214D01*
X647549Y317208D01*
X647599Y317193D01*
X647670Y317195D01*
X647741Y317187D01*
X647792Y317198D01*
X647844Y317199D01*
X647912Y317224D01*
X647982Y317239D01*
X648027Y317266D01*
X648075Y317284D01*
X648131Y317328D01*
X648193Y317365D01*
X648227Y317405D01*
X648267Y317437D01*
X648306Y317498D01*
X648353Y317552D01*
X648372Y317600D01*
X648400Y317644D01*
X648418Y317714D01*
X648445Y317780D01*
X648453Y317852D01*
X648461Y317883D01*
X648459Y317906D01*
X648463Y317947D01*
X648463Y354277D01*
X648449Y354367D01*
X648441Y354458D01*
X648429Y354487D01*
X648424Y354519D01*
X648381Y354600D01*
X648345Y354684D01*
X648319Y354716D01*
X648308Y354737D01*
X648285Y354759D01*
X648240Y354815D01*
X645443Y357612D01*
X645443Y362008D01*
X648552Y365117D01*
X652948Y365117D01*
X653730Y364335D01*
X653788Y364293D01*
X653840Y364244D01*
X653887Y364222D01*
X653929Y364192D01*
X653998Y364170D01*
X654063Y364140D01*
X654115Y364135D01*
X654165Y364119D01*
X654236Y364121D01*
X654307Y364113D01*
X654358Y364124D01*
X654410Y364126D01*
X654478Y364150D01*
X654548Y364165D01*
X654593Y364192D01*
X654641Y364210D01*
X654697Y364255D01*
X654759Y364292D01*
X654793Y364331D01*
X654833Y364364D01*
X654872Y364424D01*
X654919Y364479D01*
X654938Y364527D01*
X654966Y364571D01*
X654984Y364640D01*
X655011Y364707D01*
X655019Y364778D01*
X655027Y364809D01*
X655025Y364832D01*
X655029Y364873D01*
X655029Y398971D01*
X655015Y399062D01*
X655007Y399152D01*
X654995Y399182D01*
X654990Y399214D01*
X654947Y399295D01*
X654911Y399379D01*
X654885Y399411D01*
X654874Y399432D01*
X654851Y399454D01*
X654806Y399510D01*
X653046Y401270D01*
X652972Y401323D01*
X652902Y401383D01*
X652872Y401395D01*
X652846Y401414D01*
X652759Y401441D01*
X652674Y401475D01*
X652633Y401479D01*
X652611Y401486D01*
X652579Y401485D01*
X652507Y401493D01*
X648552Y401493D01*
X645443Y404602D01*
X645443Y408998D01*
X648552Y412107D01*
X652948Y412107D01*
X656057Y408998D01*
X656057Y405043D01*
X656071Y404952D01*
X656079Y404862D01*
X656091Y404832D01*
X656096Y404800D01*
X656139Y404719D01*
X656175Y404635D01*
X656201Y404603D01*
X656212Y404582D01*
X656235Y404560D01*
X656280Y404504D01*
X659603Y401181D01*
X659603Y291683D01*
X659617Y291593D01*
X659625Y291502D01*
X659637Y291473D01*
X659642Y291441D01*
X659685Y291360D01*
X659721Y291276D01*
X659747Y291244D01*
X659758Y291223D01*
X659781Y291201D01*
X659826Y291145D01*
X662623Y288348D01*
X662623Y283952D01*
X659514Y280843D01*
X655118Y280843D01*
X654336Y281625D01*
X654278Y281667D01*
X654226Y281716D01*
X654179Y281738D01*
X654137Y281768D01*
X654068Y281790D01*
X654003Y281820D01*
X653951Y281825D01*
X653901Y281841D01*
X653830Y281839D01*
X653759Y281847D01*
X653708Y281836D01*
X653656Y281834D01*
X653588Y281810D01*
X653518Y281795D01*
X653473Y281768D01*
X653425Y281750D01*
X653369Y281705D01*
X653307Y281668D01*
X653273Y281629D01*
X653233Y281596D01*
X653194Y281536D01*
X653147Y281481D01*
X653128Y281433D01*
X653100Y281389D01*
X653082Y281320D01*
X653055Y281253D01*
X653047Y281182D01*
X653039Y281151D01*
X653041Y281128D01*
X653037Y281087D01*
X653037Y231993D01*
X653051Y231903D01*
X653059Y231812D01*
X653071Y231783D01*
X653076Y231751D01*
X653119Y231670D01*
X653155Y231586D01*
X653181Y231554D01*
X653192Y231533D01*
X653215Y231511D01*
X653260Y231455D01*
X656057Y228658D01*
X656057Y224262D01*
X652948Y221153D01*
X648889Y221153D01*
X648819Y221142D01*
X648747Y221140D01*
X648698Y221122D01*
X648647Y221114D01*
X648583Y221080D01*
X648516Y221055D01*
X648475Y221023D01*
X648429Y220998D01*
X648380Y220946D01*
X648324Y220902D01*
X648296Y220858D01*
X648260Y220820D01*
X648230Y220755D01*
X648191Y220695D01*
X648178Y220644D01*
X648156Y220597D01*
X648148Y220526D01*
X648131Y220456D01*
X648135Y220404D01*
X648129Y220353D01*
X648144Y220282D01*
X648150Y220211D01*
X648170Y220163D01*
X648181Y220112D01*
X648218Y220051D01*
X648246Y219985D01*
X648291Y219929D01*
X648308Y219901D01*
X648325Y219886D01*
X648351Y219854D01*
X649707Y218498D01*
X649707Y214102D01*
X646598Y210993D01*
X642202Y210993D01*
X639093Y214102D01*
X639093Y214812D01*
X639082Y214882D01*
X639080Y214954D01*
X639062Y215003D01*
X639054Y215054D01*
X639020Y215118D01*
X638995Y215185D01*
X638963Y215226D01*
X638938Y215272D01*
X638886Y215321D01*
X638842Y215377D01*
X638798Y215405D01*
X638760Y215441D01*
X638695Y215471D01*
X638635Y215510D01*
X638584Y215523D01*
X638537Y215545D01*
X638466Y215553D01*
X638396Y215570D01*
X638344Y215566D01*
X638293Y215572D01*
X638222Y215557D01*
X638151Y215551D01*
X638103Y215531D01*
X638052Y215520D01*
X637991Y215483D01*
X637925Y215455D01*
X637869Y215410D01*
X637841Y215393D01*
X637826Y215376D01*
X637794Y215350D01*
X626357Y203913D01*
X607946Y203913D01*
X607926Y203910D01*
X607907Y203912D01*
X607805Y203890D01*
X607703Y203874D01*
X607686Y203864D01*
X607666Y203860D01*
X607577Y203807D01*
X607486Y203758D01*
X607472Y203744D01*
X607455Y203734D01*
X607388Y203655D01*
X607316Y203580D01*
X607308Y203562D01*
X607295Y203547D01*
X607256Y203451D01*
X607213Y203357D01*
X607211Y203337D01*
X607203Y203319D01*
X607185Y203152D01*
X607185Y192868D01*
X606292Y191975D01*
X554228Y191975D01*
X553460Y192743D01*
X553402Y192785D01*
X553350Y192835D01*
X553303Y192857D01*
X553261Y192887D01*
X553192Y192908D01*
X553127Y192938D01*
X553075Y192944D01*
X553025Y192959D01*
X552954Y192957D01*
X552883Y192965D01*
X552832Y192954D01*
X552780Y192953D01*
X552712Y192928D01*
X552642Y192913D01*
X552597Y192886D01*
X552549Y192869D01*
X552493Y192824D01*
X552431Y192787D01*
X552397Y192747D01*
X552357Y192715D01*
X552318Y192655D01*
X552271Y192600D01*
X552252Y192552D01*
X552224Y192508D01*
X552206Y192438D01*
X552179Y192372D01*
X552171Y192301D01*
X552163Y192269D01*
X552165Y192246D01*
X552161Y192205D01*
X552161Y183360D01*
X552175Y183269D01*
X552183Y183179D01*
X552195Y183149D01*
X552200Y183117D01*
X552243Y183036D01*
X552279Y182952D01*
X552305Y182920D01*
X552316Y182899D01*
X552339Y182877D01*
X552384Y182821D01*
X552933Y182272D01*
X553338Y181295D01*
X553399Y181195D01*
X553459Y181095D01*
X553464Y181091D01*
X553468Y181086D01*
X553558Y181011D01*
X553646Y180935D01*
X553652Y180933D01*
X553657Y180929D01*
X553765Y180887D01*
X553875Y180843D01*
X553882Y180842D01*
X553887Y180841D01*
X553905Y180840D01*
X554041Y180825D01*
X606292Y180825D01*
X607185Y179932D01*
X607185Y169648D01*
X607188Y169628D01*
X607186Y169609D01*
X607208Y169507D01*
X607224Y169405D01*
X607234Y169388D01*
X607238Y169368D01*
X607291Y169279D01*
X607340Y169188D01*
X607354Y169174D01*
X607364Y169157D01*
X607443Y169090D01*
X607518Y169018D01*
X607536Y169010D01*
X607551Y168997D01*
X607647Y168958D01*
X607741Y168915D01*
X607761Y168913D01*
X607779Y168905D01*
X607946Y168887D01*
X640691Y168887D01*
X670225Y139353D01*
X670319Y139285D01*
X670414Y139215D01*
X670420Y139213D01*
X670425Y139209D01*
X670536Y139175D01*
X670648Y139139D01*
X670654Y139139D01*
X670660Y139137D01*
X670777Y139140D01*
X670894Y139141D01*
X670901Y139143D01*
X670906Y139143D01*
X670923Y139150D01*
X671055Y139188D01*
X674485Y140609D01*
X678831Y140609D01*
X682845Y138946D01*
X685918Y135873D01*
X687339Y132443D01*
X687400Y132343D01*
X687460Y132243D01*
X687465Y132239D01*
X687468Y132234D01*
X687558Y132159D01*
X687647Y132083D01*
X687653Y132081D01*
X687658Y132077D01*
X687766Y132035D01*
X687875Y131991D01*
X687883Y131990D01*
X687888Y131989D01*
X687906Y131988D01*
X688042Y131973D01*
X730298Y131973D01*
X730413Y131992D01*
X730529Y132009D01*
X730534Y132011D01*
X730541Y132012D01*
X730643Y132067D01*
X730748Y132120D01*
X730752Y132125D01*
X730758Y132128D01*
X730838Y132212D01*
X730920Y132296D01*
X730924Y132302D01*
X730927Y132306D01*
X730935Y132323D01*
X731001Y132443D01*
X732422Y135873D01*
X735495Y138946D01*
X739509Y140609D01*
X743855Y140609D01*
X747869Y138946D01*
X750942Y135873D01*
X752605Y131859D01*
X752605Y127513D01*
X750942Y123499D01*
X747869Y120426D01*
X743855Y118763D01*
X739509Y118763D01*
X735495Y120426D01*
X732422Y123499D01*
X731001Y126929D01*
X730940Y127029D01*
X730880Y127129D01*
X730875Y127133D01*
X730872Y127138D01*
X730782Y127213D01*
X730693Y127289D01*
X730687Y127291D01*
X730682Y127295D01*
X730574Y127337D01*
X730465Y127381D01*
X730457Y127382D01*
X730452Y127383D01*
X730434Y127384D01*
X730298Y127399D01*
X688042Y127399D01*
X687927Y127380D01*
X687811Y127363D01*
X687806Y127361D01*
X687799Y127360D01*
X687697Y127305D01*
X687592Y127252D01*
X687588Y127247D01*
X687582Y127244D01*
X687502Y127160D01*
X687420Y127076D01*
X687416Y127070D01*
X687413Y127066D01*
X687405Y127049D01*
X687339Y126929D01*
X685918Y123499D01*
X682845Y120426D01*
X678831Y118763D01*
X674485Y118763D01*
X670471Y120426D01*
X667398Y123499D01*
X665735Y127513D01*
X665735Y131859D01*
X667156Y135289D01*
X667183Y135403D01*
X667211Y135516D01*
X667211Y135523D01*
X667212Y135529D01*
X667201Y135645D01*
X667192Y135762D01*
X667190Y135767D01*
X667189Y135774D01*
X667141Y135881D01*
X667096Y135988D01*
X667091Y135994D01*
X667089Y135998D01*
X667077Y136012D01*
X666991Y136119D01*
X639020Y164090D01*
X638946Y164143D01*
X638876Y164203D01*
X638846Y164215D01*
X638820Y164234D01*
X638733Y164261D01*
X638648Y164295D01*
X638607Y164299D01*
X638585Y164306D01*
X638553Y164305D01*
X638481Y164313D01*
X607946Y164313D01*
X607926Y164310D01*
X607907Y164312D01*
X607805Y164290D01*
X607703Y164274D01*
X607686Y164264D01*
X607666Y164260D01*
X607577Y164207D01*
X607486Y164158D01*
X607472Y164144D01*
X607455Y164134D01*
X607388Y164055D01*
X607316Y163980D01*
X607308Y163962D01*
X607295Y163947D01*
X607256Y163851D01*
X607213Y163757D01*
X607211Y163737D01*
X607203Y163719D01*
X607185Y163552D01*
X607185Y153268D01*
X606292Y152375D01*
X555284Y152375D01*
X555169Y152356D01*
X555053Y152339D01*
X555047Y152337D01*
X555041Y152336D01*
X554939Y152281D01*
X554834Y152228D01*
X554829Y152223D01*
X554824Y152220D01*
X554744Y152136D01*
X554661Y152052D01*
X554658Y152046D01*
X554654Y152042D01*
X554647Y152025D01*
X554581Y151905D01*
X553953Y150391D01*
X553933Y150303D01*
X553904Y150216D01*
X553905Y150183D01*
X553897Y150152D01*
X553906Y150061D01*
X553907Y149970D01*
X553918Y149930D01*
X553920Y149907D01*
X553933Y149878D01*
X553953Y149809D01*
X554861Y147618D01*
X554861Y142582D01*
X554735Y142277D01*
X554724Y142233D01*
X554705Y142191D01*
X554696Y142114D01*
X554679Y142038D01*
X554683Y141992D01*
X554678Y141947D01*
X554694Y141870D01*
X554702Y141793D01*
X554720Y141751D01*
X554730Y141706D01*
X554770Y141639D01*
X554802Y141568D01*
X554833Y141534D01*
X554856Y141495D01*
X554915Y141444D01*
X554968Y141387D01*
X555008Y141365D01*
X555043Y141335D01*
X555115Y141306D01*
X555184Y141269D01*
X555229Y141260D01*
X555271Y141243D01*
X555407Y141228D01*
X555426Y141225D01*
X555431Y141226D01*
X555438Y141225D01*
X606292Y141225D01*
X607185Y140332D01*
X607185Y123698D01*
X607188Y123678D01*
X607186Y123659D01*
X607208Y123557D01*
X607224Y123455D01*
X607234Y123438D01*
X607238Y123418D01*
X607291Y123329D01*
X607340Y123238D01*
X607354Y123224D01*
X607364Y123207D01*
X607443Y123140D01*
X607518Y123068D01*
X607536Y123060D01*
X607551Y123047D01*
X607647Y123008D01*
X607741Y122965D01*
X607761Y122963D01*
X607779Y122955D01*
X607946Y122937D01*
X610667Y122937D01*
X610757Y122951D01*
X610848Y122959D01*
X610877Y122971D01*
X610909Y122976D01*
X610990Y123019D01*
X611074Y123055D01*
X611106Y123081D01*
X611127Y123092D01*
X611149Y123115D01*
X611205Y123160D01*
X614002Y125957D01*
X618398Y125957D01*
X621507Y122848D01*
X621507Y118452D01*
X618398Y115343D01*
X614002Y115343D01*
X611205Y118140D01*
X611131Y118193D01*
X611061Y118253D01*
X611031Y118265D01*
X611005Y118284D01*
X610918Y118311D01*
X610833Y118345D01*
X610792Y118349D01*
X610770Y118356D01*
X610738Y118355D01*
X610667Y118363D01*
X607946Y118363D01*
X607926Y118360D01*
X607907Y118362D01*
X607805Y118340D01*
X607703Y118324D01*
X607686Y118314D01*
X607666Y118310D01*
X607577Y118257D01*
X607486Y118208D01*
X607472Y118194D01*
X607455Y118184D01*
X607388Y118105D01*
X607316Y118030D01*
X607308Y118012D01*
X607295Y117997D01*
X607256Y117901D01*
X607213Y117807D01*
X607211Y117787D01*
X607203Y117769D01*
X607185Y117602D01*
X607185Y113668D01*
X606292Y112775D01*
X554228Y112775D01*
X553460Y113543D01*
X553402Y113585D01*
X553350Y113635D01*
X553303Y113657D01*
X553261Y113687D01*
X553192Y113708D01*
X553127Y113738D01*
X553075Y113744D01*
X553025Y113759D01*
X552954Y113757D01*
X552883Y113765D01*
X552832Y113754D01*
X552780Y113753D01*
X552712Y113728D01*
X552642Y113713D01*
X552597Y113686D01*
X552549Y113669D01*
X552493Y113624D01*
X552431Y113587D01*
X552397Y113547D01*
X552357Y113515D01*
X552318Y113455D01*
X552271Y113400D01*
X552252Y113352D01*
X552224Y113308D01*
X552206Y113238D01*
X552179Y113172D01*
X552171Y113101D01*
X552163Y113069D01*
X552165Y113046D01*
X552161Y113005D01*
X552161Y102794D01*
X552176Y102700D01*
X552185Y102605D01*
X552196Y102579D01*
X552200Y102551D01*
X552245Y102467D01*
X552283Y102380D01*
X552302Y102359D01*
X552316Y102334D01*
X552385Y102268D01*
X552449Y102198D01*
X552473Y102184D01*
X552494Y102164D01*
X552580Y102124D01*
X552664Y102078D01*
X552691Y102073D01*
X552717Y102061D01*
X552812Y102050D01*
X552905Y102033D01*
X552933Y102037D01*
X552961Y102034D01*
X553055Y102054D01*
X553149Y102067D01*
X553181Y102081D01*
X553202Y102086D01*
X553230Y102103D01*
X553303Y102135D01*
X553879Y102468D01*
X554526Y102641D01*
X578737Y102641D01*
X578737Y88162D01*
X578740Y88142D01*
X578738Y88123D01*
X578760Y88021D01*
X578777Y87919D01*
X578786Y87902D01*
X578790Y87882D01*
X578843Y87793D01*
X578892Y87702D01*
X578906Y87688D01*
X578916Y87671D01*
X578995Y87604D01*
X579070Y87533D01*
X579088Y87524D01*
X579103Y87511D01*
X579199Y87472D01*
X579293Y87429D01*
X579313Y87427D01*
X579331Y87419D01*
X579498Y87401D01*
X580261Y87401D01*
X580261Y87399D01*
X579498Y87399D01*
X579478Y87396D01*
X579459Y87398D01*
X579357Y87376D01*
X579255Y87359D01*
X579238Y87350D01*
X579218Y87346D01*
X579129Y87293D01*
X579038Y87244D01*
X579024Y87230D01*
X579007Y87220D01*
X578940Y87141D01*
X578869Y87066D01*
X578860Y87048D01*
X578847Y87033D01*
X578808Y86937D01*
X578765Y86843D01*
X578763Y86823D01*
X578755Y86805D01*
X578737Y86638D01*
X578737Y72159D01*
X554526Y72159D01*
X553879Y72332D01*
X553303Y72665D01*
X553213Y72699D01*
X553127Y72739D01*
X553099Y72742D01*
X553073Y72752D01*
X552977Y72756D01*
X552883Y72766D01*
X552855Y72760D01*
X552827Y72761D01*
X552735Y72734D01*
X552642Y72714D01*
X552618Y72700D01*
X552591Y72692D01*
X552513Y72637D01*
X552431Y72588D01*
X552413Y72566D01*
X552390Y72550D01*
X552333Y72474D01*
X552271Y72401D01*
X552261Y72375D01*
X552244Y72352D01*
X552215Y72262D01*
X552179Y72173D01*
X552175Y72138D01*
X552169Y72118D01*
X552169Y72085D01*
X552161Y72006D01*
X552161Y60922D01*
X552164Y60902D01*
X552162Y60883D01*
X552184Y60781D01*
X552200Y60679D01*
X552210Y60662D01*
X552214Y60642D01*
X552267Y60553D01*
X552316Y60462D01*
X552330Y60448D01*
X552340Y60431D01*
X552419Y60364D01*
X552494Y60292D01*
X552512Y60284D01*
X552527Y60271D01*
X552623Y60232D01*
X552717Y60189D01*
X552737Y60187D01*
X552755Y60179D01*
X552922Y60161D01*
X774078Y60161D01*
X774098Y60164D01*
G37*
G36*
X199098Y60164D02*
X199098Y60164D01*
X199117Y60162D01*
X199219Y60184D01*
X199321Y60200D01*
X199338Y60210D01*
X199358Y60214D01*
X199447Y60267D01*
X199538Y60316D01*
X199552Y60330D01*
X199569Y60340D01*
X199636Y60419D01*
X199708Y60494D01*
X199716Y60512D01*
X199729Y60527D01*
X199768Y60623D01*
X199811Y60717D01*
X199813Y60737D01*
X199821Y60755D01*
X199839Y60922D01*
X199839Y118709D01*
X199829Y118774D01*
X199828Y118839D01*
X199805Y118919D01*
X199800Y118952D01*
X199790Y118969D01*
X199781Y119000D01*
X198339Y122482D01*
X198339Y127518D01*
X199247Y129709D01*
X199267Y129797D01*
X199296Y129884D01*
X199295Y129917D01*
X199303Y129948D01*
X199294Y130039D01*
X199293Y130130D01*
X199282Y130170D01*
X199280Y130193D01*
X199267Y130222D01*
X199247Y130291D01*
X198339Y132482D01*
X198339Y137518D01*
X199247Y139709D01*
X199267Y139797D01*
X199296Y139884D01*
X199295Y139917D01*
X199303Y139948D01*
X199294Y140039D01*
X199293Y140130D01*
X199282Y140170D01*
X199280Y140193D01*
X199267Y140222D01*
X199247Y140291D01*
X198339Y142482D01*
X198339Y147518D01*
X199247Y149709D01*
X199256Y149751D01*
X199271Y149783D01*
X199276Y149824D01*
X199296Y149884D01*
X199295Y149917D01*
X199303Y149948D01*
X199297Y150011D01*
X199299Y150028D01*
X199294Y150049D01*
X199293Y150130D01*
X199282Y150170D01*
X199280Y150193D01*
X199267Y150222D01*
X199247Y150291D01*
X198339Y152482D01*
X198339Y157518D01*
X199247Y159709D01*
X199267Y159797D01*
X199296Y159884D01*
X199295Y159917D01*
X199303Y159948D01*
X199294Y160039D01*
X199293Y160130D01*
X199282Y160170D01*
X199280Y160193D01*
X199267Y160222D01*
X199247Y160291D01*
X198339Y162482D01*
X198339Y167518D01*
X199247Y169709D01*
X199267Y169797D01*
X199296Y169884D01*
X199295Y169917D01*
X199303Y169948D01*
X199294Y170039D01*
X199293Y170130D01*
X199282Y170170D01*
X199280Y170193D01*
X199267Y170222D01*
X199247Y170291D01*
X198339Y172482D01*
X198339Y177518D01*
X199781Y181000D01*
X199796Y181064D01*
X199821Y181124D01*
X199830Y181207D01*
X199837Y181239D01*
X199836Y181259D01*
X199839Y181291D01*
X199839Y366688D01*
X199828Y366758D01*
X199826Y366830D01*
X199808Y366879D01*
X199800Y366930D01*
X199766Y366994D01*
X199741Y367061D01*
X199709Y367102D01*
X199684Y367148D01*
X199632Y367197D01*
X199588Y367253D01*
X199544Y367281D01*
X199506Y367317D01*
X199441Y367347D01*
X199381Y367386D01*
X199330Y367399D01*
X199283Y367421D01*
X199212Y367429D01*
X199142Y367446D01*
X199090Y367442D01*
X199039Y367448D01*
X198968Y367433D01*
X198897Y367427D01*
X198849Y367407D01*
X198798Y367396D01*
X198737Y367359D01*
X198671Y367331D01*
X198615Y367286D01*
X198587Y367269D01*
X198572Y367252D01*
X198540Y367226D01*
X102747Y271433D01*
X93480Y271433D01*
X93365Y271414D01*
X93249Y271397D01*
X93243Y271395D01*
X93237Y271394D01*
X93134Y271339D01*
X93029Y271286D01*
X93025Y271281D01*
X93020Y271278D01*
X92940Y271194D01*
X92857Y271110D01*
X92854Y271104D01*
X92850Y271100D01*
X92842Y271083D01*
X92776Y270963D01*
X91773Y268540D01*
X89200Y265967D01*
X85839Y264575D01*
X66961Y264575D01*
X63600Y265967D01*
X61460Y268107D01*
X61402Y268149D01*
X61350Y268198D01*
X61303Y268220D01*
X61261Y268251D01*
X61192Y268272D01*
X61127Y268302D01*
X61075Y268308D01*
X61025Y268323D01*
X60954Y268321D01*
X60883Y268329D01*
X60832Y268318D01*
X60780Y268317D01*
X60712Y268292D01*
X60642Y268277D01*
X60597Y268250D01*
X60549Y268232D01*
X60493Y268187D01*
X60431Y268151D01*
X60397Y268111D01*
X60357Y268079D01*
X60318Y268018D01*
X60271Y267964D01*
X60252Y267915D01*
X60224Y267872D01*
X60206Y267802D01*
X60179Y267736D01*
X60171Y267664D01*
X60163Y267633D01*
X60165Y267610D01*
X60161Y267569D01*
X60161Y254471D01*
X60172Y254400D01*
X60174Y254329D01*
X60192Y254280D01*
X60200Y254228D01*
X60234Y254165D01*
X60259Y254098D01*
X60291Y254057D01*
X60316Y254011D01*
X60368Y253962D01*
X60412Y253906D01*
X60456Y253877D01*
X60494Y253842D01*
X60559Y253811D01*
X60619Y253773D01*
X60670Y253760D01*
X60717Y253738D01*
X60788Y253730D01*
X60858Y253713D01*
X60910Y253717D01*
X60961Y253711D01*
X61032Y253726D01*
X61103Y253732D01*
X61151Y253752D01*
X61202Y253763D01*
X61263Y253800D01*
X61329Y253828D01*
X61385Y253873D01*
X61413Y253889D01*
X61428Y253907D01*
X61460Y253933D01*
X63600Y256073D01*
X66961Y257465D01*
X85839Y257465D01*
X89200Y256073D01*
X91773Y253500D01*
X92776Y251077D01*
X92838Y250977D01*
X92898Y250877D01*
X92903Y250873D01*
X92906Y250868D01*
X92996Y250793D01*
X93085Y250717D01*
X93091Y250715D01*
X93095Y250711D01*
X93204Y250669D01*
X93313Y250625D01*
X93320Y250624D01*
X93325Y250623D01*
X93343Y250622D01*
X93480Y250607D01*
X135637Y250607D01*
X135727Y250621D01*
X135818Y250629D01*
X135847Y250641D01*
X135879Y250646D01*
X135960Y250689D01*
X136044Y250725D01*
X136076Y250751D01*
X136097Y250762D01*
X136119Y250785D01*
X136175Y250830D01*
X138972Y253627D01*
X143368Y253627D01*
X146477Y250518D01*
X146477Y246122D01*
X143368Y243013D01*
X138972Y243013D01*
X136175Y245810D01*
X136101Y245863D01*
X136031Y245923D01*
X136001Y245935D01*
X135975Y245954D01*
X135888Y245981D01*
X135803Y246015D01*
X135762Y246019D01*
X135740Y246026D01*
X135708Y246025D01*
X135637Y246033D01*
X93480Y246033D01*
X93365Y246014D01*
X93249Y245997D01*
X93243Y245995D01*
X93237Y245994D01*
X93134Y245939D01*
X93029Y245886D01*
X93025Y245881D01*
X93020Y245878D01*
X92940Y245794D01*
X92857Y245710D01*
X92854Y245704D01*
X92850Y245700D01*
X92842Y245683D01*
X92776Y245563D01*
X91773Y243140D01*
X89200Y240567D01*
X85839Y239175D01*
X66961Y239175D01*
X63600Y240567D01*
X61460Y242707D01*
X61402Y242749D01*
X61350Y242798D01*
X61303Y242820D01*
X61261Y242851D01*
X61192Y242872D01*
X61127Y242902D01*
X61075Y242908D01*
X61025Y242923D01*
X60954Y242921D01*
X60883Y242929D01*
X60832Y242918D01*
X60780Y242917D01*
X60712Y242892D01*
X60642Y242877D01*
X60597Y242850D01*
X60549Y242832D01*
X60493Y242787D01*
X60431Y242751D01*
X60397Y242711D01*
X60357Y242679D01*
X60318Y242618D01*
X60271Y242564D01*
X60252Y242515D01*
X60224Y242472D01*
X60206Y242402D01*
X60179Y242336D01*
X60171Y242264D01*
X60163Y242233D01*
X60165Y242210D01*
X60161Y242169D01*
X60161Y229071D01*
X60172Y229000D01*
X60174Y228929D01*
X60192Y228880D01*
X60200Y228828D01*
X60234Y228765D01*
X60259Y228698D01*
X60291Y228657D01*
X60316Y228611D01*
X60368Y228562D01*
X60412Y228506D01*
X60456Y228477D01*
X60494Y228442D01*
X60559Y228411D01*
X60619Y228373D01*
X60670Y228360D01*
X60717Y228338D01*
X60788Y228330D01*
X60858Y228313D01*
X60910Y228317D01*
X60961Y228311D01*
X61032Y228326D01*
X61103Y228332D01*
X61151Y228352D01*
X61202Y228363D01*
X61263Y228400D01*
X61329Y228428D01*
X61385Y228473D01*
X61413Y228489D01*
X61428Y228507D01*
X61460Y228533D01*
X63600Y230673D01*
X66961Y232065D01*
X85839Y232065D01*
X89200Y230673D01*
X91773Y228100D01*
X93165Y224739D01*
X93165Y221101D01*
X91773Y217740D01*
X89200Y215167D01*
X85839Y213775D01*
X66961Y213775D01*
X63600Y215167D01*
X61460Y217307D01*
X61402Y217349D01*
X61350Y217398D01*
X61303Y217420D01*
X61261Y217451D01*
X61192Y217472D01*
X61127Y217502D01*
X61075Y217508D01*
X61025Y217523D01*
X60954Y217521D01*
X60883Y217529D01*
X60832Y217518D01*
X60780Y217517D01*
X60712Y217492D01*
X60642Y217477D01*
X60597Y217450D01*
X60549Y217432D01*
X60493Y217387D01*
X60431Y217351D01*
X60397Y217311D01*
X60357Y217279D01*
X60318Y217218D01*
X60271Y217164D01*
X60252Y217115D01*
X60224Y217072D01*
X60206Y217002D01*
X60179Y216936D01*
X60171Y216864D01*
X60163Y216833D01*
X60165Y216810D01*
X60161Y216769D01*
X60161Y203671D01*
X60172Y203600D01*
X60174Y203529D01*
X60192Y203480D01*
X60200Y203428D01*
X60234Y203365D01*
X60259Y203298D01*
X60291Y203257D01*
X60316Y203211D01*
X60368Y203162D01*
X60412Y203106D01*
X60456Y203077D01*
X60494Y203042D01*
X60559Y203011D01*
X60619Y202973D01*
X60670Y202960D01*
X60717Y202938D01*
X60788Y202930D01*
X60858Y202913D01*
X60910Y202917D01*
X60961Y202911D01*
X61032Y202926D01*
X61103Y202932D01*
X61151Y202952D01*
X61202Y202963D01*
X61263Y203000D01*
X61329Y203028D01*
X61385Y203073D01*
X61413Y203089D01*
X61428Y203107D01*
X61460Y203133D01*
X63600Y205273D01*
X66961Y206665D01*
X85839Y206665D01*
X89200Y205273D01*
X91773Y202700D01*
X93165Y199339D01*
X93165Y195701D01*
X91773Y192340D01*
X89200Y189767D01*
X85839Y188375D01*
X66961Y188375D01*
X63600Y189767D01*
X61460Y191907D01*
X61402Y191949D01*
X61350Y191998D01*
X61303Y192020D01*
X61261Y192051D01*
X61192Y192072D01*
X61127Y192102D01*
X61075Y192108D01*
X61025Y192123D01*
X60954Y192121D01*
X60883Y192129D01*
X60832Y192118D01*
X60780Y192117D01*
X60712Y192092D01*
X60642Y192077D01*
X60597Y192050D01*
X60549Y192032D01*
X60493Y191987D01*
X60431Y191951D01*
X60397Y191911D01*
X60357Y191879D01*
X60318Y191818D01*
X60271Y191764D01*
X60252Y191715D01*
X60224Y191672D01*
X60206Y191602D01*
X60179Y191536D01*
X60171Y191464D01*
X60163Y191433D01*
X60165Y191410D01*
X60161Y191369D01*
X60161Y178877D01*
X60171Y178812D01*
X60172Y178747D01*
X60195Y178667D01*
X60200Y178634D01*
X60210Y178617D01*
X60219Y178586D01*
X60396Y178157D01*
X60420Y178118D01*
X60436Y178075D01*
X60485Y178014D01*
X60526Y177948D01*
X60561Y177919D01*
X60590Y177883D01*
X60655Y177841D01*
X60715Y177791D01*
X60758Y177775D01*
X60797Y177750D01*
X60872Y177731D01*
X60945Y177703D01*
X60991Y177701D01*
X61035Y177690D01*
X61113Y177696D01*
X61191Y177693D01*
X61235Y177706D01*
X61280Y177709D01*
X61352Y177740D01*
X61427Y177761D01*
X61465Y177788D01*
X61507Y177805D01*
X61614Y177891D01*
X61629Y177902D01*
X61632Y177906D01*
X61638Y177910D01*
X63600Y179873D01*
X66961Y181265D01*
X85839Y181265D01*
X89200Y179873D01*
X91773Y177300D01*
X93165Y173939D01*
X93165Y170301D01*
X91773Y166940D01*
X89200Y164367D01*
X85839Y162975D01*
X66961Y162975D01*
X63600Y164367D01*
X61960Y166007D01*
X61902Y166049D01*
X61850Y166098D01*
X61803Y166120D01*
X61761Y166151D01*
X61692Y166172D01*
X61627Y166202D01*
X61575Y166208D01*
X61525Y166223D01*
X61454Y166221D01*
X61383Y166229D01*
X61332Y166218D01*
X61280Y166217D01*
X61212Y166192D01*
X61142Y166177D01*
X61097Y166150D01*
X61049Y166132D01*
X60993Y166087D01*
X60931Y166051D01*
X60897Y166011D01*
X60857Y165979D01*
X60818Y165918D01*
X60771Y165864D01*
X60752Y165815D01*
X60724Y165772D01*
X60706Y165702D01*
X60679Y165636D01*
X60671Y165564D01*
X60663Y165533D01*
X60665Y165510D01*
X60661Y165469D01*
X60661Y162482D01*
X59753Y160291D01*
X59733Y160203D01*
X59704Y160116D01*
X59705Y160083D01*
X59697Y160052D01*
X59706Y159961D01*
X59707Y159870D01*
X59718Y159830D01*
X59720Y159807D01*
X59733Y159778D01*
X59753Y159709D01*
X60661Y157518D01*
X60661Y153371D01*
X60672Y153300D01*
X60674Y153229D01*
X60692Y153180D01*
X60700Y153128D01*
X60734Y153065D01*
X60759Y152998D01*
X60791Y152957D01*
X60816Y152911D01*
X60868Y152862D01*
X60912Y152806D01*
X60956Y152777D01*
X60994Y152742D01*
X61059Y152711D01*
X61119Y152673D01*
X61170Y152660D01*
X61217Y152638D01*
X61288Y152630D01*
X61358Y152613D01*
X61410Y152617D01*
X61461Y152611D01*
X61532Y152626D01*
X61603Y152632D01*
X61651Y152652D01*
X61702Y152663D01*
X61763Y152700D01*
X61829Y152728D01*
X61885Y152773D01*
X61913Y152789D01*
X61928Y152807D01*
X61960Y152833D01*
X63600Y154473D01*
X66961Y155865D01*
X85839Y155865D01*
X89200Y154473D01*
X91773Y151900D01*
X92776Y149477D01*
X92838Y149377D01*
X92898Y149277D01*
X92903Y149273D01*
X92906Y149268D01*
X92996Y149193D01*
X93085Y149117D01*
X93091Y149115D01*
X93095Y149111D01*
X93204Y149069D01*
X93313Y149025D01*
X93320Y149024D01*
X93325Y149023D01*
X93343Y149022D01*
X93480Y149007D01*
X129047Y149007D01*
X129137Y149021D01*
X129228Y149029D01*
X129257Y149041D01*
X129289Y149046D01*
X129370Y149089D01*
X129454Y149125D01*
X129486Y149151D01*
X129507Y149162D01*
X129529Y149185D01*
X129585Y149230D01*
X132382Y152027D01*
X136778Y152027D01*
X139887Y148918D01*
X139887Y144522D01*
X136778Y141413D01*
X132382Y141413D01*
X129585Y144210D01*
X129511Y144263D01*
X129441Y144323D01*
X129411Y144335D01*
X129385Y144354D01*
X129298Y144381D01*
X129213Y144415D01*
X129172Y144419D01*
X129150Y144426D01*
X129118Y144425D01*
X129047Y144433D01*
X93480Y144433D01*
X93365Y144414D01*
X93249Y144397D01*
X93243Y144395D01*
X93237Y144394D01*
X93134Y144339D01*
X93029Y144286D01*
X93025Y144281D01*
X93020Y144278D01*
X92940Y144194D01*
X92857Y144110D01*
X92854Y144104D01*
X92850Y144100D01*
X92842Y144083D01*
X92776Y143963D01*
X91773Y141540D01*
X89200Y138967D01*
X85839Y137575D01*
X66961Y137575D01*
X63600Y138967D01*
X61298Y141269D01*
X61261Y141296D01*
X61230Y141330D01*
X61161Y141368D01*
X61098Y141413D01*
X61054Y141427D01*
X61014Y141449D01*
X60937Y141463D01*
X60863Y141485D01*
X60817Y141484D01*
X60772Y141492D01*
X60695Y141481D01*
X60617Y141479D01*
X60574Y141463D01*
X60529Y141457D01*
X60459Y141421D01*
X60386Y141395D01*
X60350Y141366D01*
X60309Y141345D01*
X60255Y141289D01*
X60194Y141241D01*
X60169Y141202D01*
X60137Y141169D01*
X60071Y141050D01*
X60061Y141034D01*
X60060Y141029D01*
X60056Y141023D01*
X59753Y140291D01*
X59733Y140203D01*
X59704Y140116D01*
X59705Y140083D01*
X59697Y140052D01*
X59706Y139961D01*
X59707Y139870D01*
X59718Y139830D01*
X59720Y139807D01*
X59733Y139778D01*
X59753Y139709D01*
X60661Y137518D01*
X60661Y132482D01*
X60219Y131414D01*
X60204Y131351D01*
X60179Y131290D01*
X60170Y131207D01*
X60163Y131175D01*
X60164Y131156D01*
X60161Y131123D01*
X60161Y128877D01*
X60171Y128812D01*
X60172Y128747D01*
X60195Y128667D01*
X60200Y128634D01*
X60210Y128617D01*
X60219Y128586D01*
X60630Y127592D01*
X60655Y127552D01*
X60670Y127509D01*
X60719Y127449D01*
X60760Y127383D01*
X60795Y127353D01*
X60824Y127317D01*
X60890Y127275D01*
X60949Y127226D01*
X60992Y127209D01*
X61031Y127184D01*
X61107Y127165D01*
X61179Y127137D01*
X61225Y127136D01*
X61269Y127124D01*
X61347Y127130D01*
X61425Y127127D01*
X61469Y127140D01*
X61515Y127143D01*
X61586Y127174D01*
X61661Y127196D01*
X61699Y127222D01*
X61741Y127240D01*
X61848Y127325D01*
X61863Y127336D01*
X61866Y127340D01*
X61872Y127345D01*
X63600Y129073D01*
X66961Y130465D01*
X85839Y130465D01*
X89200Y129073D01*
X91773Y126500D01*
X93165Y123139D01*
X93165Y119501D01*
X91773Y116140D01*
X89200Y113567D01*
X85839Y112175D01*
X66961Y112175D01*
X63600Y113567D01*
X61460Y115707D01*
X61402Y115749D01*
X61350Y115798D01*
X61303Y115820D01*
X61261Y115851D01*
X61192Y115872D01*
X61127Y115902D01*
X61075Y115908D01*
X61025Y115923D01*
X60954Y115921D01*
X60883Y115929D01*
X60832Y115918D01*
X60780Y115917D01*
X60712Y115892D01*
X60642Y115877D01*
X60597Y115850D01*
X60549Y115832D01*
X60493Y115787D01*
X60431Y115751D01*
X60397Y115711D01*
X60357Y115679D01*
X60318Y115618D01*
X60271Y115564D01*
X60252Y115515D01*
X60224Y115472D01*
X60206Y115402D01*
X60179Y115336D01*
X60171Y115264D01*
X60163Y115233D01*
X60165Y115210D01*
X60161Y115169D01*
X60161Y102071D01*
X60172Y102000D01*
X60174Y101929D01*
X60192Y101880D01*
X60200Y101828D01*
X60234Y101765D01*
X60259Y101698D01*
X60291Y101657D01*
X60316Y101611D01*
X60368Y101562D01*
X60412Y101506D01*
X60456Y101477D01*
X60494Y101442D01*
X60559Y101411D01*
X60619Y101373D01*
X60670Y101360D01*
X60717Y101338D01*
X60788Y101330D01*
X60858Y101313D01*
X60910Y101317D01*
X60961Y101311D01*
X61032Y101326D01*
X61103Y101332D01*
X61151Y101352D01*
X61202Y101363D01*
X61263Y101400D01*
X61329Y101428D01*
X61385Y101473D01*
X61413Y101489D01*
X61428Y101507D01*
X61460Y101533D01*
X63600Y103673D01*
X66961Y105065D01*
X85839Y105065D01*
X89200Y103673D01*
X91773Y101100D01*
X93165Y97739D01*
X93165Y94101D01*
X91773Y90740D01*
X89200Y88167D01*
X85839Y86775D01*
X66961Y86775D01*
X63600Y88167D01*
X61460Y90307D01*
X61402Y90349D01*
X61350Y90398D01*
X61303Y90420D01*
X61261Y90451D01*
X61192Y90472D01*
X61127Y90502D01*
X61075Y90508D01*
X61025Y90523D01*
X60954Y90521D01*
X60883Y90529D01*
X60832Y90518D01*
X60780Y90517D01*
X60712Y90492D01*
X60642Y90477D01*
X60597Y90450D01*
X60549Y90432D01*
X60493Y90387D01*
X60431Y90351D01*
X60397Y90311D01*
X60357Y90279D01*
X60318Y90218D01*
X60271Y90164D01*
X60252Y90115D01*
X60224Y90072D01*
X60206Y90002D01*
X60179Y89936D01*
X60171Y89864D01*
X60163Y89833D01*
X60165Y89810D01*
X60161Y89769D01*
X60161Y78108D01*
X60172Y78037D01*
X60174Y77966D01*
X60192Y77917D01*
X60200Y77865D01*
X60234Y77802D01*
X60259Y77735D01*
X60291Y77694D01*
X60316Y77648D01*
X60368Y77599D01*
X60412Y77543D01*
X60456Y77514D01*
X60494Y77478D01*
X60559Y77448D01*
X60619Y77410D01*
X60670Y77397D01*
X60717Y77375D01*
X60788Y77367D01*
X60858Y77349D01*
X60910Y77354D01*
X60961Y77348D01*
X61032Y77363D01*
X61103Y77369D01*
X61151Y77389D01*
X61202Y77400D01*
X61263Y77437D01*
X61329Y77465D01*
X61385Y77510D01*
X61413Y77526D01*
X61428Y77544D01*
X61460Y77570D01*
X62161Y78270D01*
X63455Y79210D01*
X64880Y79936D01*
X66401Y80431D01*
X67980Y80681D01*
X74877Y80681D01*
X74877Y71282D01*
X74880Y71262D01*
X74878Y71243D01*
X74900Y71141D01*
X74917Y71039D01*
X74926Y71022D01*
X74930Y71002D01*
X74983Y70913D01*
X75032Y70822D01*
X75046Y70808D01*
X75056Y70791D01*
X75135Y70724D01*
X75210Y70653D01*
X75228Y70644D01*
X75243Y70631D01*
X75339Y70593D01*
X75433Y70549D01*
X75453Y70547D01*
X75471Y70539D01*
X75638Y70521D01*
X76401Y70521D01*
X76401Y69758D01*
X76404Y69738D01*
X76402Y69719D01*
X76424Y69617D01*
X76441Y69515D01*
X76450Y69498D01*
X76454Y69478D01*
X76507Y69389D01*
X76556Y69298D01*
X76570Y69284D01*
X76580Y69267D01*
X76659Y69200D01*
X76734Y69129D01*
X76752Y69120D01*
X76767Y69107D01*
X76863Y69068D01*
X76957Y69025D01*
X76977Y69023D01*
X76995Y69015D01*
X77162Y68997D01*
X94066Y68997D01*
X93931Y68141D01*
X93436Y66620D01*
X92710Y65195D01*
X91770Y63901D01*
X90639Y62770D01*
X89345Y61830D01*
X88895Y61600D01*
X88840Y61560D01*
X88780Y61528D01*
X88742Y61488D01*
X88697Y61455D01*
X88658Y61399D01*
X88611Y61350D01*
X88587Y61299D01*
X88555Y61253D01*
X88536Y61188D01*
X88507Y61127D01*
X88501Y61071D01*
X88485Y61018D01*
X88488Y60950D01*
X88480Y60883D01*
X88492Y60828D01*
X88494Y60772D01*
X88518Y60708D01*
X88533Y60642D01*
X88561Y60594D01*
X88581Y60542D01*
X88624Y60489D01*
X88659Y60431D01*
X88701Y60395D01*
X88737Y60351D01*
X88794Y60315D01*
X88846Y60271D01*
X88898Y60250D01*
X88945Y60220D01*
X89011Y60205D01*
X89074Y60179D01*
X89152Y60171D01*
X89184Y60163D01*
X89205Y60165D01*
X89241Y60161D01*
X199078Y60161D01*
X199098Y60164D01*
G37*
%LPC*%
G36*
X456402Y160293D02*
X456402Y160293D01*
X453293Y163402D01*
X453293Y167798D01*
X456090Y170595D01*
X456143Y170669D01*
X456203Y170739D01*
X456215Y170769D01*
X456234Y170795D01*
X456261Y170882D01*
X456295Y170967D01*
X456299Y171008D01*
X456306Y171030D01*
X456305Y171062D01*
X456313Y171133D01*
X456313Y198167D01*
X456299Y198257D01*
X456291Y198348D01*
X456279Y198377D01*
X456274Y198409D01*
X456231Y198490D01*
X456195Y198574D01*
X456169Y198606D01*
X456158Y198627D01*
X456135Y198649D01*
X456090Y198705D01*
X453605Y201190D01*
X453531Y201243D01*
X453461Y201303D01*
X453431Y201315D01*
X453405Y201334D01*
X453318Y201361D01*
X453233Y201395D01*
X453192Y201399D01*
X453170Y201406D01*
X453138Y201405D01*
X453067Y201413D01*
X438733Y201413D01*
X438643Y201399D01*
X438552Y201391D01*
X438523Y201379D01*
X438491Y201374D01*
X438410Y201331D01*
X438326Y201295D01*
X438294Y201269D01*
X438273Y201258D01*
X438251Y201235D01*
X438195Y201190D01*
X435398Y198393D01*
X431443Y198393D01*
X431352Y198379D01*
X431262Y198371D01*
X431232Y198359D01*
X431200Y198354D01*
X431119Y198311D01*
X431035Y198275D01*
X431003Y198249D01*
X430982Y198238D01*
X430960Y198215D01*
X430904Y198170D01*
X410017Y177283D01*
X326973Y177283D01*
X326883Y177269D01*
X326792Y177261D01*
X326763Y177249D01*
X326731Y177244D01*
X326650Y177201D01*
X326566Y177165D01*
X326534Y177139D01*
X326513Y177128D01*
X326491Y177105D01*
X326435Y177060D01*
X323638Y174263D01*
X319242Y174263D01*
X316133Y177372D01*
X316133Y181768D01*
X316167Y181802D01*
X316179Y181818D01*
X316195Y181831D01*
X316250Y181918D01*
X316311Y182002D01*
X316317Y182021D01*
X316328Y182038D01*
X316353Y182138D01*
X316383Y182237D01*
X316383Y182257D01*
X316388Y182276D01*
X316380Y182379D01*
X316377Y182483D01*
X316370Y182502D01*
X316368Y182521D01*
X316328Y182616D01*
X316292Y182714D01*
X316280Y182729D01*
X316272Y182748D01*
X316167Y182879D01*
X303913Y195133D01*
X303913Y202437D01*
X303899Y202528D01*
X303891Y202618D01*
X303879Y202648D01*
X303874Y202680D01*
X303831Y202761D01*
X303795Y202845D01*
X303769Y202877D01*
X303758Y202898D01*
X303735Y202920D01*
X303690Y202976D01*
X295539Y211127D01*
X295523Y211139D01*
X295510Y211155D01*
X295423Y211211D01*
X295339Y211271D01*
X295320Y211277D01*
X295303Y211288D01*
X295203Y211313D01*
X295104Y211343D01*
X295084Y211343D01*
X295065Y211348D01*
X294962Y211340D01*
X294858Y211337D01*
X294839Y211330D01*
X294819Y211328D01*
X294725Y211288D01*
X294627Y211252D01*
X294611Y211240D01*
X294593Y211232D01*
X294462Y211127D01*
X294428Y211093D01*
X290032Y211093D01*
X286923Y214202D01*
X286923Y218598D01*
X290032Y221707D01*
X294243Y221707D01*
X294314Y221718D01*
X294385Y221720D01*
X294434Y221738D01*
X294486Y221746D01*
X294549Y221780D01*
X294616Y221805D01*
X294657Y221837D01*
X294703Y221862D01*
X294753Y221914D01*
X294809Y221958D01*
X294837Y222002D01*
X294873Y222040D01*
X294903Y222105D01*
X294942Y222165D01*
X294954Y222216D01*
X294976Y222263D01*
X294984Y222334D01*
X295002Y222404D01*
X294998Y222456D01*
X295003Y222507D01*
X294988Y222578D01*
X294982Y222649D01*
X294962Y222697D01*
X294951Y222748D01*
X294914Y222809D01*
X294886Y222875D01*
X294841Y222931D01*
X294825Y222959D01*
X294807Y222974D01*
X294781Y223006D01*
X287257Y230531D01*
X285694Y232093D01*
X285694Y233287D01*
X285679Y233378D01*
X285672Y233468D01*
X285660Y233498D01*
X285654Y233530D01*
X285612Y233611D01*
X285576Y233695D01*
X285550Y233727D01*
X285539Y233748D01*
X285516Y233770D01*
X285471Y233826D01*
X282674Y236623D01*
X282674Y241019D01*
X285783Y244128D01*
X290179Y244128D01*
X293288Y241019D01*
X293288Y236623D01*
X290998Y234334D01*
X290987Y234317D01*
X290971Y234305D01*
X290915Y234218D01*
X290855Y234134D01*
X290849Y234115D01*
X290838Y234098D01*
X290813Y233998D01*
X290783Y233899D01*
X290783Y233879D01*
X290778Y233860D01*
X290786Y233757D01*
X290789Y233653D01*
X290796Y233634D01*
X290797Y233614D01*
X290838Y233519D01*
X290873Y233422D01*
X290886Y233406D01*
X290894Y233388D01*
X290998Y233257D01*
X312015Y212241D01*
X312015Y198125D01*
X312029Y198035D01*
X312037Y197944D01*
X312049Y197914D01*
X312054Y197882D01*
X312097Y197802D01*
X312133Y197718D01*
X312159Y197686D01*
X312170Y197665D01*
X312193Y197643D01*
X312238Y197587D01*
X321677Y188148D01*
X321751Y188095D01*
X321820Y188035D01*
X321850Y188023D01*
X321877Y188004D01*
X321963Y187977D01*
X322048Y187943D01*
X322089Y187939D01*
X322112Y187932D01*
X322144Y187933D01*
X322215Y187925D01*
X324901Y187925D01*
X327698Y185128D01*
X327772Y185075D01*
X327841Y185015D01*
X327871Y185003D01*
X327897Y184984D01*
X327984Y184957D01*
X328069Y184923D01*
X328110Y184919D01*
X328133Y184912D01*
X328165Y184913D01*
X328236Y184905D01*
X404505Y184905D01*
X404596Y184919D01*
X404686Y184927D01*
X404716Y184939D01*
X404748Y184944D01*
X404829Y184987D01*
X404913Y185023D01*
X404945Y185049D01*
X404966Y185060D01*
X404988Y185083D01*
X405044Y185128D01*
X424622Y204706D01*
X424675Y204780D01*
X424735Y204850D01*
X424747Y204880D01*
X424766Y204906D01*
X424793Y204993D01*
X424827Y205078D01*
X424831Y205119D01*
X424838Y205141D01*
X424837Y205173D01*
X424845Y205245D01*
X424845Y207161D01*
X429420Y211736D01*
X429473Y211810D01*
X429533Y211879D01*
X429545Y211909D01*
X429564Y211935D01*
X429591Y212022D01*
X429625Y212107D01*
X429629Y212148D01*
X429636Y212171D01*
X429635Y212203D01*
X429643Y212274D01*
X429643Y223567D01*
X429629Y223657D01*
X429621Y223748D01*
X429609Y223777D01*
X429604Y223809D01*
X429561Y223890D01*
X429525Y223974D01*
X429499Y224006D01*
X429488Y224027D01*
X429465Y224049D01*
X429420Y224105D01*
X426623Y226902D01*
X426623Y231298D01*
X429732Y234407D01*
X430133Y234407D01*
X430204Y234418D01*
X430275Y234420D01*
X430324Y234438D01*
X430376Y234446D01*
X430439Y234480D01*
X430506Y234505D01*
X430547Y234537D01*
X430593Y234562D01*
X430643Y234614D01*
X430699Y234658D01*
X430727Y234702D01*
X430763Y234740D01*
X430793Y234805D01*
X430832Y234865D01*
X430844Y234916D01*
X430866Y234963D01*
X430874Y235034D01*
X430892Y235104D01*
X430888Y235156D01*
X430893Y235207D01*
X430878Y235278D01*
X430872Y235349D01*
X430852Y235397D01*
X430841Y235448D01*
X430804Y235509D01*
X430776Y235575D01*
X430731Y235631D01*
X430715Y235659D01*
X430697Y235674D01*
X430671Y235706D01*
X394376Y272002D01*
X392813Y273564D01*
X392813Y274367D01*
X392799Y274457D01*
X392791Y274548D01*
X392779Y274577D01*
X392774Y274609D01*
X392731Y274690D01*
X392695Y274774D01*
X392669Y274806D01*
X392658Y274827D01*
X392635Y274849D01*
X392590Y274905D01*
X389793Y277702D01*
X389793Y282098D01*
X392590Y284895D01*
X392643Y284969D01*
X392703Y285039D01*
X392715Y285069D01*
X392734Y285095D01*
X392761Y285182D01*
X392795Y285267D01*
X392799Y285308D01*
X392806Y285330D01*
X392805Y285362D01*
X392813Y285433D01*
X392813Y291337D01*
X392799Y291428D01*
X392791Y291518D01*
X392779Y291548D01*
X392774Y291580D01*
X392731Y291661D01*
X392695Y291745D01*
X392669Y291777D01*
X392658Y291798D01*
X392635Y291820D01*
X392590Y291876D01*
X371739Y312727D01*
X371723Y312739D01*
X371710Y312755D01*
X371623Y312811D01*
X371539Y312871D01*
X371520Y312877D01*
X371503Y312888D01*
X371403Y312913D01*
X371304Y312943D01*
X371284Y312943D01*
X371265Y312948D01*
X371162Y312940D01*
X371058Y312937D01*
X371039Y312930D01*
X371019Y312928D01*
X370925Y312888D01*
X370827Y312852D01*
X370811Y312840D01*
X370793Y312832D01*
X370662Y312727D01*
X370628Y312693D01*
X366232Y312693D01*
X363123Y315802D01*
X363123Y320198D01*
X366232Y323307D01*
X370628Y323307D01*
X373737Y320198D01*
X373737Y317513D01*
X373751Y317422D01*
X373759Y317332D01*
X373771Y317302D01*
X373776Y317270D01*
X373819Y317189D01*
X373855Y317105D01*
X373881Y317073D01*
X373892Y317052D01*
X373915Y317030D01*
X373960Y316974D01*
X388494Y302440D01*
X388552Y302398D01*
X388604Y302349D01*
X388651Y302327D01*
X388693Y302297D01*
X388762Y302276D01*
X388827Y302245D01*
X388879Y302240D01*
X388929Y302224D01*
X389000Y302226D01*
X389071Y302218D01*
X389122Y302229D01*
X389174Y302231D01*
X389242Y302255D01*
X389312Y302270D01*
X389357Y302297D01*
X389405Y302315D01*
X389461Y302360D01*
X389523Y302397D01*
X389557Y302436D01*
X389597Y302469D01*
X389636Y302529D01*
X389683Y302584D01*
X389702Y302632D01*
X389730Y302676D01*
X389748Y302745D01*
X389775Y302812D01*
X389783Y302883D01*
X389791Y302914D01*
X389789Y302938D01*
X389793Y302978D01*
X389793Y307057D01*
X389779Y307148D01*
X389771Y307238D01*
X389759Y307268D01*
X389754Y307300D01*
X389711Y307381D01*
X389675Y307465D01*
X389649Y307497D01*
X389638Y307518D01*
X389615Y307540D01*
X389570Y307596D01*
X368976Y328190D01*
X368902Y328243D01*
X368832Y328303D01*
X368802Y328315D01*
X368776Y328334D01*
X368689Y328361D01*
X368604Y328395D01*
X368563Y328399D01*
X368541Y328406D01*
X368509Y328405D01*
X368437Y328413D01*
X317953Y328413D01*
X256446Y389920D01*
X256388Y389962D01*
X256336Y390011D01*
X256289Y390033D01*
X256247Y390063D01*
X256178Y390084D01*
X256113Y390115D01*
X256061Y390120D01*
X256011Y390136D01*
X255940Y390134D01*
X255869Y390142D01*
X255818Y390131D01*
X255766Y390129D01*
X255698Y390105D01*
X255628Y390090D01*
X255583Y390063D01*
X255535Y390045D01*
X255479Y390000D01*
X255417Y389963D01*
X255383Y389924D01*
X255343Y389891D01*
X255304Y389831D01*
X255257Y389776D01*
X255238Y389728D01*
X255210Y389684D01*
X255192Y389615D01*
X255165Y389548D01*
X255157Y389477D01*
X255149Y389446D01*
X255151Y389422D01*
X255147Y389382D01*
X255147Y385303D01*
X255161Y385212D01*
X255169Y385122D01*
X255181Y385092D01*
X255186Y385060D01*
X255229Y384979D01*
X255265Y384895D01*
X255291Y384863D01*
X255302Y384842D01*
X255325Y384820D01*
X255370Y384764D01*
X329304Y310830D01*
X329378Y310777D01*
X329448Y310717D01*
X329478Y310705D01*
X329504Y310686D01*
X329591Y310659D01*
X329676Y310625D01*
X329717Y310621D01*
X329739Y310614D01*
X329771Y310615D01*
X329843Y310607D01*
X333798Y310607D01*
X336907Y307498D01*
X336907Y303102D01*
X333798Y299993D01*
X329402Y299993D01*
X328836Y300559D01*
X328778Y300601D01*
X328726Y300650D01*
X328679Y300672D01*
X328637Y300702D01*
X328568Y300724D01*
X328503Y300754D01*
X328451Y300759D01*
X328401Y300775D01*
X328330Y300773D01*
X328259Y300781D01*
X328208Y300770D01*
X328156Y300768D01*
X328088Y300744D01*
X328018Y300729D01*
X327973Y300702D01*
X327925Y300684D01*
X327869Y300639D01*
X327807Y300602D01*
X327773Y300563D01*
X327733Y300530D01*
X327694Y300470D01*
X327647Y300415D01*
X327628Y300367D01*
X327600Y300323D01*
X327582Y300254D01*
X327555Y300187D01*
X327547Y300116D01*
X327539Y300085D01*
X327541Y300062D01*
X327537Y300021D01*
X327537Y274813D01*
X327539Y274801D01*
X327538Y274794D01*
X327546Y274756D01*
X327551Y274722D01*
X327559Y274632D01*
X327571Y274602D01*
X327576Y274570D01*
X327619Y274489D01*
X327655Y274405D01*
X327681Y274373D01*
X327692Y274352D01*
X327715Y274330D01*
X327760Y274274D01*
X329304Y272730D01*
X329378Y272677D01*
X329448Y272617D01*
X329478Y272605D01*
X329504Y272586D01*
X329591Y272559D01*
X329676Y272525D01*
X329717Y272521D01*
X329739Y272514D01*
X329771Y272515D01*
X329843Y272507D01*
X333798Y272507D01*
X336907Y269398D01*
X336907Y265002D01*
X333798Y261893D01*
X329402Y261893D01*
X326293Y265002D01*
X326293Y268957D01*
X326279Y269048D01*
X326271Y269138D01*
X326259Y269168D01*
X326254Y269200D01*
X326211Y269281D01*
X326175Y269365D01*
X326149Y269397D01*
X326138Y269418D01*
X326115Y269440D01*
X326070Y269496D01*
X322963Y272603D01*
X322963Y305307D01*
X322962Y305317D01*
X322962Y305323D01*
X322956Y305350D01*
X322949Y305398D01*
X322941Y305488D01*
X322929Y305518D01*
X322924Y305550D01*
X322881Y305631D01*
X322845Y305715D01*
X322819Y305747D01*
X322808Y305768D01*
X322785Y305790D01*
X322740Y305846D01*
X247525Y381061D01*
X247525Y602919D01*
X267153Y622547D01*
X281841Y622547D01*
X281956Y622566D01*
X282072Y622583D01*
X282077Y622585D01*
X282084Y622586D01*
X282186Y622641D01*
X282291Y622694D01*
X282296Y622699D01*
X282301Y622702D01*
X282381Y622786D01*
X282463Y622870D01*
X282467Y622876D01*
X282470Y622880D01*
X282478Y622897D01*
X282544Y623017D01*
X284025Y626591D01*
X287169Y629735D01*
X291277Y631437D01*
X295723Y631437D01*
X299831Y629735D01*
X302975Y626591D01*
X304677Y622483D01*
X304677Y618037D01*
X302975Y613929D01*
X299831Y610785D01*
X295723Y609083D01*
X291277Y609083D01*
X287169Y610785D01*
X284025Y613929D01*
X282544Y617503D01*
X282483Y617603D01*
X282423Y617703D01*
X282418Y617707D01*
X282415Y617712D01*
X282325Y617787D01*
X282236Y617863D01*
X282230Y617865D01*
X282225Y617869D01*
X282117Y617911D01*
X282008Y617955D01*
X282000Y617956D01*
X281996Y617957D01*
X281977Y617958D01*
X281841Y617973D01*
X269363Y617973D01*
X269272Y617959D01*
X269182Y617951D01*
X269152Y617939D01*
X269120Y617934D01*
X269039Y617891D01*
X268955Y617855D01*
X268923Y617829D01*
X268902Y617818D01*
X268880Y617795D01*
X268824Y617750D01*
X252322Y601248D01*
X252269Y601174D01*
X252209Y601104D01*
X252197Y601074D01*
X252178Y601048D01*
X252151Y600961D01*
X252117Y600876D01*
X252113Y600835D01*
X252106Y600813D01*
X252107Y600781D01*
X252099Y600709D01*
X252099Y585360D01*
X252110Y585290D01*
X252112Y585218D01*
X252130Y585169D01*
X252138Y585118D01*
X252172Y585054D01*
X252197Y584987D01*
X252229Y584946D01*
X252254Y584900D01*
X252306Y584851D01*
X252350Y584795D01*
X252394Y584767D01*
X252432Y584731D01*
X252497Y584701D01*
X252557Y584662D01*
X252608Y584649D01*
X252655Y584627D01*
X252726Y584619D01*
X252796Y584602D01*
X252848Y584606D01*
X252899Y584600D01*
X252970Y584615D01*
X253041Y584621D01*
X253089Y584641D01*
X253140Y584652D01*
X253201Y584689D01*
X253267Y584717D01*
X253323Y584762D01*
X253351Y584779D01*
X253366Y584796D01*
X253398Y584822D01*
X265723Y597147D01*
X281841Y597147D01*
X281956Y597166D01*
X282072Y597183D01*
X282077Y597185D01*
X282084Y597186D01*
X282186Y597241D01*
X282291Y597294D01*
X282296Y597299D01*
X282301Y597302D01*
X282381Y597386D01*
X282463Y597470D01*
X282467Y597476D01*
X282470Y597480D01*
X282478Y597497D01*
X282544Y597617D01*
X284025Y601191D01*
X287169Y604335D01*
X291277Y606037D01*
X295723Y606037D01*
X299831Y604335D01*
X302975Y601191D01*
X304677Y597083D01*
X304677Y592637D01*
X302975Y588529D01*
X299831Y585385D01*
X295723Y583683D01*
X291277Y583683D01*
X287169Y585385D01*
X284025Y588529D01*
X282544Y592103D01*
X282483Y592203D01*
X282423Y592303D01*
X282418Y592307D01*
X282415Y592312D01*
X282325Y592387D01*
X282236Y592463D01*
X282230Y592465D01*
X282225Y592469D01*
X282117Y592511D01*
X282008Y592555D01*
X282000Y592556D01*
X281996Y592557D01*
X281977Y592558D01*
X281841Y592573D01*
X267933Y592573D01*
X267842Y592559D01*
X267752Y592551D01*
X267722Y592539D01*
X267690Y592534D01*
X267609Y592491D01*
X267525Y592455D01*
X267493Y592429D01*
X267472Y592418D01*
X267450Y592395D01*
X267394Y592350D01*
X255370Y580326D01*
X255317Y580252D01*
X255257Y580182D01*
X255245Y580152D01*
X255226Y580126D01*
X255199Y580039D01*
X255165Y579954D01*
X255161Y579913D01*
X255154Y579891D01*
X255155Y579859D01*
X255147Y579787D01*
X255147Y557260D01*
X255158Y557190D01*
X255160Y557118D01*
X255178Y557069D01*
X255186Y557018D01*
X255220Y556954D01*
X255245Y556887D01*
X255277Y556846D01*
X255302Y556800D01*
X255354Y556751D01*
X255398Y556695D01*
X255442Y556667D01*
X255480Y556631D01*
X255545Y556601D01*
X255605Y556562D01*
X255656Y556549D01*
X255703Y556527D01*
X255774Y556519D01*
X255844Y556502D01*
X255896Y556506D01*
X255947Y556500D01*
X256018Y556515D01*
X256089Y556521D01*
X256137Y556541D01*
X256188Y556552D01*
X256249Y556589D01*
X256315Y556617D01*
X256371Y556662D01*
X256399Y556679D01*
X256414Y556696D01*
X256446Y556722D01*
X269908Y570184D01*
X271471Y571747D01*
X281841Y571747D01*
X281956Y571766D01*
X282072Y571783D01*
X282077Y571785D01*
X282084Y571786D01*
X282186Y571841D01*
X282291Y571894D01*
X282296Y571899D01*
X282301Y571902D01*
X282381Y571986D01*
X282463Y572070D01*
X282467Y572076D01*
X282470Y572080D01*
X282478Y572097D01*
X282544Y572217D01*
X284025Y575791D01*
X287169Y578935D01*
X291277Y580637D01*
X295723Y580637D01*
X299831Y578935D01*
X302975Y575791D01*
X304677Y571683D01*
X304677Y567237D01*
X302975Y563129D01*
X299831Y559985D01*
X295723Y558283D01*
X291277Y558283D01*
X287169Y559985D01*
X284025Y563129D01*
X282544Y566703D01*
X282483Y566803D01*
X282423Y566903D01*
X282418Y566907D01*
X282415Y566912D01*
X282325Y566987D01*
X282236Y567063D01*
X282230Y567065D01*
X282225Y567069D01*
X282117Y567111D01*
X282008Y567155D01*
X282000Y567156D01*
X281996Y567157D01*
X281977Y567158D01*
X281841Y567173D01*
X273681Y567173D01*
X273590Y567159D01*
X273500Y567151D01*
X273470Y567139D01*
X273438Y567134D01*
X273357Y567091D01*
X273273Y567055D01*
X273241Y567029D01*
X273220Y567018D01*
X273202Y566999D01*
X273200Y566998D01*
X273194Y566992D01*
X273142Y566950D01*
X258418Y552226D01*
X258365Y552152D01*
X258305Y552082D01*
X258293Y552052D01*
X258274Y552026D01*
X258247Y551939D01*
X258213Y551854D01*
X258209Y551813D01*
X258202Y551791D01*
X258203Y551759D01*
X258195Y551687D01*
X258195Y394955D01*
X258209Y394864D01*
X258217Y394774D01*
X258229Y394744D01*
X258234Y394712D01*
X258277Y394631D01*
X258313Y394547D01*
X258339Y394515D01*
X258350Y394494D01*
X258373Y394472D01*
X258418Y394416D01*
X319624Y333210D01*
X319698Y333157D01*
X319768Y333097D01*
X319798Y333085D01*
X319824Y333066D01*
X319911Y333039D01*
X319996Y333005D01*
X320037Y333001D01*
X320059Y332994D01*
X320091Y332995D01*
X320163Y332987D01*
X370647Y332987D01*
X392804Y310830D01*
X392878Y310777D01*
X392948Y310717D01*
X392978Y310705D01*
X393004Y310686D01*
X393091Y310659D01*
X393176Y310625D01*
X393217Y310621D01*
X393239Y310614D01*
X393271Y310615D01*
X393343Y310607D01*
X397298Y310607D01*
X400407Y307498D01*
X400407Y303102D01*
X397298Y299993D01*
X392778Y299993D01*
X392708Y299982D01*
X392636Y299980D01*
X392587Y299962D01*
X392536Y299954D01*
X392472Y299920D01*
X392405Y299895D01*
X392364Y299863D01*
X392318Y299838D01*
X392269Y299786D01*
X392213Y299742D01*
X392185Y299698D01*
X392149Y299660D01*
X392119Y299595D01*
X392080Y299535D01*
X392067Y299484D01*
X392045Y299437D01*
X392037Y299366D01*
X392020Y299296D01*
X392024Y299244D01*
X392018Y299193D01*
X392033Y299122D01*
X392039Y299051D01*
X392059Y299003D01*
X392070Y298952D01*
X392107Y298891D01*
X392135Y298825D01*
X392180Y298769D01*
X392197Y298741D01*
X392214Y298726D01*
X392240Y298694D01*
X397387Y293547D01*
X397387Y285433D01*
X397401Y285343D01*
X397409Y285252D01*
X397421Y285223D01*
X397426Y285191D01*
X397469Y285110D01*
X397505Y285026D01*
X397531Y284994D01*
X397542Y284973D01*
X397565Y284951D01*
X397610Y284895D01*
X400407Y282098D01*
X400407Y277702D01*
X398313Y275609D01*
X398302Y275592D01*
X398286Y275580D01*
X398230Y275493D01*
X398170Y275409D01*
X398164Y275390D01*
X398153Y275373D01*
X398128Y275273D01*
X398098Y275174D01*
X398098Y275154D01*
X398093Y275135D01*
X398101Y275032D01*
X398104Y274928D01*
X398111Y274909D01*
X398112Y274889D01*
X398153Y274794D01*
X398188Y274697D01*
X398201Y274681D01*
X398209Y274663D01*
X398313Y274532D01*
X440285Y232561D01*
X440285Y221933D01*
X440299Y221843D01*
X440307Y221752D01*
X440319Y221723D01*
X440324Y221691D01*
X440367Y221610D01*
X440403Y221526D01*
X440429Y221494D01*
X440440Y221473D01*
X440463Y221451D01*
X440508Y221395D01*
X443305Y218598D01*
X443305Y214202D01*
X440196Y211093D01*
X435800Y211093D01*
X435516Y211377D01*
X435458Y211419D01*
X435406Y211468D01*
X435359Y211490D01*
X435317Y211520D01*
X435248Y211542D01*
X435183Y211572D01*
X435131Y211577D01*
X435081Y211593D01*
X435010Y211591D01*
X434939Y211599D01*
X434888Y211588D01*
X434836Y211586D01*
X434768Y211562D01*
X434698Y211547D01*
X434653Y211520D01*
X434605Y211502D01*
X434549Y211457D01*
X434487Y211420D01*
X434453Y211381D01*
X434413Y211348D01*
X434374Y211288D01*
X434327Y211233D01*
X434308Y211185D01*
X434280Y211141D01*
X434262Y211072D01*
X434235Y211005D01*
X434227Y210934D01*
X434219Y210903D01*
X434221Y210880D01*
X434217Y210839D01*
X434217Y209768D01*
X434220Y209748D01*
X434218Y209729D01*
X434240Y209627D01*
X434256Y209525D01*
X434266Y209508D01*
X434270Y209488D01*
X434323Y209399D01*
X434372Y209308D01*
X434386Y209294D01*
X434396Y209277D01*
X434475Y209210D01*
X434550Y209138D01*
X434568Y209130D01*
X434583Y209117D01*
X434679Y209078D01*
X434773Y209035D01*
X434793Y209033D01*
X434811Y209025D01*
X434978Y209007D01*
X435398Y209007D01*
X438195Y206210D01*
X438269Y206157D01*
X438339Y206097D01*
X438369Y206085D01*
X438395Y206066D01*
X438482Y206039D01*
X438567Y206005D01*
X438608Y206001D01*
X438630Y205994D01*
X438662Y205995D01*
X438733Y205987D01*
X453067Y205987D01*
X453157Y206001D01*
X453248Y206009D01*
X453277Y206021D01*
X453309Y206026D01*
X453390Y206069D01*
X453474Y206105D01*
X453506Y206131D01*
X453527Y206142D01*
X453549Y206165D01*
X453605Y206210D01*
X456402Y209007D01*
X460798Y209007D01*
X463907Y205898D01*
X463907Y201502D01*
X461110Y198705D01*
X461057Y198631D01*
X460997Y198561D01*
X460985Y198531D01*
X460966Y198505D01*
X460939Y198418D01*
X460905Y198333D01*
X460901Y198292D01*
X460894Y198270D01*
X460895Y198238D01*
X460887Y198167D01*
X460887Y171133D01*
X460901Y171043D01*
X460909Y170952D01*
X460921Y170923D01*
X460926Y170891D01*
X460969Y170810D01*
X461005Y170726D01*
X461031Y170694D01*
X461042Y170673D01*
X461065Y170651D01*
X461110Y170595D01*
X463907Y167798D01*
X463907Y163402D01*
X460798Y160293D01*
X456402Y160293D01*
G37*
%LPD*%
%LPC*%
G36*
X469102Y376193D02*
X469102Y376193D01*
X465993Y379302D01*
X465993Y383698D01*
X468790Y386495D01*
X468843Y386569D01*
X468903Y386639D01*
X468915Y386669D01*
X468934Y386695D01*
X468961Y386782D01*
X468995Y386867D01*
X468999Y386908D01*
X469006Y386930D01*
X469005Y386962D01*
X469013Y387033D01*
X469013Y536829D01*
X469002Y536900D01*
X469000Y536972D01*
X468982Y537021D01*
X468974Y537072D01*
X468940Y537135D01*
X468915Y537203D01*
X468883Y537243D01*
X468858Y537289D01*
X468806Y537339D01*
X468762Y537395D01*
X468718Y537423D01*
X468680Y537459D01*
X468615Y537489D01*
X468555Y537528D01*
X468504Y537540D01*
X468457Y537562D01*
X468386Y537570D01*
X468316Y537588D01*
X468264Y537584D01*
X468213Y537589D01*
X468142Y537574D01*
X468071Y537569D01*
X468023Y537548D01*
X467972Y537537D01*
X467911Y537500D01*
X467845Y537472D01*
X467789Y537427D01*
X467761Y537411D01*
X467746Y537393D01*
X467714Y537367D01*
X464931Y534585D01*
X460823Y532883D01*
X456377Y532883D01*
X452269Y534585D01*
X449125Y537729D01*
X447423Y541837D01*
X447423Y546283D01*
X449125Y550391D01*
X452269Y553535D01*
X456377Y555237D01*
X460823Y555237D01*
X464931Y553535D01*
X467714Y550753D01*
X467772Y550711D01*
X467824Y550661D01*
X467871Y550639D01*
X467913Y550609D01*
X467982Y550588D01*
X468047Y550558D01*
X468099Y550552D01*
X468149Y550537D01*
X468220Y550539D01*
X468291Y550531D01*
X468342Y550542D01*
X468394Y550543D01*
X468462Y550568D01*
X468532Y550583D01*
X468577Y550610D01*
X468625Y550627D01*
X468681Y550672D01*
X468743Y550709D01*
X468777Y550749D01*
X468817Y550781D01*
X468856Y550841D01*
X468903Y550896D01*
X468922Y550944D01*
X468950Y550988D01*
X468968Y551058D01*
X468995Y551124D01*
X469003Y551195D01*
X469011Y551227D01*
X469009Y551250D01*
X469013Y551291D01*
X469013Y562229D01*
X469002Y562300D01*
X469000Y562372D01*
X468982Y562421D01*
X468974Y562472D01*
X468940Y562535D01*
X468915Y562603D01*
X468883Y562643D01*
X468858Y562689D01*
X468806Y562739D01*
X468762Y562795D01*
X468718Y562823D01*
X468680Y562859D01*
X468615Y562889D01*
X468555Y562928D01*
X468504Y562940D01*
X468457Y562962D01*
X468386Y562970D01*
X468316Y562988D01*
X468264Y562984D01*
X468213Y562989D01*
X468142Y562974D01*
X468071Y562969D01*
X468023Y562948D01*
X467972Y562937D01*
X467911Y562900D01*
X467845Y562872D01*
X467789Y562827D01*
X467761Y562811D01*
X467746Y562793D01*
X467714Y562767D01*
X464931Y559985D01*
X460823Y558283D01*
X456377Y558283D01*
X452269Y559985D01*
X449125Y563129D01*
X447423Y567237D01*
X447423Y571683D01*
X449125Y575791D01*
X452269Y578935D01*
X456377Y580637D01*
X460823Y580637D01*
X464931Y578935D01*
X467714Y576153D01*
X467772Y576111D01*
X467824Y576061D01*
X467871Y576039D01*
X467913Y576009D01*
X467982Y575988D01*
X468047Y575958D01*
X468099Y575952D01*
X468149Y575937D01*
X468220Y575939D01*
X468291Y575931D01*
X468342Y575942D01*
X468394Y575943D01*
X468462Y575968D01*
X468532Y575983D01*
X468577Y576010D01*
X468625Y576027D01*
X468681Y576072D01*
X468743Y576109D01*
X468777Y576149D01*
X468817Y576181D01*
X468856Y576241D01*
X468903Y576296D01*
X468922Y576344D01*
X468950Y576388D01*
X468968Y576458D01*
X468995Y576524D01*
X469003Y576595D01*
X469011Y576627D01*
X469009Y576650D01*
X469013Y576691D01*
X469013Y587629D01*
X469002Y587700D01*
X469000Y587772D01*
X468982Y587821D01*
X468974Y587872D01*
X468940Y587935D01*
X468915Y588003D01*
X468883Y588043D01*
X468858Y588089D01*
X468806Y588139D01*
X468762Y588195D01*
X468718Y588223D01*
X468680Y588259D01*
X468615Y588289D01*
X468555Y588328D01*
X468504Y588340D01*
X468457Y588362D01*
X468386Y588370D01*
X468316Y588388D01*
X468264Y588384D01*
X468213Y588389D01*
X468142Y588374D01*
X468071Y588369D01*
X468023Y588348D01*
X467972Y588337D01*
X467911Y588300D01*
X467845Y588272D01*
X467789Y588227D01*
X467761Y588211D01*
X467746Y588193D01*
X467714Y588167D01*
X464931Y585385D01*
X460823Y583683D01*
X456377Y583683D01*
X452269Y585385D01*
X449125Y588529D01*
X447423Y592637D01*
X447423Y597083D01*
X449125Y601191D01*
X452269Y604335D01*
X456377Y606037D01*
X460823Y606037D01*
X464931Y604335D01*
X467714Y601553D01*
X467772Y601511D01*
X467824Y601461D01*
X467871Y601439D01*
X467913Y601409D01*
X467982Y601388D01*
X468047Y601358D01*
X468099Y601352D01*
X468149Y601337D01*
X468220Y601339D01*
X468291Y601331D01*
X468342Y601342D01*
X468394Y601343D01*
X468462Y601368D01*
X468532Y601383D01*
X468577Y601410D01*
X468625Y601427D01*
X468681Y601472D01*
X468743Y601509D01*
X468777Y601549D01*
X468817Y601581D01*
X468856Y601641D01*
X468903Y601696D01*
X468922Y601744D01*
X468950Y601788D01*
X468968Y601858D01*
X468995Y601924D01*
X469003Y601995D01*
X469011Y602027D01*
X469009Y602050D01*
X469013Y602091D01*
X469013Y613029D01*
X469002Y613100D01*
X469000Y613172D01*
X468982Y613221D01*
X468974Y613272D01*
X468940Y613335D01*
X468915Y613403D01*
X468883Y613443D01*
X468858Y613489D01*
X468806Y613539D01*
X468762Y613595D01*
X468718Y613623D01*
X468680Y613659D01*
X468615Y613689D01*
X468555Y613728D01*
X468504Y613740D01*
X468457Y613762D01*
X468386Y613770D01*
X468316Y613788D01*
X468264Y613784D01*
X468213Y613789D01*
X468142Y613774D01*
X468071Y613769D01*
X468023Y613748D01*
X467972Y613737D01*
X467911Y613700D01*
X467845Y613672D01*
X467789Y613627D01*
X467761Y613611D01*
X467746Y613593D01*
X467714Y613567D01*
X464931Y610785D01*
X460823Y609083D01*
X456377Y609083D01*
X452269Y610785D01*
X449125Y613929D01*
X447423Y618037D01*
X447423Y622483D01*
X449125Y626591D01*
X452269Y629735D01*
X456377Y631437D01*
X460823Y631437D01*
X464931Y629735D01*
X467714Y626953D01*
X467772Y626911D01*
X467824Y626861D01*
X467871Y626839D01*
X467913Y626809D01*
X467982Y626788D01*
X468047Y626758D01*
X468099Y626752D01*
X468149Y626737D01*
X468220Y626739D01*
X468291Y626731D01*
X468342Y626742D01*
X468394Y626743D01*
X468462Y626768D01*
X468532Y626783D01*
X468577Y626810D01*
X468625Y626827D01*
X468681Y626872D01*
X468743Y626909D01*
X468777Y626949D01*
X468817Y626981D01*
X468856Y627041D01*
X468903Y627096D01*
X468922Y627144D01*
X468950Y627188D01*
X468968Y627258D01*
X468995Y627324D01*
X469003Y627395D01*
X469011Y627427D01*
X469009Y627450D01*
X469013Y627491D01*
X469013Y631697D01*
X468999Y631788D01*
X468991Y631878D01*
X468979Y631908D01*
X468974Y631940D01*
X468931Y632021D01*
X468895Y632105D01*
X468869Y632137D01*
X468858Y632158D01*
X468835Y632180D01*
X468790Y632236D01*
X465227Y635799D01*
X465133Y635866D01*
X465039Y635937D01*
X465033Y635939D01*
X465027Y635942D01*
X464917Y635976D01*
X464805Y636013D01*
X464798Y636013D01*
X464792Y636015D01*
X464676Y636012D01*
X464559Y636011D01*
X464552Y636008D01*
X464547Y636008D01*
X464529Y636002D01*
X464398Y635964D01*
X460823Y634483D01*
X456377Y634483D01*
X452269Y636185D01*
X449125Y639329D01*
X447423Y643437D01*
X447423Y647883D01*
X449125Y651991D01*
X452269Y655135D01*
X456377Y656837D01*
X460823Y656837D01*
X464931Y655135D01*
X468075Y651991D01*
X469777Y647883D01*
X469777Y643437D01*
X468296Y639862D01*
X468270Y639749D01*
X468241Y639635D01*
X468241Y639629D01*
X468240Y639623D01*
X468251Y639506D01*
X468260Y639390D01*
X468262Y639384D01*
X468263Y639378D01*
X468311Y639270D01*
X468356Y639164D01*
X468361Y639158D01*
X468363Y639153D01*
X468376Y639140D01*
X468461Y639033D01*
X473587Y633907D01*
X473587Y387033D01*
X473601Y386943D01*
X473609Y386852D01*
X473621Y386823D01*
X473626Y386791D01*
X473669Y386710D01*
X473705Y386626D01*
X473731Y386594D01*
X473742Y386573D01*
X473765Y386551D01*
X473810Y386495D01*
X476607Y383698D01*
X476607Y379302D01*
X473498Y376193D01*
X469102Y376193D01*
G37*
%LPD*%
%LPC*%
G36*
X440174Y353333D02*
X440174Y353333D01*
X437065Y356442D01*
X437065Y360838D01*
X439862Y363635D01*
X439915Y363709D01*
X439975Y363779D01*
X439987Y363809D01*
X440006Y363835D01*
X440033Y363922D01*
X440067Y364007D01*
X440071Y364048D01*
X440078Y364070D01*
X440077Y364102D01*
X440085Y364173D01*
X440085Y462505D01*
X440071Y462596D01*
X440063Y462686D01*
X440051Y462716D01*
X440046Y462748D01*
X440003Y462829D01*
X439967Y462913D01*
X439941Y462945D01*
X439930Y462966D01*
X439907Y462988D01*
X439862Y463044D01*
X333123Y569783D01*
X333123Y640587D01*
X333109Y640678D01*
X333101Y640768D01*
X333089Y640798D01*
X333084Y640830D01*
X333041Y640911D01*
X333005Y640995D01*
X332979Y641027D01*
X332968Y641048D01*
X332945Y641070D01*
X332900Y641126D01*
X331032Y642994D01*
X330995Y643020D01*
X330964Y643054D01*
X330896Y643092D01*
X330833Y643137D01*
X330789Y643151D01*
X330749Y643173D01*
X330672Y643187D01*
X330598Y643210D01*
X330552Y643208D01*
X330507Y643217D01*
X330430Y643205D01*
X330352Y643203D01*
X330309Y643187D01*
X330263Y643181D01*
X330194Y643145D01*
X330121Y643119D01*
X330085Y643090D01*
X330044Y643069D01*
X329989Y643014D01*
X329929Y642965D01*
X329904Y642926D01*
X329872Y642894D01*
X329806Y642774D01*
X329796Y642758D01*
X329794Y642753D01*
X329791Y642747D01*
X328375Y639329D01*
X325231Y636185D01*
X321123Y634483D01*
X316677Y634483D01*
X312569Y636185D01*
X309425Y639329D01*
X307723Y643437D01*
X307723Y647883D01*
X309425Y651991D01*
X312569Y655135D01*
X316677Y656837D01*
X321123Y656837D01*
X325231Y655135D01*
X328375Y651991D01*
X329856Y648417D01*
X329917Y648317D01*
X329977Y648217D01*
X329982Y648213D01*
X329985Y648208D01*
X330075Y648133D01*
X330164Y648057D01*
X330170Y648055D01*
X330175Y648051D01*
X330283Y648009D01*
X330392Y647965D01*
X330400Y647964D01*
X330404Y647963D01*
X330423Y647962D01*
X330559Y647947D01*
X332547Y647947D01*
X337697Y642797D01*
X337697Y571993D01*
X337711Y571902D01*
X337719Y571812D01*
X337731Y571782D01*
X337736Y571750D01*
X337779Y571669D01*
X337815Y571585D01*
X337841Y571553D01*
X337852Y571532D01*
X337875Y571510D01*
X337920Y571454D01*
X444659Y464715D01*
X444659Y364173D01*
X444673Y364083D01*
X444681Y363992D01*
X444693Y363963D01*
X444698Y363931D01*
X444741Y363850D01*
X444777Y363766D01*
X444803Y363734D01*
X444814Y363713D01*
X444837Y363691D01*
X444882Y363635D01*
X447679Y360838D01*
X447679Y356442D01*
X444570Y353333D01*
X440174Y353333D01*
G37*
%LPD*%
%LPC*%
G36*
X422118Y61835D02*
X422118Y61835D01*
X421225Y62728D01*
X421225Y114792D01*
X422118Y115685D01*
X430593Y115685D01*
X430663Y115696D01*
X430735Y115698D01*
X430784Y115716D01*
X430835Y115724D01*
X430899Y115758D01*
X430966Y115783D01*
X431007Y115815D01*
X431053Y115840D01*
X431102Y115892D01*
X431158Y115936D01*
X431186Y115980D01*
X431222Y116018D01*
X431252Y116083D01*
X431291Y116143D01*
X431304Y116194D01*
X431326Y116241D01*
X431334Y116312D01*
X431351Y116382D01*
X431347Y116434D01*
X431353Y116485D01*
X431338Y116556D01*
X431332Y116627D01*
X431312Y116675D01*
X431301Y116726D01*
X431264Y116787D01*
X431236Y116853D01*
X431191Y116909D01*
X431174Y116937D01*
X431157Y116952D01*
X431131Y116984D01*
X430433Y117682D01*
X430433Y122078D01*
X433542Y125187D01*
X437938Y125187D01*
X441047Y122078D01*
X441047Y117682D01*
X440349Y116984D01*
X440307Y116926D01*
X440258Y116874D01*
X440236Y116827D01*
X440206Y116785D01*
X440184Y116716D01*
X440154Y116651D01*
X440149Y116599D01*
X440133Y116549D01*
X440135Y116478D01*
X440127Y116407D01*
X440138Y116356D01*
X440140Y116304D01*
X440164Y116236D01*
X440179Y116166D01*
X440206Y116121D01*
X440224Y116073D01*
X440269Y116017D01*
X440306Y115955D01*
X440345Y115921D01*
X440378Y115881D01*
X440438Y115842D01*
X440493Y115795D01*
X440541Y115776D01*
X440585Y115748D01*
X440654Y115730D01*
X440721Y115703D01*
X440792Y115695D01*
X440823Y115687D01*
X440846Y115689D01*
X440887Y115685D01*
X448782Y115685D01*
X449675Y114792D01*
X449675Y62728D01*
X448782Y61835D01*
X422118Y61835D01*
G37*
%LPD*%
%LPC*%
G36*
X419064Y500653D02*
X419064Y500653D01*
X415955Y503762D01*
X415955Y508158D01*
X418752Y510955D01*
X418805Y511029D01*
X418865Y511099D01*
X418877Y511129D01*
X418896Y511155D01*
X418923Y511242D01*
X418957Y511327D01*
X418961Y511368D01*
X418968Y511390D01*
X418967Y511422D01*
X418975Y511493D01*
X418975Y575352D01*
X420538Y576915D01*
X427576Y583953D01*
X427603Y583990D01*
X427636Y584021D01*
X427674Y584089D01*
X427719Y584152D01*
X427733Y584196D01*
X427755Y584237D01*
X427769Y584313D01*
X427792Y584388D01*
X427791Y584433D01*
X427799Y584479D01*
X427787Y584556D01*
X427785Y584633D01*
X427770Y584676D01*
X427763Y584722D01*
X427728Y584791D01*
X427701Y584864D01*
X427672Y584900D01*
X427651Y584941D01*
X427596Y584996D01*
X427547Y585056D01*
X427509Y585081D01*
X427476Y585113D01*
X427356Y585179D01*
X427340Y585189D01*
X427335Y585191D01*
X427329Y585194D01*
X426869Y585385D01*
X423725Y588529D01*
X422023Y592637D01*
X422023Y597083D01*
X423725Y601191D01*
X426869Y604335D01*
X430977Y606037D01*
X435423Y606037D01*
X439531Y604335D01*
X442675Y601191D01*
X444377Y597083D01*
X444377Y592637D01*
X442675Y588529D01*
X439531Y585385D01*
X435423Y583683D01*
X434090Y583683D01*
X433999Y583669D01*
X433909Y583661D01*
X433879Y583649D01*
X433847Y583644D01*
X433766Y583601D01*
X433682Y583565D01*
X433650Y583539D01*
X433629Y583528D01*
X433607Y583505D01*
X433551Y583460D01*
X432027Y581936D01*
X431985Y581878D01*
X431936Y581826D01*
X431914Y581779D01*
X431884Y581737D01*
X431863Y581668D01*
X431832Y581603D01*
X431827Y581551D01*
X431811Y581501D01*
X431813Y581430D01*
X431805Y581359D01*
X431816Y581308D01*
X431818Y581256D01*
X431842Y581188D01*
X431858Y581118D01*
X431884Y581073D01*
X431902Y581025D01*
X431947Y580969D01*
X431984Y580907D01*
X432023Y580873D01*
X432056Y580833D01*
X432116Y580794D01*
X432171Y580747D01*
X432219Y580728D01*
X432263Y580700D01*
X432332Y580682D01*
X432399Y580655D01*
X432470Y580647D01*
X432501Y580639D01*
X432525Y580641D01*
X432566Y580637D01*
X435423Y580637D01*
X439531Y578935D01*
X442675Y575791D01*
X444377Y571683D01*
X444377Y567237D01*
X442675Y563129D01*
X439531Y559985D01*
X435423Y558283D01*
X430977Y558283D01*
X426869Y559985D01*
X424848Y562005D01*
X424790Y562047D01*
X424738Y562097D01*
X424691Y562119D01*
X424649Y562149D01*
X424580Y562170D01*
X424515Y562200D01*
X424463Y562206D01*
X424413Y562221D01*
X424342Y562219D01*
X424271Y562227D01*
X424220Y562216D01*
X424168Y562215D01*
X424100Y562190D01*
X424030Y562175D01*
X423985Y562148D01*
X423937Y562131D01*
X423881Y562086D01*
X423819Y562049D01*
X423785Y562009D01*
X423745Y561977D01*
X423706Y561917D01*
X423659Y561862D01*
X423640Y561814D01*
X423612Y561770D01*
X423594Y561700D01*
X423567Y561634D01*
X423559Y561563D01*
X423551Y561531D01*
X423553Y561508D01*
X423549Y561467D01*
X423549Y552053D01*
X423560Y551982D01*
X423562Y551910D01*
X423580Y551861D01*
X423588Y551810D01*
X423622Y551747D01*
X423647Y551679D01*
X423679Y551639D01*
X423704Y551593D01*
X423756Y551543D01*
X423800Y551487D01*
X423844Y551459D01*
X423882Y551423D01*
X423947Y551393D01*
X424007Y551354D01*
X424058Y551342D01*
X424105Y551320D01*
X424176Y551312D01*
X424246Y551294D01*
X424298Y551298D01*
X424349Y551293D01*
X424420Y551308D01*
X424491Y551313D01*
X424539Y551334D01*
X424590Y551345D01*
X424651Y551382D01*
X424717Y551410D01*
X424773Y551455D01*
X424801Y551471D01*
X424816Y551489D01*
X424848Y551515D01*
X426869Y553535D01*
X430977Y555237D01*
X435423Y555237D01*
X439531Y553535D01*
X442675Y550391D01*
X444377Y546283D01*
X444377Y541837D01*
X442675Y537729D01*
X439531Y534585D01*
X435423Y532883D01*
X430977Y532883D01*
X426869Y534585D01*
X424848Y536605D01*
X424790Y536647D01*
X424738Y536697D01*
X424691Y536719D01*
X424649Y536749D01*
X424580Y536770D01*
X424515Y536800D01*
X424463Y536806D01*
X424413Y536821D01*
X424342Y536819D01*
X424271Y536827D01*
X424220Y536816D01*
X424168Y536815D01*
X424100Y536790D01*
X424030Y536775D01*
X423985Y536748D01*
X423937Y536731D01*
X423881Y536686D01*
X423819Y536649D01*
X423785Y536609D01*
X423745Y536577D01*
X423706Y536517D01*
X423659Y536462D01*
X423640Y536414D01*
X423612Y536370D01*
X423594Y536300D01*
X423567Y536234D01*
X423559Y536163D01*
X423551Y536131D01*
X423553Y536108D01*
X423549Y536067D01*
X423549Y511493D01*
X423563Y511403D01*
X423571Y511312D01*
X423583Y511283D01*
X423588Y511251D01*
X423631Y511170D01*
X423667Y511086D01*
X423693Y511054D01*
X423704Y511033D01*
X423727Y511011D01*
X423772Y510955D01*
X426569Y508158D01*
X426569Y503762D01*
X423460Y500653D01*
X419064Y500653D01*
G37*
%LPD*%
%LPC*%
G36*
X283216Y634483D02*
X283216Y634483D01*
X282323Y635376D01*
X282323Y655944D01*
X283216Y656837D01*
X303784Y656837D01*
X304677Y655944D01*
X304677Y635376D01*
X303784Y634483D01*
X283216Y634483D01*
G37*
%LPD*%
%LPC*%
G36*
X422916Y634483D02*
X422916Y634483D01*
X422023Y635376D01*
X422023Y655944D01*
X422916Y656837D01*
X443484Y656837D01*
X444377Y655944D01*
X444377Y635376D01*
X443484Y634483D01*
X422916Y634483D01*
G37*
%LPD*%
%LPC*%
G36*
X314966Y408423D02*
X314966Y408423D01*
X314073Y409316D01*
X314073Y429884D01*
X314966Y430777D01*
X335534Y430777D01*
X336427Y429884D01*
X336427Y409316D01*
X335534Y408423D01*
X314966Y408423D01*
G37*
%LPD*%
%LPC*%
G36*
X316677Y609083D02*
X316677Y609083D01*
X312569Y610785D01*
X309425Y613929D01*
X307723Y618037D01*
X307723Y622483D01*
X309425Y626591D01*
X312569Y629735D01*
X316677Y631437D01*
X321123Y631437D01*
X325231Y629735D01*
X328375Y626591D01*
X330077Y622483D01*
X330077Y618037D01*
X328375Y613929D01*
X325231Y610785D01*
X321123Y609083D01*
X316677Y609083D01*
G37*
%LPD*%
%LPC*%
G36*
X316677Y583683D02*
X316677Y583683D01*
X312569Y585385D01*
X309425Y588529D01*
X307723Y592637D01*
X307723Y597083D01*
X309425Y601191D01*
X312569Y604335D01*
X316677Y606037D01*
X321123Y606037D01*
X325231Y604335D01*
X328375Y601191D01*
X330077Y597083D01*
X330077Y592637D01*
X328375Y588529D01*
X325231Y585385D01*
X321123Y583683D01*
X316677Y583683D01*
G37*
%LPD*%
%LPC*%
G36*
X316677Y558283D02*
X316677Y558283D01*
X312569Y559985D01*
X309425Y563129D01*
X307723Y567237D01*
X307723Y571683D01*
X309425Y575791D01*
X312569Y578935D01*
X316677Y580637D01*
X321123Y580637D01*
X325231Y578935D01*
X328375Y575791D01*
X330077Y571683D01*
X330077Y567237D01*
X328375Y563129D01*
X325231Y559985D01*
X321123Y558283D01*
X316677Y558283D01*
G37*
%LPD*%
%LPC*%
G36*
X291277Y532883D02*
X291277Y532883D01*
X287169Y534585D01*
X284025Y537729D01*
X282323Y541837D01*
X282323Y546283D01*
X284025Y550391D01*
X287169Y553535D01*
X291277Y555237D01*
X295723Y555237D01*
X299831Y553535D01*
X302975Y550391D01*
X304677Y546283D01*
X304677Y541837D01*
X302975Y537729D01*
X299831Y534585D01*
X295723Y532883D01*
X291277Y532883D01*
G37*
%LPD*%
%LPC*%
G36*
X316677Y532883D02*
X316677Y532883D01*
X312569Y534585D01*
X309425Y537729D01*
X307723Y541837D01*
X307723Y546283D01*
X309425Y550391D01*
X312569Y553535D01*
X316677Y555237D01*
X321123Y555237D01*
X325231Y553535D01*
X328375Y550391D01*
X330077Y546283D01*
X330077Y541837D01*
X328375Y537729D01*
X325231Y534585D01*
X321123Y532883D01*
X316677Y532883D01*
G37*
%LPD*%
%LPC*%
G36*
X424627Y433823D02*
X424627Y433823D01*
X420519Y435525D01*
X417375Y438669D01*
X415673Y442777D01*
X415673Y447223D01*
X417375Y451331D01*
X420519Y454475D01*
X424627Y456177D01*
X429073Y456177D01*
X433181Y454475D01*
X436325Y451331D01*
X438027Y447223D01*
X438027Y442777D01*
X436325Y438669D01*
X433181Y435525D01*
X429073Y433823D01*
X424627Y433823D01*
G37*
%LPD*%
%LPC*%
G36*
X399227Y433823D02*
X399227Y433823D01*
X395119Y435525D01*
X391975Y438669D01*
X390273Y442777D01*
X390273Y447223D01*
X391975Y451331D01*
X395119Y454475D01*
X399227Y456177D01*
X403673Y456177D01*
X407781Y454475D01*
X410925Y451331D01*
X412627Y447223D01*
X412627Y442777D01*
X410925Y438669D01*
X407781Y435525D01*
X403673Y433823D01*
X399227Y433823D01*
G37*
%LPD*%
%LPC*%
G36*
X373827Y433823D02*
X373827Y433823D01*
X369719Y435525D01*
X366575Y438669D01*
X364873Y442777D01*
X364873Y447223D01*
X366575Y451331D01*
X369719Y454475D01*
X373827Y456177D01*
X378273Y456177D01*
X382381Y454475D01*
X385525Y451331D01*
X387227Y447223D01*
X387227Y442777D01*
X385525Y438669D01*
X382381Y435525D01*
X378273Y433823D01*
X373827Y433823D01*
G37*
%LPD*%
%LPC*%
G36*
X348427Y433823D02*
X348427Y433823D01*
X344319Y435525D01*
X341175Y438669D01*
X339473Y442777D01*
X339473Y447223D01*
X341175Y451331D01*
X344319Y454475D01*
X348427Y456177D01*
X352873Y456177D01*
X356981Y454475D01*
X360125Y451331D01*
X361827Y447223D01*
X361827Y442777D01*
X360125Y438669D01*
X356981Y435525D01*
X352873Y433823D01*
X348427Y433823D01*
G37*
%LPD*%
%LPC*%
G36*
X323027Y433823D02*
X323027Y433823D01*
X318919Y435525D01*
X315775Y438669D01*
X314073Y442777D01*
X314073Y447223D01*
X315775Y451331D01*
X318919Y454475D01*
X323027Y456177D01*
X327473Y456177D01*
X331581Y454475D01*
X334725Y451331D01*
X336427Y447223D01*
X336427Y442777D01*
X334725Y438669D01*
X331581Y435525D01*
X327473Y433823D01*
X323027Y433823D01*
G37*
%LPD*%
%LPC*%
G36*
X424627Y408423D02*
X424627Y408423D01*
X420519Y410125D01*
X417375Y413269D01*
X415673Y417377D01*
X415673Y421823D01*
X417375Y425931D01*
X420519Y429075D01*
X424627Y430777D01*
X429073Y430777D01*
X433181Y429075D01*
X436325Y425931D01*
X438027Y421823D01*
X438027Y417377D01*
X436325Y413269D01*
X433181Y410125D01*
X429073Y408423D01*
X424627Y408423D01*
G37*
%LPD*%
%LPC*%
G36*
X399227Y408423D02*
X399227Y408423D01*
X395119Y410125D01*
X391975Y413269D01*
X390273Y417377D01*
X390273Y421823D01*
X391975Y425931D01*
X395119Y429075D01*
X399227Y430777D01*
X403673Y430777D01*
X407781Y429075D01*
X410925Y425931D01*
X412627Y421823D01*
X412627Y417377D01*
X410925Y413269D01*
X407781Y410125D01*
X403673Y408423D01*
X399227Y408423D01*
G37*
%LPD*%
%LPC*%
G36*
X373827Y408423D02*
X373827Y408423D01*
X369719Y410125D01*
X366575Y413269D01*
X364873Y417377D01*
X364873Y421823D01*
X366575Y425931D01*
X369719Y429075D01*
X373827Y430777D01*
X378273Y430777D01*
X382381Y429075D01*
X385525Y425931D01*
X387227Y421823D01*
X387227Y417377D01*
X385525Y413269D01*
X382381Y410125D01*
X378273Y408423D01*
X373827Y408423D01*
G37*
%LPD*%
%LPC*%
G36*
X348427Y408423D02*
X348427Y408423D01*
X344319Y410125D01*
X341175Y413269D01*
X339473Y417377D01*
X339473Y421823D01*
X341175Y425931D01*
X344319Y429075D01*
X348427Y430777D01*
X352873Y430777D01*
X356981Y429075D01*
X360125Y425931D01*
X361827Y421823D01*
X361827Y417377D01*
X360125Y413269D01*
X356981Y410125D01*
X352873Y408423D01*
X348427Y408423D01*
G37*
%LPD*%
%LPC*%
G36*
X430977Y609083D02*
X430977Y609083D01*
X426869Y610785D01*
X423725Y613929D01*
X422023Y618037D01*
X422023Y622483D01*
X423725Y626591D01*
X426869Y629735D01*
X430977Y631437D01*
X435423Y631437D01*
X439531Y629735D01*
X442675Y626591D01*
X444377Y622483D01*
X444377Y618037D01*
X442675Y613929D01*
X439531Y610785D01*
X435423Y609083D01*
X430977Y609083D01*
G37*
%LPD*%
%LPC*%
G36*
X581783Y524523D02*
X581783Y524523D01*
X581783Y538241D01*
X605994Y538241D01*
X606641Y538068D01*
X607220Y537733D01*
X607693Y537260D01*
X608028Y536681D01*
X608201Y536034D01*
X608201Y524523D01*
X581783Y524523D01*
G37*
%LPD*%
%LPC*%
G36*
X476573Y90283D02*
X476573Y90283D01*
X476573Y116701D01*
X488084Y116701D01*
X488731Y116528D01*
X489310Y116193D01*
X489783Y115720D01*
X490118Y115141D01*
X490291Y114494D01*
X490291Y90283D01*
X476573Y90283D01*
G37*
%LPD*%
%LPC*%
G36*
X581783Y88923D02*
X581783Y88923D01*
X581783Y102641D01*
X605994Y102641D01*
X606641Y102468D01*
X607220Y102133D01*
X607693Y101660D01*
X608028Y101081D01*
X608201Y100434D01*
X608201Y88923D01*
X581783Y88923D01*
G37*
%LPD*%
%LPC*%
G36*
X581783Y85877D02*
X581783Y85877D01*
X608201Y85877D01*
X608201Y74366D01*
X608028Y73719D01*
X607693Y73140D01*
X607220Y72667D01*
X606641Y72332D01*
X605994Y72159D01*
X581783Y72159D01*
X581783Y85877D01*
G37*
%LPD*%
%LPC*%
G36*
X581783Y507759D02*
X581783Y507759D01*
X581783Y521477D01*
X608201Y521477D01*
X608201Y509966D01*
X608028Y509319D01*
X607693Y508740D01*
X607220Y508267D01*
X606641Y507932D01*
X605994Y507759D01*
X581783Y507759D01*
G37*
%LPD*%
%LPC*%
G36*
X459809Y90283D02*
X459809Y90283D01*
X459809Y114494D01*
X459982Y115141D01*
X460317Y115720D01*
X460790Y116193D01*
X461369Y116528D01*
X462016Y116701D01*
X473527Y116701D01*
X473527Y90283D01*
X459809Y90283D01*
G37*
%LPD*%
%LPC*%
G36*
X495873Y346701D02*
X495873Y346701D01*
X491111Y351463D01*
X491111Y358197D01*
X495873Y362959D01*
X502607Y362959D01*
X507369Y358197D01*
X507369Y351463D01*
X502607Y346701D01*
X495873Y346701D01*
G37*
%LPD*%
%LPC*%
G36*
X470473Y346701D02*
X470473Y346701D01*
X465711Y351463D01*
X465711Y358197D01*
X470473Y362959D01*
X477207Y362959D01*
X481969Y358197D01*
X481969Y351463D01*
X477207Y346701D01*
X470473Y346701D01*
G37*
%LPD*%
%LPC*%
G36*
X727393Y192931D02*
X727393Y192931D01*
X722631Y197693D01*
X722631Y204427D01*
X727393Y209189D01*
X734127Y209189D01*
X738889Y204427D01*
X738889Y197693D01*
X734127Y192931D01*
X727393Y192931D01*
G37*
%LPD*%
%LPC*%
G36*
X727393Y167531D02*
X727393Y167531D01*
X722631Y172293D01*
X722631Y179027D01*
X727393Y183789D01*
X734127Y183789D01*
X738889Y179027D01*
X738889Y172293D01*
X734127Y167531D01*
X727393Y167531D01*
G37*
%LPD*%
%LPC*%
G36*
X77923Y72043D02*
X77923Y72043D01*
X77923Y80681D01*
X84820Y80681D01*
X86399Y80431D01*
X87920Y79936D01*
X89345Y79210D01*
X90639Y78270D01*
X91770Y77139D01*
X92710Y75845D01*
X93436Y74420D01*
X93931Y72899D01*
X94066Y72043D01*
X77923Y72043D01*
G37*
%LPD*%
%LPC*%
G36*
X678181Y85997D02*
X678181Y85997D01*
X678181Y96320D01*
X679454Y96119D01*
X681241Y95538D01*
X682915Y94685D01*
X684436Y93580D01*
X685764Y92252D01*
X686869Y90731D01*
X687722Y89057D01*
X688303Y87270D01*
X688504Y85997D01*
X678181Y85997D01*
G37*
%LPD*%
%LPC*%
G36*
X743205Y85997D02*
X743205Y85997D01*
X743205Y96320D01*
X744478Y96119D01*
X746265Y95538D01*
X747939Y94685D01*
X749460Y93580D01*
X750788Y92252D01*
X751893Y90731D01*
X752746Y89057D01*
X753327Y87270D01*
X753528Y85997D01*
X743205Y85997D01*
G37*
%LPD*%
%LPC*%
G36*
X664812Y85997D02*
X664812Y85997D01*
X665013Y87270D01*
X665594Y89057D01*
X666447Y90731D01*
X667552Y92252D01*
X668880Y93580D01*
X670401Y94685D01*
X672075Y95538D01*
X673862Y96119D01*
X675135Y96320D01*
X675135Y85997D01*
X664812Y85997D01*
G37*
%LPD*%
%LPC*%
G36*
X729836Y85997D02*
X729836Y85997D01*
X730037Y87270D01*
X730618Y89057D01*
X731471Y90731D01*
X732576Y92252D01*
X733904Y93580D01*
X735425Y94685D01*
X737099Y95538D01*
X738886Y96119D01*
X740159Y96320D01*
X740159Y85997D01*
X729836Y85997D01*
G37*
%LPD*%
%LPC*%
G36*
X678181Y82951D02*
X678181Y82951D01*
X688504Y82951D01*
X688303Y81678D01*
X687722Y79891D01*
X686869Y78217D01*
X685764Y76696D01*
X684436Y75368D01*
X682915Y74263D01*
X681241Y73410D01*
X679454Y72829D01*
X678181Y72628D01*
X678181Y82951D01*
G37*
%LPD*%
%LPC*%
G36*
X743205Y82951D02*
X743205Y82951D01*
X753528Y82951D01*
X753327Y81678D01*
X752746Y79891D01*
X751893Y78217D01*
X750788Y76696D01*
X749460Y75368D01*
X747939Y74263D01*
X746265Y73410D01*
X744478Y72829D01*
X743205Y72628D01*
X743205Y82951D01*
G37*
%LPD*%
%LPC*%
G36*
X673862Y72829D02*
X673862Y72829D01*
X672075Y73410D01*
X670401Y74263D01*
X668880Y75368D01*
X667552Y76696D01*
X666447Y78217D01*
X665594Y79891D01*
X665013Y81678D01*
X664812Y82951D01*
X675135Y82951D01*
X675135Y72628D01*
X673862Y72829D01*
G37*
%LPD*%
%LPC*%
G36*
X738886Y72829D02*
X738886Y72829D01*
X737099Y73410D01*
X735425Y74263D01*
X733904Y75368D01*
X732576Y76696D01*
X731471Y78217D01*
X730618Y79891D01*
X730037Y81678D01*
X729836Y82951D01*
X740159Y82951D01*
X740159Y72628D01*
X738886Y72829D01*
G37*
%LPD*%
%LPC*%
G36*
X741681Y84473D02*
X741681Y84473D01*
X741681Y84475D01*
X741683Y84475D01*
X741683Y84473D01*
X741681Y84473D01*
G37*
%LPD*%
%LPC*%
G36*
X676657Y84473D02*
X676657Y84473D01*
X676657Y84475D01*
X676659Y84475D01*
X676659Y84473D01*
X676657Y84473D01*
G37*
%LPD*%
D10*
X84020Y70520D02*
X68780Y70520D01*
X68780Y95920D02*
X84020Y95920D01*
X84020Y121320D02*
X68780Y121320D01*
X68780Y146720D02*
X84020Y146720D01*
X84020Y172120D02*
X68780Y172120D01*
X68780Y197520D02*
X84020Y197520D01*
X84020Y222920D02*
X68780Y222920D01*
X68780Y248320D02*
X84020Y248320D01*
X84020Y273720D02*
X68780Y273720D01*
X68780Y299120D02*
X84020Y299120D01*
X84020Y324520D02*
X68780Y324520D01*
X68780Y349920D02*
X84020Y349920D01*
X84020Y375320D02*
X68780Y375320D01*
X68780Y400720D02*
X84020Y400720D01*
X84020Y426120D02*
X68780Y426120D01*
X68780Y451520D02*
X84020Y451520D01*
X84020Y476920D02*
X68780Y476920D01*
X68780Y502320D02*
X84020Y502320D01*
X84020Y527720D02*
X68780Y527720D01*
X68780Y553120D02*
X84020Y553120D01*
D11*
X178000Y418500D03*
D12*
X152600Y418500D03*
X178000Y443900D03*
X152600Y443900D03*
X178000Y469300D03*
X152600Y469300D03*
X178000Y494700D03*
X152600Y494700D03*
X178000Y520100D03*
X152600Y520100D03*
D13*
X580260Y523000D03*
X580260Y483400D03*
X580260Y443800D03*
X580260Y404200D03*
X580260Y364600D03*
X580260Y325000D03*
X580260Y285400D03*
X580260Y245800D03*
X580260Y206200D03*
X580260Y166600D03*
X580260Y127000D03*
X580260Y87400D03*
D14*
X741682Y84474D03*
X676658Y84474D03*
X741682Y129686D03*
X676658Y129686D03*
D15*
X730760Y175660D03*
X730760Y201060D03*
D16*
X277050Y88760D03*
X316650Y88760D03*
X356250Y88760D03*
X395850Y88760D03*
X435450Y88760D03*
X475050Y88760D03*
D11*
X293500Y645660D03*
D12*
X318900Y645660D03*
X293500Y620260D03*
X318900Y620260D03*
X293500Y594860D03*
X318900Y594860D03*
X293500Y569460D03*
X318900Y569460D03*
X293500Y544060D03*
X318900Y544060D03*
D11*
X433200Y645660D03*
D12*
X458600Y645660D03*
X433200Y620260D03*
X458600Y620260D03*
X433200Y594860D03*
X458600Y594860D03*
X433200Y569460D03*
X458600Y569460D03*
X433200Y544060D03*
X458600Y544060D03*
D11*
X325250Y419600D03*
D12*
X325250Y445000D03*
X350650Y419600D03*
X350650Y445000D03*
X376050Y419600D03*
X376050Y445000D03*
X401450Y419600D03*
X401450Y445000D03*
X426850Y419600D03*
X426850Y445000D03*
D17*
X499240Y354830D03*
X473840Y354830D03*
D18*
X134580Y146720D02*
X76400Y146720D01*
D19*
X134580Y146720D03*
D18*
X117040Y349920D02*
X178000Y410880D01*
X178000Y418500D01*
X117040Y349920D02*
X76400Y349920D01*
X76400Y248320D02*
X141170Y248320D01*
D19*
X141170Y248320D03*
D18*
X193748Y483135D02*
X182183Y494700D01*
X178000Y494700D01*
X193748Y483135D02*
X193748Y370748D01*
X122120Y299120D02*
X76400Y299120D01*
X122120Y299120D02*
X193748Y370748D01*
X166062Y489755D02*
X166062Y499645D01*
X182945Y481238D02*
X189938Y474245D01*
X178000Y511583D02*
X178000Y520100D01*
X178000Y511583D02*
X166062Y499645D01*
X166062Y489755D02*
X174579Y481238D01*
X182945Y481238D01*
X189938Y474245D02*
X189938Y372018D01*
X142440Y324520D02*
X76400Y324520D01*
X142440Y324520D02*
X189938Y372018D01*
X152600Y390560D02*
X137360Y375320D01*
X152600Y390560D02*
X152600Y418500D01*
X137360Y375320D02*
X76400Y375320D01*
D19*
X127200Y393100D03*
D18*
X119580Y400720D01*
X76400Y400720D01*
X84020Y545500D02*
X76400Y553120D01*
X84020Y545500D02*
X178000Y545500D01*
X196796Y526704D01*
X101800Y273720D02*
X76400Y273720D01*
X196796Y368716D02*
X196796Y526704D01*
X196796Y368716D02*
X101800Y273720D01*
X580260Y523000D02*
X592960Y523000D01*
X611380Y541420D01*
D19*
X611380Y541420D03*
D18*
X627370Y285400D02*
X580260Y285400D01*
X627370Y285400D02*
X634240Y278530D01*
D19*
X634240Y278530D03*
X640590Y245510D03*
D18*
X640590Y221380D02*
X625410Y206200D01*
X640590Y221380D02*
X640590Y245510D01*
X625410Y206200D02*
X580260Y206200D01*
X580260Y245800D02*
X631990Y245800D01*
X643130Y256940D01*
X632220Y323730D02*
X594230Y323730D01*
X580260Y325000D01*
X632220Y323730D02*
X643130Y312820D01*
X643130Y256940D01*
X612650Y410550D02*
X612650Y476650D01*
D19*
X612650Y476650D03*
D18*
X612650Y410550D02*
X606300Y404200D01*
X580260Y404200D01*
D19*
X621540Y352190D03*
D18*
X608840Y364890D01*
X580550Y364890D01*
X580260Y364600D01*
D19*
X644400Y216300D03*
D18*
X644400Y229000D01*
X646940Y231540D01*
X646940Y314399D02*
X618519Y342819D01*
D19*
X618519Y342819D03*
D18*
X646940Y314399D02*
X646940Y231540D01*
D19*
X650750Y226460D03*
D18*
X650750Y359810D01*
D19*
X650750Y359810D03*
X657316Y286150D03*
D18*
X657316Y400234D01*
X650750Y406800D01*
D19*
X650750Y406800D03*
D18*
X639744Y166600D02*
X676658Y129686D01*
X639744Y166600D02*
X580260Y166600D01*
X676658Y129686D02*
X741682Y129686D01*
D19*
X616200Y120650D03*
D18*
X586610Y120650D01*
X580260Y127000D01*
X480190Y93900D02*
X475050Y88760D01*
X480190Y93900D02*
X480190Y119880D01*
D19*
X480190Y119880D03*
X318900Y152900D03*
D18*
X310010Y144010D01*
X298580Y144010D01*
D19*
X298580Y144010D03*
D18*
X480190Y161790D02*
X480190Y119880D01*
X480190Y161790D02*
X496700Y178300D01*
D19*
X496700Y178300D03*
X269370Y321810D03*
X262992Y334510D03*
X433200Y267200D03*
D18*
X269370Y321810D02*
X269370Y328132D01*
X262992Y334510D01*
D19*
X331600Y267200D03*
D18*
X249812Y382008D02*
X249812Y601972D01*
X268100Y620260D01*
X293500Y620260D01*
X249812Y382008D02*
X325250Y306570D01*
X325250Y273550D01*
X331600Y267200D01*
D19*
X331600Y305300D03*
D18*
X252860Y384040D01*
X252860Y581050D01*
X266670Y594860D01*
X293500Y594860D01*
D19*
X395100Y305300D03*
D18*
X369700Y330700D01*
X318900Y330700D01*
X255908Y393692D01*
X255908Y552950D01*
X272418Y569460D01*
X293500Y569460D01*
D19*
X442372Y358640D03*
D18*
X442372Y463768D01*
X335410Y570730D02*
X335410Y641850D01*
X331600Y645660D01*
X318900Y645660D01*
X335410Y570730D02*
X442372Y463768D01*
D19*
X421262Y505960D03*
D18*
X433200Y586343D02*
X433200Y594860D01*
X433200Y586343D02*
X421262Y574405D01*
X421262Y505960D01*
X471300Y632960D02*
X458600Y645660D01*
X471300Y632960D02*
X471300Y381500D01*
D19*
X471300Y381500D03*
X330330Y119880D03*
D18*
X316650Y106200D01*
X316650Y88760D01*
D19*
X437998Y216400D03*
D18*
X437998Y231614D01*
D19*
X395100Y279900D03*
D18*
X395100Y274512D02*
X437998Y231614D01*
X395100Y274512D02*
X395100Y279900D01*
X395100Y292600D01*
X369700Y318000D01*
X368430Y318000D01*
D19*
X368430Y318000D03*
X355730Y119880D03*
D18*
X356250Y119360D01*
X356250Y88760D01*
X348110Y127500D02*
X280800Y127500D01*
X348110Y127500D02*
X355730Y119880D01*
X280800Y127500D02*
X277050Y123750D01*
X277050Y88760D01*
D19*
X277050Y123750D03*
X400180Y120540D03*
D18*
X395850Y116210D01*
X395850Y88760D01*
D19*
X458600Y203700D03*
D18*
X433200Y203700D01*
D19*
X433200Y203700D03*
D18*
X409070Y179570D01*
X321440Y179570D01*
D19*
X321440Y179570D03*
D18*
X321440Y180840D02*
X306200Y196080D01*
X306200Y203700D01*
X293500Y216400D01*
X292230Y216400D01*
X321440Y180840D02*
X321440Y179570D01*
D19*
X292230Y216400D03*
X458600Y165600D03*
D18*
X458600Y203700D01*
D19*
X435740Y119880D03*
D18*
X435740Y89050D01*
X435450Y88760D01*
D19*
X431930Y229100D03*
D18*
X427132Y206214D02*
X427132Y203982D01*
X431930Y211012D02*
X431930Y229100D01*
X431930Y211012D02*
X427132Y206214D01*
X326974Y182618D02*
X323954Y185638D01*
X320953Y185638D01*
D19*
X287981Y238821D03*
D18*
X287981Y233041D02*
X309728Y211294D01*
X287981Y233041D02*
X287981Y238821D01*
X309728Y211294D02*
X309728Y196863D01*
X405768Y182618D02*
X427132Y203982D01*
X405768Y182618D02*
X326974Y182618D01*
X320953Y185638D02*
X309728Y196863D01*
M02*
