G04 EAGLE Gerber RS-274X export*
G75*
%MOMM*%
%FSLAX34Y34*%
%LPD*%
%INBottom Paste*%
%IPPOS*%
%AMOC8*
5,1,8,0,0,1.08239X$1,22.5*%
G01*
%ADD10R,1.400000X1.200000*%
%ADD11R,1.500000X1.300000*%
%ADD12R,5.080000X2.540000*%
%ADD13R,1.300000X1.500000*%
%ADD14R,2.540000X5.080000*%
%ADD15R,2.032000X0.660400*%


D10*
X170380Y103300D03*
X170380Y73300D03*
D11*
X146250Y78800D03*
X146250Y97800D03*
X639320Y120390D03*
X639320Y101390D03*
D12*
X580260Y523000D03*
X580260Y483400D03*
X580260Y443800D03*
X580260Y404200D03*
X580260Y364600D03*
X580260Y325000D03*
X580260Y285400D03*
X580260Y245800D03*
X580260Y206200D03*
X580260Y166600D03*
X580260Y127000D03*
X580260Y87400D03*
D11*
X665990Y177590D03*
X665990Y196590D03*
D13*
X341100Y368800D03*
X322100Y368800D03*
X393170Y230370D03*
X374170Y230370D03*
D11*
X252860Y256430D03*
X252860Y275430D03*
D14*
X277050Y88760D03*
X316650Y88760D03*
X356250Y88760D03*
X395850Y88760D03*
X435450Y88760D03*
X475050Y88760D03*
D15*
X413134Y343400D03*
X351666Y343400D03*
X413134Y330700D03*
X413134Y318000D03*
X351666Y330700D03*
X351666Y318000D03*
X413134Y305300D03*
X351666Y305300D03*
X413134Y292600D03*
X413134Y279900D03*
X351666Y292600D03*
X351666Y279900D03*
X413134Y267200D03*
X351666Y267200D03*
X476634Y229100D03*
X415166Y229100D03*
X476634Y216400D03*
X476634Y203700D03*
X415166Y216400D03*
X415166Y203700D03*
X476634Y191000D03*
X415166Y191000D03*
X476634Y178300D03*
X476634Y165600D03*
X415166Y178300D03*
X415166Y165600D03*
X476634Y152900D03*
X415166Y152900D03*
X336934Y229100D03*
X275466Y229100D03*
X336934Y216400D03*
X336934Y203700D03*
X275466Y216400D03*
X275466Y203700D03*
X336934Y191000D03*
X275466Y191000D03*
X336934Y178300D03*
X336934Y165600D03*
X275466Y178300D03*
X275466Y165600D03*
X336934Y152900D03*
X275466Y152900D03*
D11*
X345570Y570120D03*
X345570Y589120D03*
X345570Y629760D03*
X345570Y610760D03*
D13*
X296700Y127500D03*
X315700Y127500D03*
D11*
X386210Y152240D03*
X386210Y133240D03*
X485270Y571390D03*
X485270Y590390D03*
X485270Y631030D03*
X485270Y612030D03*
X252860Y215790D03*
X252860Y234790D03*
D13*
X468100Y130040D03*
X449100Y130040D03*
D11*
X467490Y318660D03*
X467490Y337660D03*
M02*
