G04 EAGLE Gerber RS-274X export*
G75*
%MOMM*%
%FSLAX34Y34*%
%LPD*%
%INBottom Silkscreen*%
%IPPOS*%
%AMOC8*
5,1,8,0,0,1.08239X$1,22.5*%
G01*
%ADD10C,0.076200*%
%ADD11C,0.152400*%
%ADD12C,0.101600*%
%ADD13C,0.127000*%
%ADD14C,0.203200*%

G36*
X312049Y453385D02*
X312049Y453385D01*
X312063Y453384D01*
X315111Y453638D01*
X315164Y453658D01*
X315219Y453672D01*
X315229Y453683D01*
X315243Y453688D01*
X315277Y453734D01*
X315316Y453775D01*
X315322Y453794D01*
X315327Y453801D01*
X315328Y453814D01*
X315340Y453852D01*
X316842Y463865D01*
X318735Y464575D01*
X320767Y465337D01*
X320771Y465340D01*
X320781Y465343D01*
X323067Y466359D01*
X323073Y466363D01*
X323087Y466369D01*
X325237Y467563D01*
X333744Y461808D01*
X333794Y461792D01*
X333841Y461769D01*
X333860Y461771D01*
X333878Y461765D01*
X333929Y461778D01*
X333981Y461783D01*
X334004Y461797D01*
X334015Y461800D01*
X334023Y461809D01*
X334051Y461826D01*
X335829Y463350D01*
X335832Y463355D01*
X335843Y463363D01*
X339399Y466919D01*
X339402Y466925D01*
X339412Y466933D01*
X340936Y468711D01*
X340959Y468761D01*
X340988Y468808D01*
X340988Y468825D01*
X340995Y468839D01*
X340987Y468894D01*
X340987Y468949D01*
X340977Y468969D01*
X340975Y468979D01*
X340967Y468989D01*
X340951Y469022D01*
X334942Y477534D01*
X336399Y480447D01*
X337415Y482479D01*
X337417Y482491D01*
X337432Y482525D01*
X338153Y485168D01*
X348413Y487169D01*
X348467Y487198D01*
X348524Y487222D01*
X348530Y487230D01*
X348538Y487234D01*
X348569Y487287D01*
X348604Y487338D01*
X348606Y487350D01*
X348609Y487355D01*
X348609Y487367D01*
X348617Y487418D01*
X348617Y497070D01*
X348599Y497135D01*
X348581Y497200D01*
X348579Y497202D01*
X348578Y497205D01*
X348527Y497250D01*
X348478Y497296D01*
X348474Y497297D01*
X348473Y497299D01*
X348466Y497300D01*
X348401Y497321D01*
X338149Y498821D01*
X337686Y500442D01*
X337178Y502220D01*
X337171Y502230D01*
X337161Y502263D01*
X336147Y504290D01*
X335192Y506439D01*
X341205Y514958D01*
X341223Y515011D01*
X341248Y515062D01*
X341246Y515077D01*
X341251Y515091D01*
X341238Y515146D01*
X341232Y515202D01*
X341221Y515219D01*
X341219Y515228D01*
X341210Y515237D01*
X341189Y515271D01*
X337633Y519335D01*
X337628Y519338D01*
X337621Y519347D01*
X335843Y521125D01*
X335837Y521128D01*
X335829Y521138D01*
X334051Y522662D01*
X333995Y522688D01*
X333942Y522717D01*
X333932Y522716D01*
X333923Y522721D01*
X333862Y522712D01*
X333801Y522709D01*
X333790Y522702D01*
X333783Y522701D01*
X333774Y522693D01*
X333730Y522670D01*
X325742Y516429D01*
X323860Y517605D01*
X323857Y517606D01*
X323852Y517610D01*
X322074Y518626D01*
X322061Y518629D01*
X322028Y518646D01*
X320507Y519153D01*
X317855Y520118D01*
X316102Y530387D01*
X316079Y530434D01*
X316063Y530484D01*
X316049Y530496D01*
X316040Y530513D01*
X315996Y530541D01*
X315956Y530575D01*
X315930Y530582D01*
X315921Y530588D01*
X315908Y530588D01*
X315877Y530596D01*
X313340Y530850D01*
X311311Y531103D01*
X311302Y531102D01*
X311280Y531105D01*
X308994Y531105D01*
X308987Y531103D01*
X308971Y531104D01*
X306177Y530850D01*
X306128Y530831D01*
X306076Y530819D01*
X306063Y530806D01*
X306046Y530799D01*
X306014Y530756D01*
X305977Y530718D01*
X305969Y530694D01*
X305962Y530685D01*
X305961Y530673D01*
X305951Y530642D01*
X304200Y520638D01*
X302574Y520174D01*
X302571Y520171D01*
X302564Y520170D01*
X297992Y518646D01*
X297982Y518639D01*
X297938Y518621D01*
X297225Y518176D01*
X296415Y517669D01*
X296044Y517437D01*
X287036Y523443D01*
X286987Y523458D01*
X286941Y523481D01*
X286921Y523479D01*
X286902Y523485D01*
X286852Y523472D01*
X286801Y523467D01*
X286777Y523452D01*
X286766Y523449D01*
X286758Y523440D01*
X286731Y523424D01*
X283175Y520376D01*
X283172Y520371D01*
X283161Y520363D01*
X279859Y517061D01*
X279827Y517003D01*
X279793Y516946D01*
X279793Y516942D01*
X279791Y516938D01*
X279795Y516872D01*
X279797Y516806D01*
X279799Y516800D01*
X279799Y516797D01*
X279804Y516790D01*
X279833Y516733D01*
X285833Y508483D01*
X282866Y503292D01*
X282858Y503258D01*
X282841Y503228D01*
X282842Y503191D01*
X282833Y503155D01*
X282844Y503122D01*
X282845Y503088D01*
X282866Y503057D01*
X282878Y503021D01*
X282905Y503000D01*
X282924Y502971D01*
X282982Y502937D01*
X282988Y502933D01*
X282990Y502932D01*
X282994Y502930D01*
X300012Y496326D01*
X300015Y496326D01*
X300018Y496324D01*
X300085Y496320D01*
X300153Y496314D01*
X300155Y496315D01*
X300158Y496315D01*
X300218Y496347D01*
X300278Y496378D01*
X300280Y496381D01*
X300282Y496382D01*
X300330Y496447D01*
X301228Y498218D01*
X302427Y499770D01*
X303895Y501069D01*
X305582Y502070D01*
X307426Y502737D01*
X309362Y503047D01*
X311323Y502988D01*
X313237Y502563D01*
X315038Y501786D01*
X316661Y500685D01*
X318049Y499300D01*
X319152Y497679D01*
X319932Y495880D01*
X320362Y493966D01*
X320424Y491996D01*
X320270Y490059D01*
X319761Y488195D01*
X318915Y486457D01*
X317760Y484906D01*
X316337Y483598D01*
X314696Y482576D01*
X312894Y481877D01*
X310993Y481525D01*
X309060Y481532D01*
X307162Y481898D01*
X305365Y482611D01*
X303732Y483645D01*
X302319Y484964D01*
X301176Y486524D01*
X300333Y488289D01*
X300331Y488291D01*
X300331Y488292D01*
X300285Y488343D01*
X300239Y488394D01*
X300237Y488395D01*
X300236Y488396D01*
X300169Y488414D01*
X300103Y488433D01*
X300101Y488433D01*
X300100Y488433D01*
X300020Y488419D01*
X282748Y482323D01*
X282722Y482305D01*
X282692Y482295D01*
X282666Y482264D01*
X282633Y482241D01*
X282621Y482212D01*
X282601Y482188D01*
X282595Y482148D01*
X282580Y482110D01*
X282586Y482079D01*
X282581Y482048D01*
X282605Y481973D01*
X282605Y481972D01*
X282605Y481971D01*
X282606Y481971D01*
X283364Y480454D01*
X284123Y478682D01*
X284129Y478675D01*
X284136Y478656D01*
X285074Y477015D01*
X279320Y468510D01*
X279305Y468461D01*
X279281Y468416D01*
X279283Y468396D01*
X279277Y468376D01*
X279290Y468327D01*
X279294Y468276D01*
X279309Y468251D01*
X279312Y468239D01*
X279320Y468231D01*
X279335Y468206D01*
X280605Y466682D01*
X280612Y466678D01*
X280621Y466665D01*
X284177Y463109D01*
X284183Y463106D01*
X284191Y463096D01*
X285969Y461572D01*
X286022Y461548D01*
X286073Y461518D01*
X286086Y461519D01*
X286097Y461513D01*
X286155Y461521D01*
X286214Y461524D01*
X286229Y461532D01*
X286237Y461533D01*
X286247Y461541D01*
X286286Y461561D01*
X294289Y467564D01*
X296181Y466618D01*
X296185Y466617D01*
X296191Y466613D01*
X298477Y465597D01*
X298481Y465596D01*
X298486Y465593D01*
X301026Y464577D01*
X301038Y464576D01*
X301070Y464564D01*
X303439Y464090D01*
X305188Y453594D01*
X305216Y453536D01*
X305242Y453476D01*
X305247Y453473D01*
X305249Y453467D01*
X305304Y453433D01*
X305358Y453396D01*
X305365Y453395D01*
X305369Y453392D01*
X305378Y453393D01*
X305438Y453383D01*
X312042Y453383D01*
X312049Y453385D01*
G37*
G36*
X709939Y444395D02*
X709939Y444395D01*
X709953Y444394D01*
X713001Y444648D01*
X713054Y444668D01*
X713109Y444682D01*
X713119Y444693D01*
X713133Y444698D01*
X713167Y444744D01*
X713206Y444785D01*
X713212Y444804D01*
X713217Y444811D01*
X713218Y444824D01*
X713230Y444862D01*
X714732Y454875D01*
X716625Y455585D01*
X718657Y456347D01*
X718661Y456350D01*
X718671Y456353D01*
X720957Y457369D01*
X720963Y457373D01*
X720977Y457379D01*
X723127Y458573D01*
X731634Y452818D01*
X731684Y452802D01*
X731731Y452779D01*
X731750Y452781D01*
X731768Y452775D01*
X731819Y452788D01*
X731871Y452793D01*
X731894Y452807D01*
X731905Y452810D01*
X731913Y452819D01*
X731941Y452836D01*
X733719Y454360D01*
X733722Y454365D01*
X733733Y454373D01*
X737289Y457929D01*
X737292Y457935D01*
X737302Y457943D01*
X738826Y459721D01*
X738849Y459771D01*
X738878Y459818D01*
X738878Y459835D01*
X738885Y459849D01*
X738877Y459904D01*
X738877Y459959D01*
X738867Y459979D01*
X738865Y459989D01*
X738857Y459999D01*
X738841Y460032D01*
X732832Y468544D01*
X734289Y471457D01*
X735305Y473489D01*
X735307Y473501D01*
X735322Y473535D01*
X736043Y476178D01*
X746303Y478179D01*
X746357Y478208D01*
X746414Y478232D01*
X746420Y478240D01*
X746428Y478244D01*
X746459Y478297D01*
X746494Y478348D01*
X746496Y478360D01*
X746499Y478365D01*
X746499Y478377D01*
X746507Y478428D01*
X746507Y488080D01*
X746489Y488145D01*
X746471Y488210D01*
X746469Y488212D01*
X746468Y488215D01*
X746417Y488260D01*
X746368Y488306D01*
X746364Y488307D01*
X746363Y488309D01*
X746356Y488310D01*
X746291Y488331D01*
X736039Y489831D01*
X735576Y491452D01*
X735068Y493230D01*
X735061Y493240D01*
X735051Y493273D01*
X734037Y495300D01*
X733082Y497449D01*
X739095Y505968D01*
X739113Y506021D01*
X739138Y506072D01*
X739136Y506087D01*
X739141Y506101D01*
X739128Y506156D01*
X739122Y506212D01*
X739111Y506229D01*
X739109Y506238D01*
X739100Y506247D01*
X739079Y506281D01*
X735523Y510345D01*
X735518Y510348D01*
X735511Y510357D01*
X733733Y512135D01*
X733727Y512138D01*
X733719Y512148D01*
X731941Y513672D01*
X731885Y513698D01*
X731832Y513727D01*
X731822Y513726D01*
X731813Y513731D01*
X731752Y513722D01*
X731691Y513719D01*
X731680Y513712D01*
X731673Y513711D01*
X731664Y513703D01*
X731620Y513680D01*
X723632Y507439D01*
X721750Y508615D01*
X721747Y508616D01*
X721742Y508620D01*
X719964Y509636D01*
X719951Y509639D01*
X719918Y509656D01*
X718397Y510163D01*
X715745Y511128D01*
X713992Y521397D01*
X713969Y521444D01*
X713953Y521494D01*
X713939Y521506D01*
X713930Y521523D01*
X713886Y521551D01*
X713846Y521585D01*
X713820Y521592D01*
X713811Y521598D01*
X713798Y521598D01*
X713767Y521606D01*
X711230Y521860D01*
X709201Y522113D01*
X709192Y522112D01*
X709170Y522115D01*
X706884Y522115D01*
X706877Y522113D01*
X706861Y522114D01*
X704067Y521860D01*
X704018Y521841D01*
X703966Y521829D01*
X703953Y521816D01*
X703936Y521809D01*
X703904Y521766D01*
X703867Y521728D01*
X703859Y521704D01*
X703852Y521695D01*
X703851Y521683D01*
X703841Y521652D01*
X702090Y511648D01*
X700464Y511184D01*
X700461Y511181D01*
X700454Y511180D01*
X695882Y509656D01*
X695872Y509649D01*
X695828Y509631D01*
X695115Y509186D01*
X694305Y508679D01*
X693934Y508447D01*
X684926Y514453D01*
X684877Y514468D01*
X684831Y514491D01*
X684811Y514489D01*
X684792Y514495D01*
X684742Y514482D01*
X684691Y514477D01*
X684667Y514462D01*
X684656Y514459D01*
X684648Y514450D01*
X684621Y514434D01*
X681065Y511386D01*
X681062Y511381D01*
X681051Y511373D01*
X677749Y508071D01*
X677717Y508013D01*
X677683Y507956D01*
X677683Y507952D01*
X677681Y507948D01*
X677685Y507882D01*
X677687Y507816D01*
X677689Y507810D01*
X677689Y507807D01*
X677694Y507800D01*
X677723Y507743D01*
X683723Y499493D01*
X680756Y494302D01*
X680748Y494268D01*
X680731Y494238D01*
X680732Y494201D01*
X680723Y494165D01*
X680734Y494132D01*
X680735Y494098D01*
X680756Y494067D01*
X680768Y494031D01*
X680795Y494010D01*
X680814Y493981D01*
X680872Y493947D01*
X680878Y493943D01*
X680880Y493942D01*
X680884Y493940D01*
X697902Y487336D01*
X697905Y487336D01*
X697908Y487334D01*
X697975Y487330D01*
X698043Y487324D01*
X698045Y487325D01*
X698048Y487325D01*
X698108Y487357D01*
X698168Y487388D01*
X698170Y487391D01*
X698172Y487392D01*
X698220Y487457D01*
X699118Y489228D01*
X700317Y490780D01*
X701785Y492079D01*
X703472Y493080D01*
X705316Y493747D01*
X707252Y494057D01*
X709213Y493998D01*
X711127Y493573D01*
X712928Y492796D01*
X714551Y491695D01*
X715939Y490310D01*
X717042Y488689D01*
X717822Y486890D01*
X718252Y484976D01*
X718314Y483006D01*
X718160Y481069D01*
X717651Y479205D01*
X716805Y477467D01*
X715650Y475916D01*
X714227Y474608D01*
X712586Y473586D01*
X710784Y472887D01*
X708883Y472535D01*
X706950Y472542D01*
X705052Y472908D01*
X703255Y473621D01*
X701622Y474655D01*
X700209Y475974D01*
X699066Y477534D01*
X698223Y479299D01*
X698221Y479301D01*
X698221Y479302D01*
X698175Y479353D01*
X698129Y479404D01*
X698127Y479405D01*
X698126Y479406D01*
X698059Y479424D01*
X697993Y479443D01*
X697991Y479443D01*
X697990Y479443D01*
X697910Y479429D01*
X680638Y473333D01*
X680612Y473315D01*
X680582Y473305D01*
X680556Y473274D01*
X680523Y473251D01*
X680511Y473222D01*
X680491Y473198D01*
X680485Y473158D01*
X680470Y473120D01*
X680476Y473089D01*
X680471Y473058D01*
X680495Y472983D01*
X680495Y472982D01*
X680495Y472981D01*
X680496Y472981D01*
X681254Y471464D01*
X682013Y469692D01*
X682019Y469685D01*
X682026Y469666D01*
X682964Y468025D01*
X677210Y459520D01*
X677195Y459471D01*
X677171Y459426D01*
X677173Y459406D01*
X677167Y459386D01*
X677180Y459337D01*
X677184Y459286D01*
X677199Y459261D01*
X677202Y459249D01*
X677210Y459241D01*
X677225Y459216D01*
X678495Y457692D01*
X678502Y457688D01*
X678511Y457675D01*
X682067Y454119D01*
X682073Y454116D01*
X682081Y454106D01*
X683859Y452582D01*
X683912Y452558D01*
X683963Y452528D01*
X683976Y452529D01*
X683987Y452523D01*
X684045Y452531D01*
X684104Y452534D01*
X684119Y452542D01*
X684127Y452543D01*
X684137Y452551D01*
X684176Y452571D01*
X692179Y458574D01*
X694071Y457628D01*
X694075Y457627D01*
X694081Y457623D01*
X696367Y456607D01*
X696371Y456606D01*
X696376Y456603D01*
X698916Y455587D01*
X698928Y455586D01*
X698960Y455574D01*
X701329Y455100D01*
X703078Y444604D01*
X703106Y444546D01*
X703132Y444486D01*
X703137Y444483D01*
X703139Y444477D01*
X703194Y444443D01*
X703248Y444406D01*
X703255Y444405D01*
X703259Y444402D01*
X703268Y444403D01*
X703328Y444393D01*
X709932Y444393D01*
X709939Y444395D01*
G37*
G36*
X166539Y163215D02*
X166539Y163215D01*
X166553Y163214D01*
X169601Y163468D01*
X169654Y163488D01*
X169709Y163502D01*
X169719Y163513D01*
X169733Y163518D01*
X169767Y163564D01*
X169806Y163605D01*
X169812Y163624D01*
X169817Y163631D01*
X169818Y163644D01*
X169830Y163682D01*
X171332Y173695D01*
X173225Y174405D01*
X175257Y175167D01*
X175261Y175170D01*
X175271Y175173D01*
X177557Y176189D01*
X177563Y176193D01*
X177577Y176199D01*
X179727Y177393D01*
X188234Y171638D01*
X188284Y171622D01*
X188331Y171599D01*
X188350Y171601D01*
X188368Y171595D01*
X188419Y171608D01*
X188471Y171613D01*
X188494Y171627D01*
X188505Y171630D01*
X188513Y171639D01*
X188541Y171656D01*
X190319Y173180D01*
X190322Y173185D01*
X190333Y173193D01*
X193889Y176749D01*
X193892Y176755D01*
X193902Y176763D01*
X195426Y178541D01*
X195449Y178591D01*
X195478Y178638D01*
X195478Y178655D01*
X195485Y178669D01*
X195477Y178724D01*
X195477Y178779D01*
X195467Y178799D01*
X195465Y178809D01*
X195457Y178819D01*
X195441Y178852D01*
X189432Y187364D01*
X190889Y190277D01*
X191905Y192309D01*
X191907Y192321D01*
X191922Y192355D01*
X192643Y194998D01*
X202903Y196999D01*
X202957Y197028D01*
X203014Y197052D01*
X203020Y197060D01*
X203028Y197064D01*
X203059Y197117D01*
X203094Y197168D01*
X203096Y197180D01*
X203099Y197185D01*
X203099Y197197D01*
X203107Y197248D01*
X203107Y206900D01*
X203089Y206965D01*
X203071Y207030D01*
X203069Y207032D01*
X203068Y207035D01*
X203017Y207080D01*
X202968Y207126D01*
X202964Y207127D01*
X202963Y207129D01*
X202956Y207130D01*
X202891Y207151D01*
X192639Y208651D01*
X192176Y210272D01*
X191668Y212050D01*
X191661Y212060D01*
X191651Y212093D01*
X190637Y214120D01*
X189682Y216269D01*
X195695Y224788D01*
X195713Y224841D01*
X195738Y224892D01*
X195736Y224907D01*
X195741Y224921D01*
X195728Y224976D01*
X195722Y225032D01*
X195711Y225049D01*
X195709Y225058D01*
X195700Y225067D01*
X195679Y225101D01*
X192123Y229165D01*
X192118Y229168D01*
X192111Y229177D01*
X190333Y230955D01*
X190327Y230958D01*
X190319Y230968D01*
X188541Y232492D01*
X188485Y232518D01*
X188432Y232547D01*
X188422Y232546D01*
X188413Y232551D01*
X188352Y232542D01*
X188291Y232539D01*
X188280Y232532D01*
X188273Y232531D01*
X188264Y232523D01*
X188220Y232500D01*
X180232Y226259D01*
X178350Y227435D01*
X178347Y227436D01*
X178342Y227440D01*
X176564Y228456D01*
X176551Y228459D01*
X176518Y228476D01*
X174997Y228983D01*
X172345Y229948D01*
X170592Y240217D01*
X170569Y240264D01*
X170553Y240314D01*
X170539Y240326D01*
X170530Y240343D01*
X170486Y240371D01*
X170446Y240405D01*
X170420Y240412D01*
X170411Y240418D01*
X170398Y240418D01*
X170367Y240426D01*
X167830Y240680D01*
X165801Y240933D01*
X165792Y240932D01*
X165770Y240935D01*
X163484Y240935D01*
X163477Y240933D01*
X163461Y240934D01*
X160667Y240680D01*
X160618Y240661D01*
X160566Y240649D01*
X160553Y240636D01*
X160536Y240629D01*
X160504Y240586D01*
X160467Y240548D01*
X160459Y240524D01*
X160452Y240515D01*
X160451Y240503D01*
X160441Y240472D01*
X158690Y230468D01*
X157064Y230004D01*
X157061Y230001D01*
X157054Y230000D01*
X152482Y228476D01*
X152472Y228469D01*
X152428Y228451D01*
X151715Y228006D01*
X150905Y227499D01*
X150534Y227267D01*
X141526Y233273D01*
X141477Y233288D01*
X141431Y233311D01*
X141411Y233309D01*
X141392Y233315D01*
X141342Y233302D01*
X141291Y233297D01*
X141267Y233282D01*
X141256Y233279D01*
X141248Y233270D01*
X141221Y233254D01*
X137665Y230206D01*
X137662Y230201D01*
X137651Y230193D01*
X134349Y226891D01*
X134317Y226833D01*
X134283Y226776D01*
X134283Y226772D01*
X134281Y226768D01*
X134285Y226702D01*
X134287Y226636D01*
X134289Y226630D01*
X134289Y226627D01*
X134294Y226620D01*
X134323Y226563D01*
X140323Y218313D01*
X137356Y213122D01*
X137348Y213088D01*
X137331Y213058D01*
X137332Y213021D01*
X137323Y212985D01*
X137334Y212952D01*
X137335Y212918D01*
X137356Y212887D01*
X137368Y212851D01*
X137395Y212830D01*
X137414Y212801D01*
X137472Y212767D01*
X137478Y212763D01*
X137480Y212762D01*
X137484Y212760D01*
X154502Y206156D01*
X154505Y206156D01*
X154508Y206154D01*
X154575Y206150D01*
X154643Y206144D01*
X154645Y206145D01*
X154648Y206145D01*
X154708Y206177D01*
X154768Y206208D01*
X154770Y206211D01*
X154772Y206212D01*
X154820Y206277D01*
X155718Y208048D01*
X156917Y209600D01*
X158385Y210899D01*
X160072Y211900D01*
X161916Y212567D01*
X163852Y212877D01*
X165813Y212818D01*
X167727Y212393D01*
X169528Y211616D01*
X171151Y210515D01*
X172539Y209130D01*
X173642Y207509D01*
X174422Y205710D01*
X174852Y203796D01*
X174914Y201826D01*
X174760Y199889D01*
X174251Y198025D01*
X173405Y196287D01*
X172250Y194736D01*
X170827Y193428D01*
X169186Y192406D01*
X167384Y191707D01*
X165483Y191355D01*
X163550Y191362D01*
X161652Y191728D01*
X159855Y192441D01*
X158222Y193475D01*
X156809Y194794D01*
X155666Y196354D01*
X154823Y198119D01*
X154821Y198121D01*
X154821Y198122D01*
X154775Y198173D01*
X154729Y198224D01*
X154727Y198225D01*
X154726Y198226D01*
X154659Y198244D01*
X154593Y198263D01*
X154591Y198263D01*
X154590Y198263D01*
X154510Y198249D01*
X137238Y192153D01*
X137212Y192135D01*
X137182Y192125D01*
X137156Y192094D01*
X137123Y192071D01*
X137111Y192042D01*
X137091Y192018D01*
X137085Y191978D01*
X137070Y191940D01*
X137076Y191909D01*
X137071Y191878D01*
X137095Y191803D01*
X137095Y191802D01*
X137095Y191801D01*
X137096Y191801D01*
X137854Y190284D01*
X138613Y188512D01*
X138619Y188505D01*
X138626Y188486D01*
X139564Y186845D01*
X133810Y178340D01*
X133795Y178291D01*
X133771Y178246D01*
X133773Y178226D01*
X133767Y178206D01*
X133780Y178157D01*
X133784Y178106D01*
X133799Y178081D01*
X133802Y178069D01*
X133810Y178061D01*
X133825Y178036D01*
X135095Y176512D01*
X135102Y176508D01*
X135111Y176495D01*
X138667Y172939D01*
X138673Y172936D01*
X138681Y172926D01*
X140459Y171402D01*
X140512Y171378D01*
X140563Y171348D01*
X140576Y171349D01*
X140587Y171343D01*
X140645Y171351D01*
X140704Y171354D01*
X140719Y171362D01*
X140727Y171363D01*
X140737Y171371D01*
X140776Y171391D01*
X148779Y177394D01*
X150671Y176448D01*
X150675Y176447D01*
X150681Y176443D01*
X152967Y175427D01*
X152971Y175426D01*
X152976Y175423D01*
X155516Y174407D01*
X155528Y174406D01*
X155560Y174394D01*
X157929Y173920D01*
X159678Y163424D01*
X159706Y163366D01*
X159732Y163306D01*
X159737Y163303D01*
X159739Y163297D01*
X159794Y163263D01*
X159848Y163226D01*
X159855Y163225D01*
X159859Y163222D01*
X159868Y163223D01*
X159928Y163213D01*
X166532Y163213D01*
X166539Y163215D01*
G37*
D10*
X127757Y91221D02*
X127757Y100619D01*
X122536Y100619D02*
X127757Y94876D01*
X125668Y96964D02*
X122536Y91221D01*
X118727Y91221D02*
X114550Y91221D01*
X118727Y91221D02*
X118727Y100619D01*
X114550Y100619D01*
X115594Y96442D02*
X118727Y96442D01*
X111646Y100619D02*
X108514Y96181D01*
X105381Y100619D01*
X108514Y96181D02*
X108514Y91221D01*
D11*
X101800Y95920D02*
X76400Y95920D01*
D12*
X186128Y72148D02*
X197812Y72148D01*
X197812Y75394D01*
X197810Y75507D01*
X197804Y75620D01*
X197794Y75733D01*
X197780Y75846D01*
X197763Y75958D01*
X197741Y76069D01*
X197716Y76179D01*
X197686Y76289D01*
X197653Y76397D01*
X197616Y76504D01*
X197576Y76610D01*
X197531Y76714D01*
X197483Y76817D01*
X197432Y76918D01*
X197377Y77017D01*
X197319Y77114D01*
X197257Y77209D01*
X197192Y77302D01*
X197124Y77392D01*
X197053Y77480D01*
X196978Y77566D01*
X196901Y77649D01*
X196821Y77729D01*
X196738Y77806D01*
X196652Y77881D01*
X196564Y77952D01*
X196474Y78020D01*
X196381Y78085D01*
X196286Y78147D01*
X196189Y78205D01*
X196090Y78260D01*
X195989Y78311D01*
X195886Y78359D01*
X195782Y78404D01*
X195676Y78444D01*
X195569Y78481D01*
X195461Y78514D01*
X195351Y78544D01*
X195241Y78569D01*
X195130Y78591D01*
X195018Y78608D01*
X194905Y78622D01*
X194792Y78632D01*
X194679Y78638D01*
X194566Y78640D01*
X194453Y78638D01*
X194340Y78632D01*
X194227Y78622D01*
X194114Y78608D01*
X194002Y78591D01*
X193891Y78569D01*
X193781Y78544D01*
X193671Y78514D01*
X193563Y78481D01*
X193456Y78444D01*
X193350Y78404D01*
X193246Y78359D01*
X193143Y78311D01*
X193042Y78260D01*
X192943Y78205D01*
X192846Y78147D01*
X192751Y78085D01*
X192658Y78020D01*
X192568Y77952D01*
X192480Y77881D01*
X192394Y77806D01*
X192311Y77729D01*
X192231Y77649D01*
X192154Y77566D01*
X192079Y77480D01*
X192008Y77392D01*
X191940Y77302D01*
X191875Y77209D01*
X191813Y77114D01*
X191755Y77017D01*
X191700Y76918D01*
X191649Y76817D01*
X191601Y76714D01*
X191556Y76610D01*
X191516Y76504D01*
X191479Y76397D01*
X191446Y76289D01*
X191416Y76179D01*
X191391Y76069D01*
X191369Y75958D01*
X191352Y75846D01*
X191338Y75733D01*
X191328Y75620D01*
X191322Y75507D01*
X191320Y75394D01*
X191321Y75394D02*
X191321Y72148D01*
X197812Y82605D02*
X186128Y85201D01*
X193917Y87798D01*
X186128Y90394D01*
X197812Y92990D01*
X197812Y97961D02*
X186128Y97961D01*
X197812Y97961D02*
X197812Y101206D01*
X197810Y101319D01*
X197804Y101432D01*
X197794Y101545D01*
X197780Y101658D01*
X197763Y101770D01*
X197741Y101881D01*
X197716Y101991D01*
X197686Y102101D01*
X197653Y102209D01*
X197616Y102316D01*
X197576Y102422D01*
X197531Y102526D01*
X197483Y102629D01*
X197432Y102730D01*
X197377Y102829D01*
X197319Y102926D01*
X197257Y103021D01*
X197192Y103114D01*
X197124Y103204D01*
X197053Y103292D01*
X196978Y103378D01*
X196901Y103461D01*
X196821Y103541D01*
X196738Y103618D01*
X196652Y103693D01*
X196564Y103764D01*
X196474Y103832D01*
X196381Y103897D01*
X196286Y103959D01*
X196189Y104017D01*
X196090Y104072D01*
X195989Y104123D01*
X195886Y104171D01*
X195782Y104216D01*
X195676Y104256D01*
X195569Y104293D01*
X195461Y104326D01*
X195351Y104356D01*
X195241Y104381D01*
X195130Y104403D01*
X195018Y104420D01*
X194905Y104434D01*
X194792Y104444D01*
X194679Y104450D01*
X194566Y104452D01*
X194453Y104450D01*
X194340Y104444D01*
X194227Y104434D01*
X194114Y104420D01*
X194002Y104403D01*
X193891Y104381D01*
X193781Y104356D01*
X193671Y104326D01*
X193563Y104293D01*
X193456Y104256D01*
X193350Y104216D01*
X193246Y104171D01*
X193143Y104123D01*
X193042Y104072D01*
X192943Y104017D01*
X192846Y103959D01*
X192751Y103897D01*
X192658Y103832D01*
X192568Y103764D01*
X192480Y103693D01*
X192394Y103618D01*
X192311Y103541D01*
X192231Y103461D01*
X192154Y103378D01*
X192079Y103292D01*
X192008Y103204D01*
X191940Y103114D01*
X191875Y103021D01*
X191813Y102926D01*
X191755Y102829D01*
X191700Y102730D01*
X191649Y102629D01*
X191601Y102526D01*
X191556Y102422D01*
X191516Y102316D01*
X191479Y102209D01*
X191446Y102101D01*
X191416Y101991D01*
X191391Y101881D01*
X191369Y101770D01*
X191352Y101658D01*
X191338Y101545D01*
X191328Y101432D01*
X191322Y101319D01*
X191320Y101206D01*
X191321Y101206D02*
X191321Y97961D01*
X191321Y101855D02*
X186128Y104452D01*
D10*
X175079Y115351D02*
X165681Y115351D01*
X165681Y119528D01*
X165681Y123258D02*
X175079Y123258D01*
X175079Y125869D01*
X175077Y125969D01*
X175071Y126069D01*
X175062Y126168D01*
X175048Y126268D01*
X175031Y126366D01*
X175010Y126464D01*
X174986Y126561D01*
X174957Y126657D01*
X174925Y126752D01*
X174890Y126845D01*
X174851Y126937D01*
X174808Y127028D01*
X174762Y127116D01*
X174712Y127203D01*
X174660Y127288D01*
X174604Y127371D01*
X174545Y127452D01*
X174482Y127530D01*
X174417Y127606D01*
X174349Y127680D01*
X174279Y127750D01*
X174205Y127818D01*
X174129Y127883D01*
X174051Y127946D01*
X173970Y128005D01*
X173887Y128061D01*
X173802Y128113D01*
X173715Y128163D01*
X173627Y128209D01*
X173536Y128252D01*
X173444Y128291D01*
X173351Y128326D01*
X173256Y128358D01*
X173160Y128387D01*
X173063Y128411D01*
X172965Y128432D01*
X172867Y128449D01*
X172767Y128463D01*
X172668Y128472D01*
X172568Y128478D01*
X172468Y128480D01*
X172468Y128479D02*
X168292Y128479D01*
X168292Y128480D02*
X168192Y128478D01*
X168092Y128472D01*
X167993Y128463D01*
X167893Y128449D01*
X167795Y128432D01*
X167697Y128411D01*
X167600Y128387D01*
X167504Y128358D01*
X167409Y128326D01*
X167316Y128291D01*
X167224Y128252D01*
X167133Y128209D01*
X167045Y128163D01*
X166958Y128113D01*
X166873Y128061D01*
X166790Y128005D01*
X166709Y127946D01*
X166631Y127883D01*
X166555Y127818D01*
X166481Y127750D01*
X166411Y127680D01*
X166343Y127606D01*
X166278Y127530D01*
X166215Y127452D01*
X166156Y127371D01*
X166100Y127288D01*
X166048Y127203D01*
X165998Y127116D01*
X165952Y127028D01*
X165909Y126937D01*
X165870Y126845D01*
X165835Y126752D01*
X165803Y126657D01*
X165774Y126561D01*
X165750Y126464D01*
X165729Y126366D01*
X165712Y126268D01*
X165698Y126168D01*
X165689Y126069D01*
X165683Y125969D01*
X165681Y125869D01*
X165681Y123258D01*
X172991Y132707D02*
X175079Y135318D01*
X165681Y135318D01*
X165681Y137928D02*
X165681Y132707D01*
X150949Y110271D02*
X141551Y110271D01*
X150949Y110271D02*
X150949Y112882D01*
X150947Y112983D01*
X150941Y113084D01*
X150931Y113185D01*
X150918Y113285D01*
X150900Y113385D01*
X150879Y113484D01*
X150853Y113582D01*
X150824Y113679D01*
X150792Y113775D01*
X150755Y113869D01*
X150715Y113962D01*
X150671Y114054D01*
X150624Y114143D01*
X150573Y114231D01*
X150519Y114317D01*
X150462Y114400D01*
X150402Y114482D01*
X150338Y114560D01*
X150272Y114637D01*
X150202Y114710D01*
X150130Y114781D01*
X150055Y114849D01*
X149977Y114914D01*
X149897Y114976D01*
X149815Y115035D01*
X149730Y115091D01*
X149644Y115143D01*
X149555Y115192D01*
X149464Y115238D01*
X149372Y115279D01*
X149278Y115318D01*
X149183Y115352D01*
X149087Y115383D01*
X148989Y115410D01*
X148891Y115434D01*
X148791Y115453D01*
X148691Y115469D01*
X148591Y115481D01*
X148490Y115489D01*
X148389Y115493D01*
X148287Y115493D01*
X148186Y115489D01*
X148085Y115481D01*
X147985Y115469D01*
X147885Y115453D01*
X147785Y115434D01*
X147687Y115410D01*
X147589Y115383D01*
X147493Y115352D01*
X147398Y115318D01*
X147304Y115279D01*
X147212Y115238D01*
X147121Y115192D01*
X147033Y115143D01*
X146946Y115091D01*
X146861Y115035D01*
X146779Y114976D01*
X146699Y114914D01*
X146621Y114849D01*
X146546Y114781D01*
X146474Y114710D01*
X146404Y114637D01*
X146338Y114560D01*
X146274Y114482D01*
X146214Y114400D01*
X146157Y114317D01*
X146103Y114231D01*
X146052Y114143D01*
X146005Y114054D01*
X145961Y113962D01*
X145921Y113869D01*
X145884Y113775D01*
X145852Y113679D01*
X145823Y113582D01*
X145797Y113484D01*
X145776Y113385D01*
X145758Y113285D01*
X145745Y113185D01*
X145735Y113084D01*
X145729Y112983D01*
X145727Y112882D01*
X145728Y112882D02*
X145728Y110271D01*
X145728Y113404D02*
X141551Y115492D01*
X148861Y119358D02*
X150949Y121968D01*
X141551Y121968D01*
X141551Y119358D02*
X141551Y124579D01*
D12*
X651668Y105151D02*
X651668Y102554D01*
X651670Y102455D01*
X651676Y102355D01*
X651685Y102256D01*
X651698Y102158D01*
X651715Y102060D01*
X651736Y101962D01*
X651761Y101866D01*
X651789Y101771D01*
X651821Y101677D01*
X651856Y101584D01*
X651895Y101492D01*
X651938Y101402D01*
X651983Y101314D01*
X652033Y101227D01*
X652085Y101143D01*
X652141Y101060D01*
X652199Y100980D01*
X652261Y100902D01*
X652326Y100827D01*
X652394Y100754D01*
X652464Y100684D01*
X652537Y100616D01*
X652612Y100551D01*
X652690Y100489D01*
X652770Y100431D01*
X652853Y100375D01*
X652937Y100323D01*
X653024Y100273D01*
X653112Y100228D01*
X653202Y100185D01*
X653294Y100146D01*
X653387Y100111D01*
X653481Y100079D01*
X653576Y100051D01*
X653672Y100026D01*
X653770Y100005D01*
X653868Y99988D01*
X653966Y99975D01*
X654065Y99966D01*
X654165Y99960D01*
X654264Y99958D01*
X660756Y99958D01*
X660855Y99960D01*
X660955Y99966D01*
X661054Y99975D01*
X661152Y99988D01*
X661250Y100005D01*
X661348Y100026D01*
X661444Y100051D01*
X661539Y100079D01*
X661633Y100111D01*
X661726Y100146D01*
X661818Y100185D01*
X661908Y100228D01*
X661996Y100273D01*
X662083Y100323D01*
X662167Y100375D01*
X662250Y100431D01*
X662330Y100489D01*
X662408Y100551D01*
X662483Y100616D01*
X662556Y100684D01*
X662626Y100754D01*
X662694Y100827D01*
X662759Y100902D01*
X662821Y100980D01*
X662879Y101060D01*
X662935Y101143D01*
X662987Y101227D01*
X663037Y101314D01*
X663082Y101402D01*
X663125Y101492D01*
X663164Y101584D01*
X663199Y101676D01*
X663231Y101771D01*
X663259Y101866D01*
X663284Y101962D01*
X663305Y102060D01*
X663322Y102158D01*
X663335Y102256D01*
X663344Y102355D01*
X663350Y102455D01*
X663352Y102554D01*
X663352Y105151D01*
X651668Y109516D02*
X651668Y112762D01*
X651670Y112875D01*
X651676Y112988D01*
X651686Y113101D01*
X651700Y113214D01*
X651717Y113326D01*
X651739Y113437D01*
X651764Y113547D01*
X651794Y113657D01*
X651827Y113765D01*
X651864Y113872D01*
X651904Y113978D01*
X651949Y114082D01*
X651997Y114185D01*
X652048Y114286D01*
X652103Y114385D01*
X652161Y114482D01*
X652223Y114577D01*
X652288Y114670D01*
X652356Y114760D01*
X652427Y114848D01*
X652502Y114934D01*
X652579Y115017D01*
X652659Y115097D01*
X652742Y115174D01*
X652828Y115249D01*
X652916Y115320D01*
X653006Y115388D01*
X653099Y115453D01*
X653194Y115515D01*
X653291Y115573D01*
X653390Y115628D01*
X653491Y115679D01*
X653594Y115727D01*
X653698Y115772D01*
X653804Y115812D01*
X653911Y115849D01*
X654019Y115882D01*
X654129Y115912D01*
X654239Y115937D01*
X654350Y115959D01*
X654462Y115976D01*
X654575Y115990D01*
X654688Y116000D01*
X654801Y116006D01*
X654914Y116008D01*
X655027Y116006D01*
X655140Y116000D01*
X655253Y115990D01*
X655366Y115976D01*
X655478Y115959D01*
X655589Y115937D01*
X655699Y115912D01*
X655809Y115882D01*
X655917Y115849D01*
X656024Y115812D01*
X656130Y115772D01*
X656234Y115727D01*
X656337Y115679D01*
X656438Y115628D01*
X656537Y115573D01*
X656634Y115515D01*
X656729Y115453D01*
X656822Y115388D01*
X656912Y115320D01*
X657000Y115249D01*
X657086Y115174D01*
X657169Y115097D01*
X657249Y115017D01*
X657326Y114934D01*
X657401Y114848D01*
X657472Y114760D01*
X657540Y114670D01*
X657605Y114577D01*
X657667Y114482D01*
X657725Y114385D01*
X657780Y114286D01*
X657831Y114185D01*
X657879Y114082D01*
X657924Y113978D01*
X657964Y113872D01*
X658001Y113765D01*
X658034Y113657D01*
X658064Y113547D01*
X658089Y113437D01*
X658111Y113326D01*
X658128Y113214D01*
X658142Y113101D01*
X658152Y112988D01*
X658158Y112875D01*
X658160Y112762D01*
X663352Y113411D02*
X663352Y109516D01*
X663352Y113411D02*
X663350Y113512D01*
X663344Y113612D01*
X663334Y113712D01*
X663321Y113812D01*
X663303Y113911D01*
X663282Y114010D01*
X663257Y114107D01*
X663228Y114204D01*
X663195Y114299D01*
X663159Y114393D01*
X663119Y114485D01*
X663076Y114576D01*
X663029Y114665D01*
X662979Y114752D01*
X662925Y114838D01*
X662868Y114921D01*
X662808Y115001D01*
X662745Y115080D01*
X662678Y115156D01*
X662609Y115229D01*
X662537Y115299D01*
X662463Y115367D01*
X662386Y115432D01*
X662306Y115493D01*
X662224Y115552D01*
X662140Y115607D01*
X662054Y115659D01*
X661966Y115708D01*
X661876Y115753D01*
X661784Y115795D01*
X661691Y115833D01*
X661596Y115867D01*
X661501Y115898D01*
X661404Y115925D01*
X661306Y115948D01*
X661207Y115968D01*
X661107Y115983D01*
X661007Y115995D01*
X660907Y116003D01*
X660806Y116007D01*
X660706Y116007D01*
X660605Y116003D01*
X660505Y115995D01*
X660405Y115983D01*
X660305Y115968D01*
X660206Y115948D01*
X660108Y115925D01*
X660011Y115898D01*
X659916Y115867D01*
X659821Y115833D01*
X659728Y115795D01*
X659636Y115753D01*
X659546Y115708D01*
X659458Y115659D01*
X659372Y115607D01*
X659288Y115552D01*
X659206Y115493D01*
X659126Y115432D01*
X659049Y115367D01*
X658975Y115299D01*
X658903Y115229D01*
X658834Y115156D01*
X658767Y115080D01*
X658704Y115001D01*
X658644Y114921D01*
X658587Y114838D01*
X658533Y114752D01*
X658483Y114665D01*
X658436Y114576D01*
X658393Y114485D01*
X658353Y114393D01*
X658317Y114299D01*
X658284Y114204D01*
X658255Y114107D01*
X658230Y114010D01*
X658209Y113911D01*
X658191Y113812D01*
X658178Y113712D01*
X658168Y113612D01*
X658162Y113512D01*
X658160Y113411D01*
X658159Y113411D02*
X658159Y110814D01*
X678288Y181185D02*
X689972Y181185D01*
X689972Y184430D01*
X689970Y184543D01*
X689964Y184656D01*
X689954Y184769D01*
X689940Y184882D01*
X689923Y184994D01*
X689901Y185105D01*
X689876Y185215D01*
X689846Y185325D01*
X689813Y185433D01*
X689776Y185540D01*
X689736Y185646D01*
X689691Y185750D01*
X689643Y185853D01*
X689592Y185954D01*
X689537Y186053D01*
X689479Y186150D01*
X689417Y186245D01*
X689352Y186338D01*
X689284Y186428D01*
X689213Y186516D01*
X689138Y186602D01*
X689061Y186685D01*
X688981Y186765D01*
X688898Y186842D01*
X688812Y186917D01*
X688724Y186988D01*
X688634Y187056D01*
X688541Y187121D01*
X688446Y187183D01*
X688349Y187241D01*
X688250Y187296D01*
X688149Y187347D01*
X688046Y187395D01*
X687942Y187440D01*
X687836Y187480D01*
X687729Y187517D01*
X687621Y187550D01*
X687511Y187580D01*
X687401Y187605D01*
X687290Y187627D01*
X687178Y187644D01*
X687065Y187658D01*
X686952Y187668D01*
X686839Y187674D01*
X686726Y187676D01*
X686613Y187674D01*
X686500Y187668D01*
X686387Y187658D01*
X686274Y187644D01*
X686162Y187627D01*
X686051Y187605D01*
X685941Y187580D01*
X685831Y187550D01*
X685723Y187517D01*
X685616Y187480D01*
X685510Y187440D01*
X685406Y187395D01*
X685303Y187347D01*
X685202Y187296D01*
X685103Y187241D01*
X685006Y187183D01*
X684911Y187121D01*
X684818Y187056D01*
X684728Y186988D01*
X684640Y186917D01*
X684554Y186842D01*
X684471Y186765D01*
X684391Y186685D01*
X684314Y186602D01*
X684239Y186516D01*
X684168Y186428D01*
X684100Y186338D01*
X684035Y186245D01*
X683973Y186150D01*
X683915Y186053D01*
X683860Y185954D01*
X683809Y185853D01*
X683761Y185750D01*
X683716Y185646D01*
X683676Y185540D01*
X683639Y185433D01*
X683606Y185325D01*
X683576Y185215D01*
X683551Y185105D01*
X683529Y184994D01*
X683512Y184882D01*
X683498Y184769D01*
X683488Y184656D01*
X683482Y184543D01*
X683480Y184430D01*
X683481Y184430D02*
X683481Y181185D01*
X683481Y185079D02*
X678288Y187676D01*
X687376Y192541D02*
X689972Y195786D01*
X678288Y195786D01*
X678288Y192541D02*
X678288Y199032D01*
X337386Y382008D02*
X334789Y382008D01*
X337386Y382008D02*
X337485Y382010D01*
X337585Y382016D01*
X337684Y382025D01*
X337782Y382038D01*
X337880Y382055D01*
X337978Y382076D01*
X338074Y382101D01*
X338169Y382129D01*
X338263Y382161D01*
X338356Y382196D01*
X338448Y382235D01*
X338538Y382278D01*
X338626Y382323D01*
X338713Y382373D01*
X338797Y382425D01*
X338880Y382481D01*
X338960Y382539D01*
X339038Y382601D01*
X339113Y382666D01*
X339186Y382734D01*
X339256Y382804D01*
X339324Y382877D01*
X339389Y382952D01*
X339451Y383030D01*
X339509Y383110D01*
X339565Y383193D01*
X339617Y383277D01*
X339667Y383364D01*
X339712Y383452D01*
X339755Y383542D01*
X339794Y383634D01*
X339829Y383727D01*
X339861Y383821D01*
X339889Y383916D01*
X339914Y384012D01*
X339935Y384110D01*
X339952Y384208D01*
X339965Y384306D01*
X339974Y384405D01*
X339980Y384505D01*
X339982Y384604D01*
X339982Y391096D01*
X339980Y391195D01*
X339974Y391295D01*
X339965Y391394D01*
X339952Y391492D01*
X339935Y391590D01*
X339914Y391688D01*
X339889Y391784D01*
X339861Y391879D01*
X339829Y391973D01*
X339794Y392066D01*
X339755Y392158D01*
X339712Y392248D01*
X339667Y392336D01*
X339617Y392423D01*
X339565Y392507D01*
X339509Y392590D01*
X339451Y392670D01*
X339389Y392748D01*
X339324Y392823D01*
X339256Y392896D01*
X339186Y392966D01*
X339113Y393034D01*
X339038Y393099D01*
X338960Y393161D01*
X338880Y393219D01*
X338797Y393275D01*
X338713Y393327D01*
X338626Y393377D01*
X338538Y393422D01*
X338448Y393465D01*
X338356Y393504D01*
X338263Y393539D01*
X338169Y393571D01*
X338074Y393599D01*
X337978Y393624D01*
X337880Y393645D01*
X337782Y393662D01*
X337684Y393675D01*
X337585Y393684D01*
X337485Y393690D01*
X337386Y393692D01*
X334789Y393692D01*
X330424Y391096D02*
X327178Y393692D01*
X327178Y382008D01*
X323933Y382008D02*
X330424Y382008D01*
X386859Y206748D02*
X389456Y206748D01*
X389555Y206750D01*
X389655Y206756D01*
X389754Y206765D01*
X389852Y206778D01*
X389950Y206795D01*
X390048Y206816D01*
X390144Y206841D01*
X390239Y206869D01*
X390333Y206901D01*
X390426Y206936D01*
X390518Y206975D01*
X390608Y207018D01*
X390696Y207063D01*
X390783Y207113D01*
X390867Y207165D01*
X390950Y207221D01*
X391030Y207279D01*
X391108Y207341D01*
X391183Y207406D01*
X391256Y207474D01*
X391326Y207544D01*
X391394Y207617D01*
X391459Y207692D01*
X391521Y207770D01*
X391579Y207850D01*
X391635Y207933D01*
X391687Y208017D01*
X391737Y208104D01*
X391782Y208192D01*
X391825Y208282D01*
X391864Y208374D01*
X391899Y208467D01*
X391931Y208561D01*
X391959Y208656D01*
X391984Y208752D01*
X392005Y208850D01*
X392022Y208948D01*
X392035Y209046D01*
X392044Y209145D01*
X392050Y209245D01*
X392052Y209344D01*
X392052Y215836D01*
X392050Y215935D01*
X392044Y216035D01*
X392035Y216134D01*
X392022Y216232D01*
X392005Y216330D01*
X391984Y216428D01*
X391959Y216524D01*
X391931Y216619D01*
X391899Y216713D01*
X391864Y216806D01*
X391825Y216898D01*
X391782Y216988D01*
X391737Y217076D01*
X391687Y217163D01*
X391635Y217247D01*
X391579Y217330D01*
X391521Y217410D01*
X391459Y217488D01*
X391394Y217563D01*
X391326Y217636D01*
X391256Y217706D01*
X391183Y217774D01*
X391108Y217839D01*
X391030Y217901D01*
X390950Y217959D01*
X390867Y218015D01*
X390783Y218067D01*
X390696Y218117D01*
X390608Y218162D01*
X390518Y218205D01*
X390426Y218244D01*
X390333Y218279D01*
X390239Y218311D01*
X390144Y218339D01*
X390048Y218364D01*
X389950Y218385D01*
X389852Y218402D01*
X389754Y218415D01*
X389655Y218424D01*
X389555Y218430D01*
X389456Y218432D01*
X386859Y218432D01*
X378924Y218432D02*
X378817Y218430D01*
X378711Y218424D01*
X378605Y218414D01*
X378499Y218401D01*
X378393Y218383D01*
X378289Y218362D01*
X378185Y218337D01*
X378082Y218308D01*
X377981Y218276D01*
X377881Y218239D01*
X377782Y218199D01*
X377684Y218156D01*
X377588Y218109D01*
X377494Y218058D01*
X377402Y218004D01*
X377312Y217947D01*
X377224Y217887D01*
X377139Y217823D01*
X377056Y217756D01*
X376975Y217686D01*
X376897Y217614D01*
X376821Y217538D01*
X376749Y217460D01*
X376679Y217379D01*
X376612Y217296D01*
X376548Y217211D01*
X376488Y217123D01*
X376431Y217033D01*
X376377Y216941D01*
X376326Y216847D01*
X376279Y216751D01*
X376236Y216653D01*
X376196Y216554D01*
X376159Y216454D01*
X376127Y216353D01*
X376098Y216250D01*
X376073Y216146D01*
X376052Y216042D01*
X376034Y215936D01*
X376021Y215830D01*
X376011Y215724D01*
X376005Y215618D01*
X376003Y215511D01*
X378924Y218432D02*
X379045Y218430D01*
X379166Y218424D01*
X379286Y218414D01*
X379407Y218401D01*
X379526Y218383D01*
X379646Y218362D01*
X379764Y218337D01*
X379881Y218308D01*
X379998Y218275D01*
X380113Y218239D01*
X380227Y218198D01*
X380340Y218155D01*
X380452Y218107D01*
X380561Y218056D01*
X380669Y218001D01*
X380776Y217943D01*
X380880Y217882D01*
X380982Y217817D01*
X381082Y217749D01*
X381180Y217678D01*
X381276Y217604D01*
X381369Y217527D01*
X381459Y217446D01*
X381547Y217363D01*
X381632Y217277D01*
X381715Y217188D01*
X381794Y217097D01*
X381871Y217003D01*
X381944Y216907D01*
X382014Y216809D01*
X382081Y216708D01*
X382145Y216605D01*
X382206Y216500D01*
X382263Y216393D01*
X382316Y216285D01*
X382366Y216175D01*
X382412Y216063D01*
X382455Y215950D01*
X382494Y215835D01*
X376977Y213239D02*
X376898Y213317D01*
X376822Y213397D01*
X376749Y213480D01*
X376679Y213566D01*
X376612Y213653D01*
X376548Y213744D01*
X376488Y213836D01*
X376430Y213930D01*
X376376Y214027D01*
X376326Y214125D01*
X376279Y214225D01*
X376235Y214326D01*
X376195Y214429D01*
X376159Y214534D01*
X376127Y214639D01*
X376098Y214746D01*
X376073Y214853D01*
X376051Y214962D01*
X376034Y215071D01*
X376020Y215180D01*
X376011Y215290D01*
X376005Y215401D01*
X376003Y215511D01*
X376976Y213239D02*
X382494Y206748D01*
X376003Y206748D01*
X247018Y293164D02*
X247018Y295761D01*
X247018Y293164D02*
X247020Y293065D01*
X247026Y292965D01*
X247035Y292866D01*
X247048Y292768D01*
X247065Y292670D01*
X247086Y292572D01*
X247111Y292476D01*
X247139Y292381D01*
X247171Y292287D01*
X247206Y292194D01*
X247245Y292102D01*
X247288Y292012D01*
X247333Y291924D01*
X247383Y291837D01*
X247435Y291753D01*
X247491Y291670D01*
X247549Y291590D01*
X247611Y291512D01*
X247676Y291437D01*
X247744Y291364D01*
X247814Y291294D01*
X247887Y291226D01*
X247962Y291161D01*
X248040Y291099D01*
X248120Y291041D01*
X248203Y290985D01*
X248287Y290933D01*
X248374Y290883D01*
X248462Y290838D01*
X248552Y290795D01*
X248644Y290756D01*
X248737Y290721D01*
X248831Y290689D01*
X248926Y290661D01*
X249022Y290636D01*
X249120Y290615D01*
X249218Y290598D01*
X249316Y290585D01*
X249415Y290576D01*
X249515Y290570D01*
X249614Y290568D01*
X256106Y290568D01*
X256205Y290570D01*
X256305Y290576D01*
X256404Y290585D01*
X256502Y290598D01*
X256600Y290615D01*
X256698Y290636D01*
X256794Y290661D01*
X256889Y290689D01*
X256983Y290721D01*
X257076Y290756D01*
X257168Y290795D01*
X257258Y290838D01*
X257346Y290883D01*
X257433Y290933D01*
X257517Y290985D01*
X257600Y291041D01*
X257680Y291099D01*
X257758Y291161D01*
X257833Y291226D01*
X257906Y291294D01*
X257976Y291364D01*
X258044Y291437D01*
X258109Y291512D01*
X258171Y291590D01*
X258229Y291670D01*
X258285Y291753D01*
X258337Y291837D01*
X258387Y291924D01*
X258432Y292012D01*
X258475Y292102D01*
X258514Y292194D01*
X258549Y292286D01*
X258581Y292381D01*
X258609Y292476D01*
X258634Y292572D01*
X258655Y292670D01*
X258672Y292768D01*
X258685Y292866D01*
X258694Y292965D01*
X258700Y293065D01*
X258702Y293164D01*
X258702Y295761D01*
X247018Y300126D02*
X247018Y303372D01*
X247020Y303485D01*
X247026Y303598D01*
X247036Y303711D01*
X247050Y303824D01*
X247067Y303936D01*
X247089Y304047D01*
X247114Y304157D01*
X247144Y304267D01*
X247177Y304375D01*
X247214Y304482D01*
X247254Y304588D01*
X247299Y304692D01*
X247347Y304795D01*
X247398Y304896D01*
X247453Y304995D01*
X247511Y305092D01*
X247573Y305187D01*
X247638Y305280D01*
X247706Y305370D01*
X247777Y305458D01*
X247852Y305544D01*
X247929Y305627D01*
X248009Y305707D01*
X248092Y305784D01*
X248178Y305859D01*
X248266Y305930D01*
X248356Y305998D01*
X248449Y306063D01*
X248544Y306125D01*
X248641Y306183D01*
X248740Y306238D01*
X248841Y306289D01*
X248944Y306337D01*
X249048Y306382D01*
X249154Y306422D01*
X249261Y306459D01*
X249369Y306492D01*
X249479Y306522D01*
X249589Y306547D01*
X249700Y306569D01*
X249812Y306586D01*
X249925Y306600D01*
X250038Y306610D01*
X250151Y306616D01*
X250264Y306618D01*
X250377Y306616D01*
X250490Y306610D01*
X250603Y306600D01*
X250716Y306586D01*
X250828Y306569D01*
X250939Y306547D01*
X251049Y306522D01*
X251159Y306492D01*
X251267Y306459D01*
X251374Y306422D01*
X251480Y306382D01*
X251584Y306337D01*
X251687Y306289D01*
X251788Y306238D01*
X251887Y306183D01*
X251984Y306125D01*
X252079Y306063D01*
X252172Y305998D01*
X252262Y305930D01*
X252350Y305859D01*
X252436Y305784D01*
X252519Y305707D01*
X252599Y305627D01*
X252676Y305544D01*
X252751Y305458D01*
X252822Y305370D01*
X252890Y305280D01*
X252955Y305187D01*
X253017Y305092D01*
X253075Y304995D01*
X253130Y304896D01*
X253181Y304795D01*
X253229Y304692D01*
X253274Y304588D01*
X253314Y304482D01*
X253351Y304375D01*
X253384Y304267D01*
X253414Y304157D01*
X253439Y304047D01*
X253461Y303936D01*
X253478Y303824D01*
X253492Y303711D01*
X253502Y303598D01*
X253508Y303485D01*
X253510Y303372D01*
X258702Y304021D02*
X258702Y300126D01*
X258702Y304021D02*
X258700Y304122D01*
X258694Y304222D01*
X258684Y304322D01*
X258671Y304422D01*
X258653Y304521D01*
X258632Y304620D01*
X258607Y304717D01*
X258578Y304814D01*
X258545Y304909D01*
X258509Y305003D01*
X258469Y305095D01*
X258426Y305186D01*
X258379Y305275D01*
X258329Y305362D01*
X258275Y305448D01*
X258218Y305531D01*
X258158Y305611D01*
X258095Y305690D01*
X258028Y305766D01*
X257959Y305839D01*
X257887Y305909D01*
X257813Y305977D01*
X257736Y306042D01*
X257656Y306103D01*
X257574Y306162D01*
X257490Y306217D01*
X257404Y306269D01*
X257316Y306318D01*
X257226Y306363D01*
X257134Y306405D01*
X257041Y306443D01*
X256946Y306477D01*
X256851Y306508D01*
X256754Y306535D01*
X256656Y306558D01*
X256557Y306578D01*
X256457Y306593D01*
X256357Y306605D01*
X256257Y306613D01*
X256156Y306617D01*
X256056Y306617D01*
X255955Y306613D01*
X255855Y306605D01*
X255755Y306593D01*
X255655Y306578D01*
X255556Y306558D01*
X255458Y306535D01*
X255361Y306508D01*
X255266Y306477D01*
X255171Y306443D01*
X255078Y306405D01*
X254986Y306363D01*
X254896Y306318D01*
X254808Y306269D01*
X254722Y306217D01*
X254638Y306162D01*
X254556Y306103D01*
X254476Y306042D01*
X254399Y305977D01*
X254325Y305909D01*
X254253Y305839D01*
X254184Y305766D01*
X254117Y305690D01*
X254054Y305611D01*
X253994Y305531D01*
X253937Y305448D01*
X253883Y305362D01*
X253833Y305275D01*
X253786Y305186D01*
X253743Y305095D01*
X253703Y305003D01*
X253667Y304909D01*
X253634Y304814D01*
X253605Y304717D01*
X253580Y304620D01*
X253559Y304521D01*
X253541Y304422D01*
X253528Y304322D01*
X253518Y304222D01*
X253512Y304122D01*
X253510Y304021D01*
X253509Y304021D02*
X253509Y301424D01*
X432579Y128008D02*
X435176Y128008D01*
X435275Y128010D01*
X435375Y128016D01*
X435474Y128025D01*
X435572Y128038D01*
X435670Y128055D01*
X435768Y128076D01*
X435864Y128101D01*
X435959Y128129D01*
X436053Y128161D01*
X436146Y128196D01*
X436238Y128235D01*
X436328Y128278D01*
X436416Y128323D01*
X436503Y128373D01*
X436587Y128425D01*
X436670Y128481D01*
X436750Y128539D01*
X436828Y128601D01*
X436903Y128666D01*
X436976Y128734D01*
X437046Y128804D01*
X437114Y128877D01*
X437179Y128952D01*
X437241Y129030D01*
X437299Y129110D01*
X437355Y129193D01*
X437407Y129277D01*
X437457Y129364D01*
X437502Y129452D01*
X437545Y129542D01*
X437584Y129634D01*
X437619Y129727D01*
X437651Y129821D01*
X437679Y129916D01*
X437704Y130012D01*
X437725Y130110D01*
X437742Y130208D01*
X437755Y130306D01*
X437764Y130405D01*
X437770Y130505D01*
X437772Y130604D01*
X437772Y137096D01*
X437770Y137195D01*
X437764Y137295D01*
X437755Y137394D01*
X437742Y137492D01*
X437725Y137590D01*
X437704Y137688D01*
X437679Y137784D01*
X437651Y137879D01*
X437619Y137973D01*
X437584Y138066D01*
X437545Y138158D01*
X437502Y138248D01*
X437457Y138336D01*
X437407Y138423D01*
X437355Y138507D01*
X437299Y138590D01*
X437241Y138670D01*
X437179Y138748D01*
X437114Y138823D01*
X437046Y138896D01*
X436976Y138966D01*
X436903Y139034D01*
X436828Y139099D01*
X436750Y139161D01*
X436670Y139219D01*
X436587Y139275D01*
X436503Y139327D01*
X436416Y139377D01*
X436328Y139422D01*
X436238Y139465D01*
X436146Y139504D01*
X436053Y139539D01*
X435959Y139571D01*
X435864Y139599D01*
X435768Y139624D01*
X435670Y139645D01*
X435572Y139662D01*
X435474Y139675D01*
X435375Y139684D01*
X435275Y139690D01*
X435176Y139692D01*
X432579Y139692D01*
X425617Y139692D02*
X428214Y130604D01*
X421723Y130604D01*
X423670Y133201D02*
X423670Y128008D01*
D13*
X398275Y352925D02*
X398275Y364355D01*
X399545Y352925D02*
X397005Y352925D01*
X397005Y364355D02*
X399545Y364355D01*
X389803Y352925D02*
X387263Y352925D01*
X389803Y352925D02*
X389903Y352927D01*
X390002Y352933D01*
X390102Y352943D01*
X390200Y352956D01*
X390299Y352974D01*
X390396Y352995D01*
X390492Y353020D01*
X390588Y353049D01*
X390682Y353082D01*
X390775Y353118D01*
X390866Y353158D01*
X390956Y353202D01*
X391044Y353249D01*
X391130Y353299D01*
X391214Y353353D01*
X391296Y353410D01*
X391375Y353470D01*
X391453Y353534D01*
X391527Y353600D01*
X391599Y353669D01*
X391668Y353741D01*
X391734Y353815D01*
X391798Y353893D01*
X391858Y353972D01*
X391915Y354054D01*
X391969Y354138D01*
X392019Y354224D01*
X392066Y354312D01*
X392110Y354402D01*
X392150Y354493D01*
X392186Y354586D01*
X392219Y354680D01*
X392248Y354776D01*
X392273Y354872D01*
X392294Y354969D01*
X392312Y355068D01*
X392325Y355166D01*
X392335Y355266D01*
X392341Y355365D01*
X392343Y355465D01*
X392343Y361815D01*
X392341Y361915D01*
X392335Y362014D01*
X392325Y362114D01*
X392312Y362212D01*
X392294Y362311D01*
X392273Y362408D01*
X392248Y362504D01*
X392219Y362600D01*
X392186Y362694D01*
X392150Y362787D01*
X392110Y362878D01*
X392066Y362968D01*
X392019Y363056D01*
X391969Y363142D01*
X391915Y363226D01*
X391858Y363308D01*
X391798Y363387D01*
X391734Y363465D01*
X391668Y363539D01*
X391599Y363611D01*
X391527Y363680D01*
X391453Y363746D01*
X391375Y363810D01*
X391296Y363870D01*
X391214Y363927D01*
X391130Y363981D01*
X391044Y364031D01*
X390956Y364078D01*
X390866Y364122D01*
X390775Y364162D01*
X390682Y364198D01*
X390588Y364231D01*
X390492Y364260D01*
X390396Y364285D01*
X390299Y364306D01*
X390200Y364324D01*
X390102Y364337D01*
X390002Y364347D01*
X389903Y364353D01*
X389803Y364355D01*
X387263Y364355D01*
X382781Y361815D02*
X379606Y364355D01*
X379606Y352925D01*
X382781Y352925D02*
X376431Y352925D01*
X461775Y250055D02*
X461775Y238625D01*
X463045Y238625D02*
X460505Y238625D01*
X460505Y250055D02*
X463045Y250055D01*
X453303Y238625D02*
X450763Y238625D01*
X453303Y238625D02*
X453403Y238627D01*
X453502Y238633D01*
X453602Y238643D01*
X453700Y238656D01*
X453799Y238674D01*
X453896Y238695D01*
X453992Y238720D01*
X454088Y238749D01*
X454182Y238782D01*
X454275Y238818D01*
X454366Y238858D01*
X454456Y238902D01*
X454544Y238949D01*
X454630Y238999D01*
X454714Y239053D01*
X454796Y239110D01*
X454875Y239170D01*
X454953Y239234D01*
X455027Y239300D01*
X455099Y239369D01*
X455168Y239441D01*
X455234Y239515D01*
X455298Y239593D01*
X455358Y239672D01*
X455415Y239754D01*
X455469Y239838D01*
X455519Y239924D01*
X455566Y240012D01*
X455610Y240102D01*
X455650Y240193D01*
X455686Y240286D01*
X455719Y240380D01*
X455748Y240476D01*
X455773Y240572D01*
X455794Y240669D01*
X455812Y240768D01*
X455825Y240866D01*
X455835Y240966D01*
X455841Y241065D01*
X455843Y241165D01*
X455843Y247515D01*
X455841Y247615D01*
X455835Y247714D01*
X455825Y247814D01*
X455812Y247912D01*
X455794Y248011D01*
X455773Y248108D01*
X455748Y248204D01*
X455719Y248300D01*
X455686Y248394D01*
X455650Y248487D01*
X455610Y248578D01*
X455566Y248668D01*
X455519Y248756D01*
X455469Y248842D01*
X455415Y248926D01*
X455358Y249008D01*
X455298Y249087D01*
X455234Y249165D01*
X455168Y249239D01*
X455099Y249311D01*
X455027Y249380D01*
X454953Y249446D01*
X454875Y249510D01*
X454796Y249570D01*
X454714Y249627D01*
X454630Y249681D01*
X454544Y249731D01*
X454456Y249778D01*
X454366Y249822D01*
X454275Y249862D01*
X454182Y249898D01*
X454088Y249931D01*
X453992Y249960D01*
X453896Y249985D01*
X453799Y250006D01*
X453700Y250024D01*
X453602Y250037D01*
X453502Y250047D01*
X453403Y250053D01*
X453303Y250055D01*
X450763Y250055D01*
X442789Y250056D02*
X442685Y250054D01*
X442580Y250048D01*
X442476Y250039D01*
X442373Y250026D01*
X442270Y250008D01*
X442168Y249988D01*
X442066Y249963D01*
X441966Y249935D01*
X441866Y249903D01*
X441768Y249867D01*
X441671Y249828D01*
X441576Y249786D01*
X441482Y249740D01*
X441390Y249690D01*
X441300Y249638D01*
X441212Y249582D01*
X441126Y249522D01*
X441042Y249460D01*
X440961Y249395D01*
X440882Y249327D01*
X440805Y249255D01*
X440732Y249182D01*
X440660Y249105D01*
X440592Y249026D01*
X440527Y248945D01*
X440465Y248861D01*
X440405Y248775D01*
X440349Y248687D01*
X440297Y248597D01*
X440247Y248505D01*
X440201Y248411D01*
X440159Y248316D01*
X440120Y248219D01*
X440084Y248121D01*
X440052Y248021D01*
X440024Y247921D01*
X439999Y247819D01*
X439979Y247717D01*
X439961Y247614D01*
X439948Y247511D01*
X439939Y247407D01*
X439933Y247302D01*
X439931Y247198D01*
X442789Y250055D02*
X442907Y250053D01*
X443026Y250047D01*
X443144Y250038D01*
X443261Y250025D01*
X443378Y250007D01*
X443495Y249987D01*
X443611Y249962D01*
X443726Y249934D01*
X443839Y249901D01*
X443952Y249866D01*
X444064Y249826D01*
X444174Y249784D01*
X444283Y249737D01*
X444391Y249687D01*
X444496Y249634D01*
X444600Y249577D01*
X444702Y249517D01*
X444802Y249454D01*
X444900Y249387D01*
X444996Y249318D01*
X445089Y249245D01*
X445180Y249169D01*
X445269Y249091D01*
X445355Y249009D01*
X445438Y248925D01*
X445519Y248839D01*
X445596Y248749D01*
X445671Y248658D01*
X445743Y248564D01*
X445812Y248467D01*
X445877Y248369D01*
X445940Y248268D01*
X445999Y248165D01*
X446055Y248061D01*
X446107Y247955D01*
X446156Y247847D01*
X446201Y247738D01*
X446243Y247627D01*
X446281Y247515D01*
X440883Y244976D02*
X440807Y245051D01*
X440732Y245130D01*
X440661Y245211D01*
X440592Y245295D01*
X440527Y245381D01*
X440465Y245469D01*
X440405Y245559D01*
X440349Y245651D01*
X440296Y245746D01*
X440247Y245842D01*
X440201Y245940D01*
X440158Y246039D01*
X440119Y246140D01*
X440084Y246242D01*
X440052Y246345D01*
X440024Y246449D01*
X439999Y246554D01*
X439978Y246661D01*
X439961Y246767D01*
X439948Y246874D01*
X439939Y246982D01*
X439933Y247090D01*
X439931Y247198D01*
X440884Y244975D02*
X446281Y238625D01*
X439931Y238625D01*
X322075Y238625D02*
X322075Y250055D01*
X323345Y238625D02*
X320805Y238625D01*
X320805Y250055D02*
X323345Y250055D01*
X313603Y238625D02*
X311063Y238625D01*
X313603Y238625D02*
X313703Y238627D01*
X313802Y238633D01*
X313902Y238643D01*
X314000Y238656D01*
X314099Y238674D01*
X314196Y238695D01*
X314292Y238720D01*
X314388Y238749D01*
X314482Y238782D01*
X314575Y238818D01*
X314666Y238858D01*
X314756Y238902D01*
X314844Y238949D01*
X314930Y238999D01*
X315014Y239053D01*
X315096Y239110D01*
X315175Y239170D01*
X315253Y239234D01*
X315327Y239300D01*
X315399Y239369D01*
X315468Y239441D01*
X315534Y239515D01*
X315598Y239593D01*
X315658Y239672D01*
X315715Y239754D01*
X315769Y239838D01*
X315819Y239924D01*
X315866Y240012D01*
X315910Y240102D01*
X315950Y240193D01*
X315986Y240286D01*
X316019Y240380D01*
X316048Y240476D01*
X316073Y240572D01*
X316094Y240669D01*
X316112Y240768D01*
X316125Y240866D01*
X316135Y240966D01*
X316141Y241065D01*
X316143Y241165D01*
X316143Y247515D01*
X316141Y247615D01*
X316135Y247714D01*
X316125Y247814D01*
X316112Y247912D01*
X316094Y248011D01*
X316073Y248108D01*
X316048Y248204D01*
X316019Y248300D01*
X315986Y248394D01*
X315950Y248487D01*
X315910Y248578D01*
X315866Y248668D01*
X315819Y248756D01*
X315769Y248842D01*
X315715Y248926D01*
X315658Y249008D01*
X315598Y249087D01*
X315534Y249165D01*
X315468Y249239D01*
X315399Y249311D01*
X315327Y249380D01*
X315253Y249446D01*
X315175Y249510D01*
X315096Y249570D01*
X315014Y249627D01*
X314930Y249681D01*
X314844Y249731D01*
X314756Y249778D01*
X314666Y249822D01*
X314575Y249862D01*
X314482Y249898D01*
X314388Y249931D01*
X314292Y249960D01*
X314196Y249985D01*
X314099Y250006D01*
X314000Y250024D01*
X313902Y250037D01*
X313802Y250047D01*
X313703Y250053D01*
X313603Y250055D01*
X311063Y250055D01*
X306581Y238625D02*
X303406Y238625D01*
X303295Y238627D01*
X303185Y238633D01*
X303074Y238642D01*
X302964Y238656D01*
X302855Y238673D01*
X302746Y238694D01*
X302638Y238719D01*
X302531Y238748D01*
X302425Y238780D01*
X302320Y238816D01*
X302217Y238856D01*
X302115Y238899D01*
X302014Y238946D01*
X301915Y238997D01*
X301819Y239050D01*
X301724Y239107D01*
X301631Y239168D01*
X301540Y239231D01*
X301451Y239298D01*
X301365Y239368D01*
X301282Y239441D01*
X301200Y239516D01*
X301122Y239594D01*
X301047Y239676D01*
X300974Y239759D01*
X300904Y239845D01*
X300837Y239934D01*
X300774Y240025D01*
X300713Y240118D01*
X300656Y240213D01*
X300603Y240309D01*
X300552Y240408D01*
X300505Y240509D01*
X300462Y240611D01*
X300422Y240714D01*
X300386Y240819D01*
X300354Y240925D01*
X300325Y241032D01*
X300300Y241140D01*
X300279Y241249D01*
X300262Y241358D01*
X300248Y241468D01*
X300239Y241579D01*
X300233Y241689D01*
X300231Y241800D01*
X300233Y241911D01*
X300239Y242021D01*
X300248Y242132D01*
X300262Y242242D01*
X300279Y242351D01*
X300300Y242460D01*
X300325Y242568D01*
X300354Y242675D01*
X300386Y242781D01*
X300422Y242886D01*
X300462Y242989D01*
X300505Y243091D01*
X300552Y243192D01*
X300603Y243291D01*
X300656Y243388D01*
X300713Y243482D01*
X300774Y243575D01*
X300837Y243666D01*
X300904Y243755D01*
X300974Y243841D01*
X301047Y243924D01*
X301122Y244006D01*
X301200Y244084D01*
X301282Y244159D01*
X301365Y244232D01*
X301451Y244302D01*
X301540Y244369D01*
X301631Y244432D01*
X301724Y244493D01*
X301819Y244550D01*
X301915Y244603D01*
X302014Y244654D01*
X302115Y244701D01*
X302217Y244744D01*
X302320Y244784D01*
X302425Y244820D01*
X302531Y244852D01*
X302638Y244881D01*
X302746Y244906D01*
X302855Y244927D01*
X302964Y244944D01*
X303074Y244958D01*
X303185Y244967D01*
X303295Y244973D01*
X303406Y244975D01*
X302771Y250055D02*
X306581Y250055D01*
X302771Y250055D02*
X302671Y250053D01*
X302572Y250047D01*
X302472Y250037D01*
X302374Y250024D01*
X302275Y250006D01*
X302178Y249985D01*
X302082Y249960D01*
X301986Y249931D01*
X301892Y249898D01*
X301799Y249862D01*
X301708Y249822D01*
X301618Y249778D01*
X301530Y249731D01*
X301444Y249681D01*
X301360Y249627D01*
X301278Y249570D01*
X301199Y249510D01*
X301121Y249446D01*
X301047Y249380D01*
X300975Y249311D01*
X300906Y249239D01*
X300840Y249165D01*
X300776Y249087D01*
X300716Y249008D01*
X300659Y248926D01*
X300605Y248842D01*
X300555Y248756D01*
X300508Y248668D01*
X300464Y248578D01*
X300424Y248487D01*
X300388Y248394D01*
X300355Y248300D01*
X300326Y248204D01*
X300301Y248108D01*
X300280Y248011D01*
X300262Y247912D01*
X300249Y247814D01*
X300239Y247714D01*
X300233Y247615D01*
X300231Y247515D01*
X300233Y247415D01*
X300239Y247316D01*
X300249Y247216D01*
X300262Y247118D01*
X300280Y247019D01*
X300301Y246922D01*
X300326Y246826D01*
X300355Y246730D01*
X300388Y246636D01*
X300424Y246543D01*
X300464Y246452D01*
X300508Y246362D01*
X300555Y246274D01*
X300605Y246188D01*
X300659Y246104D01*
X300716Y246022D01*
X300776Y245943D01*
X300840Y245865D01*
X300906Y245791D01*
X300975Y245719D01*
X301047Y245650D01*
X301121Y245584D01*
X301199Y245520D01*
X301278Y245460D01*
X301360Y245403D01*
X301444Y245349D01*
X301530Y245299D01*
X301618Y245252D01*
X301708Y245208D01*
X301799Y245168D01*
X301892Y245132D01*
X301986Y245099D01*
X302082Y245070D01*
X302178Y245045D01*
X302275Y245024D01*
X302374Y245006D01*
X302472Y244993D01*
X302572Y244983D01*
X302671Y244977D01*
X302771Y244975D01*
X305311Y244975D01*
D12*
X358778Y573778D02*
X370462Y573778D01*
X370462Y577024D01*
X370460Y577137D01*
X370454Y577250D01*
X370444Y577363D01*
X370430Y577476D01*
X370413Y577588D01*
X370391Y577699D01*
X370366Y577809D01*
X370336Y577919D01*
X370303Y578027D01*
X370266Y578134D01*
X370226Y578240D01*
X370181Y578344D01*
X370133Y578447D01*
X370082Y578548D01*
X370027Y578647D01*
X369969Y578744D01*
X369907Y578839D01*
X369842Y578932D01*
X369774Y579022D01*
X369703Y579110D01*
X369628Y579196D01*
X369551Y579279D01*
X369471Y579359D01*
X369388Y579436D01*
X369302Y579511D01*
X369214Y579582D01*
X369124Y579650D01*
X369031Y579715D01*
X368936Y579777D01*
X368839Y579835D01*
X368740Y579890D01*
X368639Y579941D01*
X368536Y579989D01*
X368432Y580034D01*
X368326Y580074D01*
X368219Y580111D01*
X368111Y580144D01*
X368001Y580174D01*
X367891Y580199D01*
X367780Y580221D01*
X367668Y580238D01*
X367555Y580252D01*
X367442Y580262D01*
X367329Y580268D01*
X367216Y580270D01*
X367103Y580268D01*
X366990Y580262D01*
X366877Y580252D01*
X366764Y580238D01*
X366652Y580221D01*
X366541Y580199D01*
X366431Y580174D01*
X366321Y580144D01*
X366213Y580111D01*
X366106Y580074D01*
X366000Y580034D01*
X365896Y579989D01*
X365793Y579941D01*
X365692Y579890D01*
X365593Y579835D01*
X365496Y579777D01*
X365401Y579715D01*
X365308Y579650D01*
X365218Y579582D01*
X365130Y579511D01*
X365044Y579436D01*
X364961Y579359D01*
X364881Y579279D01*
X364804Y579196D01*
X364729Y579110D01*
X364658Y579022D01*
X364590Y578932D01*
X364525Y578839D01*
X364463Y578744D01*
X364405Y578647D01*
X364350Y578548D01*
X364299Y578447D01*
X364251Y578344D01*
X364206Y578240D01*
X364166Y578134D01*
X364129Y578027D01*
X364096Y577919D01*
X364066Y577809D01*
X364041Y577699D01*
X364019Y577588D01*
X364002Y577476D01*
X363988Y577363D01*
X363978Y577250D01*
X363972Y577137D01*
X363970Y577024D01*
X363971Y577024D02*
X363971Y573778D01*
X363971Y577673D02*
X358778Y580269D01*
X367866Y585134D02*
X370462Y588380D01*
X358778Y588380D01*
X358778Y591625D02*
X358778Y585134D01*
X358778Y612065D02*
X370462Y612065D01*
X370462Y615310D01*
X370460Y615423D01*
X370454Y615536D01*
X370444Y615649D01*
X370430Y615762D01*
X370413Y615874D01*
X370391Y615985D01*
X370366Y616095D01*
X370336Y616205D01*
X370303Y616313D01*
X370266Y616420D01*
X370226Y616526D01*
X370181Y616630D01*
X370133Y616733D01*
X370082Y616834D01*
X370027Y616933D01*
X369969Y617030D01*
X369907Y617125D01*
X369842Y617218D01*
X369774Y617308D01*
X369703Y617396D01*
X369628Y617482D01*
X369551Y617565D01*
X369471Y617645D01*
X369388Y617722D01*
X369302Y617797D01*
X369214Y617868D01*
X369124Y617936D01*
X369031Y618001D01*
X368936Y618063D01*
X368839Y618121D01*
X368740Y618176D01*
X368639Y618227D01*
X368536Y618275D01*
X368432Y618320D01*
X368326Y618360D01*
X368219Y618397D01*
X368111Y618430D01*
X368001Y618460D01*
X367891Y618485D01*
X367780Y618507D01*
X367668Y618524D01*
X367555Y618538D01*
X367442Y618548D01*
X367329Y618554D01*
X367216Y618556D01*
X367103Y618554D01*
X366990Y618548D01*
X366877Y618538D01*
X366764Y618524D01*
X366652Y618507D01*
X366541Y618485D01*
X366431Y618460D01*
X366321Y618430D01*
X366213Y618397D01*
X366106Y618360D01*
X366000Y618320D01*
X365896Y618275D01*
X365793Y618227D01*
X365692Y618176D01*
X365593Y618121D01*
X365496Y618063D01*
X365401Y618001D01*
X365308Y617936D01*
X365218Y617868D01*
X365130Y617797D01*
X365044Y617722D01*
X364961Y617645D01*
X364881Y617565D01*
X364804Y617482D01*
X364729Y617396D01*
X364658Y617308D01*
X364590Y617218D01*
X364525Y617125D01*
X364463Y617030D01*
X364405Y616933D01*
X364350Y616834D01*
X364299Y616733D01*
X364251Y616630D01*
X364206Y616526D01*
X364166Y616420D01*
X364129Y616313D01*
X364096Y616205D01*
X364066Y616095D01*
X364041Y615985D01*
X364019Y615874D01*
X364002Y615762D01*
X363988Y615649D01*
X363978Y615536D01*
X363972Y615423D01*
X363970Y615310D01*
X363971Y615310D02*
X363971Y612065D01*
X363971Y615959D02*
X358778Y618556D01*
X367541Y629912D02*
X367648Y629910D01*
X367754Y629904D01*
X367860Y629894D01*
X367966Y629881D01*
X368072Y629863D01*
X368176Y629842D01*
X368280Y629817D01*
X368383Y629788D01*
X368484Y629756D01*
X368584Y629719D01*
X368683Y629679D01*
X368781Y629636D01*
X368877Y629589D01*
X368971Y629538D01*
X369063Y629484D01*
X369153Y629427D01*
X369241Y629367D01*
X369326Y629303D01*
X369409Y629236D01*
X369490Y629166D01*
X369568Y629094D01*
X369644Y629018D01*
X369716Y628940D01*
X369786Y628859D01*
X369853Y628776D01*
X369917Y628691D01*
X369977Y628603D01*
X370034Y628513D01*
X370088Y628421D01*
X370139Y628327D01*
X370186Y628231D01*
X370229Y628133D01*
X370269Y628034D01*
X370306Y627934D01*
X370338Y627833D01*
X370367Y627730D01*
X370392Y627626D01*
X370413Y627522D01*
X370431Y627416D01*
X370444Y627310D01*
X370454Y627204D01*
X370460Y627098D01*
X370462Y626991D01*
X370460Y626870D01*
X370454Y626749D01*
X370444Y626629D01*
X370431Y626508D01*
X370413Y626389D01*
X370392Y626269D01*
X370367Y626151D01*
X370338Y626034D01*
X370305Y625917D01*
X370269Y625802D01*
X370228Y625688D01*
X370185Y625575D01*
X370137Y625463D01*
X370086Y625354D01*
X370031Y625246D01*
X369973Y625139D01*
X369912Y625035D01*
X369847Y624933D01*
X369779Y624833D01*
X369708Y624735D01*
X369634Y624639D01*
X369557Y624546D01*
X369476Y624456D01*
X369393Y624368D01*
X369307Y624283D01*
X369218Y624200D01*
X369127Y624121D01*
X369033Y624044D01*
X368937Y623971D01*
X368839Y623901D01*
X368738Y623834D01*
X368635Y623770D01*
X368530Y623710D01*
X368423Y623653D01*
X368315Y623599D01*
X368205Y623549D01*
X368093Y623503D01*
X367980Y623460D01*
X367865Y623421D01*
X365269Y628939D02*
X365346Y629018D01*
X365427Y629094D01*
X365510Y629167D01*
X365595Y629237D01*
X365683Y629304D01*
X365773Y629368D01*
X365865Y629428D01*
X365960Y629485D01*
X366056Y629539D01*
X366154Y629590D01*
X366254Y629637D01*
X366356Y629681D01*
X366459Y629721D01*
X366563Y629757D01*
X366669Y629789D01*
X366775Y629818D01*
X366883Y629843D01*
X366991Y629865D01*
X367101Y629882D01*
X367210Y629896D01*
X367320Y629905D01*
X367431Y629911D01*
X367541Y629913D01*
X365269Y628938D02*
X358778Y623421D01*
X358778Y629912D01*
X284102Y142232D02*
X284102Y130548D01*
X284102Y142232D02*
X280856Y142232D01*
X280743Y142230D01*
X280630Y142224D01*
X280517Y142214D01*
X280404Y142200D01*
X280292Y142183D01*
X280181Y142161D01*
X280071Y142136D01*
X279961Y142106D01*
X279853Y142073D01*
X279746Y142036D01*
X279640Y141996D01*
X279536Y141951D01*
X279433Y141903D01*
X279332Y141852D01*
X279233Y141797D01*
X279136Y141739D01*
X279041Y141677D01*
X278948Y141612D01*
X278858Y141544D01*
X278770Y141473D01*
X278684Y141398D01*
X278601Y141321D01*
X278521Y141241D01*
X278444Y141158D01*
X278369Y141072D01*
X278298Y140984D01*
X278230Y140894D01*
X278165Y140801D01*
X278103Y140706D01*
X278045Y140609D01*
X277990Y140510D01*
X277939Y140409D01*
X277891Y140306D01*
X277846Y140202D01*
X277806Y140096D01*
X277769Y139989D01*
X277736Y139881D01*
X277706Y139771D01*
X277681Y139661D01*
X277659Y139550D01*
X277642Y139438D01*
X277628Y139325D01*
X277618Y139212D01*
X277612Y139099D01*
X277610Y138986D01*
X277612Y138873D01*
X277618Y138760D01*
X277628Y138647D01*
X277642Y138534D01*
X277659Y138422D01*
X277681Y138311D01*
X277706Y138201D01*
X277736Y138091D01*
X277769Y137983D01*
X277806Y137876D01*
X277846Y137770D01*
X277891Y137666D01*
X277939Y137563D01*
X277990Y137462D01*
X278045Y137363D01*
X278103Y137266D01*
X278165Y137171D01*
X278230Y137078D01*
X278298Y136988D01*
X278369Y136900D01*
X278444Y136814D01*
X278521Y136731D01*
X278601Y136651D01*
X278684Y136574D01*
X278770Y136499D01*
X278858Y136428D01*
X278948Y136360D01*
X279041Y136295D01*
X279136Y136233D01*
X279233Y136175D01*
X279332Y136120D01*
X279433Y136069D01*
X279536Y136021D01*
X279640Y135976D01*
X279746Y135936D01*
X279853Y135899D01*
X279961Y135866D01*
X280071Y135836D01*
X280181Y135811D01*
X280292Y135789D01*
X280404Y135772D01*
X280517Y135758D01*
X280630Y135748D01*
X280743Y135742D01*
X280856Y135740D01*
X280856Y135741D02*
X284102Y135741D01*
X280207Y135741D02*
X277611Y130548D01*
X272746Y130548D02*
X269500Y130548D01*
X269387Y130550D01*
X269274Y130556D01*
X269161Y130566D01*
X269048Y130580D01*
X268936Y130597D01*
X268825Y130619D01*
X268715Y130644D01*
X268605Y130674D01*
X268497Y130707D01*
X268390Y130744D01*
X268284Y130784D01*
X268180Y130829D01*
X268077Y130877D01*
X267976Y130928D01*
X267877Y130983D01*
X267780Y131041D01*
X267685Y131103D01*
X267592Y131168D01*
X267502Y131236D01*
X267414Y131307D01*
X267328Y131382D01*
X267245Y131459D01*
X267165Y131539D01*
X267088Y131622D01*
X267013Y131708D01*
X266942Y131796D01*
X266874Y131886D01*
X266809Y131979D01*
X266747Y132074D01*
X266689Y132171D01*
X266634Y132270D01*
X266583Y132371D01*
X266535Y132474D01*
X266490Y132578D01*
X266450Y132684D01*
X266413Y132791D01*
X266380Y132899D01*
X266350Y133009D01*
X266325Y133119D01*
X266303Y133230D01*
X266286Y133342D01*
X266272Y133455D01*
X266262Y133568D01*
X266256Y133681D01*
X266254Y133794D01*
X266256Y133907D01*
X266262Y134020D01*
X266272Y134133D01*
X266286Y134246D01*
X266303Y134358D01*
X266325Y134469D01*
X266350Y134579D01*
X266380Y134689D01*
X266413Y134797D01*
X266450Y134904D01*
X266490Y135010D01*
X266535Y135114D01*
X266583Y135217D01*
X266634Y135318D01*
X266689Y135417D01*
X266747Y135514D01*
X266809Y135609D01*
X266874Y135702D01*
X266942Y135792D01*
X267013Y135880D01*
X267088Y135966D01*
X267165Y136049D01*
X267245Y136129D01*
X267328Y136206D01*
X267414Y136281D01*
X267502Y136352D01*
X267592Y136420D01*
X267685Y136485D01*
X267780Y136547D01*
X267877Y136605D01*
X267976Y136660D01*
X268077Y136711D01*
X268180Y136759D01*
X268284Y136804D01*
X268390Y136844D01*
X268497Y136881D01*
X268605Y136914D01*
X268715Y136944D01*
X268825Y136969D01*
X268936Y136991D01*
X269048Y137008D01*
X269161Y137022D01*
X269274Y137032D01*
X269387Y137038D01*
X269500Y137040D01*
X268851Y142232D02*
X272746Y142232D01*
X268851Y142232D02*
X268750Y142230D01*
X268650Y142224D01*
X268550Y142214D01*
X268450Y142201D01*
X268351Y142183D01*
X268252Y142162D01*
X268155Y142137D01*
X268058Y142108D01*
X267963Y142075D01*
X267869Y142039D01*
X267777Y141999D01*
X267686Y141956D01*
X267597Y141909D01*
X267510Y141859D01*
X267424Y141805D01*
X267341Y141748D01*
X267261Y141688D01*
X267182Y141625D01*
X267106Y141558D01*
X267033Y141489D01*
X266963Y141417D01*
X266895Y141343D01*
X266830Y141266D01*
X266769Y141186D01*
X266710Y141104D01*
X266655Y141020D01*
X266603Y140934D01*
X266554Y140846D01*
X266509Y140756D01*
X266467Y140664D01*
X266429Y140571D01*
X266395Y140476D01*
X266364Y140381D01*
X266337Y140284D01*
X266314Y140186D01*
X266294Y140087D01*
X266279Y139987D01*
X266267Y139887D01*
X266259Y139787D01*
X266255Y139686D01*
X266255Y139586D01*
X266259Y139485D01*
X266267Y139385D01*
X266279Y139285D01*
X266294Y139185D01*
X266314Y139086D01*
X266337Y138988D01*
X266364Y138891D01*
X266395Y138796D01*
X266429Y138701D01*
X266467Y138608D01*
X266509Y138516D01*
X266554Y138426D01*
X266603Y138338D01*
X266655Y138252D01*
X266710Y138168D01*
X266769Y138086D01*
X266830Y138006D01*
X266895Y137929D01*
X266963Y137855D01*
X267033Y137783D01*
X267106Y137714D01*
X267182Y137647D01*
X267261Y137584D01*
X267341Y137524D01*
X267424Y137467D01*
X267510Y137413D01*
X267597Y137363D01*
X267686Y137316D01*
X267777Y137273D01*
X267869Y137233D01*
X267963Y137197D01*
X268058Y137164D01*
X268155Y137135D01*
X268252Y137110D01*
X268351Y137089D01*
X268450Y137071D01*
X268550Y137058D01*
X268650Y137048D01*
X268750Y137042D01*
X268851Y137040D01*
X268851Y137039D02*
X271447Y137039D01*
X361318Y130735D02*
X373002Y130735D01*
X373002Y133980D01*
X373000Y134093D01*
X372994Y134206D01*
X372984Y134319D01*
X372970Y134432D01*
X372953Y134544D01*
X372931Y134655D01*
X372906Y134765D01*
X372876Y134875D01*
X372843Y134983D01*
X372806Y135090D01*
X372766Y135196D01*
X372721Y135300D01*
X372673Y135403D01*
X372622Y135504D01*
X372567Y135603D01*
X372509Y135700D01*
X372447Y135795D01*
X372382Y135888D01*
X372314Y135978D01*
X372243Y136066D01*
X372168Y136152D01*
X372091Y136235D01*
X372011Y136315D01*
X371928Y136392D01*
X371842Y136467D01*
X371754Y136538D01*
X371664Y136606D01*
X371571Y136671D01*
X371476Y136733D01*
X371379Y136791D01*
X371280Y136846D01*
X371179Y136897D01*
X371076Y136945D01*
X370972Y136990D01*
X370866Y137030D01*
X370759Y137067D01*
X370651Y137100D01*
X370541Y137130D01*
X370431Y137155D01*
X370320Y137177D01*
X370208Y137194D01*
X370095Y137208D01*
X369982Y137218D01*
X369869Y137224D01*
X369756Y137226D01*
X369643Y137224D01*
X369530Y137218D01*
X369417Y137208D01*
X369304Y137194D01*
X369192Y137177D01*
X369081Y137155D01*
X368971Y137130D01*
X368861Y137100D01*
X368753Y137067D01*
X368646Y137030D01*
X368540Y136990D01*
X368436Y136945D01*
X368333Y136897D01*
X368232Y136846D01*
X368133Y136791D01*
X368036Y136733D01*
X367941Y136671D01*
X367848Y136606D01*
X367758Y136538D01*
X367670Y136467D01*
X367584Y136392D01*
X367501Y136315D01*
X367421Y136235D01*
X367344Y136152D01*
X367269Y136066D01*
X367198Y135978D01*
X367130Y135888D01*
X367065Y135795D01*
X367003Y135700D01*
X366945Y135603D01*
X366890Y135504D01*
X366839Y135403D01*
X366791Y135300D01*
X366746Y135196D01*
X366706Y135090D01*
X366669Y134983D01*
X366636Y134875D01*
X366606Y134765D01*
X366581Y134655D01*
X366559Y134544D01*
X366542Y134432D01*
X366528Y134319D01*
X366518Y134206D01*
X366512Y134093D01*
X366510Y133980D01*
X366511Y133980D02*
X366511Y130735D01*
X366511Y134629D02*
X361318Y137226D01*
X363914Y142091D02*
X373002Y144687D01*
X363914Y142091D02*
X363914Y148582D01*
X366511Y146635D02*
X361318Y146635D01*
X499748Y571238D02*
X511432Y571238D01*
X511432Y574484D01*
X511430Y574597D01*
X511424Y574710D01*
X511414Y574823D01*
X511400Y574936D01*
X511383Y575048D01*
X511361Y575159D01*
X511336Y575269D01*
X511306Y575379D01*
X511273Y575487D01*
X511236Y575594D01*
X511196Y575700D01*
X511151Y575804D01*
X511103Y575907D01*
X511052Y576008D01*
X510997Y576107D01*
X510939Y576204D01*
X510877Y576299D01*
X510812Y576392D01*
X510744Y576482D01*
X510673Y576570D01*
X510598Y576656D01*
X510521Y576739D01*
X510441Y576819D01*
X510358Y576896D01*
X510272Y576971D01*
X510184Y577042D01*
X510094Y577110D01*
X510001Y577175D01*
X509906Y577237D01*
X509809Y577295D01*
X509710Y577350D01*
X509609Y577401D01*
X509506Y577449D01*
X509402Y577494D01*
X509296Y577534D01*
X509189Y577571D01*
X509081Y577604D01*
X508971Y577634D01*
X508861Y577659D01*
X508750Y577681D01*
X508638Y577698D01*
X508525Y577712D01*
X508412Y577722D01*
X508299Y577728D01*
X508186Y577730D01*
X508073Y577728D01*
X507960Y577722D01*
X507847Y577712D01*
X507734Y577698D01*
X507622Y577681D01*
X507511Y577659D01*
X507401Y577634D01*
X507291Y577604D01*
X507183Y577571D01*
X507076Y577534D01*
X506970Y577494D01*
X506866Y577449D01*
X506763Y577401D01*
X506662Y577350D01*
X506563Y577295D01*
X506466Y577237D01*
X506371Y577175D01*
X506278Y577110D01*
X506188Y577042D01*
X506100Y576971D01*
X506014Y576896D01*
X505931Y576819D01*
X505851Y576739D01*
X505774Y576656D01*
X505699Y576570D01*
X505628Y576482D01*
X505560Y576392D01*
X505495Y576299D01*
X505433Y576204D01*
X505375Y576107D01*
X505320Y576008D01*
X505269Y575907D01*
X505221Y575804D01*
X505176Y575700D01*
X505136Y575594D01*
X505099Y575487D01*
X505066Y575379D01*
X505036Y575269D01*
X505011Y575159D01*
X504989Y575048D01*
X504972Y574936D01*
X504958Y574823D01*
X504948Y574710D01*
X504942Y574597D01*
X504940Y574484D01*
X504941Y574484D02*
X504941Y571238D01*
X504941Y575133D02*
X499748Y577729D01*
X499748Y582594D02*
X499748Y586489D01*
X499750Y586588D01*
X499756Y586688D01*
X499765Y586787D01*
X499778Y586885D01*
X499795Y586983D01*
X499816Y587081D01*
X499841Y587177D01*
X499869Y587272D01*
X499901Y587366D01*
X499936Y587459D01*
X499975Y587551D01*
X500018Y587641D01*
X500063Y587729D01*
X500113Y587816D01*
X500165Y587900D01*
X500221Y587983D01*
X500279Y588063D01*
X500341Y588141D01*
X500406Y588216D01*
X500474Y588289D01*
X500544Y588359D01*
X500617Y588427D01*
X500692Y588492D01*
X500770Y588554D01*
X500850Y588612D01*
X500933Y588668D01*
X501017Y588720D01*
X501104Y588770D01*
X501192Y588815D01*
X501282Y588858D01*
X501374Y588897D01*
X501467Y588932D01*
X501561Y588964D01*
X501656Y588992D01*
X501752Y589017D01*
X501850Y589038D01*
X501948Y589055D01*
X502046Y589068D01*
X502145Y589077D01*
X502245Y589083D01*
X502344Y589085D01*
X503643Y589085D01*
X503742Y589083D01*
X503842Y589077D01*
X503941Y589068D01*
X504039Y589055D01*
X504137Y589038D01*
X504235Y589017D01*
X504331Y588992D01*
X504426Y588964D01*
X504520Y588932D01*
X504613Y588897D01*
X504705Y588858D01*
X504795Y588815D01*
X504883Y588770D01*
X504970Y588720D01*
X505054Y588668D01*
X505137Y588612D01*
X505217Y588554D01*
X505295Y588492D01*
X505370Y588427D01*
X505443Y588359D01*
X505513Y588289D01*
X505581Y588216D01*
X505646Y588141D01*
X505708Y588063D01*
X505766Y587983D01*
X505822Y587900D01*
X505874Y587816D01*
X505924Y587729D01*
X505969Y587641D01*
X506012Y587551D01*
X506051Y587459D01*
X506086Y587366D01*
X506118Y587272D01*
X506146Y587177D01*
X506171Y587081D01*
X506192Y586983D01*
X506209Y586885D01*
X506222Y586787D01*
X506231Y586688D01*
X506237Y586588D01*
X506239Y586489D01*
X506239Y582594D01*
X511432Y582594D01*
X511432Y589085D01*
X511432Y610608D02*
X499748Y610608D01*
X511432Y610608D02*
X511432Y613854D01*
X511430Y613967D01*
X511424Y614080D01*
X511414Y614193D01*
X511400Y614306D01*
X511383Y614418D01*
X511361Y614529D01*
X511336Y614639D01*
X511306Y614749D01*
X511273Y614857D01*
X511236Y614964D01*
X511196Y615070D01*
X511151Y615174D01*
X511103Y615277D01*
X511052Y615378D01*
X510997Y615477D01*
X510939Y615574D01*
X510877Y615669D01*
X510812Y615762D01*
X510744Y615852D01*
X510673Y615940D01*
X510598Y616026D01*
X510521Y616109D01*
X510441Y616189D01*
X510358Y616266D01*
X510272Y616341D01*
X510184Y616412D01*
X510094Y616480D01*
X510001Y616545D01*
X509906Y616607D01*
X509809Y616665D01*
X509710Y616720D01*
X509609Y616771D01*
X509506Y616819D01*
X509402Y616864D01*
X509296Y616904D01*
X509189Y616941D01*
X509081Y616974D01*
X508971Y617004D01*
X508861Y617029D01*
X508750Y617051D01*
X508638Y617068D01*
X508525Y617082D01*
X508412Y617092D01*
X508299Y617098D01*
X508186Y617100D01*
X508073Y617098D01*
X507960Y617092D01*
X507847Y617082D01*
X507734Y617068D01*
X507622Y617051D01*
X507511Y617029D01*
X507401Y617004D01*
X507291Y616974D01*
X507183Y616941D01*
X507076Y616904D01*
X506970Y616864D01*
X506866Y616819D01*
X506763Y616771D01*
X506662Y616720D01*
X506563Y616665D01*
X506466Y616607D01*
X506371Y616545D01*
X506278Y616480D01*
X506188Y616412D01*
X506100Y616341D01*
X506014Y616266D01*
X505931Y616189D01*
X505851Y616109D01*
X505774Y616026D01*
X505699Y615940D01*
X505628Y615852D01*
X505560Y615762D01*
X505495Y615669D01*
X505433Y615574D01*
X505375Y615477D01*
X505320Y615378D01*
X505269Y615277D01*
X505221Y615174D01*
X505176Y615070D01*
X505136Y614964D01*
X505099Y614857D01*
X505066Y614749D01*
X505036Y614639D01*
X505011Y614529D01*
X504989Y614418D01*
X504972Y614306D01*
X504958Y614193D01*
X504948Y614080D01*
X504942Y613967D01*
X504940Y613854D01*
X504941Y613854D02*
X504941Y610608D01*
X504941Y614503D02*
X499748Y617099D01*
X506239Y621964D02*
X506239Y625859D01*
X506237Y625958D01*
X506231Y626058D01*
X506222Y626157D01*
X506209Y626255D01*
X506192Y626353D01*
X506171Y626451D01*
X506146Y626547D01*
X506118Y626642D01*
X506086Y626736D01*
X506051Y626829D01*
X506012Y626921D01*
X505969Y627011D01*
X505924Y627099D01*
X505874Y627186D01*
X505822Y627270D01*
X505766Y627353D01*
X505708Y627433D01*
X505646Y627511D01*
X505581Y627586D01*
X505513Y627659D01*
X505443Y627729D01*
X505370Y627797D01*
X505295Y627862D01*
X505217Y627924D01*
X505137Y627982D01*
X505054Y628038D01*
X504970Y628090D01*
X504883Y628140D01*
X504795Y628185D01*
X504705Y628228D01*
X504613Y628267D01*
X504520Y628302D01*
X504426Y628334D01*
X504331Y628362D01*
X504235Y628387D01*
X504137Y628408D01*
X504039Y628425D01*
X503941Y628438D01*
X503842Y628447D01*
X503742Y628453D01*
X503643Y628455D01*
X502994Y628455D01*
X502994Y628456D02*
X502881Y628454D01*
X502768Y628448D01*
X502655Y628438D01*
X502542Y628424D01*
X502430Y628407D01*
X502319Y628385D01*
X502209Y628360D01*
X502099Y628330D01*
X501991Y628297D01*
X501884Y628260D01*
X501778Y628220D01*
X501674Y628175D01*
X501571Y628127D01*
X501470Y628076D01*
X501371Y628021D01*
X501274Y627963D01*
X501179Y627901D01*
X501086Y627836D01*
X500996Y627768D01*
X500908Y627697D01*
X500822Y627622D01*
X500739Y627545D01*
X500659Y627465D01*
X500582Y627382D01*
X500507Y627296D01*
X500436Y627208D01*
X500368Y627118D01*
X500303Y627025D01*
X500241Y626930D01*
X500183Y626833D01*
X500128Y626734D01*
X500077Y626633D01*
X500029Y626530D01*
X499984Y626426D01*
X499944Y626320D01*
X499907Y626213D01*
X499874Y626105D01*
X499844Y625995D01*
X499819Y625885D01*
X499797Y625774D01*
X499780Y625662D01*
X499766Y625549D01*
X499756Y625436D01*
X499750Y625323D01*
X499748Y625210D01*
X499750Y625097D01*
X499756Y624984D01*
X499766Y624871D01*
X499780Y624758D01*
X499797Y624646D01*
X499819Y624535D01*
X499844Y624425D01*
X499874Y624315D01*
X499907Y624207D01*
X499944Y624100D01*
X499984Y623994D01*
X500029Y623890D01*
X500077Y623787D01*
X500128Y623686D01*
X500183Y623587D01*
X500241Y623490D01*
X500303Y623395D01*
X500368Y623302D01*
X500436Y623212D01*
X500507Y623124D01*
X500582Y623038D01*
X500659Y622955D01*
X500739Y622875D01*
X500822Y622798D01*
X500908Y622723D01*
X500996Y622652D01*
X501086Y622584D01*
X501179Y622519D01*
X501274Y622457D01*
X501371Y622399D01*
X501470Y622344D01*
X501571Y622293D01*
X501674Y622245D01*
X501778Y622200D01*
X501884Y622160D01*
X501991Y622123D01*
X502099Y622090D01*
X502209Y622060D01*
X502319Y622035D01*
X502430Y622013D01*
X502542Y621996D01*
X502655Y621982D01*
X502768Y621972D01*
X502881Y621966D01*
X502994Y621964D01*
X506239Y621964D01*
X506382Y621966D01*
X506525Y621972D01*
X506668Y621982D01*
X506810Y621996D01*
X506952Y622013D01*
X507094Y622035D01*
X507235Y622060D01*
X507375Y622090D01*
X507514Y622123D01*
X507652Y622160D01*
X507789Y622201D01*
X507925Y622245D01*
X508060Y622294D01*
X508193Y622346D01*
X508325Y622401D01*
X508455Y622461D01*
X508584Y622524D01*
X508711Y622590D01*
X508835Y622660D01*
X508958Y622733D01*
X509079Y622810D01*
X509198Y622890D01*
X509314Y622973D01*
X509429Y623059D01*
X509540Y623148D01*
X509650Y623241D01*
X509756Y623336D01*
X509860Y623435D01*
X509961Y623536D01*
X510060Y623640D01*
X510155Y623746D01*
X510248Y623856D01*
X510337Y623967D01*
X510423Y624082D01*
X510506Y624198D01*
X510586Y624317D01*
X510663Y624438D01*
X510736Y624560D01*
X510806Y624685D01*
X510872Y624812D01*
X510935Y624941D01*
X510995Y625071D01*
X511050Y625203D01*
X511102Y625336D01*
X511151Y625471D01*
X511195Y625607D01*
X511236Y625744D01*
X511273Y625882D01*
X511306Y626021D01*
X511336Y626161D01*
X511361Y626302D01*
X511383Y626444D01*
X511400Y626586D01*
X511414Y626728D01*
X511424Y626871D01*
X511430Y627014D01*
X511432Y627157D01*
X257432Y182805D02*
X245748Y182805D01*
X257432Y182805D02*
X257432Y186050D01*
X257430Y186163D01*
X257424Y186276D01*
X257414Y186389D01*
X257400Y186502D01*
X257383Y186614D01*
X257361Y186725D01*
X257336Y186835D01*
X257306Y186945D01*
X257273Y187053D01*
X257236Y187160D01*
X257196Y187266D01*
X257151Y187370D01*
X257103Y187473D01*
X257052Y187574D01*
X256997Y187673D01*
X256939Y187770D01*
X256877Y187865D01*
X256812Y187958D01*
X256744Y188048D01*
X256673Y188136D01*
X256598Y188222D01*
X256521Y188305D01*
X256441Y188385D01*
X256358Y188462D01*
X256272Y188537D01*
X256184Y188608D01*
X256094Y188676D01*
X256001Y188741D01*
X255906Y188803D01*
X255809Y188861D01*
X255710Y188916D01*
X255609Y188967D01*
X255506Y189015D01*
X255402Y189060D01*
X255296Y189100D01*
X255189Y189137D01*
X255081Y189170D01*
X254971Y189200D01*
X254861Y189225D01*
X254750Y189247D01*
X254638Y189264D01*
X254525Y189278D01*
X254412Y189288D01*
X254299Y189294D01*
X254186Y189296D01*
X254073Y189294D01*
X253960Y189288D01*
X253847Y189278D01*
X253734Y189264D01*
X253622Y189247D01*
X253511Y189225D01*
X253401Y189200D01*
X253291Y189170D01*
X253183Y189137D01*
X253076Y189100D01*
X252970Y189060D01*
X252866Y189015D01*
X252763Y188967D01*
X252662Y188916D01*
X252563Y188861D01*
X252466Y188803D01*
X252371Y188741D01*
X252278Y188676D01*
X252188Y188608D01*
X252100Y188537D01*
X252014Y188462D01*
X251931Y188385D01*
X251851Y188305D01*
X251774Y188222D01*
X251699Y188136D01*
X251628Y188048D01*
X251560Y187958D01*
X251495Y187865D01*
X251433Y187770D01*
X251375Y187673D01*
X251320Y187574D01*
X251269Y187473D01*
X251221Y187370D01*
X251176Y187266D01*
X251136Y187160D01*
X251099Y187053D01*
X251066Y186945D01*
X251036Y186835D01*
X251011Y186725D01*
X250989Y186614D01*
X250972Y186502D01*
X250958Y186389D01*
X250948Y186276D01*
X250942Y186163D01*
X250940Y186050D01*
X250941Y186050D02*
X250941Y182805D01*
X250941Y186699D02*
X245748Y189296D01*
X248994Y194160D02*
X249107Y194162D01*
X249220Y194168D01*
X249333Y194178D01*
X249446Y194192D01*
X249558Y194209D01*
X249669Y194231D01*
X249779Y194256D01*
X249889Y194286D01*
X249997Y194319D01*
X250104Y194356D01*
X250210Y194396D01*
X250314Y194441D01*
X250417Y194489D01*
X250518Y194540D01*
X250617Y194595D01*
X250714Y194653D01*
X250809Y194715D01*
X250902Y194780D01*
X250992Y194848D01*
X251080Y194919D01*
X251166Y194994D01*
X251249Y195071D01*
X251329Y195151D01*
X251406Y195234D01*
X251481Y195320D01*
X251552Y195408D01*
X251620Y195498D01*
X251685Y195591D01*
X251747Y195686D01*
X251805Y195783D01*
X251860Y195882D01*
X251911Y195983D01*
X251959Y196086D01*
X252004Y196190D01*
X252044Y196296D01*
X252081Y196403D01*
X252114Y196511D01*
X252144Y196621D01*
X252169Y196731D01*
X252191Y196842D01*
X252208Y196954D01*
X252222Y197067D01*
X252232Y197180D01*
X252238Y197293D01*
X252240Y197406D01*
X252238Y197519D01*
X252232Y197632D01*
X252222Y197745D01*
X252208Y197858D01*
X252191Y197970D01*
X252169Y198081D01*
X252144Y198191D01*
X252114Y198301D01*
X252081Y198409D01*
X252044Y198516D01*
X252004Y198622D01*
X251959Y198726D01*
X251911Y198829D01*
X251860Y198930D01*
X251805Y199029D01*
X251747Y199126D01*
X251685Y199221D01*
X251620Y199314D01*
X251552Y199404D01*
X251481Y199492D01*
X251406Y199578D01*
X251329Y199661D01*
X251249Y199741D01*
X251166Y199818D01*
X251080Y199893D01*
X250992Y199964D01*
X250902Y200032D01*
X250809Y200097D01*
X250714Y200159D01*
X250617Y200217D01*
X250518Y200272D01*
X250417Y200323D01*
X250314Y200371D01*
X250210Y200416D01*
X250104Y200456D01*
X249997Y200493D01*
X249889Y200526D01*
X249779Y200556D01*
X249669Y200581D01*
X249558Y200603D01*
X249446Y200620D01*
X249333Y200634D01*
X249220Y200644D01*
X249107Y200650D01*
X248994Y200652D01*
X248881Y200650D01*
X248768Y200644D01*
X248655Y200634D01*
X248542Y200620D01*
X248430Y200603D01*
X248319Y200581D01*
X248209Y200556D01*
X248099Y200526D01*
X247991Y200493D01*
X247884Y200456D01*
X247778Y200416D01*
X247674Y200371D01*
X247571Y200323D01*
X247470Y200272D01*
X247371Y200217D01*
X247274Y200159D01*
X247179Y200097D01*
X247086Y200032D01*
X246996Y199964D01*
X246908Y199893D01*
X246822Y199818D01*
X246739Y199741D01*
X246659Y199661D01*
X246582Y199578D01*
X246507Y199492D01*
X246436Y199404D01*
X246368Y199314D01*
X246303Y199221D01*
X246241Y199126D01*
X246183Y199029D01*
X246128Y198930D01*
X246077Y198829D01*
X246029Y198726D01*
X245984Y198622D01*
X245944Y198516D01*
X245907Y198409D01*
X245874Y198301D01*
X245844Y198191D01*
X245819Y198081D01*
X245797Y197970D01*
X245780Y197858D01*
X245766Y197745D01*
X245756Y197632D01*
X245750Y197519D01*
X245748Y197406D01*
X245750Y197293D01*
X245756Y197180D01*
X245766Y197067D01*
X245780Y196954D01*
X245797Y196842D01*
X245819Y196731D01*
X245844Y196621D01*
X245874Y196511D01*
X245907Y196403D01*
X245944Y196296D01*
X245984Y196190D01*
X246029Y196086D01*
X246077Y195983D01*
X246128Y195882D01*
X246183Y195783D01*
X246241Y195686D01*
X246303Y195591D01*
X246368Y195498D01*
X246436Y195408D01*
X246507Y195320D01*
X246582Y195234D01*
X246659Y195151D01*
X246739Y195071D01*
X246822Y194994D01*
X246908Y194919D01*
X246996Y194848D01*
X247086Y194780D01*
X247179Y194715D01*
X247274Y194653D01*
X247371Y194595D01*
X247470Y194540D01*
X247571Y194489D01*
X247674Y194441D01*
X247778Y194396D01*
X247884Y194356D01*
X247991Y194319D01*
X248099Y194286D01*
X248209Y194256D01*
X248319Y194231D01*
X248430Y194209D01*
X248542Y194192D01*
X248655Y194178D01*
X248768Y194168D01*
X248881Y194162D01*
X248994Y194160D01*
X254836Y194810D02*
X254937Y194812D01*
X255037Y194818D01*
X255137Y194828D01*
X255237Y194841D01*
X255336Y194859D01*
X255435Y194880D01*
X255532Y194905D01*
X255629Y194934D01*
X255724Y194967D01*
X255818Y195003D01*
X255910Y195043D01*
X256001Y195086D01*
X256090Y195133D01*
X256177Y195183D01*
X256263Y195237D01*
X256346Y195294D01*
X256426Y195354D01*
X256505Y195417D01*
X256581Y195484D01*
X256654Y195553D01*
X256724Y195625D01*
X256792Y195699D01*
X256857Y195776D01*
X256918Y195856D01*
X256977Y195938D01*
X257032Y196022D01*
X257084Y196108D01*
X257133Y196196D01*
X257178Y196286D01*
X257220Y196378D01*
X257258Y196471D01*
X257292Y196566D01*
X257323Y196661D01*
X257350Y196758D01*
X257373Y196856D01*
X257393Y196955D01*
X257408Y197055D01*
X257420Y197155D01*
X257428Y197255D01*
X257432Y197356D01*
X257432Y197456D01*
X257428Y197557D01*
X257420Y197657D01*
X257408Y197757D01*
X257393Y197857D01*
X257373Y197956D01*
X257350Y198054D01*
X257323Y198151D01*
X257292Y198246D01*
X257258Y198341D01*
X257220Y198434D01*
X257178Y198526D01*
X257133Y198616D01*
X257084Y198704D01*
X257032Y198790D01*
X256977Y198874D01*
X256918Y198956D01*
X256857Y199036D01*
X256792Y199113D01*
X256724Y199187D01*
X256654Y199259D01*
X256581Y199328D01*
X256505Y199395D01*
X256426Y199458D01*
X256346Y199518D01*
X256263Y199575D01*
X256177Y199629D01*
X256090Y199679D01*
X256001Y199726D01*
X255910Y199769D01*
X255818Y199809D01*
X255724Y199845D01*
X255629Y199878D01*
X255532Y199907D01*
X255435Y199932D01*
X255336Y199953D01*
X255237Y199971D01*
X255137Y199984D01*
X255037Y199994D01*
X254937Y200000D01*
X254836Y200002D01*
X254735Y200000D01*
X254635Y199994D01*
X254535Y199984D01*
X254435Y199971D01*
X254336Y199953D01*
X254237Y199932D01*
X254140Y199907D01*
X254043Y199878D01*
X253948Y199845D01*
X253854Y199809D01*
X253762Y199769D01*
X253671Y199726D01*
X253582Y199679D01*
X253495Y199629D01*
X253409Y199575D01*
X253326Y199518D01*
X253246Y199458D01*
X253167Y199395D01*
X253091Y199328D01*
X253018Y199259D01*
X252948Y199187D01*
X252880Y199113D01*
X252815Y199036D01*
X252754Y198956D01*
X252695Y198874D01*
X252640Y198790D01*
X252588Y198704D01*
X252539Y198616D01*
X252494Y198526D01*
X252452Y198434D01*
X252414Y198341D01*
X252380Y198246D01*
X252349Y198151D01*
X252322Y198054D01*
X252299Y197956D01*
X252279Y197857D01*
X252264Y197757D01*
X252252Y197657D01*
X252244Y197557D01*
X252240Y197456D01*
X252240Y197356D01*
X252244Y197255D01*
X252252Y197155D01*
X252264Y197055D01*
X252279Y196955D01*
X252299Y196856D01*
X252322Y196758D01*
X252349Y196661D01*
X252380Y196566D01*
X252414Y196471D01*
X252452Y196378D01*
X252494Y196286D01*
X252539Y196196D01*
X252588Y196108D01*
X252640Y196022D01*
X252695Y195938D01*
X252754Y195856D01*
X252815Y195776D01*
X252880Y195699D01*
X252948Y195625D01*
X253018Y195553D01*
X253091Y195484D01*
X253167Y195417D01*
X253246Y195354D01*
X253326Y195294D01*
X253409Y195237D01*
X253495Y195183D01*
X253582Y195133D01*
X253671Y195086D01*
X253762Y195043D01*
X253854Y195003D01*
X253948Y194967D01*
X254043Y194934D01*
X254140Y194905D01*
X254237Y194880D01*
X254336Y194859D01*
X254435Y194841D01*
X254535Y194828D01*
X254635Y194818D01*
X254735Y194812D01*
X254836Y194810D01*
X461648Y285488D02*
X473332Y285488D01*
X473332Y288734D01*
X473330Y288847D01*
X473324Y288960D01*
X473314Y289073D01*
X473300Y289186D01*
X473283Y289298D01*
X473261Y289409D01*
X473236Y289519D01*
X473206Y289629D01*
X473173Y289737D01*
X473136Y289844D01*
X473096Y289950D01*
X473051Y290054D01*
X473003Y290157D01*
X472952Y290258D01*
X472897Y290357D01*
X472839Y290454D01*
X472777Y290549D01*
X472712Y290642D01*
X472644Y290732D01*
X472573Y290820D01*
X472498Y290906D01*
X472421Y290989D01*
X472341Y291069D01*
X472258Y291146D01*
X472172Y291221D01*
X472084Y291292D01*
X471994Y291360D01*
X471901Y291425D01*
X471806Y291487D01*
X471709Y291545D01*
X471610Y291600D01*
X471509Y291651D01*
X471406Y291699D01*
X471302Y291744D01*
X471196Y291784D01*
X471089Y291821D01*
X470981Y291854D01*
X470871Y291884D01*
X470761Y291909D01*
X470650Y291931D01*
X470538Y291948D01*
X470425Y291962D01*
X470312Y291972D01*
X470199Y291978D01*
X470086Y291980D01*
X469973Y291978D01*
X469860Y291972D01*
X469747Y291962D01*
X469634Y291948D01*
X469522Y291931D01*
X469411Y291909D01*
X469301Y291884D01*
X469191Y291854D01*
X469083Y291821D01*
X468976Y291784D01*
X468870Y291744D01*
X468766Y291699D01*
X468663Y291651D01*
X468562Y291600D01*
X468463Y291545D01*
X468366Y291487D01*
X468271Y291425D01*
X468178Y291360D01*
X468088Y291292D01*
X468000Y291221D01*
X467914Y291146D01*
X467831Y291069D01*
X467751Y290989D01*
X467674Y290906D01*
X467599Y290820D01*
X467528Y290732D01*
X467460Y290642D01*
X467395Y290549D01*
X467333Y290454D01*
X467275Y290357D01*
X467220Y290258D01*
X467169Y290157D01*
X467121Y290054D01*
X467076Y289950D01*
X467036Y289844D01*
X466999Y289737D01*
X466966Y289629D01*
X466936Y289519D01*
X466911Y289409D01*
X466889Y289298D01*
X466872Y289186D01*
X466858Y289073D01*
X466848Y288960D01*
X466842Y288847D01*
X466840Y288734D01*
X466841Y288734D02*
X466841Y285488D01*
X466841Y289383D02*
X461648Y291979D01*
X466841Y299441D02*
X466841Y303335D01*
X466841Y299441D02*
X466843Y299342D01*
X466849Y299242D01*
X466858Y299143D01*
X466871Y299045D01*
X466888Y298947D01*
X466909Y298849D01*
X466934Y298753D01*
X466962Y298658D01*
X466994Y298564D01*
X467029Y298471D01*
X467068Y298379D01*
X467111Y298289D01*
X467156Y298201D01*
X467206Y298114D01*
X467258Y298030D01*
X467314Y297947D01*
X467372Y297867D01*
X467434Y297789D01*
X467499Y297714D01*
X467567Y297641D01*
X467637Y297571D01*
X467710Y297503D01*
X467785Y297438D01*
X467863Y297376D01*
X467943Y297318D01*
X468026Y297262D01*
X468110Y297210D01*
X468197Y297160D01*
X468285Y297115D01*
X468375Y297072D01*
X468467Y297033D01*
X468560Y296998D01*
X468654Y296966D01*
X468749Y296938D01*
X468845Y296913D01*
X468943Y296892D01*
X469041Y296875D01*
X469139Y296862D01*
X469238Y296853D01*
X469338Y296847D01*
X469437Y296845D01*
X469437Y296844D02*
X470086Y296844D01*
X470199Y296846D01*
X470312Y296852D01*
X470425Y296862D01*
X470538Y296876D01*
X470650Y296893D01*
X470761Y296915D01*
X470871Y296940D01*
X470981Y296970D01*
X471089Y297003D01*
X471196Y297040D01*
X471302Y297080D01*
X471406Y297125D01*
X471509Y297173D01*
X471610Y297224D01*
X471709Y297279D01*
X471806Y297337D01*
X471901Y297399D01*
X471994Y297464D01*
X472084Y297532D01*
X472172Y297603D01*
X472258Y297678D01*
X472341Y297755D01*
X472421Y297835D01*
X472498Y297918D01*
X472573Y298004D01*
X472644Y298092D01*
X472712Y298182D01*
X472777Y298275D01*
X472839Y298370D01*
X472897Y298467D01*
X472952Y298566D01*
X473003Y298667D01*
X473051Y298770D01*
X473096Y298874D01*
X473136Y298980D01*
X473173Y299087D01*
X473206Y299195D01*
X473236Y299305D01*
X473261Y299415D01*
X473283Y299526D01*
X473300Y299638D01*
X473314Y299751D01*
X473324Y299864D01*
X473330Y299977D01*
X473332Y300090D01*
X473330Y300203D01*
X473324Y300316D01*
X473314Y300429D01*
X473300Y300542D01*
X473283Y300654D01*
X473261Y300765D01*
X473236Y300875D01*
X473206Y300985D01*
X473173Y301093D01*
X473136Y301200D01*
X473096Y301306D01*
X473051Y301410D01*
X473003Y301513D01*
X472952Y301614D01*
X472897Y301713D01*
X472839Y301810D01*
X472777Y301905D01*
X472712Y301998D01*
X472644Y302088D01*
X472573Y302176D01*
X472498Y302262D01*
X472421Y302345D01*
X472341Y302425D01*
X472258Y302502D01*
X472172Y302577D01*
X472084Y302648D01*
X471994Y302716D01*
X471901Y302781D01*
X471806Y302843D01*
X471709Y302901D01*
X471610Y302956D01*
X471509Y303007D01*
X471406Y303055D01*
X471302Y303100D01*
X471196Y303140D01*
X471089Y303177D01*
X470981Y303210D01*
X470871Y303240D01*
X470761Y303265D01*
X470650Y303287D01*
X470538Y303304D01*
X470425Y303318D01*
X470312Y303328D01*
X470199Y303334D01*
X470086Y303336D01*
X470086Y303335D02*
X466841Y303335D01*
X466841Y303336D02*
X466698Y303334D01*
X466555Y303328D01*
X466412Y303318D01*
X466270Y303304D01*
X466128Y303287D01*
X465986Y303265D01*
X465845Y303240D01*
X465705Y303210D01*
X465566Y303177D01*
X465428Y303140D01*
X465291Y303099D01*
X465155Y303055D01*
X465020Y303006D01*
X464887Y302954D01*
X464755Y302899D01*
X464625Y302839D01*
X464496Y302776D01*
X464369Y302710D01*
X464245Y302640D01*
X464122Y302567D01*
X464001Y302490D01*
X463882Y302410D01*
X463766Y302327D01*
X463651Y302241D01*
X463540Y302152D01*
X463430Y302059D01*
X463324Y301964D01*
X463220Y301865D01*
X463119Y301764D01*
X463020Y301660D01*
X462925Y301554D01*
X462832Y301444D01*
X462743Y301333D01*
X462657Y301218D01*
X462574Y301102D01*
X462494Y300983D01*
X462417Y300862D01*
X462344Y300740D01*
X462274Y300615D01*
X462208Y300488D01*
X462145Y300359D01*
X462085Y300229D01*
X462030Y300097D01*
X461978Y299964D01*
X461929Y299829D01*
X461885Y299693D01*
X461844Y299556D01*
X461807Y299418D01*
X461774Y299279D01*
X461744Y299139D01*
X461719Y298998D01*
X461697Y298856D01*
X461680Y298714D01*
X461666Y298572D01*
X461656Y298429D01*
X461650Y298286D01*
X461648Y298143D01*
D14*
X160380Y112300D02*
X160380Y98300D01*
X160380Y112300D02*
X180380Y112300D01*
X180380Y98300D01*
X160380Y78300D02*
X160380Y64300D01*
X180380Y64300D01*
X180380Y78300D01*
X170380Y85300D02*
X163380Y85300D01*
X170380Y85300D02*
X177380Y85300D01*
X170380Y85300D02*
X164380Y91300D01*
X176380Y91300D01*
X170380Y85300D01*
D12*
X661728Y433350D02*
X664325Y433350D01*
X664325Y433351D02*
X664426Y433353D01*
X664526Y433359D01*
X664626Y433369D01*
X664726Y433382D01*
X664825Y433400D01*
X664924Y433421D01*
X665021Y433446D01*
X665118Y433475D01*
X665213Y433508D01*
X665307Y433544D01*
X665399Y433584D01*
X665490Y433627D01*
X665579Y433674D01*
X665666Y433724D01*
X665752Y433778D01*
X665835Y433835D01*
X665915Y433895D01*
X665994Y433958D01*
X666070Y434025D01*
X666143Y434094D01*
X666213Y434166D01*
X666281Y434240D01*
X666346Y434317D01*
X666407Y434397D01*
X666466Y434479D01*
X666521Y434563D01*
X666573Y434649D01*
X666622Y434737D01*
X666667Y434827D01*
X666709Y434919D01*
X666747Y435012D01*
X666781Y435107D01*
X666812Y435202D01*
X666839Y435299D01*
X666862Y435397D01*
X666882Y435496D01*
X666897Y435596D01*
X666909Y435696D01*
X666917Y435796D01*
X666921Y435897D01*
X666921Y435997D01*
X666917Y436098D01*
X666909Y436198D01*
X666897Y436298D01*
X666882Y436398D01*
X666862Y436497D01*
X666839Y436595D01*
X666812Y436692D01*
X666781Y436787D01*
X666747Y436882D01*
X666709Y436975D01*
X666667Y437067D01*
X666622Y437157D01*
X666573Y437245D01*
X666521Y437331D01*
X666466Y437415D01*
X666407Y437497D01*
X666346Y437577D01*
X666281Y437654D01*
X666213Y437728D01*
X666143Y437800D01*
X666070Y437869D01*
X665994Y437936D01*
X665915Y437999D01*
X665835Y438059D01*
X665752Y438116D01*
X665666Y438170D01*
X665579Y438220D01*
X665490Y438267D01*
X665399Y438310D01*
X665307Y438350D01*
X665213Y438386D01*
X665118Y438419D01*
X665021Y438448D01*
X664924Y438473D01*
X664825Y438494D01*
X664726Y438512D01*
X664626Y438525D01*
X664526Y438535D01*
X664426Y438541D01*
X664325Y438543D01*
X661728Y438543D01*
X661627Y438541D01*
X661527Y438535D01*
X661427Y438525D01*
X661327Y438512D01*
X661228Y438494D01*
X661129Y438473D01*
X661032Y438448D01*
X660935Y438419D01*
X660840Y438386D01*
X660746Y438350D01*
X660654Y438310D01*
X660563Y438267D01*
X660474Y438220D01*
X660387Y438170D01*
X660301Y438116D01*
X660218Y438059D01*
X660138Y437999D01*
X660059Y437936D01*
X659983Y437869D01*
X659910Y437800D01*
X659840Y437728D01*
X659772Y437654D01*
X659707Y437577D01*
X659646Y437497D01*
X659587Y437415D01*
X659532Y437331D01*
X659480Y437245D01*
X659431Y437157D01*
X659386Y437067D01*
X659344Y436975D01*
X659306Y436882D01*
X659272Y436787D01*
X659241Y436692D01*
X659214Y436595D01*
X659191Y436497D01*
X659171Y436398D01*
X659156Y436298D01*
X659144Y436198D01*
X659136Y436098D01*
X659132Y435997D01*
X659132Y435897D01*
X659136Y435796D01*
X659144Y435696D01*
X659156Y435596D01*
X659171Y435496D01*
X659191Y435397D01*
X659214Y435299D01*
X659241Y435202D01*
X659272Y435107D01*
X659306Y435012D01*
X659344Y434919D01*
X659386Y434827D01*
X659431Y434737D01*
X659480Y434649D01*
X659532Y434563D01*
X659587Y434479D01*
X659646Y434397D01*
X659707Y434317D01*
X659772Y434240D01*
X659840Y434166D01*
X659910Y434094D01*
X659983Y434025D01*
X660059Y433958D01*
X660138Y433895D01*
X660218Y433835D01*
X660301Y433778D01*
X660387Y433724D01*
X660474Y433674D01*
X660563Y433627D01*
X660654Y433584D01*
X660746Y433544D01*
X660840Y433508D01*
X660935Y433475D01*
X661032Y433446D01*
X661129Y433421D01*
X661228Y433400D01*
X661327Y433382D01*
X661427Y433369D01*
X661527Y433359D01*
X661627Y433353D01*
X661728Y433351D01*
X666921Y443696D02*
X655237Y443696D01*
X666921Y443696D02*
X666921Y446942D01*
X666919Y447029D01*
X666913Y447117D01*
X666903Y447203D01*
X666890Y447290D01*
X666872Y447375D01*
X666851Y447460D01*
X666826Y447544D01*
X666797Y447626D01*
X666764Y447707D01*
X666728Y447787D01*
X666689Y447865D01*
X666645Y447941D01*
X666599Y448015D01*
X666549Y448086D01*
X666496Y448156D01*
X666440Y448223D01*
X666381Y448287D01*
X666319Y448349D01*
X666255Y448408D01*
X666188Y448464D01*
X666118Y448517D01*
X666047Y448567D01*
X665973Y448613D01*
X665897Y448657D01*
X665819Y448696D01*
X665739Y448732D01*
X665658Y448765D01*
X665576Y448794D01*
X665492Y448819D01*
X665407Y448840D01*
X665322Y448858D01*
X665235Y448871D01*
X665149Y448881D01*
X665061Y448887D01*
X664974Y448889D01*
X661079Y448889D01*
X660992Y448887D01*
X660904Y448881D01*
X660818Y448871D01*
X660731Y448858D01*
X660646Y448840D01*
X660561Y448819D01*
X660477Y448794D01*
X660395Y448765D01*
X660314Y448732D01*
X660234Y448696D01*
X660156Y448657D01*
X660080Y448613D01*
X660006Y448567D01*
X659935Y448517D01*
X659865Y448464D01*
X659798Y448408D01*
X659734Y448349D01*
X659672Y448287D01*
X659613Y448223D01*
X659557Y448156D01*
X659504Y448086D01*
X659454Y448015D01*
X659408Y447941D01*
X659364Y447865D01*
X659325Y447787D01*
X659289Y447707D01*
X659256Y447626D01*
X659227Y447544D01*
X659202Y447460D01*
X659181Y447375D01*
X659163Y447290D01*
X659150Y447203D01*
X659140Y447117D01*
X659134Y447029D01*
X659132Y446942D01*
X659132Y443696D01*
X659132Y455490D02*
X659132Y458736D01*
X659132Y455490D02*
X659134Y455403D01*
X659140Y455315D01*
X659150Y455229D01*
X659163Y455142D01*
X659181Y455057D01*
X659202Y454972D01*
X659227Y454888D01*
X659256Y454806D01*
X659289Y454725D01*
X659325Y454645D01*
X659364Y454567D01*
X659408Y454491D01*
X659454Y454417D01*
X659504Y454346D01*
X659557Y454276D01*
X659613Y454209D01*
X659672Y454145D01*
X659734Y454083D01*
X659798Y454024D01*
X659865Y453968D01*
X659935Y453915D01*
X660006Y453865D01*
X660080Y453819D01*
X660156Y453775D01*
X660234Y453736D01*
X660314Y453700D01*
X660395Y453667D01*
X660477Y453638D01*
X660561Y453613D01*
X660646Y453592D01*
X660731Y453574D01*
X660818Y453561D01*
X660904Y453551D01*
X660992Y453545D01*
X661079Y453543D01*
X664325Y453543D01*
X664325Y453544D02*
X664426Y453546D01*
X664526Y453552D01*
X664626Y453562D01*
X664726Y453575D01*
X664825Y453593D01*
X664924Y453614D01*
X665021Y453639D01*
X665118Y453668D01*
X665213Y453701D01*
X665307Y453737D01*
X665399Y453777D01*
X665490Y453820D01*
X665579Y453867D01*
X665666Y453917D01*
X665752Y453971D01*
X665835Y454028D01*
X665915Y454088D01*
X665994Y454151D01*
X666070Y454218D01*
X666143Y454287D01*
X666213Y454359D01*
X666281Y454433D01*
X666346Y454510D01*
X666407Y454590D01*
X666466Y454672D01*
X666521Y454756D01*
X666573Y454842D01*
X666622Y454930D01*
X666667Y455020D01*
X666709Y455112D01*
X666747Y455205D01*
X666781Y455300D01*
X666812Y455395D01*
X666839Y455492D01*
X666862Y455590D01*
X666882Y455689D01*
X666897Y455789D01*
X666909Y455889D01*
X666917Y455989D01*
X666921Y456090D01*
X666921Y456190D01*
X666917Y456291D01*
X666909Y456391D01*
X666897Y456491D01*
X666882Y456591D01*
X666862Y456690D01*
X666839Y456788D01*
X666812Y456885D01*
X666781Y456980D01*
X666747Y457075D01*
X666709Y457168D01*
X666667Y457260D01*
X666622Y457350D01*
X666573Y457438D01*
X666521Y457524D01*
X666466Y457608D01*
X666407Y457690D01*
X666346Y457770D01*
X666281Y457847D01*
X666213Y457921D01*
X666143Y457993D01*
X666070Y458062D01*
X665994Y458129D01*
X665915Y458192D01*
X665835Y458252D01*
X665752Y458309D01*
X665666Y458363D01*
X665579Y458413D01*
X665490Y458460D01*
X665399Y458503D01*
X665307Y458543D01*
X665213Y458579D01*
X665118Y458612D01*
X665021Y458641D01*
X664924Y458666D01*
X664825Y458687D01*
X664726Y458705D01*
X664626Y458718D01*
X664526Y458728D01*
X664426Y458734D01*
X664325Y458736D01*
X663027Y458736D01*
X663027Y453543D01*
X659132Y463830D02*
X666921Y463830D01*
X666921Y467076D01*
X666919Y467163D01*
X666913Y467251D01*
X666903Y467337D01*
X666890Y467424D01*
X666872Y467509D01*
X666851Y467594D01*
X666826Y467678D01*
X666797Y467760D01*
X666764Y467841D01*
X666728Y467921D01*
X666689Y467999D01*
X666645Y468075D01*
X666599Y468149D01*
X666549Y468220D01*
X666496Y468290D01*
X666440Y468357D01*
X666381Y468421D01*
X666319Y468483D01*
X666255Y468542D01*
X666188Y468598D01*
X666118Y468651D01*
X666047Y468701D01*
X665973Y468747D01*
X665897Y468791D01*
X665819Y468830D01*
X665739Y468866D01*
X665658Y468899D01*
X665576Y468928D01*
X665492Y468953D01*
X665407Y468974D01*
X665322Y468992D01*
X665235Y469005D01*
X665149Y469015D01*
X665061Y469021D01*
X664974Y469023D01*
X659132Y469023D01*
X663676Y481187D02*
X662378Y484432D01*
X663675Y481187D02*
X663708Y481112D01*
X663744Y481038D01*
X663783Y480966D01*
X663826Y480896D01*
X663872Y480829D01*
X663922Y480763D01*
X663974Y480701D01*
X664030Y480640D01*
X664088Y480583D01*
X664149Y480528D01*
X664213Y480477D01*
X664279Y480429D01*
X664348Y480384D01*
X664418Y480342D01*
X664491Y480304D01*
X664565Y480269D01*
X664641Y480238D01*
X664718Y480211D01*
X664797Y480188D01*
X664876Y480168D01*
X664957Y480153D01*
X665038Y480141D01*
X665120Y480133D01*
X665201Y480129D01*
X665283Y480130D01*
X665365Y480134D01*
X665447Y480142D01*
X665528Y480154D01*
X665608Y480170D01*
X665688Y480190D01*
X665766Y480214D01*
X665843Y480242D01*
X665919Y480273D01*
X665993Y480308D01*
X666065Y480346D01*
X666136Y480388D01*
X666204Y480434D01*
X666270Y480482D01*
X666333Y480534D01*
X666394Y480589D01*
X666452Y480647D01*
X666508Y480707D01*
X666560Y480770D01*
X666609Y480836D01*
X666655Y480904D01*
X666697Y480974D01*
X666737Y481046D01*
X666772Y481120D01*
X666804Y481195D01*
X666832Y481272D01*
X666856Y481350D01*
X666877Y481430D01*
X666894Y481510D01*
X666906Y481591D01*
X666915Y481672D01*
X666920Y481754D01*
X666921Y481836D01*
X666917Y482013D01*
X666908Y482190D01*
X666894Y482367D01*
X666877Y482544D01*
X666855Y482719D01*
X666830Y482895D01*
X666799Y483069D01*
X666765Y483243D01*
X666727Y483416D01*
X666684Y483588D01*
X666637Y483759D01*
X666587Y483929D01*
X666532Y484098D01*
X666473Y484265D01*
X666410Y484430D01*
X666343Y484595D01*
X666272Y484757D01*
X662378Y484432D02*
X662345Y484507D01*
X662309Y484581D01*
X662270Y484653D01*
X662227Y484723D01*
X662181Y484790D01*
X662131Y484856D01*
X662079Y484918D01*
X662023Y484979D01*
X661965Y485036D01*
X661904Y485091D01*
X661840Y485142D01*
X661774Y485190D01*
X661705Y485235D01*
X661635Y485277D01*
X661562Y485315D01*
X661488Y485350D01*
X661412Y485381D01*
X661335Y485408D01*
X661256Y485431D01*
X661177Y485451D01*
X661096Y485466D01*
X661015Y485478D01*
X660933Y485486D01*
X660852Y485490D01*
X660770Y485489D01*
X660688Y485485D01*
X660606Y485477D01*
X660525Y485465D01*
X660445Y485449D01*
X660365Y485429D01*
X660287Y485405D01*
X660210Y485377D01*
X660134Y485346D01*
X660060Y485311D01*
X659988Y485273D01*
X659917Y485231D01*
X659849Y485185D01*
X659783Y485137D01*
X659720Y485085D01*
X659659Y485030D01*
X659601Y484972D01*
X659545Y484912D01*
X659493Y484849D01*
X659444Y484783D01*
X659398Y484715D01*
X659356Y484645D01*
X659316Y484573D01*
X659281Y484499D01*
X659249Y484424D01*
X659221Y484347D01*
X659197Y484269D01*
X659176Y484189D01*
X659159Y484109D01*
X659147Y484028D01*
X659138Y483947D01*
X659133Y483865D01*
X659132Y483783D01*
X659139Y483523D01*
X659152Y483263D01*
X659171Y483003D01*
X659196Y482744D01*
X659228Y482485D01*
X659265Y482228D01*
X659309Y481971D01*
X659358Y481715D01*
X659414Y481461D01*
X659475Y481208D01*
X659543Y480957D01*
X659617Y480707D01*
X659696Y480459D01*
X659781Y480213D01*
X661728Y490119D02*
X664325Y490119D01*
X664325Y490120D02*
X664426Y490122D01*
X664526Y490128D01*
X664626Y490138D01*
X664726Y490151D01*
X664825Y490169D01*
X664924Y490190D01*
X665021Y490215D01*
X665118Y490244D01*
X665213Y490277D01*
X665307Y490313D01*
X665399Y490353D01*
X665490Y490396D01*
X665579Y490443D01*
X665666Y490493D01*
X665752Y490547D01*
X665835Y490604D01*
X665915Y490664D01*
X665994Y490727D01*
X666070Y490794D01*
X666143Y490863D01*
X666213Y490935D01*
X666281Y491009D01*
X666346Y491086D01*
X666407Y491166D01*
X666466Y491248D01*
X666521Y491332D01*
X666573Y491418D01*
X666622Y491506D01*
X666667Y491596D01*
X666709Y491688D01*
X666747Y491781D01*
X666781Y491876D01*
X666812Y491971D01*
X666839Y492068D01*
X666862Y492166D01*
X666882Y492265D01*
X666897Y492365D01*
X666909Y492465D01*
X666917Y492565D01*
X666921Y492666D01*
X666921Y492766D01*
X666917Y492867D01*
X666909Y492967D01*
X666897Y493067D01*
X666882Y493167D01*
X666862Y493266D01*
X666839Y493364D01*
X666812Y493461D01*
X666781Y493556D01*
X666747Y493651D01*
X666709Y493744D01*
X666667Y493836D01*
X666622Y493926D01*
X666573Y494014D01*
X666521Y494100D01*
X666466Y494184D01*
X666407Y494266D01*
X666346Y494346D01*
X666281Y494423D01*
X666213Y494497D01*
X666143Y494569D01*
X666070Y494638D01*
X665994Y494705D01*
X665915Y494768D01*
X665835Y494828D01*
X665752Y494885D01*
X665666Y494939D01*
X665579Y494989D01*
X665490Y495036D01*
X665399Y495079D01*
X665307Y495119D01*
X665213Y495155D01*
X665118Y495188D01*
X665021Y495217D01*
X664924Y495242D01*
X664825Y495263D01*
X664726Y495281D01*
X664626Y495294D01*
X664526Y495304D01*
X664426Y495310D01*
X664325Y495312D01*
X661728Y495312D01*
X661627Y495310D01*
X661527Y495304D01*
X661427Y495294D01*
X661327Y495281D01*
X661228Y495263D01*
X661129Y495242D01*
X661032Y495217D01*
X660935Y495188D01*
X660840Y495155D01*
X660746Y495119D01*
X660654Y495079D01*
X660563Y495036D01*
X660474Y494989D01*
X660387Y494939D01*
X660301Y494885D01*
X660218Y494828D01*
X660138Y494768D01*
X660059Y494705D01*
X659983Y494638D01*
X659910Y494569D01*
X659840Y494497D01*
X659772Y494423D01*
X659707Y494346D01*
X659646Y494266D01*
X659587Y494184D01*
X659532Y494100D01*
X659480Y494014D01*
X659431Y493926D01*
X659386Y493836D01*
X659344Y493744D01*
X659306Y493651D01*
X659272Y493556D01*
X659241Y493461D01*
X659214Y493364D01*
X659191Y493266D01*
X659171Y493167D01*
X659156Y493067D01*
X659144Y492967D01*
X659136Y492867D01*
X659132Y492766D01*
X659132Y492666D01*
X659136Y492565D01*
X659144Y492465D01*
X659156Y492365D01*
X659171Y492265D01*
X659191Y492166D01*
X659214Y492068D01*
X659241Y491971D01*
X659272Y491876D01*
X659306Y491781D01*
X659344Y491688D01*
X659386Y491596D01*
X659431Y491506D01*
X659480Y491418D01*
X659532Y491332D01*
X659587Y491248D01*
X659646Y491166D01*
X659707Y491086D01*
X659772Y491009D01*
X659840Y490935D01*
X659910Y490863D01*
X659983Y490794D01*
X660059Y490727D01*
X660138Y490664D01*
X660218Y490604D01*
X660301Y490547D01*
X660387Y490493D01*
X660474Y490443D01*
X660563Y490396D01*
X660654Y490353D01*
X660746Y490313D01*
X660840Y490277D01*
X660935Y490244D01*
X661032Y490215D01*
X661129Y490190D01*
X661228Y490169D01*
X661327Y490151D01*
X661427Y490138D01*
X661527Y490128D01*
X661627Y490122D01*
X661728Y490120D01*
X661079Y500406D02*
X666921Y500406D01*
X661079Y500406D02*
X660992Y500408D01*
X660904Y500414D01*
X660818Y500424D01*
X660731Y500437D01*
X660646Y500455D01*
X660561Y500476D01*
X660477Y500501D01*
X660395Y500530D01*
X660314Y500563D01*
X660234Y500599D01*
X660156Y500638D01*
X660080Y500682D01*
X660006Y500728D01*
X659935Y500778D01*
X659865Y500831D01*
X659798Y500887D01*
X659734Y500946D01*
X659672Y501008D01*
X659613Y501072D01*
X659557Y501139D01*
X659504Y501209D01*
X659454Y501280D01*
X659408Y501354D01*
X659364Y501430D01*
X659325Y501508D01*
X659289Y501588D01*
X659256Y501669D01*
X659227Y501751D01*
X659202Y501835D01*
X659181Y501920D01*
X659163Y502005D01*
X659150Y502092D01*
X659140Y502178D01*
X659134Y502266D01*
X659132Y502353D01*
X659132Y505599D01*
X666921Y505599D01*
X666921Y511140D02*
X659132Y511140D01*
X666921Y511140D02*
X666921Y515035D01*
X665623Y515035D01*
X659132Y520655D02*
X659132Y523251D01*
X659132Y520655D02*
X659134Y520568D01*
X659140Y520480D01*
X659150Y520394D01*
X659163Y520307D01*
X659181Y520222D01*
X659202Y520137D01*
X659227Y520053D01*
X659256Y519971D01*
X659289Y519890D01*
X659325Y519810D01*
X659364Y519732D01*
X659408Y519656D01*
X659454Y519582D01*
X659504Y519511D01*
X659557Y519441D01*
X659613Y519374D01*
X659672Y519310D01*
X659734Y519248D01*
X659798Y519189D01*
X659865Y519133D01*
X659935Y519080D01*
X660006Y519030D01*
X660080Y518984D01*
X660156Y518940D01*
X660234Y518901D01*
X660314Y518865D01*
X660395Y518832D01*
X660477Y518803D01*
X660561Y518778D01*
X660646Y518757D01*
X660731Y518739D01*
X660818Y518726D01*
X660904Y518716D01*
X660992Y518710D01*
X661079Y518708D01*
X661079Y518707D02*
X664974Y518707D01*
X664974Y518708D02*
X665061Y518710D01*
X665149Y518716D01*
X665235Y518726D01*
X665322Y518739D01*
X665407Y518757D01*
X665492Y518778D01*
X665576Y518803D01*
X665658Y518832D01*
X665739Y518865D01*
X665819Y518901D01*
X665897Y518940D01*
X665973Y518984D01*
X666047Y519030D01*
X666118Y519080D01*
X666188Y519133D01*
X666255Y519189D01*
X666319Y519248D01*
X666381Y519310D01*
X666440Y519374D01*
X666496Y519441D01*
X666549Y519511D01*
X666599Y519582D01*
X666645Y519656D01*
X666689Y519732D01*
X666728Y519810D01*
X666764Y519890D01*
X666797Y519971D01*
X666826Y520053D01*
X666851Y520137D01*
X666872Y520222D01*
X666890Y520307D01*
X666903Y520394D01*
X666913Y520480D01*
X666919Y520568D01*
X666921Y520655D01*
X666921Y523251D01*
X659132Y529404D02*
X659132Y532650D01*
X659132Y529404D02*
X659134Y529317D01*
X659140Y529229D01*
X659150Y529143D01*
X659163Y529056D01*
X659181Y528971D01*
X659202Y528886D01*
X659227Y528802D01*
X659256Y528720D01*
X659289Y528639D01*
X659325Y528559D01*
X659364Y528481D01*
X659408Y528405D01*
X659454Y528331D01*
X659504Y528260D01*
X659557Y528190D01*
X659613Y528123D01*
X659672Y528059D01*
X659734Y527997D01*
X659798Y527938D01*
X659865Y527882D01*
X659935Y527829D01*
X660006Y527779D01*
X660080Y527733D01*
X660156Y527689D01*
X660234Y527650D01*
X660314Y527614D01*
X660395Y527581D01*
X660477Y527552D01*
X660561Y527527D01*
X660646Y527506D01*
X660731Y527488D01*
X660818Y527475D01*
X660904Y527465D01*
X660992Y527459D01*
X661079Y527457D01*
X664325Y527457D01*
X664426Y527459D01*
X664526Y527465D01*
X664626Y527475D01*
X664726Y527488D01*
X664825Y527506D01*
X664924Y527527D01*
X665021Y527552D01*
X665118Y527581D01*
X665213Y527614D01*
X665307Y527650D01*
X665399Y527690D01*
X665490Y527733D01*
X665579Y527780D01*
X665666Y527830D01*
X665752Y527884D01*
X665835Y527941D01*
X665915Y528001D01*
X665994Y528064D01*
X666070Y528131D01*
X666143Y528200D01*
X666213Y528272D01*
X666281Y528346D01*
X666346Y528423D01*
X666407Y528503D01*
X666466Y528585D01*
X666521Y528669D01*
X666573Y528755D01*
X666622Y528843D01*
X666667Y528933D01*
X666709Y529025D01*
X666747Y529118D01*
X666781Y529213D01*
X666812Y529308D01*
X666839Y529405D01*
X666862Y529503D01*
X666882Y529602D01*
X666897Y529702D01*
X666909Y529802D01*
X666917Y529902D01*
X666921Y530003D01*
X666921Y530103D01*
X666917Y530204D01*
X666909Y530304D01*
X666897Y530404D01*
X666882Y530504D01*
X666862Y530603D01*
X666839Y530701D01*
X666812Y530798D01*
X666781Y530893D01*
X666747Y530988D01*
X666709Y531081D01*
X666667Y531173D01*
X666622Y531263D01*
X666573Y531351D01*
X666521Y531437D01*
X666466Y531521D01*
X666407Y531603D01*
X666346Y531683D01*
X666281Y531760D01*
X666213Y531834D01*
X666143Y531906D01*
X666070Y531975D01*
X665994Y532042D01*
X665915Y532105D01*
X665835Y532165D01*
X665752Y532222D01*
X665666Y532276D01*
X665579Y532326D01*
X665490Y532373D01*
X665399Y532416D01*
X665307Y532456D01*
X665213Y532492D01*
X665118Y532525D01*
X665021Y532554D01*
X664924Y532579D01*
X664825Y532600D01*
X664726Y532618D01*
X664626Y532631D01*
X664526Y532641D01*
X664426Y532647D01*
X664325Y532649D01*
X664325Y532650D02*
X663027Y532650D01*
X663027Y527457D01*
X651766Y445733D02*
X640082Y445733D01*
X647871Y445733D02*
X647871Y448978D01*
X647869Y449065D01*
X647863Y449153D01*
X647853Y449239D01*
X647840Y449326D01*
X647822Y449411D01*
X647801Y449496D01*
X647776Y449580D01*
X647747Y449662D01*
X647714Y449743D01*
X647678Y449823D01*
X647639Y449901D01*
X647595Y449977D01*
X647549Y450051D01*
X647499Y450122D01*
X647446Y450192D01*
X647390Y450259D01*
X647331Y450323D01*
X647269Y450385D01*
X647205Y450444D01*
X647138Y450500D01*
X647068Y450553D01*
X646997Y450603D01*
X646923Y450649D01*
X646847Y450693D01*
X646769Y450732D01*
X646689Y450768D01*
X646608Y450801D01*
X646526Y450830D01*
X646442Y450855D01*
X646357Y450876D01*
X646272Y450894D01*
X646185Y450907D01*
X646099Y450917D01*
X646011Y450923D01*
X645924Y450925D01*
X640082Y450925D01*
X644626Y458233D02*
X644626Y461154D01*
X644626Y458233D02*
X644624Y458139D01*
X644618Y458045D01*
X644609Y457952D01*
X644595Y457859D01*
X644578Y457767D01*
X644556Y457675D01*
X644532Y457585D01*
X644503Y457495D01*
X644471Y457407D01*
X644435Y457320D01*
X644395Y457235D01*
X644352Y457152D01*
X644306Y457070D01*
X644256Y456990D01*
X644203Y456913D01*
X644147Y456838D01*
X644088Y456765D01*
X644026Y456694D01*
X643961Y456626D01*
X643893Y456561D01*
X643822Y456499D01*
X643749Y456440D01*
X643674Y456384D01*
X643597Y456331D01*
X643517Y456281D01*
X643435Y456235D01*
X643352Y456192D01*
X643267Y456152D01*
X643180Y456116D01*
X643092Y456084D01*
X643002Y456055D01*
X642912Y456031D01*
X642820Y456009D01*
X642728Y455992D01*
X642635Y455978D01*
X642542Y455969D01*
X642448Y455963D01*
X642354Y455961D01*
X642260Y455963D01*
X642166Y455969D01*
X642073Y455978D01*
X641980Y455992D01*
X641888Y456009D01*
X641796Y456031D01*
X641706Y456055D01*
X641616Y456084D01*
X641528Y456116D01*
X641441Y456152D01*
X641356Y456192D01*
X641273Y456235D01*
X641191Y456281D01*
X641111Y456331D01*
X641034Y456384D01*
X640959Y456440D01*
X640886Y456499D01*
X640815Y456561D01*
X640747Y456626D01*
X640682Y456694D01*
X640620Y456765D01*
X640561Y456838D01*
X640505Y456913D01*
X640452Y456990D01*
X640402Y457070D01*
X640356Y457152D01*
X640313Y457235D01*
X640273Y457320D01*
X640237Y457407D01*
X640205Y457495D01*
X640176Y457585D01*
X640152Y457675D01*
X640130Y457767D01*
X640113Y457859D01*
X640099Y457952D01*
X640090Y458045D01*
X640084Y458139D01*
X640082Y458233D01*
X640082Y461154D01*
X645924Y461154D01*
X645924Y461153D02*
X646011Y461151D01*
X646099Y461145D01*
X646185Y461135D01*
X646272Y461122D01*
X646357Y461104D01*
X646442Y461083D01*
X646526Y461058D01*
X646608Y461029D01*
X646689Y460996D01*
X646769Y460960D01*
X646847Y460921D01*
X646923Y460877D01*
X646997Y460831D01*
X647068Y460781D01*
X647138Y460728D01*
X647205Y460672D01*
X647269Y460613D01*
X647331Y460551D01*
X647390Y460487D01*
X647446Y460420D01*
X647499Y460350D01*
X647549Y460279D01*
X647595Y460205D01*
X647639Y460129D01*
X647678Y460051D01*
X647714Y459971D01*
X647747Y459890D01*
X647776Y459808D01*
X647801Y459724D01*
X647822Y459639D01*
X647840Y459554D01*
X647853Y459467D01*
X647863Y459381D01*
X647869Y459293D01*
X647871Y459206D01*
X647871Y456610D01*
X647871Y466754D02*
X640082Y466754D01*
X647871Y466754D02*
X647871Y470649D01*
X646573Y470649D01*
X651766Y479442D02*
X640082Y479442D01*
X640082Y476196D01*
X640084Y476109D01*
X640090Y476021D01*
X640100Y475935D01*
X640113Y475848D01*
X640131Y475763D01*
X640152Y475678D01*
X640177Y475594D01*
X640206Y475512D01*
X640239Y475431D01*
X640275Y475351D01*
X640314Y475273D01*
X640358Y475197D01*
X640404Y475123D01*
X640454Y475052D01*
X640507Y474982D01*
X640563Y474915D01*
X640622Y474851D01*
X640684Y474789D01*
X640748Y474730D01*
X640815Y474674D01*
X640885Y474621D01*
X640956Y474571D01*
X641030Y474525D01*
X641106Y474481D01*
X641184Y474442D01*
X641264Y474406D01*
X641345Y474373D01*
X641427Y474344D01*
X641511Y474319D01*
X641596Y474298D01*
X641681Y474280D01*
X641768Y474267D01*
X641854Y474257D01*
X641942Y474251D01*
X642029Y474249D01*
X645924Y474249D01*
X646011Y474251D01*
X646099Y474257D01*
X646185Y474267D01*
X646272Y474280D01*
X646357Y474298D01*
X646442Y474319D01*
X646526Y474344D01*
X646608Y474373D01*
X646689Y474406D01*
X646769Y474442D01*
X646847Y474481D01*
X646923Y474525D01*
X646997Y474571D01*
X647068Y474621D01*
X647138Y474674D01*
X647205Y474730D01*
X647269Y474789D01*
X647331Y474851D01*
X647390Y474915D01*
X647446Y474982D01*
X647499Y475052D01*
X647549Y475123D01*
X647595Y475197D01*
X647639Y475273D01*
X647678Y475351D01*
X647714Y475431D01*
X647747Y475512D01*
X647776Y475594D01*
X647801Y475678D01*
X647822Y475763D01*
X647840Y475848D01*
X647853Y475935D01*
X647863Y476021D01*
X647869Y476109D01*
X647871Y476196D01*
X647871Y479442D01*
X647871Y484439D02*
X640082Y486387D01*
X645275Y488334D01*
X640082Y490281D01*
X647871Y492229D01*
X644626Y499000D02*
X644626Y501921D01*
X644626Y499000D02*
X644624Y498906D01*
X644618Y498812D01*
X644609Y498719D01*
X644595Y498626D01*
X644578Y498534D01*
X644556Y498442D01*
X644532Y498352D01*
X644503Y498262D01*
X644471Y498174D01*
X644435Y498087D01*
X644395Y498002D01*
X644352Y497919D01*
X644306Y497837D01*
X644256Y497757D01*
X644203Y497680D01*
X644147Y497605D01*
X644088Y497532D01*
X644026Y497461D01*
X643961Y497393D01*
X643893Y497328D01*
X643822Y497266D01*
X643749Y497207D01*
X643674Y497151D01*
X643597Y497098D01*
X643517Y497048D01*
X643435Y497002D01*
X643352Y496959D01*
X643267Y496919D01*
X643180Y496883D01*
X643092Y496851D01*
X643002Y496822D01*
X642912Y496798D01*
X642820Y496776D01*
X642728Y496759D01*
X642635Y496745D01*
X642542Y496736D01*
X642448Y496730D01*
X642354Y496728D01*
X642260Y496730D01*
X642166Y496736D01*
X642073Y496745D01*
X641980Y496759D01*
X641888Y496776D01*
X641796Y496798D01*
X641706Y496822D01*
X641616Y496851D01*
X641528Y496883D01*
X641441Y496919D01*
X641356Y496959D01*
X641273Y497002D01*
X641191Y497048D01*
X641111Y497098D01*
X641034Y497151D01*
X640959Y497207D01*
X640886Y497266D01*
X640815Y497328D01*
X640747Y497393D01*
X640682Y497461D01*
X640620Y497532D01*
X640561Y497605D01*
X640505Y497680D01*
X640452Y497757D01*
X640402Y497837D01*
X640356Y497919D01*
X640313Y498002D01*
X640273Y498087D01*
X640237Y498174D01*
X640205Y498262D01*
X640176Y498352D01*
X640152Y498442D01*
X640130Y498534D01*
X640113Y498626D01*
X640099Y498719D01*
X640090Y498812D01*
X640084Y498906D01*
X640082Y499000D01*
X640082Y501921D01*
X645924Y501921D01*
X645924Y501920D02*
X646011Y501918D01*
X646099Y501912D01*
X646185Y501902D01*
X646272Y501889D01*
X646357Y501871D01*
X646442Y501850D01*
X646526Y501825D01*
X646608Y501796D01*
X646689Y501763D01*
X646769Y501727D01*
X646847Y501688D01*
X646923Y501644D01*
X646997Y501598D01*
X647068Y501548D01*
X647138Y501495D01*
X647205Y501439D01*
X647269Y501380D01*
X647331Y501318D01*
X647390Y501254D01*
X647446Y501187D01*
X647499Y501117D01*
X647549Y501046D01*
X647595Y500972D01*
X647639Y500896D01*
X647678Y500818D01*
X647714Y500738D01*
X647747Y500657D01*
X647776Y500575D01*
X647801Y500491D01*
X647822Y500406D01*
X647840Y500321D01*
X647853Y500234D01*
X647863Y500148D01*
X647869Y500060D01*
X647871Y499973D01*
X647871Y497377D01*
X647871Y507521D02*
X640082Y507521D01*
X647871Y507521D02*
X647871Y511416D01*
X646573Y511416D01*
X640082Y517022D02*
X640082Y520267D01*
X640082Y517022D02*
X640084Y516935D01*
X640090Y516847D01*
X640100Y516761D01*
X640113Y516674D01*
X640131Y516589D01*
X640152Y516504D01*
X640177Y516420D01*
X640206Y516338D01*
X640239Y516257D01*
X640275Y516177D01*
X640314Y516099D01*
X640358Y516023D01*
X640404Y515949D01*
X640454Y515878D01*
X640507Y515808D01*
X640563Y515741D01*
X640622Y515677D01*
X640684Y515615D01*
X640748Y515556D01*
X640815Y515500D01*
X640885Y515447D01*
X640956Y515397D01*
X641030Y515351D01*
X641106Y515307D01*
X641184Y515268D01*
X641264Y515232D01*
X641345Y515199D01*
X641427Y515170D01*
X641511Y515145D01*
X641596Y515124D01*
X641681Y515106D01*
X641768Y515093D01*
X641854Y515083D01*
X641942Y515077D01*
X642029Y515075D01*
X645275Y515075D01*
X645376Y515077D01*
X645476Y515083D01*
X645576Y515093D01*
X645676Y515106D01*
X645775Y515124D01*
X645874Y515145D01*
X645971Y515170D01*
X646068Y515199D01*
X646163Y515232D01*
X646257Y515268D01*
X646349Y515308D01*
X646440Y515351D01*
X646529Y515398D01*
X646616Y515448D01*
X646702Y515502D01*
X646785Y515559D01*
X646865Y515619D01*
X646944Y515682D01*
X647020Y515749D01*
X647093Y515818D01*
X647163Y515890D01*
X647231Y515964D01*
X647296Y516041D01*
X647357Y516121D01*
X647416Y516203D01*
X647471Y516287D01*
X647523Y516373D01*
X647572Y516461D01*
X647617Y516551D01*
X647659Y516643D01*
X647697Y516736D01*
X647731Y516831D01*
X647762Y516926D01*
X647789Y517023D01*
X647812Y517121D01*
X647832Y517220D01*
X647847Y517320D01*
X647859Y517420D01*
X647867Y517520D01*
X647871Y517621D01*
X647871Y517721D01*
X647867Y517822D01*
X647859Y517922D01*
X647847Y518022D01*
X647832Y518122D01*
X647812Y518221D01*
X647789Y518319D01*
X647762Y518416D01*
X647731Y518511D01*
X647697Y518606D01*
X647659Y518699D01*
X647617Y518791D01*
X647572Y518881D01*
X647523Y518969D01*
X647471Y519055D01*
X647416Y519139D01*
X647357Y519221D01*
X647296Y519301D01*
X647231Y519378D01*
X647163Y519452D01*
X647093Y519524D01*
X647020Y519593D01*
X646944Y519660D01*
X646865Y519723D01*
X646785Y519783D01*
X646702Y519840D01*
X646616Y519894D01*
X646529Y519944D01*
X646440Y519991D01*
X646349Y520034D01*
X646257Y520074D01*
X646163Y520110D01*
X646068Y520143D01*
X645971Y520172D01*
X645874Y520197D01*
X645775Y520218D01*
X645676Y520236D01*
X645576Y520249D01*
X645476Y520259D01*
X645376Y520265D01*
X645275Y520267D01*
X643977Y520267D01*
X643977Y515075D01*
D11*
X362842Y345940D02*
X362842Y264660D01*
X398148Y260850D02*
X398270Y260852D01*
X398392Y260858D01*
X398514Y260868D01*
X398635Y260881D01*
X398756Y260899D01*
X398876Y260920D01*
X398996Y260946D01*
X399114Y260975D01*
X399232Y261007D01*
X399349Y261044D01*
X399464Y261084D01*
X399578Y261128D01*
X399690Y261176D01*
X399801Y261227D01*
X399910Y261282D01*
X400018Y261340D01*
X400123Y261402D01*
X400226Y261467D01*
X400328Y261535D01*
X400427Y261607D01*
X400523Y261681D01*
X400618Y261759D01*
X400709Y261840D01*
X400799Y261923D01*
X400885Y262009D01*
X400968Y262099D01*
X401049Y262190D01*
X401127Y262285D01*
X401201Y262381D01*
X401273Y262480D01*
X401341Y262582D01*
X401406Y262685D01*
X401468Y262790D01*
X401526Y262898D01*
X401581Y263007D01*
X401632Y263118D01*
X401680Y263230D01*
X401724Y263344D01*
X401764Y263459D01*
X401801Y263576D01*
X401833Y263694D01*
X401862Y263812D01*
X401888Y263932D01*
X401909Y264052D01*
X401927Y264173D01*
X401940Y264294D01*
X401950Y264416D01*
X401956Y264538D01*
X401958Y264660D01*
X362842Y345940D02*
X362844Y346062D01*
X362850Y346184D01*
X362860Y346306D01*
X362873Y346427D01*
X362891Y346548D01*
X362912Y346668D01*
X362938Y346788D01*
X362967Y346906D01*
X362999Y347024D01*
X363036Y347141D01*
X363076Y347256D01*
X363120Y347370D01*
X363168Y347482D01*
X363219Y347593D01*
X363274Y347702D01*
X363332Y347810D01*
X363394Y347915D01*
X363459Y348018D01*
X363527Y348120D01*
X363599Y348219D01*
X363673Y348315D01*
X363751Y348410D01*
X363832Y348501D01*
X363915Y348591D01*
X364001Y348677D01*
X364091Y348760D01*
X364182Y348841D01*
X364277Y348919D01*
X364373Y348993D01*
X364472Y349065D01*
X364574Y349133D01*
X364677Y349198D01*
X364782Y349260D01*
X364890Y349318D01*
X364999Y349373D01*
X365110Y349424D01*
X365222Y349472D01*
X365336Y349516D01*
X365451Y349556D01*
X365568Y349593D01*
X365686Y349625D01*
X365804Y349654D01*
X365924Y349680D01*
X366044Y349701D01*
X366165Y349719D01*
X366286Y349732D01*
X366408Y349742D01*
X366530Y349748D01*
X366652Y349750D01*
X362842Y264660D02*
X362844Y264538D01*
X362850Y264416D01*
X362860Y264294D01*
X362873Y264173D01*
X362891Y264052D01*
X362912Y263932D01*
X362938Y263812D01*
X362967Y263694D01*
X362999Y263576D01*
X363036Y263459D01*
X363076Y263344D01*
X363120Y263230D01*
X363168Y263118D01*
X363219Y263007D01*
X363274Y262898D01*
X363332Y262790D01*
X363394Y262685D01*
X363459Y262582D01*
X363527Y262480D01*
X363599Y262381D01*
X363673Y262285D01*
X363751Y262190D01*
X363832Y262099D01*
X363915Y262009D01*
X364001Y261923D01*
X364091Y261840D01*
X364182Y261759D01*
X364277Y261681D01*
X364373Y261607D01*
X364472Y261535D01*
X364574Y261467D01*
X364677Y261402D01*
X364782Y261340D01*
X364890Y261282D01*
X364999Y261227D01*
X365110Y261176D01*
X365222Y261128D01*
X365336Y261084D01*
X365451Y261044D01*
X365568Y261007D01*
X365686Y260975D01*
X365804Y260946D01*
X365924Y260920D01*
X366044Y260899D01*
X366165Y260881D01*
X366286Y260868D01*
X366408Y260858D01*
X366530Y260852D01*
X366652Y260850D01*
X401958Y345940D02*
X401956Y346062D01*
X401950Y346184D01*
X401940Y346306D01*
X401927Y346427D01*
X401909Y346548D01*
X401888Y346668D01*
X401862Y346788D01*
X401833Y346906D01*
X401801Y347024D01*
X401764Y347141D01*
X401724Y347256D01*
X401680Y347370D01*
X401632Y347482D01*
X401581Y347593D01*
X401526Y347702D01*
X401468Y347810D01*
X401406Y347915D01*
X401341Y348018D01*
X401273Y348120D01*
X401201Y348219D01*
X401127Y348315D01*
X401049Y348410D01*
X400968Y348501D01*
X400885Y348591D01*
X400799Y348677D01*
X400709Y348760D01*
X400618Y348841D01*
X400523Y348919D01*
X400427Y348993D01*
X400328Y349065D01*
X400226Y349133D01*
X400123Y349198D01*
X400018Y349260D01*
X399910Y349318D01*
X399801Y349373D01*
X399690Y349424D01*
X399578Y349472D01*
X399464Y349516D01*
X399349Y349556D01*
X399232Y349593D01*
X399114Y349625D01*
X398996Y349654D01*
X398876Y349680D01*
X398756Y349701D01*
X398635Y349719D01*
X398514Y349732D01*
X398392Y349742D01*
X398270Y349748D01*
X398148Y349750D01*
X401958Y345940D02*
X401958Y264660D01*
X398148Y260850D02*
X366652Y260850D01*
X366652Y349750D02*
X377320Y349750D01*
X387480Y349750D01*
X398148Y349750D01*
X387480Y349750D02*
X387478Y349609D01*
X387472Y349468D01*
X387462Y349327D01*
X387449Y349186D01*
X387431Y349046D01*
X387409Y348907D01*
X387384Y348768D01*
X387355Y348629D01*
X387322Y348492D01*
X387285Y348356D01*
X387244Y348221D01*
X387200Y348086D01*
X387152Y347954D01*
X387100Y347822D01*
X387045Y347692D01*
X386986Y347564D01*
X386923Y347437D01*
X386857Y347313D01*
X386788Y347190D01*
X386715Y347069D01*
X386639Y346950D01*
X386559Y346833D01*
X386476Y346719D01*
X386391Y346606D01*
X386302Y346497D01*
X386210Y346389D01*
X386115Y346285D01*
X386017Y346183D01*
X385916Y346084D01*
X385813Y345987D01*
X385707Y345894D01*
X385599Y345804D01*
X385488Y345716D01*
X385375Y345632D01*
X385259Y345551D01*
X385141Y345473D01*
X385021Y345398D01*
X384899Y345327D01*
X384775Y345259D01*
X384649Y345195D01*
X384522Y345134D01*
X384393Y345077D01*
X384262Y345024D01*
X384130Y344974D01*
X383997Y344927D01*
X383862Y344885D01*
X383726Y344846D01*
X383589Y344811D01*
X383452Y344780D01*
X383313Y344753D01*
X383174Y344729D01*
X383034Y344710D01*
X382894Y344694D01*
X382753Y344682D01*
X382612Y344674D01*
X382471Y344670D01*
X382329Y344670D01*
X382188Y344674D01*
X382047Y344682D01*
X381906Y344694D01*
X381766Y344710D01*
X381626Y344729D01*
X381487Y344753D01*
X381348Y344780D01*
X381211Y344811D01*
X381074Y344846D01*
X380938Y344885D01*
X380803Y344927D01*
X380670Y344974D01*
X380538Y345024D01*
X380407Y345077D01*
X380278Y345134D01*
X380151Y345195D01*
X380025Y345259D01*
X379901Y345327D01*
X379779Y345398D01*
X379659Y345473D01*
X379541Y345551D01*
X379425Y345632D01*
X379312Y345716D01*
X379201Y345804D01*
X379093Y345894D01*
X378987Y345987D01*
X378884Y346084D01*
X378783Y346183D01*
X378685Y346285D01*
X378590Y346389D01*
X378498Y346497D01*
X378409Y346606D01*
X378324Y346719D01*
X378241Y346833D01*
X378161Y346950D01*
X378085Y347069D01*
X378012Y347190D01*
X377943Y347313D01*
X377877Y347437D01*
X377814Y347564D01*
X377755Y347692D01*
X377700Y347822D01*
X377648Y347954D01*
X377600Y348086D01*
X377556Y348221D01*
X377515Y348356D01*
X377478Y348492D01*
X377445Y348629D01*
X377416Y348768D01*
X377391Y348907D01*
X377369Y349046D01*
X377351Y349186D01*
X377338Y349327D01*
X377328Y349468D01*
X377322Y349609D01*
X377320Y349750D01*
X398402Y349750D02*
X398402Y260850D01*
X426342Y231640D02*
X426342Y150360D01*
X461648Y146550D02*
X461770Y146552D01*
X461892Y146558D01*
X462014Y146568D01*
X462135Y146581D01*
X462256Y146599D01*
X462376Y146620D01*
X462496Y146646D01*
X462614Y146675D01*
X462732Y146707D01*
X462849Y146744D01*
X462964Y146784D01*
X463078Y146828D01*
X463190Y146876D01*
X463301Y146927D01*
X463410Y146982D01*
X463518Y147040D01*
X463623Y147102D01*
X463726Y147167D01*
X463828Y147235D01*
X463927Y147307D01*
X464023Y147381D01*
X464118Y147459D01*
X464209Y147540D01*
X464299Y147623D01*
X464385Y147709D01*
X464468Y147799D01*
X464549Y147890D01*
X464627Y147985D01*
X464701Y148081D01*
X464773Y148180D01*
X464841Y148282D01*
X464906Y148385D01*
X464968Y148490D01*
X465026Y148598D01*
X465081Y148707D01*
X465132Y148818D01*
X465180Y148930D01*
X465224Y149044D01*
X465264Y149159D01*
X465301Y149276D01*
X465333Y149394D01*
X465362Y149512D01*
X465388Y149632D01*
X465409Y149752D01*
X465427Y149873D01*
X465440Y149994D01*
X465450Y150116D01*
X465456Y150238D01*
X465458Y150360D01*
X426342Y231640D02*
X426344Y231762D01*
X426350Y231884D01*
X426360Y232006D01*
X426373Y232127D01*
X426391Y232248D01*
X426412Y232368D01*
X426438Y232488D01*
X426467Y232606D01*
X426499Y232724D01*
X426536Y232841D01*
X426576Y232956D01*
X426620Y233070D01*
X426668Y233182D01*
X426719Y233293D01*
X426774Y233402D01*
X426832Y233510D01*
X426894Y233615D01*
X426959Y233718D01*
X427027Y233820D01*
X427099Y233919D01*
X427173Y234015D01*
X427251Y234110D01*
X427332Y234201D01*
X427415Y234291D01*
X427501Y234377D01*
X427591Y234460D01*
X427682Y234541D01*
X427777Y234619D01*
X427873Y234693D01*
X427972Y234765D01*
X428074Y234833D01*
X428177Y234898D01*
X428282Y234960D01*
X428390Y235018D01*
X428499Y235073D01*
X428610Y235124D01*
X428722Y235172D01*
X428836Y235216D01*
X428951Y235256D01*
X429068Y235293D01*
X429186Y235325D01*
X429304Y235354D01*
X429424Y235380D01*
X429544Y235401D01*
X429665Y235419D01*
X429786Y235432D01*
X429908Y235442D01*
X430030Y235448D01*
X430152Y235450D01*
X426342Y150360D02*
X426344Y150238D01*
X426350Y150116D01*
X426360Y149994D01*
X426373Y149873D01*
X426391Y149752D01*
X426412Y149632D01*
X426438Y149512D01*
X426467Y149394D01*
X426499Y149276D01*
X426536Y149159D01*
X426576Y149044D01*
X426620Y148930D01*
X426668Y148818D01*
X426719Y148707D01*
X426774Y148598D01*
X426832Y148490D01*
X426894Y148385D01*
X426959Y148282D01*
X427027Y148180D01*
X427099Y148081D01*
X427173Y147985D01*
X427251Y147890D01*
X427332Y147799D01*
X427415Y147709D01*
X427501Y147623D01*
X427591Y147540D01*
X427682Y147459D01*
X427777Y147381D01*
X427873Y147307D01*
X427972Y147235D01*
X428074Y147167D01*
X428177Y147102D01*
X428282Y147040D01*
X428390Y146982D01*
X428499Y146927D01*
X428610Y146876D01*
X428722Y146828D01*
X428836Y146784D01*
X428951Y146744D01*
X429068Y146707D01*
X429186Y146675D01*
X429304Y146646D01*
X429424Y146620D01*
X429544Y146599D01*
X429665Y146581D01*
X429786Y146568D01*
X429908Y146558D01*
X430030Y146552D01*
X430152Y146550D01*
X465458Y231640D02*
X465456Y231762D01*
X465450Y231884D01*
X465440Y232006D01*
X465427Y232127D01*
X465409Y232248D01*
X465388Y232368D01*
X465362Y232488D01*
X465333Y232606D01*
X465301Y232724D01*
X465264Y232841D01*
X465224Y232956D01*
X465180Y233070D01*
X465132Y233182D01*
X465081Y233293D01*
X465026Y233402D01*
X464968Y233510D01*
X464906Y233615D01*
X464841Y233718D01*
X464773Y233820D01*
X464701Y233919D01*
X464627Y234015D01*
X464549Y234110D01*
X464468Y234201D01*
X464385Y234291D01*
X464299Y234377D01*
X464209Y234460D01*
X464118Y234541D01*
X464023Y234619D01*
X463927Y234693D01*
X463828Y234765D01*
X463726Y234833D01*
X463623Y234898D01*
X463518Y234960D01*
X463410Y235018D01*
X463301Y235073D01*
X463190Y235124D01*
X463078Y235172D01*
X462964Y235216D01*
X462849Y235256D01*
X462732Y235293D01*
X462614Y235325D01*
X462496Y235354D01*
X462376Y235380D01*
X462256Y235401D01*
X462135Y235419D01*
X462014Y235432D01*
X461892Y235442D01*
X461770Y235448D01*
X461648Y235450D01*
X465458Y231640D02*
X465458Y150360D01*
X461648Y146550D02*
X430152Y146550D01*
X430152Y235450D02*
X440820Y235450D01*
X450980Y235450D01*
X461648Y235450D01*
X450980Y235450D02*
X450978Y235309D01*
X450972Y235168D01*
X450962Y235027D01*
X450949Y234886D01*
X450931Y234746D01*
X450909Y234607D01*
X450884Y234468D01*
X450855Y234329D01*
X450822Y234192D01*
X450785Y234056D01*
X450744Y233921D01*
X450700Y233786D01*
X450652Y233654D01*
X450600Y233522D01*
X450545Y233392D01*
X450486Y233264D01*
X450423Y233137D01*
X450357Y233013D01*
X450288Y232890D01*
X450215Y232769D01*
X450139Y232650D01*
X450059Y232533D01*
X449976Y232419D01*
X449891Y232306D01*
X449802Y232197D01*
X449710Y232089D01*
X449615Y231985D01*
X449517Y231883D01*
X449416Y231784D01*
X449313Y231687D01*
X449207Y231594D01*
X449099Y231504D01*
X448988Y231416D01*
X448875Y231332D01*
X448759Y231251D01*
X448641Y231173D01*
X448521Y231098D01*
X448399Y231027D01*
X448275Y230959D01*
X448149Y230895D01*
X448022Y230834D01*
X447893Y230777D01*
X447762Y230724D01*
X447630Y230674D01*
X447497Y230627D01*
X447362Y230585D01*
X447226Y230546D01*
X447089Y230511D01*
X446952Y230480D01*
X446813Y230453D01*
X446674Y230429D01*
X446534Y230410D01*
X446394Y230394D01*
X446253Y230382D01*
X446112Y230374D01*
X445971Y230370D01*
X445829Y230370D01*
X445688Y230374D01*
X445547Y230382D01*
X445406Y230394D01*
X445266Y230410D01*
X445126Y230429D01*
X444987Y230453D01*
X444848Y230480D01*
X444711Y230511D01*
X444574Y230546D01*
X444438Y230585D01*
X444303Y230627D01*
X444170Y230674D01*
X444038Y230724D01*
X443907Y230777D01*
X443778Y230834D01*
X443651Y230895D01*
X443525Y230959D01*
X443401Y231027D01*
X443279Y231098D01*
X443159Y231173D01*
X443041Y231251D01*
X442925Y231332D01*
X442812Y231416D01*
X442701Y231504D01*
X442593Y231594D01*
X442487Y231687D01*
X442384Y231784D01*
X442283Y231883D01*
X442185Y231985D01*
X442090Y232089D01*
X441998Y232197D01*
X441909Y232306D01*
X441824Y232419D01*
X441741Y232533D01*
X441661Y232650D01*
X441585Y232769D01*
X441512Y232890D01*
X441443Y233013D01*
X441377Y233137D01*
X441314Y233264D01*
X441255Y233392D01*
X441200Y233522D01*
X441148Y233654D01*
X441100Y233786D01*
X441056Y233921D01*
X441015Y234056D01*
X440978Y234192D01*
X440945Y234329D01*
X440916Y234468D01*
X440891Y234607D01*
X440869Y234746D01*
X440851Y234886D01*
X440838Y235027D01*
X440828Y235168D01*
X440822Y235309D01*
X440820Y235450D01*
X461902Y235450D02*
X461902Y146550D01*
X286642Y150360D02*
X286642Y231640D01*
X325758Y150360D02*
X325756Y150238D01*
X325750Y150116D01*
X325740Y149994D01*
X325727Y149873D01*
X325709Y149752D01*
X325688Y149632D01*
X325662Y149512D01*
X325633Y149394D01*
X325601Y149276D01*
X325564Y149159D01*
X325524Y149044D01*
X325480Y148930D01*
X325432Y148818D01*
X325381Y148707D01*
X325326Y148598D01*
X325268Y148490D01*
X325206Y148385D01*
X325141Y148282D01*
X325073Y148180D01*
X325001Y148081D01*
X324927Y147985D01*
X324849Y147890D01*
X324768Y147799D01*
X324685Y147709D01*
X324599Y147623D01*
X324509Y147540D01*
X324418Y147459D01*
X324323Y147381D01*
X324227Y147307D01*
X324128Y147235D01*
X324026Y147167D01*
X323923Y147102D01*
X323818Y147040D01*
X323710Y146982D01*
X323601Y146927D01*
X323490Y146876D01*
X323378Y146828D01*
X323264Y146784D01*
X323149Y146744D01*
X323032Y146707D01*
X322914Y146675D01*
X322796Y146646D01*
X322676Y146620D01*
X322556Y146599D01*
X322435Y146581D01*
X322314Y146568D01*
X322192Y146558D01*
X322070Y146552D01*
X321948Y146550D01*
X286642Y231640D02*
X286644Y231762D01*
X286650Y231884D01*
X286660Y232006D01*
X286673Y232127D01*
X286691Y232248D01*
X286712Y232368D01*
X286738Y232488D01*
X286767Y232606D01*
X286799Y232724D01*
X286836Y232841D01*
X286876Y232956D01*
X286920Y233070D01*
X286968Y233182D01*
X287019Y233293D01*
X287074Y233402D01*
X287132Y233510D01*
X287194Y233615D01*
X287259Y233718D01*
X287327Y233820D01*
X287399Y233919D01*
X287473Y234015D01*
X287551Y234110D01*
X287632Y234201D01*
X287715Y234291D01*
X287801Y234377D01*
X287891Y234460D01*
X287982Y234541D01*
X288077Y234619D01*
X288173Y234693D01*
X288272Y234765D01*
X288374Y234833D01*
X288477Y234898D01*
X288582Y234960D01*
X288690Y235018D01*
X288799Y235073D01*
X288910Y235124D01*
X289022Y235172D01*
X289136Y235216D01*
X289251Y235256D01*
X289368Y235293D01*
X289486Y235325D01*
X289604Y235354D01*
X289724Y235380D01*
X289844Y235401D01*
X289965Y235419D01*
X290086Y235432D01*
X290208Y235442D01*
X290330Y235448D01*
X290452Y235450D01*
X286642Y150360D02*
X286644Y150238D01*
X286650Y150116D01*
X286660Y149994D01*
X286673Y149873D01*
X286691Y149752D01*
X286712Y149632D01*
X286738Y149512D01*
X286767Y149394D01*
X286799Y149276D01*
X286836Y149159D01*
X286876Y149044D01*
X286920Y148930D01*
X286968Y148818D01*
X287019Y148707D01*
X287074Y148598D01*
X287132Y148490D01*
X287194Y148385D01*
X287259Y148282D01*
X287327Y148180D01*
X287399Y148081D01*
X287473Y147985D01*
X287551Y147890D01*
X287632Y147799D01*
X287715Y147709D01*
X287801Y147623D01*
X287891Y147540D01*
X287982Y147459D01*
X288077Y147381D01*
X288173Y147307D01*
X288272Y147235D01*
X288374Y147167D01*
X288477Y147102D01*
X288582Y147040D01*
X288690Y146982D01*
X288799Y146927D01*
X288910Y146876D01*
X289022Y146828D01*
X289136Y146784D01*
X289251Y146744D01*
X289368Y146707D01*
X289486Y146675D01*
X289604Y146646D01*
X289724Y146620D01*
X289844Y146599D01*
X289965Y146581D01*
X290086Y146568D01*
X290208Y146558D01*
X290330Y146552D01*
X290452Y146550D01*
X325758Y231640D02*
X325756Y231762D01*
X325750Y231884D01*
X325740Y232006D01*
X325727Y232127D01*
X325709Y232248D01*
X325688Y232368D01*
X325662Y232488D01*
X325633Y232606D01*
X325601Y232724D01*
X325564Y232841D01*
X325524Y232956D01*
X325480Y233070D01*
X325432Y233182D01*
X325381Y233293D01*
X325326Y233402D01*
X325268Y233510D01*
X325206Y233615D01*
X325141Y233718D01*
X325073Y233820D01*
X325001Y233919D01*
X324927Y234015D01*
X324849Y234110D01*
X324768Y234201D01*
X324685Y234291D01*
X324599Y234377D01*
X324509Y234460D01*
X324418Y234541D01*
X324323Y234619D01*
X324227Y234693D01*
X324128Y234765D01*
X324026Y234833D01*
X323923Y234898D01*
X323818Y234960D01*
X323710Y235018D01*
X323601Y235073D01*
X323490Y235124D01*
X323378Y235172D01*
X323264Y235216D01*
X323149Y235256D01*
X323032Y235293D01*
X322914Y235325D01*
X322796Y235354D01*
X322676Y235380D01*
X322556Y235401D01*
X322435Y235419D01*
X322314Y235432D01*
X322192Y235442D01*
X322070Y235448D01*
X321948Y235450D01*
X325758Y231640D02*
X325758Y150360D01*
X321948Y146550D02*
X290452Y146550D01*
X290452Y235450D02*
X301120Y235450D01*
X311280Y235450D01*
X321948Y235450D01*
X311280Y235450D02*
X311278Y235309D01*
X311272Y235168D01*
X311262Y235027D01*
X311249Y234886D01*
X311231Y234746D01*
X311209Y234607D01*
X311184Y234468D01*
X311155Y234329D01*
X311122Y234192D01*
X311085Y234056D01*
X311044Y233921D01*
X311000Y233786D01*
X310952Y233654D01*
X310900Y233522D01*
X310845Y233392D01*
X310786Y233264D01*
X310723Y233137D01*
X310657Y233013D01*
X310588Y232890D01*
X310515Y232769D01*
X310439Y232650D01*
X310359Y232533D01*
X310276Y232419D01*
X310191Y232306D01*
X310102Y232197D01*
X310010Y232089D01*
X309915Y231985D01*
X309817Y231883D01*
X309716Y231784D01*
X309613Y231687D01*
X309507Y231594D01*
X309399Y231504D01*
X309288Y231416D01*
X309175Y231332D01*
X309059Y231251D01*
X308941Y231173D01*
X308821Y231098D01*
X308699Y231027D01*
X308575Y230959D01*
X308449Y230895D01*
X308322Y230834D01*
X308193Y230777D01*
X308062Y230724D01*
X307930Y230674D01*
X307797Y230627D01*
X307662Y230585D01*
X307526Y230546D01*
X307389Y230511D01*
X307252Y230480D01*
X307113Y230453D01*
X306974Y230429D01*
X306834Y230410D01*
X306694Y230394D01*
X306553Y230382D01*
X306412Y230374D01*
X306271Y230370D01*
X306129Y230370D01*
X305988Y230374D01*
X305847Y230382D01*
X305706Y230394D01*
X305566Y230410D01*
X305426Y230429D01*
X305287Y230453D01*
X305148Y230480D01*
X305011Y230511D01*
X304874Y230546D01*
X304738Y230585D01*
X304603Y230627D01*
X304470Y230674D01*
X304338Y230724D01*
X304207Y230777D01*
X304078Y230834D01*
X303951Y230895D01*
X303825Y230959D01*
X303701Y231027D01*
X303579Y231098D01*
X303459Y231173D01*
X303341Y231251D01*
X303225Y231332D01*
X303112Y231416D01*
X303001Y231504D01*
X302893Y231594D01*
X302787Y231687D01*
X302684Y231784D01*
X302583Y231883D01*
X302485Y231985D01*
X302390Y232089D01*
X302298Y232197D01*
X302209Y232306D01*
X302124Y232419D01*
X302041Y232533D01*
X301961Y232650D01*
X301885Y232769D01*
X301812Y232890D01*
X301743Y233013D01*
X301677Y233137D01*
X301614Y233264D01*
X301555Y233392D01*
X301500Y233522D01*
X301448Y233654D01*
X301400Y233786D01*
X301356Y233921D01*
X301315Y234056D01*
X301278Y234192D01*
X301245Y234329D01*
X301216Y234468D01*
X301191Y234607D01*
X301169Y234746D01*
X301151Y234886D01*
X301138Y235027D01*
X301128Y235168D01*
X301122Y235309D01*
X301120Y235450D01*
X322202Y235450D02*
X322202Y146550D01*
D12*
X266435Y442340D02*
X263838Y442340D01*
X266435Y442341D02*
X266536Y442343D01*
X266636Y442349D01*
X266736Y442359D01*
X266836Y442372D01*
X266935Y442390D01*
X267034Y442411D01*
X267131Y442436D01*
X267228Y442465D01*
X267323Y442498D01*
X267417Y442534D01*
X267509Y442574D01*
X267600Y442617D01*
X267689Y442664D01*
X267776Y442714D01*
X267862Y442768D01*
X267945Y442825D01*
X268025Y442885D01*
X268104Y442948D01*
X268180Y443015D01*
X268253Y443084D01*
X268323Y443156D01*
X268391Y443230D01*
X268456Y443307D01*
X268517Y443387D01*
X268576Y443469D01*
X268631Y443553D01*
X268683Y443639D01*
X268732Y443727D01*
X268777Y443817D01*
X268819Y443909D01*
X268857Y444002D01*
X268891Y444097D01*
X268922Y444192D01*
X268949Y444289D01*
X268972Y444387D01*
X268992Y444486D01*
X269007Y444586D01*
X269019Y444686D01*
X269027Y444786D01*
X269031Y444887D01*
X269031Y444987D01*
X269027Y445088D01*
X269019Y445188D01*
X269007Y445288D01*
X268992Y445388D01*
X268972Y445487D01*
X268949Y445585D01*
X268922Y445682D01*
X268891Y445777D01*
X268857Y445872D01*
X268819Y445965D01*
X268777Y446057D01*
X268732Y446147D01*
X268683Y446235D01*
X268631Y446321D01*
X268576Y446405D01*
X268517Y446487D01*
X268456Y446567D01*
X268391Y446644D01*
X268323Y446718D01*
X268253Y446790D01*
X268180Y446859D01*
X268104Y446926D01*
X268025Y446989D01*
X267945Y447049D01*
X267862Y447106D01*
X267776Y447160D01*
X267689Y447210D01*
X267600Y447257D01*
X267509Y447300D01*
X267417Y447340D01*
X267323Y447376D01*
X267228Y447409D01*
X267131Y447438D01*
X267034Y447463D01*
X266935Y447484D01*
X266836Y447502D01*
X266736Y447515D01*
X266636Y447525D01*
X266536Y447531D01*
X266435Y447533D01*
X263838Y447533D01*
X263737Y447531D01*
X263637Y447525D01*
X263537Y447515D01*
X263437Y447502D01*
X263338Y447484D01*
X263239Y447463D01*
X263142Y447438D01*
X263045Y447409D01*
X262950Y447376D01*
X262856Y447340D01*
X262764Y447300D01*
X262673Y447257D01*
X262584Y447210D01*
X262497Y447160D01*
X262411Y447106D01*
X262328Y447049D01*
X262248Y446989D01*
X262169Y446926D01*
X262093Y446859D01*
X262020Y446790D01*
X261950Y446718D01*
X261882Y446644D01*
X261817Y446567D01*
X261756Y446487D01*
X261697Y446405D01*
X261642Y446321D01*
X261590Y446235D01*
X261541Y446147D01*
X261496Y446057D01*
X261454Y445965D01*
X261416Y445872D01*
X261382Y445777D01*
X261351Y445682D01*
X261324Y445585D01*
X261301Y445487D01*
X261281Y445388D01*
X261266Y445288D01*
X261254Y445188D01*
X261246Y445088D01*
X261242Y444987D01*
X261242Y444887D01*
X261246Y444786D01*
X261254Y444686D01*
X261266Y444586D01*
X261281Y444486D01*
X261301Y444387D01*
X261324Y444289D01*
X261351Y444192D01*
X261382Y444097D01*
X261416Y444002D01*
X261454Y443909D01*
X261496Y443817D01*
X261541Y443727D01*
X261590Y443639D01*
X261642Y443553D01*
X261697Y443469D01*
X261756Y443387D01*
X261817Y443307D01*
X261882Y443230D01*
X261950Y443156D01*
X262020Y443084D01*
X262093Y443015D01*
X262169Y442948D01*
X262248Y442885D01*
X262328Y442825D01*
X262411Y442768D01*
X262497Y442714D01*
X262584Y442664D01*
X262673Y442617D01*
X262764Y442574D01*
X262856Y442534D01*
X262950Y442498D01*
X263045Y442465D01*
X263142Y442436D01*
X263239Y442411D01*
X263338Y442390D01*
X263437Y442372D01*
X263537Y442359D01*
X263637Y442349D01*
X263737Y442343D01*
X263838Y442341D01*
X269031Y452686D02*
X257347Y452686D01*
X269031Y452686D02*
X269031Y455932D01*
X269029Y456019D01*
X269023Y456107D01*
X269013Y456193D01*
X269000Y456280D01*
X268982Y456365D01*
X268961Y456450D01*
X268936Y456534D01*
X268907Y456616D01*
X268874Y456697D01*
X268838Y456777D01*
X268799Y456855D01*
X268755Y456931D01*
X268709Y457005D01*
X268659Y457076D01*
X268606Y457146D01*
X268550Y457213D01*
X268491Y457277D01*
X268429Y457339D01*
X268365Y457398D01*
X268298Y457454D01*
X268228Y457507D01*
X268157Y457557D01*
X268083Y457603D01*
X268007Y457647D01*
X267929Y457686D01*
X267849Y457722D01*
X267768Y457755D01*
X267686Y457784D01*
X267602Y457809D01*
X267517Y457830D01*
X267432Y457848D01*
X267345Y457861D01*
X267259Y457871D01*
X267171Y457877D01*
X267084Y457879D01*
X263189Y457879D01*
X263102Y457877D01*
X263014Y457871D01*
X262928Y457861D01*
X262841Y457848D01*
X262756Y457830D01*
X262671Y457809D01*
X262587Y457784D01*
X262505Y457755D01*
X262424Y457722D01*
X262344Y457686D01*
X262266Y457647D01*
X262190Y457603D01*
X262116Y457557D01*
X262045Y457507D01*
X261975Y457454D01*
X261908Y457398D01*
X261844Y457339D01*
X261782Y457277D01*
X261723Y457213D01*
X261667Y457146D01*
X261614Y457076D01*
X261564Y457005D01*
X261518Y456931D01*
X261474Y456855D01*
X261435Y456777D01*
X261399Y456697D01*
X261366Y456616D01*
X261337Y456534D01*
X261312Y456450D01*
X261291Y456365D01*
X261273Y456280D01*
X261260Y456193D01*
X261250Y456107D01*
X261244Y456019D01*
X261242Y455932D01*
X261242Y452686D01*
X261242Y464480D02*
X261242Y467726D01*
X261242Y464480D02*
X261244Y464393D01*
X261250Y464305D01*
X261260Y464219D01*
X261273Y464132D01*
X261291Y464047D01*
X261312Y463962D01*
X261337Y463878D01*
X261366Y463796D01*
X261399Y463715D01*
X261435Y463635D01*
X261474Y463557D01*
X261518Y463481D01*
X261564Y463407D01*
X261614Y463336D01*
X261667Y463266D01*
X261723Y463199D01*
X261782Y463135D01*
X261844Y463073D01*
X261908Y463014D01*
X261975Y462958D01*
X262045Y462905D01*
X262116Y462855D01*
X262190Y462809D01*
X262266Y462765D01*
X262344Y462726D01*
X262424Y462690D01*
X262505Y462657D01*
X262587Y462628D01*
X262671Y462603D01*
X262756Y462582D01*
X262841Y462564D01*
X262928Y462551D01*
X263014Y462541D01*
X263102Y462535D01*
X263189Y462533D01*
X266435Y462533D01*
X266435Y462534D02*
X266536Y462536D01*
X266636Y462542D01*
X266736Y462552D01*
X266836Y462565D01*
X266935Y462583D01*
X267034Y462604D01*
X267131Y462629D01*
X267228Y462658D01*
X267323Y462691D01*
X267417Y462727D01*
X267509Y462767D01*
X267600Y462810D01*
X267689Y462857D01*
X267776Y462907D01*
X267862Y462961D01*
X267945Y463018D01*
X268025Y463078D01*
X268104Y463141D01*
X268180Y463208D01*
X268253Y463277D01*
X268323Y463349D01*
X268391Y463423D01*
X268456Y463500D01*
X268517Y463580D01*
X268576Y463662D01*
X268631Y463746D01*
X268683Y463832D01*
X268732Y463920D01*
X268777Y464010D01*
X268819Y464102D01*
X268857Y464195D01*
X268891Y464290D01*
X268922Y464385D01*
X268949Y464482D01*
X268972Y464580D01*
X268992Y464679D01*
X269007Y464779D01*
X269019Y464879D01*
X269027Y464979D01*
X269031Y465080D01*
X269031Y465180D01*
X269027Y465281D01*
X269019Y465381D01*
X269007Y465481D01*
X268992Y465581D01*
X268972Y465680D01*
X268949Y465778D01*
X268922Y465875D01*
X268891Y465970D01*
X268857Y466065D01*
X268819Y466158D01*
X268777Y466250D01*
X268732Y466340D01*
X268683Y466428D01*
X268631Y466514D01*
X268576Y466598D01*
X268517Y466680D01*
X268456Y466760D01*
X268391Y466837D01*
X268323Y466911D01*
X268253Y466983D01*
X268180Y467052D01*
X268104Y467119D01*
X268025Y467182D01*
X267945Y467242D01*
X267862Y467299D01*
X267776Y467353D01*
X267689Y467403D01*
X267600Y467450D01*
X267509Y467493D01*
X267417Y467533D01*
X267323Y467569D01*
X267228Y467602D01*
X267131Y467631D01*
X267034Y467656D01*
X266935Y467677D01*
X266836Y467695D01*
X266736Y467708D01*
X266636Y467718D01*
X266536Y467724D01*
X266435Y467726D01*
X265137Y467726D01*
X265137Y462533D01*
X261242Y472820D02*
X269031Y472820D01*
X269031Y476066D01*
X269029Y476153D01*
X269023Y476241D01*
X269013Y476327D01*
X269000Y476414D01*
X268982Y476499D01*
X268961Y476584D01*
X268936Y476668D01*
X268907Y476750D01*
X268874Y476831D01*
X268838Y476911D01*
X268799Y476989D01*
X268755Y477065D01*
X268709Y477139D01*
X268659Y477210D01*
X268606Y477280D01*
X268550Y477347D01*
X268491Y477411D01*
X268429Y477473D01*
X268365Y477532D01*
X268298Y477588D01*
X268228Y477641D01*
X268157Y477691D01*
X268083Y477737D01*
X268007Y477781D01*
X267929Y477820D01*
X267849Y477856D01*
X267768Y477889D01*
X267686Y477918D01*
X267602Y477943D01*
X267517Y477964D01*
X267432Y477982D01*
X267345Y477995D01*
X267259Y478005D01*
X267171Y478011D01*
X267084Y478013D01*
X261242Y478013D01*
X265786Y490177D02*
X264488Y493422D01*
X265785Y490177D02*
X265818Y490102D01*
X265854Y490028D01*
X265893Y489956D01*
X265936Y489886D01*
X265982Y489819D01*
X266032Y489753D01*
X266084Y489691D01*
X266140Y489630D01*
X266198Y489573D01*
X266259Y489518D01*
X266323Y489467D01*
X266389Y489419D01*
X266458Y489374D01*
X266528Y489332D01*
X266601Y489294D01*
X266675Y489259D01*
X266751Y489228D01*
X266828Y489201D01*
X266907Y489178D01*
X266986Y489158D01*
X267067Y489143D01*
X267148Y489131D01*
X267230Y489123D01*
X267311Y489119D01*
X267393Y489120D01*
X267475Y489124D01*
X267557Y489132D01*
X267638Y489144D01*
X267718Y489160D01*
X267798Y489180D01*
X267876Y489204D01*
X267953Y489232D01*
X268029Y489263D01*
X268103Y489298D01*
X268175Y489336D01*
X268246Y489378D01*
X268314Y489424D01*
X268380Y489472D01*
X268443Y489524D01*
X268504Y489579D01*
X268562Y489637D01*
X268618Y489697D01*
X268670Y489760D01*
X268719Y489826D01*
X268765Y489894D01*
X268807Y489964D01*
X268847Y490036D01*
X268882Y490110D01*
X268914Y490185D01*
X268942Y490262D01*
X268966Y490340D01*
X268987Y490420D01*
X269004Y490500D01*
X269016Y490581D01*
X269025Y490662D01*
X269030Y490744D01*
X269031Y490826D01*
X269027Y491003D01*
X269018Y491180D01*
X269004Y491357D01*
X268987Y491534D01*
X268965Y491709D01*
X268940Y491885D01*
X268909Y492059D01*
X268875Y492233D01*
X268837Y492406D01*
X268794Y492578D01*
X268747Y492749D01*
X268697Y492919D01*
X268642Y493088D01*
X268583Y493255D01*
X268520Y493420D01*
X268453Y493585D01*
X268382Y493747D01*
X264488Y493422D02*
X264455Y493497D01*
X264419Y493571D01*
X264380Y493643D01*
X264337Y493713D01*
X264291Y493780D01*
X264241Y493846D01*
X264189Y493908D01*
X264133Y493969D01*
X264075Y494026D01*
X264014Y494081D01*
X263950Y494132D01*
X263884Y494180D01*
X263815Y494225D01*
X263745Y494267D01*
X263672Y494305D01*
X263598Y494340D01*
X263522Y494371D01*
X263445Y494398D01*
X263366Y494421D01*
X263287Y494441D01*
X263206Y494456D01*
X263125Y494468D01*
X263043Y494476D01*
X262962Y494480D01*
X262880Y494479D01*
X262798Y494475D01*
X262716Y494467D01*
X262635Y494455D01*
X262555Y494439D01*
X262475Y494419D01*
X262397Y494395D01*
X262320Y494367D01*
X262244Y494336D01*
X262170Y494301D01*
X262098Y494263D01*
X262027Y494221D01*
X261959Y494175D01*
X261893Y494127D01*
X261830Y494075D01*
X261769Y494020D01*
X261711Y493962D01*
X261655Y493902D01*
X261603Y493839D01*
X261554Y493773D01*
X261508Y493705D01*
X261466Y493635D01*
X261426Y493563D01*
X261391Y493489D01*
X261359Y493414D01*
X261331Y493337D01*
X261307Y493259D01*
X261286Y493179D01*
X261269Y493099D01*
X261257Y493018D01*
X261248Y492937D01*
X261243Y492855D01*
X261242Y492773D01*
X261249Y492513D01*
X261262Y492253D01*
X261281Y491993D01*
X261306Y491734D01*
X261338Y491475D01*
X261375Y491218D01*
X261419Y490961D01*
X261468Y490705D01*
X261524Y490451D01*
X261585Y490198D01*
X261653Y489947D01*
X261727Y489697D01*
X261806Y489449D01*
X261891Y489203D01*
X263838Y499109D02*
X266435Y499109D01*
X266435Y499110D02*
X266536Y499112D01*
X266636Y499118D01*
X266736Y499128D01*
X266836Y499141D01*
X266935Y499159D01*
X267034Y499180D01*
X267131Y499205D01*
X267228Y499234D01*
X267323Y499267D01*
X267417Y499303D01*
X267509Y499343D01*
X267600Y499386D01*
X267689Y499433D01*
X267776Y499483D01*
X267862Y499537D01*
X267945Y499594D01*
X268025Y499654D01*
X268104Y499717D01*
X268180Y499784D01*
X268253Y499853D01*
X268323Y499925D01*
X268391Y499999D01*
X268456Y500076D01*
X268517Y500156D01*
X268576Y500238D01*
X268631Y500322D01*
X268683Y500408D01*
X268732Y500496D01*
X268777Y500586D01*
X268819Y500678D01*
X268857Y500771D01*
X268891Y500866D01*
X268922Y500961D01*
X268949Y501058D01*
X268972Y501156D01*
X268992Y501255D01*
X269007Y501355D01*
X269019Y501455D01*
X269027Y501555D01*
X269031Y501656D01*
X269031Y501756D01*
X269027Y501857D01*
X269019Y501957D01*
X269007Y502057D01*
X268992Y502157D01*
X268972Y502256D01*
X268949Y502354D01*
X268922Y502451D01*
X268891Y502546D01*
X268857Y502641D01*
X268819Y502734D01*
X268777Y502826D01*
X268732Y502916D01*
X268683Y503004D01*
X268631Y503090D01*
X268576Y503174D01*
X268517Y503256D01*
X268456Y503336D01*
X268391Y503413D01*
X268323Y503487D01*
X268253Y503559D01*
X268180Y503628D01*
X268104Y503695D01*
X268025Y503758D01*
X267945Y503818D01*
X267862Y503875D01*
X267776Y503929D01*
X267689Y503979D01*
X267600Y504026D01*
X267509Y504069D01*
X267417Y504109D01*
X267323Y504145D01*
X267228Y504178D01*
X267131Y504207D01*
X267034Y504232D01*
X266935Y504253D01*
X266836Y504271D01*
X266736Y504284D01*
X266636Y504294D01*
X266536Y504300D01*
X266435Y504302D01*
X263838Y504302D01*
X263737Y504300D01*
X263637Y504294D01*
X263537Y504284D01*
X263437Y504271D01*
X263338Y504253D01*
X263239Y504232D01*
X263142Y504207D01*
X263045Y504178D01*
X262950Y504145D01*
X262856Y504109D01*
X262764Y504069D01*
X262673Y504026D01*
X262584Y503979D01*
X262497Y503929D01*
X262411Y503875D01*
X262328Y503818D01*
X262248Y503758D01*
X262169Y503695D01*
X262093Y503628D01*
X262020Y503559D01*
X261950Y503487D01*
X261882Y503413D01*
X261817Y503336D01*
X261756Y503256D01*
X261697Y503174D01*
X261642Y503090D01*
X261590Y503004D01*
X261541Y502916D01*
X261496Y502826D01*
X261454Y502734D01*
X261416Y502641D01*
X261382Y502546D01*
X261351Y502451D01*
X261324Y502354D01*
X261301Y502256D01*
X261281Y502157D01*
X261266Y502057D01*
X261254Y501957D01*
X261246Y501857D01*
X261242Y501756D01*
X261242Y501656D01*
X261246Y501555D01*
X261254Y501455D01*
X261266Y501355D01*
X261281Y501255D01*
X261301Y501156D01*
X261324Y501058D01*
X261351Y500961D01*
X261382Y500866D01*
X261416Y500771D01*
X261454Y500678D01*
X261496Y500586D01*
X261541Y500496D01*
X261590Y500408D01*
X261642Y500322D01*
X261697Y500238D01*
X261756Y500156D01*
X261817Y500076D01*
X261882Y499999D01*
X261950Y499925D01*
X262020Y499853D01*
X262093Y499784D01*
X262169Y499717D01*
X262248Y499654D01*
X262328Y499594D01*
X262411Y499537D01*
X262497Y499483D01*
X262584Y499433D01*
X262673Y499386D01*
X262764Y499343D01*
X262856Y499303D01*
X262950Y499267D01*
X263045Y499234D01*
X263142Y499205D01*
X263239Y499180D01*
X263338Y499159D01*
X263437Y499141D01*
X263537Y499128D01*
X263637Y499118D01*
X263737Y499112D01*
X263838Y499110D01*
X263189Y509396D02*
X269031Y509396D01*
X263189Y509396D02*
X263102Y509398D01*
X263014Y509404D01*
X262928Y509414D01*
X262841Y509427D01*
X262756Y509445D01*
X262671Y509466D01*
X262587Y509491D01*
X262505Y509520D01*
X262424Y509553D01*
X262344Y509589D01*
X262266Y509628D01*
X262190Y509672D01*
X262116Y509718D01*
X262045Y509768D01*
X261975Y509821D01*
X261908Y509877D01*
X261844Y509936D01*
X261782Y509998D01*
X261723Y510062D01*
X261667Y510129D01*
X261614Y510199D01*
X261564Y510270D01*
X261518Y510344D01*
X261474Y510420D01*
X261435Y510498D01*
X261399Y510578D01*
X261366Y510659D01*
X261337Y510741D01*
X261312Y510825D01*
X261291Y510910D01*
X261273Y510995D01*
X261260Y511082D01*
X261250Y511168D01*
X261244Y511256D01*
X261242Y511343D01*
X261242Y514589D01*
X269031Y514589D01*
X269031Y520130D02*
X261242Y520130D01*
X269031Y520130D02*
X269031Y524025D01*
X267733Y524025D01*
X261242Y529645D02*
X261242Y532241D01*
X261242Y529645D02*
X261244Y529558D01*
X261250Y529470D01*
X261260Y529384D01*
X261273Y529297D01*
X261291Y529212D01*
X261312Y529127D01*
X261337Y529043D01*
X261366Y528961D01*
X261399Y528880D01*
X261435Y528800D01*
X261474Y528722D01*
X261518Y528646D01*
X261564Y528572D01*
X261614Y528501D01*
X261667Y528431D01*
X261723Y528364D01*
X261782Y528300D01*
X261844Y528238D01*
X261908Y528179D01*
X261975Y528123D01*
X262045Y528070D01*
X262116Y528020D01*
X262190Y527974D01*
X262266Y527930D01*
X262344Y527891D01*
X262424Y527855D01*
X262505Y527822D01*
X262587Y527793D01*
X262671Y527768D01*
X262756Y527747D01*
X262841Y527729D01*
X262928Y527716D01*
X263014Y527706D01*
X263102Y527700D01*
X263189Y527698D01*
X263189Y527697D02*
X267084Y527697D01*
X267084Y527698D02*
X267171Y527700D01*
X267259Y527706D01*
X267345Y527716D01*
X267432Y527729D01*
X267517Y527747D01*
X267602Y527768D01*
X267686Y527793D01*
X267768Y527822D01*
X267849Y527855D01*
X267929Y527891D01*
X268007Y527930D01*
X268083Y527974D01*
X268157Y528020D01*
X268228Y528070D01*
X268298Y528123D01*
X268365Y528179D01*
X268429Y528238D01*
X268491Y528300D01*
X268550Y528364D01*
X268606Y528431D01*
X268659Y528501D01*
X268709Y528572D01*
X268755Y528646D01*
X268799Y528722D01*
X268838Y528800D01*
X268874Y528880D01*
X268907Y528961D01*
X268936Y529043D01*
X268961Y529127D01*
X268982Y529212D01*
X269000Y529297D01*
X269013Y529384D01*
X269023Y529470D01*
X269029Y529558D01*
X269031Y529645D01*
X269031Y532241D01*
X261242Y538394D02*
X261242Y541640D01*
X261242Y538394D02*
X261244Y538307D01*
X261250Y538219D01*
X261260Y538133D01*
X261273Y538046D01*
X261291Y537961D01*
X261312Y537876D01*
X261337Y537792D01*
X261366Y537710D01*
X261399Y537629D01*
X261435Y537549D01*
X261474Y537471D01*
X261518Y537395D01*
X261564Y537321D01*
X261614Y537250D01*
X261667Y537180D01*
X261723Y537113D01*
X261782Y537049D01*
X261844Y536987D01*
X261908Y536928D01*
X261975Y536872D01*
X262045Y536819D01*
X262116Y536769D01*
X262190Y536723D01*
X262266Y536679D01*
X262344Y536640D01*
X262424Y536604D01*
X262505Y536571D01*
X262587Y536542D01*
X262671Y536517D01*
X262756Y536496D01*
X262841Y536478D01*
X262928Y536465D01*
X263014Y536455D01*
X263102Y536449D01*
X263189Y536447D01*
X266435Y536447D01*
X266536Y536449D01*
X266636Y536455D01*
X266736Y536465D01*
X266836Y536478D01*
X266935Y536496D01*
X267034Y536517D01*
X267131Y536542D01*
X267228Y536571D01*
X267323Y536604D01*
X267417Y536640D01*
X267509Y536680D01*
X267600Y536723D01*
X267689Y536770D01*
X267776Y536820D01*
X267862Y536874D01*
X267945Y536931D01*
X268025Y536991D01*
X268104Y537054D01*
X268180Y537121D01*
X268253Y537190D01*
X268323Y537262D01*
X268391Y537336D01*
X268456Y537413D01*
X268517Y537493D01*
X268576Y537575D01*
X268631Y537659D01*
X268683Y537745D01*
X268732Y537833D01*
X268777Y537923D01*
X268819Y538015D01*
X268857Y538108D01*
X268891Y538203D01*
X268922Y538298D01*
X268949Y538395D01*
X268972Y538493D01*
X268992Y538592D01*
X269007Y538692D01*
X269019Y538792D01*
X269027Y538892D01*
X269031Y538993D01*
X269031Y539093D01*
X269027Y539194D01*
X269019Y539294D01*
X269007Y539394D01*
X268992Y539494D01*
X268972Y539593D01*
X268949Y539691D01*
X268922Y539788D01*
X268891Y539883D01*
X268857Y539978D01*
X268819Y540071D01*
X268777Y540163D01*
X268732Y540253D01*
X268683Y540341D01*
X268631Y540427D01*
X268576Y540511D01*
X268517Y540593D01*
X268456Y540673D01*
X268391Y540750D01*
X268323Y540824D01*
X268253Y540896D01*
X268180Y540965D01*
X268104Y541032D01*
X268025Y541095D01*
X267945Y541155D01*
X267862Y541212D01*
X267776Y541266D01*
X267689Y541316D01*
X267600Y541363D01*
X267509Y541406D01*
X267417Y541446D01*
X267323Y541482D01*
X267228Y541515D01*
X267131Y541544D01*
X267034Y541569D01*
X266935Y541590D01*
X266836Y541608D01*
X266736Y541621D01*
X266636Y541631D01*
X266536Y541637D01*
X266435Y541639D01*
X266435Y541640D02*
X265137Y541640D01*
X265137Y536447D01*
X253876Y454723D02*
X242192Y454723D01*
X249981Y454723D02*
X249981Y457968D01*
X249979Y458055D01*
X249973Y458143D01*
X249963Y458229D01*
X249950Y458316D01*
X249932Y458401D01*
X249911Y458486D01*
X249886Y458570D01*
X249857Y458652D01*
X249824Y458733D01*
X249788Y458813D01*
X249749Y458891D01*
X249705Y458967D01*
X249659Y459041D01*
X249609Y459112D01*
X249556Y459182D01*
X249500Y459249D01*
X249441Y459313D01*
X249379Y459375D01*
X249315Y459434D01*
X249248Y459490D01*
X249178Y459543D01*
X249107Y459593D01*
X249033Y459639D01*
X248957Y459683D01*
X248879Y459722D01*
X248799Y459758D01*
X248718Y459791D01*
X248636Y459820D01*
X248552Y459845D01*
X248467Y459866D01*
X248382Y459884D01*
X248295Y459897D01*
X248209Y459907D01*
X248121Y459913D01*
X248034Y459915D01*
X242192Y459915D01*
X246736Y467223D02*
X246736Y470144D01*
X246736Y467223D02*
X246734Y467129D01*
X246728Y467035D01*
X246719Y466942D01*
X246705Y466849D01*
X246688Y466757D01*
X246666Y466665D01*
X246642Y466575D01*
X246613Y466485D01*
X246581Y466397D01*
X246545Y466310D01*
X246505Y466225D01*
X246462Y466142D01*
X246416Y466060D01*
X246366Y465980D01*
X246313Y465903D01*
X246257Y465828D01*
X246198Y465755D01*
X246136Y465684D01*
X246071Y465616D01*
X246003Y465551D01*
X245932Y465489D01*
X245859Y465430D01*
X245784Y465374D01*
X245707Y465321D01*
X245627Y465271D01*
X245545Y465225D01*
X245462Y465182D01*
X245377Y465142D01*
X245290Y465106D01*
X245202Y465074D01*
X245112Y465045D01*
X245022Y465021D01*
X244930Y464999D01*
X244838Y464982D01*
X244745Y464968D01*
X244652Y464959D01*
X244558Y464953D01*
X244464Y464951D01*
X244370Y464953D01*
X244276Y464959D01*
X244183Y464968D01*
X244090Y464982D01*
X243998Y464999D01*
X243906Y465021D01*
X243816Y465045D01*
X243726Y465074D01*
X243638Y465106D01*
X243551Y465142D01*
X243466Y465182D01*
X243383Y465225D01*
X243301Y465271D01*
X243221Y465321D01*
X243144Y465374D01*
X243069Y465430D01*
X242996Y465489D01*
X242925Y465551D01*
X242857Y465616D01*
X242792Y465684D01*
X242730Y465755D01*
X242671Y465828D01*
X242615Y465903D01*
X242562Y465980D01*
X242512Y466060D01*
X242466Y466142D01*
X242423Y466225D01*
X242383Y466310D01*
X242347Y466397D01*
X242315Y466485D01*
X242286Y466575D01*
X242262Y466665D01*
X242240Y466757D01*
X242223Y466849D01*
X242209Y466942D01*
X242200Y467035D01*
X242194Y467129D01*
X242192Y467223D01*
X242192Y470144D01*
X248034Y470144D01*
X248034Y470143D02*
X248121Y470141D01*
X248209Y470135D01*
X248295Y470125D01*
X248382Y470112D01*
X248467Y470094D01*
X248552Y470073D01*
X248636Y470048D01*
X248718Y470019D01*
X248799Y469986D01*
X248879Y469950D01*
X248957Y469911D01*
X249033Y469867D01*
X249107Y469821D01*
X249178Y469771D01*
X249248Y469718D01*
X249315Y469662D01*
X249379Y469603D01*
X249441Y469541D01*
X249500Y469477D01*
X249556Y469410D01*
X249609Y469340D01*
X249659Y469269D01*
X249705Y469195D01*
X249749Y469119D01*
X249788Y469041D01*
X249824Y468961D01*
X249857Y468880D01*
X249886Y468798D01*
X249911Y468714D01*
X249932Y468629D01*
X249950Y468544D01*
X249963Y468457D01*
X249973Y468371D01*
X249979Y468283D01*
X249981Y468196D01*
X249981Y465600D01*
X249981Y475744D02*
X242192Y475744D01*
X249981Y475744D02*
X249981Y479639D01*
X248683Y479639D01*
X253876Y488432D02*
X242192Y488432D01*
X242192Y485186D01*
X242194Y485099D01*
X242200Y485011D01*
X242210Y484925D01*
X242223Y484838D01*
X242241Y484753D01*
X242262Y484668D01*
X242287Y484584D01*
X242316Y484502D01*
X242349Y484421D01*
X242385Y484341D01*
X242424Y484263D01*
X242468Y484187D01*
X242514Y484113D01*
X242564Y484042D01*
X242617Y483972D01*
X242673Y483905D01*
X242732Y483841D01*
X242794Y483779D01*
X242858Y483720D01*
X242925Y483664D01*
X242995Y483611D01*
X243066Y483561D01*
X243140Y483515D01*
X243216Y483471D01*
X243294Y483432D01*
X243374Y483396D01*
X243455Y483363D01*
X243537Y483334D01*
X243621Y483309D01*
X243706Y483288D01*
X243791Y483270D01*
X243878Y483257D01*
X243964Y483247D01*
X244052Y483241D01*
X244139Y483239D01*
X248034Y483239D01*
X248121Y483241D01*
X248209Y483247D01*
X248295Y483257D01*
X248382Y483270D01*
X248467Y483288D01*
X248552Y483309D01*
X248636Y483334D01*
X248718Y483363D01*
X248799Y483396D01*
X248879Y483432D01*
X248957Y483471D01*
X249033Y483515D01*
X249107Y483561D01*
X249178Y483611D01*
X249248Y483664D01*
X249315Y483720D01*
X249379Y483779D01*
X249441Y483841D01*
X249500Y483905D01*
X249556Y483972D01*
X249609Y484042D01*
X249659Y484113D01*
X249705Y484187D01*
X249749Y484263D01*
X249788Y484341D01*
X249824Y484421D01*
X249857Y484502D01*
X249886Y484584D01*
X249911Y484668D01*
X249932Y484753D01*
X249950Y484838D01*
X249963Y484925D01*
X249973Y485011D01*
X249979Y485099D01*
X249981Y485186D01*
X249981Y488432D01*
X249981Y493429D02*
X242192Y495377D01*
X247385Y497324D01*
X242192Y499271D01*
X249981Y501219D01*
X246736Y507990D02*
X246736Y510911D01*
X246736Y507990D02*
X246734Y507896D01*
X246728Y507802D01*
X246719Y507709D01*
X246705Y507616D01*
X246688Y507524D01*
X246666Y507432D01*
X246642Y507342D01*
X246613Y507252D01*
X246581Y507164D01*
X246545Y507077D01*
X246505Y506992D01*
X246462Y506909D01*
X246416Y506827D01*
X246366Y506747D01*
X246313Y506670D01*
X246257Y506595D01*
X246198Y506522D01*
X246136Y506451D01*
X246071Y506383D01*
X246003Y506318D01*
X245932Y506256D01*
X245859Y506197D01*
X245784Y506141D01*
X245707Y506088D01*
X245627Y506038D01*
X245545Y505992D01*
X245462Y505949D01*
X245377Y505909D01*
X245290Y505873D01*
X245202Y505841D01*
X245112Y505812D01*
X245022Y505788D01*
X244930Y505766D01*
X244838Y505749D01*
X244745Y505735D01*
X244652Y505726D01*
X244558Y505720D01*
X244464Y505718D01*
X244370Y505720D01*
X244276Y505726D01*
X244183Y505735D01*
X244090Y505749D01*
X243998Y505766D01*
X243906Y505788D01*
X243816Y505812D01*
X243726Y505841D01*
X243638Y505873D01*
X243551Y505909D01*
X243466Y505949D01*
X243383Y505992D01*
X243301Y506038D01*
X243221Y506088D01*
X243144Y506141D01*
X243069Y506197D01*
X242996Y506256D01*
X242925Y506318D01*
X242857Y506383D01*
X242792Y506451D01*
X242730Y506522D01*
X242671Y506595D01*
X242615Y506670D01*
X242562Y506747D01*
X242512Y506827D01*
X242466Y506909D01*
X242423Y506992D01*
X242383Y507077D01*
X242347Y507164D01*
X242315Y507252D01*
X242286Y507342D01*
X242262Y507432D01*
X242240Y507524D01*
X242223Y507616D01*
X242209Y507709D01*
X242200Y507802D01*
X242194Y507896D01*
X242192Y507990D01*
X242192Y510911D01*
X248034Y510911D01*
X248034Y510910D02*
X248121Y510908D01*
X248209Y510902D01*
X248295Y510892D01*
X248382Y510879D01*
X248467Y510861D01*
X248552Y510840D01*
X248636Y510815D01*
X248718Y510786D01*
X248799Y510753D01*
X248879Y510717D01*
X248957Y510678D01*
X249033Y510634D01*
X249107Y510588D01*
X249178Y510538D01*
X249248Y510485D01*
X249315Y510429D01*
X249379Y510370D01*
X249441Y510308D01*
X249500Y510244D01*
X249556Y510177D01*
X249609Y510107D01*
X249659Y510036D01*
X249705Y509962D01*
X249749Y509886D01*
X249788Y509808D01*
X249824Y509728D01*
X249857Y509647D01*
X249886Y509565D01*
X249911Y509481D01*
X249932Y509396D01*
X249950Y509311D01*
X249963Y509224D01*
X249973Y509138D01*
X249979Y509050D01*
X249981Y508963D01*
X249981Y506367D01*
X249981Y516511D02*
X242192Y516511D01*
X249981Y516511D02*
X249981Y520406D01*
X248683Y520406D01*
X242192Y526012D02*
X242192Y529257D01*
X242192Y526012D02*
X242194Y525925D01*
X242200Y525837D01*
X242210Y525751D01*
X242223Y525664D01*
X242241Y525579D01*
X242262Y525494D01*
X242287Y525410D01*
X242316Y525328D01*
X242349Y525247D01*
X242385Y525167D01*
X242424Y525089D01*
X242468Y525013D01*
X242514Y524939D01*
X242564Y524868D01*
X242617Y524798D01*
X242673Y524731D01*
X242732Y524667D01*
X242794Y524605D01*
X242858Y524546D01*
X242925Y524490D01*
X242995Y524437D01*
X243066Y524387D01*
X243140Y524341D01*
X243216Y524297D01*
X243294Y524258D01*
X243374Y524222D01*
X243455Y524189D01*
X243537Y524160D01*
X243621Y524135D01*
X243706Y524114D01*
X243791Y524096D01*
X243878Y524083D01*
X243964Y524073D01*
X244052Y524067D01*
X244139Y524065D01*
X247385Y524065D01*
X247486Y524067D01*
X247586Y524073D01*
X247686Y524083D01*
X247786Y524096D01*
X247885Y524114D01*
X247984Y524135D01*
X248081Y524160D01*
X248178Y524189D01*
X248273Y524222D01*
X248367Y524258D01*
X248459Y524298D01*
X248550Y524341D01*
X248639Y524388D01*
X248726Y524438D01*
X248812Y524492D01*
X248895Y524549D01*
X248975Y524609D01*
X249054Y524672D01*
X249130Y524739D01*
X249203Y524808D01*
X249273Y524880D01*
X249341Y524954D01*
X249406Y525031D01*
X249467Y525111D01*
X249526Y525193D01*
X249581Y525277D01*
X249633Y525363D01*
X249682Y525451D01*
X249727Y525541D01*
X249769Y525633D01*
X249807Y525726D01*
X249841Y525821D01*
X249872Y525916D01*
X249899Y526013D01*
X249922Y526111D01*
X249942Y526210D01*
X249957Y526310D01*
X249969Y526410D01*
X249977Y526510D01*
X249981Y526611D01*
X249981Y526711D01*
X249977Y526812D01*
X249969Y526912D01*
X249957Y527012D01*
X249942Y527112D01*
X249922Y527211D01*
X249899Y527309D01*
X249872Y527406D01*
X249841Y527501D01*
X249807Y527596D01*
X249769Y527689D01*
X249727Y527781D01*
X249682Y527871D01*
X249633Y527959D01*
X249581Y528045D01*
X249526Y528129D01*
X249467Y528211D01*
X249406Y528291D01*
X249341Y528368D01*
X249273Y528442D01*
X249203Y528514D01*
X249130Y528583D01*
X249054Y528650D01*
X248975Y528713D01*
X248895Y528773D01*
X248812Y528830D01*
X248726Y528884D01*
X248639Y528934D01*
X248550Y528981D01*
X248459Y529024D01*
X248367Y529064D01*
X248273Y529100D01*
X248178Y529133D01*
X248081Y529162D01*
X247984Y529187D01*
X247885Y529208D01*
X247786Y529226D01*
X247686Y529239D01*
X247586Y529249D01*
X247486Y529255D01*
X247385Y529257D01*
X246087Y529257D01*
X246087Y524065D01*
X120925Y152170D02*
X118328Y152170D01*
X120925Y152171D02*
X121026Y152173D01*
X121126Y152179D01*
X121226Y152189D01*
X121326Y152202D01*
X121425Y152220D01*
X121524Y152241D01*
X121621Y152266D01*
X121718Y152295D01*
X121813Y152328D01*
X121907Y152364D01*
X121999Y152404D01*
X122090Y152447D01*
X122179Y152494D01*
X122266Y152544D01*
X122352Y152598D01*
X122435Y152655D01*
X122515Y152715D01*
X122594Y152778D01*
X122670Y152845D01*
X122743Y152914D01*
X122813Y152986D01*
X122881Y153060D01*
X122946Y153137D01*
X123007Y153217D01*
X123066Y153299D01*
X123121Y153383D01*
X123173Y153469D01*
X123222Y153557D01*
X123267Y153647D01*
X123309Y153739D01*
X123347Y153832D01*
X123381Y153927D01*
X123412Y154022D01*
X123439Y154119D01*
X123462Y154217D01*
X123482Y154316D01*
X123497Y154416D01*
X123509Y154516D01*
X123517Y154616D01*
X123521Y154717D01*
X123521Y154817D01*
X123517Y154918D01*
X123509Y155018D01*
X123497Y155118D01*
X123482Y155218D01*
X123462Y155317D01*
X123439Y155415D01*
X123412Y155512D01*
X123381Y155607D01*
X123347Y155702D01*
X123309Y155795D01*
X123267Y155887D01*
X123222Y155977D01*
X123173Y156065D01*
X123121Y156151D01*
X123066Y156235D01*
X123007Y156317D01*
X122946Y156397D01*
X122881Y156474D01*
X122813Y156548D01*
X122743Y156620D01*
X122670Y156689D01*
X122594Y156756D01*
X122515Y156819D01*
X122435Y156879D01*
X122352Y156936D01*
X122266Y156990D01*
X122179Y157040D01*
X122090Y157087D01*
X121999Y157130D01*
X121907Y157170D01*
X121813Y157206D01*
X121718Y157239D01*
X121621Y157268D01*
X121524Y157293D01*
X121425Y157314D01*
X121326Y157332D01*
X121226Y157345D01*
X121126Y157355D01*
X121026Y157361D01*
X120925Y157363D01*
X118328Y157363D01*
X118227Y157361D01*
X118127Y157355D01*
X118027Y157345D01*
X117927Y157332D01*
X117828Y157314D01*
X117729Y157293D01*
X117632Y157268D01*
X117535Y157239D01*
X117440Y157206D01*
X117346Y157170D01*
X117254Y157130D01*
X117163Y157087D01*
X117074Y157040D01*
X116987Y156990D01*
X116901Y156936D01*
X116818Y156879D01*
X116738Y156819D01*
X116659Y156756D01*
X116583Y156689D01*
X116510Y156620D01*
X116440Y156548D01*
X116372Y156474D01*
X116307Y156397D01*
X116246Y156317D01*
X116187Y156235D01*
X116132Y156151D01*
X116080Y156065D01*
X116031Y155977D01*
X115986Y155887D01*
X115944Y155795D01*
X115906Y155702D01*
X115872Y155607D01*
X115841Y155512D01*
X115814Y155415D01*
X115791Y155317D01*
X115771Y155218D01*
X115756Y155118D01*
X115744Y155018D01*
X115736Y154918D01*
X115732Y154817D01*
X115732Y154717D01*
X115736Y154616D01*
X115744Y154516D01*
X115756Y154416D01*
X115771Y154316D01*
X115791Y154217D01*
X115814Y154119D01*
X115841Y154022D01*
X115872Y153927D01*
X115906Y153832D01*
X115944Y153739D01*
X115986Y153647D01*
X116031Y153557D01*
X116080Y153469D01*
X116132Y153383D01*
X116187Y153299D01*
X116246Y153217D01*
X116307Y153137D01*
X116372Y153060D01*
X116440Y152986D01*
X116510Y152914D01*
X116583Y152845D01*
X116659Y152778D01*
X116738Y152715D01*
X116818Y152655D01*
X116901Y152598D01*
X116987Y152544D01*
X117074Y152494D01*
X117163Y152447D01*
X117254Y152404D01*
X117346Y152364D01*
X117440Y152328D01*
X117535Y152295D01*
X117632Y152266D01*
X117729Y152241D01*
X117828Y152220D01*
X117927Y152202D01*
X118027Y152189D01*
X118127Y152179D01*
X118227Y152173D01*
X118328Y152171D01*
X123521Y162516D02*
X111837Y162516D01*
X123521Y162516D02*
X123521Y165762D01*
X123519Y165849D01*
X123513Y165937D01*
X123503Y166023D01*
X123490Y166110D01*
X123472Y166195D01*
X123451Y166280D01*
X123426Y166364D01*
X123397Y166446D01*
X123364Y166527D01*
X123328Y166607D01*
X123289Y166685D01*
X123245Y166761D01*
X123199Y166835D01*
X123149Y166906D01*
X123096Y166976D01*
X123040Y167043D01*
X122981Y167107D01*
X122919Y167169D01*
X122855Y167228D01*
X122788Y167284D01*
X122718Y167337D01*
X122647Y167387D01*
X122573Y167433D01*
X122497Y167477D01*
X122419Y167516D01*
X122339Y167552D01*
X122258Y167585D01*
X122176Y167614D01*
X122092Y167639D01*
X122007Y167660D01*
X121922Y167678D01*
X121835Y167691D01*
X121749Y167701D01*
X121661Y167707D01*
X121574Y167709D01*
X117679Y167709D01*
X117592Y167707D01*
X117504Y167701D01*
X117418Y167691D01*
X117331Y167678D01*
X117246Y167660D01*
X117161Y167639D01*
X117077Y167614D01*
X116995Y167585D01*
X116914Y167552D01*
X116834Y167516D01*
X116756Y167477D01*
X116680Y167433D01*
X116606Y167387D01*
X116535Y167337D01*
X116465Y167284D01*
X116398Y167228D01*
X116334Y167169D01*
X116272Y167107D01*
X116213Y167043D01*
X116157Y166976D01*
X116104Y166906D01*
X116054Y166835D01*
X116008Y166761D01*
X115964Y166685D01*
X115925Y166607D01*
X115889Y166527D01*
X115856Y166446D01*
X115827Y166364D01*
X115802Y166280D01*
X115781Y166195D01*
X115763Y166110D01*
X115750Y166023D01*
X115740Y165937D01*
X115734Y165849D01*
X115732Y165762D01*
X115732Y162516D01*
X115732Y174310D02*
X115732Y177556D01*
X115732Y174310D02*
X115734Y174223D01*
X115740Y174135D01*
X115750Y174049D01*
X115763Y173962D01*
X115781Y173877D01*
X115802Y173792D01*
X115827Y173708D01*
X115856Y173626D01*
X115889Y173545D01*
X115925Y173465D01*
X115964Y173387D01*
X116008Y173311D01*
X116054Y173237D01*
X116104Y173166D01*
X116157Y173096D01*
X116213Y173029D01*
X116272Y172965D01*
X116334Y172903D01*
X116398Y172844D01*
X116465Y172788D01*
X116535Y172735D01*
X116606Y172685D01*
X116680Y172639D01*
X116756Y172595D01*
X116834Y172556D01*
X116914Y172520D01*
X116995Y172487D01*
X117077Y172458D01*
X117161Y172433D01*
X117246Y172412D01*
X117331Y172394D01*
X117418Y172381D01*
X117504Y172371D01*
X117592Y172365D01*
X117679Y172363D01*
X120925Y172363D01*
X120925Y172364D02*
X121026Y172366D01*
X121126Y172372D01*
X121226Y172382D01*
X121326Y172395D01*
X121425Y172413D01*
X121524Y172434D01*
X121621Y172459D01*
X121718Y172488D01*
X121813Y172521D01*
X121907Y172557D01*
X121999Y172597D01*
X122090Y172640D01*
X122179Y172687D01*
X122266Y172737D01*
X122352Y172791D01*
X122435Y172848D01*
X122515Y172908D01*
X122594Y172971D01*
X122670Y173038D01*
X122743Y173107D01*
X122813Y173179D01*
X122881Y173253D01*
X122946Y173330D01*
X123007Y173410D01*
X123066Y173492D01*
X123121Y173576D01*
X123173Y173662D01*
X123222Y173750D01*
X123267Y173840D01*
X123309Y173932D01*
X123347Y174025D01*
X123381Y174120D01*
X123412Y174215D01*
X123439Y174312D01*
X123462Y174410D01*
X123482Y174509D01*
X123497Y174609D01*
X123509Y174709D01*
X123517Y174809D01*
X123521Y174910D01*
X123521Y175010D01*
X123517Y175111D01*
X123509Y175211D01*
X123497Y175311D01*
X123482Y175411D01*
X123462Y175510D01*
X123439Y175608D01*
X123412Y175705D01*
X123381Y175800D01*
X123347Y175895D01*
X123309Y175988D01*
X123267Y176080D01*
X123222Y176170D01*
X123173Y176258D01*
X123121Y176344D01*
X123066Y176428D01*
X123007Y176510D01*
X122946Y176590D01*
X122881Y176667D01*
X122813Y176741D01*
X122743Y176813D01*
X122670Y176882D01*
X122594Y176949D01*
X122515Y177012D01*
X122435Y177072D01*
X122352Y177129D01*
X122266Y177183D01*
X122179Y177233D01*
X122090Y177280D01*
X121999Y177323D01*
X121907Y177363D01*
X121813Y177399D01*
X121718Y177432D01*
X121621Y177461D01*
X121524Y177486D01*
X121425Y177507D01*
X121326Y177525D01*
X121226Y177538D01*
X121126Y177548D01*
X121026Y177554D01*
X120925Y177556D01*
X119627Y177556D01*
X119627Y172363D01*
X115732Y182650D02*
X123521Y182650D01*
X123521Y185896D01*
X123519Y185983D01*
X123513Y186071D01*
X123503Y186157D01*
X123490Y186244D01*
X123472Y186329D01*
X123451Y186414D01*
X123426Y186498D01*
X123397Y186580D01*
X123364Y186661D01*
X123328Y186741D01*
X123289Y186819D01*
X123245Y186895D01*
X123199Y186969D01*
X123149Y187040D01*
X123096Y187110D01*
X123040Y187177D01*
X122981Y187241D01*
X122919Y187303D01*
X122855Y187362D01*
X122788Y187418D01*
X122718Y187471D01*
X122647Y187521D01*
X122573Y187567D01*
X122497Y187611D01*
X122419Y187650D01*
X122339Y187686D01*
X122258Y187719D01*
X122176Y187748D01*
X122092Y187773D01*
X122007Y187794D01*
X121922Y187812D01*
X121835Y187825D01*
X121749Y187835D01*
X121661Y187841D01*
X121574Y187843D01*
X115732Y187843D01*
X120276Y200007D02*
X118978Y203252D01*
X120275Y200007D02*
X120308Y199932D01*
X120344Y199858D01*
X120383Y199786D01*
X120426Y199716D01*
X120472Y199649D01*
X120522Y199583D01*
X120574Y199521D01*
X120630Y199460D01*
X120688Y199403D01*
X120749Y199348D01*
X120813Y199297D01*
X120879Y199249D01*
X120948Y199204D01*
X121018Y199162D01*
X121091Y199124D01*
X121165Y199089D01*
X121241Y199058D01*
X121318Y199031D01*
X121397Y199008D01*
X121476Y198988D01*
X121557Y198973D01*
X121638Y198961D01*
X121720Y198953D01*
X121801Y198949D01*
X121883Y198950D01*
X121965Y198954D01*
X122047Y198962D01*
X122128Y198974D01*
X122208Y198990D01*
X122288Y199010D01*
X122366Y199034D01*
X122443Y199062D01*
X122519Y199093D01*
X122593Y199128D01*
X122665Y199166D01*
X122736Y199208D01*
X122804Y199254D01*
X122870Y199302D01*
X122933Y199354D01*
X122994Y199409D01*
X123052Y199467D01*
X123108Y199527D01*
X123160Y199590D01*
X123209Y199656D01*
X123255Y199724D01*
X123297Y199794D01*
X123337Y199866D01*
X123372Y199940D01*
X123404Y200015D01*
X123432Y200092D01*
X123456Y200170D01*
X123477Y200250D01*
X123494Y200330D01*
X123506Y200411D01*
X123515Y200492D01*
X123520Y200574D01*
X123521Y200656D01*
X123517Y200833D01*
X123508Y201010D01*
X123494Y201187D01*
X123477Y201364D01*
X123455Y201539D01*
X123430Y201715D01*
X123399Y201889D01*
X123365Y202063D01*
X123327Y202236D01*
X123284Y202408D01*
X123237Y202579D01*
X123187Y202749D01*
X123132Y202918D01*
X123073Y203085D01*
X123010Y203250D01*
X122943Y203415D01*
X122872Y203577D01*
X118978Y203252D02*
X118945Y203327D01*
X118909Y203401D01*
X118870Y203473D01*
X118827Y203543D01*
X118781Y203610D01*
X118731Y203676D01*
X118679Y203738D01*
X118623Y203799D01*
X118565Y203856D01*
X118504Y203911D01*
X118440Y203962D01*
X118374Y204010D01*
X118305Y204055D01*
X118235Y204097D01*
X118162Y204135D01*
X118088Y204170D01*
X118012Y204201D01*
X117935Y204228D01*
X117856Y204251D01*
X117777Y204271D01*
X117696Y204286D01*
X117615Y204298D01*
X117533Y204306D01*
X117452Y204310D01*
X117370Y204309D01*
X117288Y204305D01*
X117206Y204297D01*
X117125Y204285D01*
X117045Y204269D01*
X116965Y204249D01*
X116887Y204225D01*
X116810Y204197D01*
X116734Y204166D01*
X116660Y204131D01*
X116588Y204093D01*
X116517Y204051D01*
X116449Y204005D01*
X116383Y203957D01*
X116320Y203905D01*
X116259Y203850D01*
X116201Y203792D01*
X116145Y203732D01*
X116093Y203669D01*
X116044Y203603D01*
X115998Y203535D01*
X115956Y203465D01*
X115916Y203393D01*
X115881Y203319D01*
X115849Y203244D01*
X115821Y203167D01*
X115797Y203089D01*
X115776Y203009D01*
X115759Y202929D01*
X115747Y202848D01*
X115738Y202767D01*
X115733Y202685D01*
X115732Y202603D01*
X115739Y202343D01*
X115752Y202083D01*
X115771Y201823D01*
X115796Y201564D01*
X115828Y201305D01*
X115865Y201048D01*
X115909Y200791D01*
X115958Y200535D01*
X116014Y200281D01*
X116075Y200028D01*
X116143Y199777D01*
X116217Y199527D01*
X116296Y199279D01*
X116381Y199033D01*
X118328Y208939D02*
X120925Y208939D01*
X120925Y208940D02*
X121026Y208942D01*
X121126Y208948D01*
X121226Y208958D01*
X121326Y208971D01*
X121425Y208989D01*
X121524Y209010D01*
X121621Y209035D01*
X121718Y209064D01*
X121813Y209097D01*
X121907Y209133D01*
X121999Y209173D01*
X122090Y209216D01*
X122179Y209263D01*
X122266Y209313D01*
X122352Y209367D01*
X122435Y209424D01*
X122515Y209484D01*
X122594Y209547D01*
X122670Y209614D01*
X122743Y209683D01*
X122813Y209755D01*
X122881Y209829D01*
X122946Y209906D01*
X123007Y209986D01*
X123066Y210068D01*
X123121Y210152D01*
X123173Y210238D01*
X123222Y210326D01*
X123267Y210416D01*
X123309Y210508D01*
X123347Y210601D01*
X123381Y210696D01*
X123412Y210791D01*
X123439Y210888D01*
X123462Y210986D01*
X123482Y211085D01*
X123497Y211185D01*
X123509Y211285D01*
X123517Y211385D01*
X123521Y211486D01*
X123521Y211586D01*
X123517Y211687D01*
X123509Y211787D01*
X123497Y211887D01*
X123482Y211987D01*
X123462Y212086D01*
X123439Y212184D01*
X123412Y212281D01*
X123381Y212376D01*
X123347Y212471D01*
X123309Y212564D01*
X123267Y212656D01*
X123222Y212746D01*
X123173Y212834D01*
X123121Y212920D01*
X123066Y213004D01*
X123007Y213086D01*
X122946Y213166D01*
X122881Y213243D01*
X122813Y213317D01*
X122743Y213389D01*
X122670Y213458D01*
X122594Y213525D01*
X122515Y213588D01*
X122435Y213648D01*
X122352Y213705D01*
X122266Y213759D01*
X122179Y213809D01*
X122090Y213856D01*
X121999Y213899D01*
X121907Y213939D01*
X121813Y213975D01*
X121718Y214008D01*
X121621Y214037D01*
X121524Y214062D01*
X121425Y214083D01*
X121326Y214101D01*
X121226Y214114D01*
X121126Y214124D01*
X121026Y214130D01*
X120925Y214132D01*
X118328Y214132D01*
X118227Y214130D01*
X118127Y214124D01*
X118027Y214114D01*
X117927Y214101D01*
X117828Y214083D01*
X117729Y214062D01*
X117632Y214037D01*
X117535Y214008D01*
X117440Y213975D01*
X117346Y213939D01*
X117254Y213899D01*
X117163Y213856D01*
X117074Y213809D01*
X116987Y213759D01*
X116901Y213705D01*
X116818Y213648D01*
X116738Y213588D01*
X116659Y213525D01*
X116583Y213458D01*
X116510Y213389D01*
X116440Y213317D01*
X116372Y213243D01*
X116307Y213166D01*
X116246Y213086D01*
X116187Y213004D01*
X116132Y212920D01*
X116080Y212834D01*
X116031Y212746D01*
X115986Y212656D01*
X115944Y212564D01*
X115906Y212471D01*
X115872Y212376D01*
X115841Y212281D01*
X115814Y212184D01*
X115791Y212086D01*
X115771Y211987D01*
X115756Y211887D01*
X115744Y211787D01*
X115736Y211687D01*
X115732Y211586D01*
X115732Y211486D01*
X115736Y211385D01*
X115744Y211285D01*
X115756Y211185D01*
X115771Y211085D01*
X115791Y210986D01*
X115814Y210888D01*
X115841Y210791D01*
X115872Y210696D01*
X115906Y210601D01*
X115944Y210508D01*
X115986Y210416D01*
X116031Y210326D01*
X116080Y210238D01*
X116132Y210152D01*
X116187Y210068D01*
X116246Y209986D01*
X116307Y209906D01*
X116372Y209829D01*
X116440Y209755D01*
X116510Y209683D01*
X116583Y209614D01*
X116659Y209547D01*
X116738Y209484D01*
X116818Y209424D01*
X116901Y209367D01*
X116987Y209313D01*
X117074Y209263D01*
X117163Y209216D01*
X117254Y209173D01*
X117346Y209133D01*
X117440Y209097D01*
X117535Y209064D01*
X117632Y209035D01*
X117729Y209010D01*
X117828Y208989D01*
X117927Y208971D01*
X118027Y208958D01*
X118127Y208948D01*
X118227Y208942D01*
X118328Y208940D01*
X117679Y219226D02*
X123521Y219226D01*
X117679Y219226D02*
X117592Y219228D01*
X117504Y219234D01*
X117418Y219244D01*
X117331Y219257D01*
X117246Y219275D01*
X117161Y219296D01*
X117077Y219321D01*
X116995Y219350D01*
X116914Y219383D01*
X116834Y219419D01*
X116756Y219458D01*
X116680Y219502D01*
X116606Y219548D01*
X116535Y219598D01*
X116465Y219651D01*
X116398Y219707D01*
X116334Y219766D01*
X116272Y219828D01*
X116213Y219892D01*
X116157Y219959D01*
X116104Y220029D01*
X116054Y220100D01*
X116008Y220174D01*
X115964Y220250D01*
X115925Y220328D01*
X115889Y220408D01*
X115856Y220489D01*
X115827Y220571D01*
X115802Y220655D01*
X115781Y220740D01*
X115763Y220825D01*
X115750Y220912D01*
X115740Y220998D01*
X115734Y221086D01*
X115732Y221173D01*
X115732Y224419D01*
X123521Y224419D01*
X123521Y229960D02*
X115732Y229960D01*
X123521Y229960D02*
X123521Y233855D01*
X122223Y233855D01*
X115732Y239475D02*
X115732Y242071D01*
X115732Y239475D02*
X115734Y239388D01*
X115740Y239300D01*
X115750Y239214D01*
X115763Y239127D01*
X115781Y239042D01*
X115802Y238957D01*
X115827Y238873D01*
X115856Y238791D01*
X115889Y238710D01*
X115925Y238630D01*
X115964Y238552D01*
X116008Y238476D01*
X116054Y238402D01*
X116104Y238331D01*
X116157Y238261D01*
X116213Y238194D01*
X116272Y238130D01*
X116334Y238068D01*
X116398Y238009D01*
X116465Y237953D01*
X116535Y237900D01*
X116606Y237850D01*
X116680Y237804D01*
X116756Y237760D01*
X116834Y237721D01*
X116914Y237685D01*
X116995Y237652D01*
X117077Y237623D01*
X117161Y237598D01*
X117246Y237577D01*
X117331Y237559D01*
X117418Y237546D01*
X117504Y237536D01*
X117592Y237530D01*
X117679Y237528D01*
X117679Y237527D02*
X121574Y237527D01*
X121574Y237528D02*
X121661Y237530D01*
X121749Y237536D01*
X121835Y237546D01*
X121922Y237559D01*
X122007Y237577D01*
X122092Y237598D01*
X122176Y237623D01*
X122258Y237652D01*
X122339Y237685D01*
X122419Y237721D01*
X122497Y237760D01*
X122573Y237804D01*
X122647Y237850D01*
X122718Y237900D01*
X122788Y237953D01*
X122855Y238009D01*
X122919Y238068D01*
X122981Y238130D01*
X123040Y238194D01*
X123096Y238261D01*
X123149Y238331D01*
X123199Y238402D01*
X123245Y238476D01*
X123289Y238552D01*
X123328Y238630D01*
X123364Y238710D01*
X123397Y238791D01*
X123426Y238873D01*
X123451Y238957D01*
X123472Y239042D01*
X123490Y239127D01*
X123503Y239214D01*
X123513Y239300D01*
X123519Y239388D01*
X123521Y239475D01*
X123521Y242071D01*
X115732Y248224D02*
X115732Y251470D01*
X115732Y248224D02*
X115734Y248137D01*
X115740Y248049D01*
X115750Y247963D01*
X115763Y247876D01*
X115781Y247791D01*
X115802Y247706D01*
X115827Y247622D01*
X115856Y247540D01*
X115889Y247459D01*
X115925Y247379D01*
X115964Y247301D01*
X116008Y247225D01*
X116054Y247151D01*
X116104Y247080D01*
X116157Y247010D01*
X116213Y246943D01*
X116272Y246879D01*
X116334Y246817D01*
X116398Y246758D01*
X116465Y246702D01*
X116535Y246649D01*
X116606Y246599D01*
X116680Y246553D01*
X116756Y246509D01*
X116834Y246470D01*
X116914Y246434D01*
X116995Y246401D01*
X117077Y246372D01*
X117161Y246347D01*
X117246Y246326D01*
X117331Y246308D01*
X117418Y246295D01*
X117504Y246285D01*
X117592Y246279D01*
X117679Y246277D01*
X120925Y246277D01*
X121026Y246279D01*
X121126Y246285D01*
X121226Y246295D01*
X121326Y246308D01*
X121425Y246326D01*
X121524Y246347D01*
X121621Y246372D01*
X121718Y246401D01*
X121813Y246434D01*
X121907Y246470D01*
X121999Y246510D01*
X122090Y246553D01*
X122179Y246600D01*
X122266Y246650D01*
X122352Y246704D01*
X122435Y246761D01*
X122515Y246821D01*
X122594Y246884D01*
X122670Y246951D01*
X122743Y247020D01*
X122813Y247092D01*
X122881Y247166D01*
X122946Y247243D01*
X123007Y247323D01*
X123066Y247405D01*
X123121Y247489D01*
X123173Y247575D01*
X123222Y247663D01*
X123267Y247753D01*
X123309Y247845D01*
X123347Y247938D01*
X123381Y248033D01*
X123412Y248128D01*
X123439Y248225D01*
X123462Y248323D01*
X123482Y248422D01*
X123497Y248522D01*
X123509Y248622D01*
X123517Y248722D01*
X123521Y248823D01*
X123521Y248923D01*
X123517Y249024D01*
X123509Y249124D01*
X123497Y249224D01*
X123482Y249324D01*
X123462Y249423D01*
X123439Y249521D01*
X123412Y249618D01*
X123381Y249713D01*
X123347Y249808D01*
X123309Y249901D01*
X123267Y249993D01*
X123222Y250083D01*
X123173Y250171D01*
X123121Y250257D01*
X123066Y250341D01*
X123007Y250423D01*
X122946Y250503D01*
X122881Y250580D01*
X122813Y250654D01*
X122743Y250726D01*
X122670Y250795D01*
X122594Y250862D01*
X122515Y250925D01*
X122435Y250985D01*
X122352Y251042D01*
X122266Y251096D01*
X122179Y251146D01*
X122090Y251193D01*
X121999Y251236D01*
X121907Y251276D01*
X121813Y251312D01*
X121718Y251345D01*
X121621Y251374D01*
X121524Y251399D01*
X121425Y251420D01*
X121326Y251438D01*
X121226Y251451D01*
X121126Y251461D01*
X121026Y251467D01*
X120925Y251469D01*
X120925Y251470D02*
X119627Y251470D01*
X119627Y246277D01*
X108366Y164553D02*
X96682Y164553D01*
X104471Y164553D02*
X104471Y167798D01*
X104469Y167885D01*
X104463Y167973D01*
X104453Y168059D01*
X104440Y168146D01*
X104422Y168231D01*
X104401Y168316D01*
X104376Y168400D01*
X104347Y168482D01*
X104314Y168563D01*
X104278Y168643D01*
X104239Y168721D01*
X104195Y168797D01*
X104149Y168871D01*
X104099Y168942D01*
X104046Y169012D01*
X103990Y169079D01*
X103931Y169143D01*
X103869Y169205D01*
X103805Y169264D01*
X103738Y169320D01*
X103668Y169373D01*
X103597Y169423D01*
X103523Y169469D01*
X103447Y169513D01*
X103369Y169552D01*
X103289Y169588D01*
X103208Y169621D01*
X103126Y169650D01*
X103042Y169675D01*
X102957Y169696D01*
X102872Y169714D01*
X102785Y169727D01*
X102699Y169737D01*
X102611Y169743D01*
X102524Y169745D01*
X96682Y169745D01*
X101226Y177053D02*
X101226Y179974D01*
X101226Y177053D02*
X101224Y176959D01*
X101218Y176865D01*
X101209Y176772D01*
X101195Y176679D01*
X101178Y176587D01*
X101156Y176495D01*
X101132Y176405D01*
X101103Y176315D01*
X101071Y176227D01*
X101035Y176140D01*
X100995Y176055D01*
X100952Y175972D01*
X100906Y175890D01*
X100856Y175810D01*
X100803Y175733D01*
X100747Y175658D01*
X100688Y175585D01*
X100626Y175514D01*
X100561Y175446D01*
X100493Y175381D01*
X100422Y175319D01*
X100349Y175260D01*
X100274Y175204D01*
X100197Y175151D01*
X100117Y175101D01*
X100035Y175055D01*
X99952Y175012D01*
X99867Y174972D01*
X99780Y174936D01*
X99692Y174904D01*
X99602Y174875D01*
X99512Y174851D01*
X99420Y174829D01*
X99328Y174812D01*
X99235Y174798D01*
X99142Y174789D01*
X99048Y174783D01*
X98954Y174781D01*
X98860Y174783D01*
X98766Y174789D01*
X98673Y174798D01*
X98580Y174812D01*
X98488Y174829D01*
X98396Y174851D01*
X98306Y174875D01*
X98216Y174904D01*
X98128Y174936D01*
X98041Y174972D01*
X97956Y175012D01*
X97873Y175055D01*
X97791Y175101D01*
X97711Y175151D01*
X97634Y175204D01*
X97559Y175260D01*
X97486Y175319D01*
X97415Y175381D01*
X97347Y175446D01*
X97282Y175514D01*
X97220Y175585D01*
X97161Y175658D01*
X97105Y175733D01*
X97052Y175810D01*
X97002Y175890D01*
X96956Y175972D01*
X96913Y176055D01*
X96873Y176140D01*
X96837Y176227D01*
X96805Y176315D01*
X96776Y176405D01*
X96752Y176495D01*
X96730Y176587D01*
X96713Y176679D01*
X96699Y176772D01*
X96690Y176865D01*
X96684Y176959D01*
X96682Y177053D01*
X96682Y179974D01*
X102524Y179974D01*
X102524Y179973D02*
X102611Y179971D01*
X102699Y179965D01*
X102785Y179955D01*
X102872Y179942D01*
X102957Y179924D01*
X103042Y179903D01*
X103126Y179878D01*
X103208Y179849D01*
X103289Y179816D01*
X103369Y179780D01*
X103447Y179741D01*
X103523Y179697D01*
X103597Y179651D01*
X103668Y179601D01*
X103738Y179548D01*
X103805Y179492D01*
X103869Y179433D01*
X103931Y179371D01*
X103990Y179307D01*
X104046Y179240D01*
X104099Y179170D01*
X104149Y179099D01*
X104195Y179025D01*
X104239Y178949D01*
X104278Y178871D01*
X104314Y178791D01*
X104347Y178710D01*
X104376Y178628D01*
X104401Y178544D01*
X104422Y178459D01*
X104440Y178374D01*
X104453Y178287D01*
X104463Y178201D01*
X104469Y178113D01*
X104471Y178026D01*
X104471Y175430D01*
X104471Y185574D02*
X96682Y185574D01*
X104471Y185574D02*
X104471Y189469D01*
X103173Y189469D01*
X108366Y198262D02*
X96682Y198262D01*
X96682Y195016D01*
X96684Y194929D01*
X96690Y194841D01*
X96700Y194755D01*
X96713Y194668D01*
X96731Y194583D01*
X96752Y194498D01*
X96777Y194414D01*
X96806Y194332D01*
X96839Y194251D01*
X96875Y194171D01*
X96914Y194093D01*
X96958Y194017D01*
X97004Y193943D01*
X97054Y193872D01*
X97107Y193802D01*
X97163Y193735D01*
X97222Y193671D01*
X97284Y193609D01*
X97348Y193550D01*
X97415Y193494D01*
X97485Y193441D01*
X97556Y193391D01*
X97630Y193345D01*
X97706Y193301D01*
X97784Y193262D01*
X97864Y193226D01*
X97945Y193193D01*
X98027Y193164D01*
X98111Y193139D01*
X98196Y193118D01*
X98281Y193100D01*
X98368Y193087D01*
X98454Y193077D01*
X98542Y193071D01*
X98629Y193069D01*
X102524Y193069D01*
X102611Y193071D01*
X102699Y193077D01*
X102785Y193087D01*
X102872Y193100D01*
X102957Y193118D01*
X103042Y193139D01*
X103126Y193164D01*
X103208Y193193D01*
X103289Y193226D01*
X103369Y193262D01*
X103447Y193301D01*
X103523Y193345D01*
X103597Y193391D01*
X103668Y193441D01*
X103738Y193494D01*
X103805Y193550D01*
X103869Y193609D01*
X103931Y193671D01*
X103990Y193735D01*
X104046Y193802D01*
X104099Y193872D01*
X104149Y193943D01*
X104195Y194017D01*
X104239Y194093D01*
X104278Y194171D01*
X104314Y194251D01*
X104347Y194332D01*
X104376Y194414D01*
X104401Y194498D01*
X104422Y194583D01*
X104440Y194668D01*
X104453Y194755D01*
X104463Y194841D01*
X104469Y194929D01*
X104471Y195016D01*
X104471Y198262D01*
X104471Y203259D02*
X96682Y205207D01*
X101875Y207154D01*
X96682Y209101D01*
X104471Y211049D01*
X101226Y217820D02*
X101226Y220741D01*
X101226Y217820D02*
X101224Y217726D01*
X101218Y217632D01*
X101209Y217539D01*
X101195Y217446D01*
X101178Y217354D01*
X101156Y217262D01*
X101132Y217172D01*
X101103Y217082D01*
X101071Y216994D01*
X101035Y216907D01*
X100995Y216822D01*
X100952Y216739D01*
X100906Y216657D01*
X100856Y216577D01*
X100803Y216500D01*
X100747Y216425D01*
X100688Y216352D01*
X100626Y216281D01*
X100561Y216213D01*
X100493Y216148D01*
X100422Y216086D01*
X100349Y216027D01*
X100274Y215971D01*
X100197Y215918D01*
X100117Y215868D01*
X100035Y215822D01*
X99952Y215779D01*
X99867Y215739D01*
X99780Y215703D01*
X99692Y215671D01*
X99602Y215642D01*
X99512Y215618D01*
X99420Y215596D01*
X99328Y215579D01*
X99235Y215565D01*
X99142Y215556D01*
X99048Y215550D01*
X98954Y215548D01*
X98860Y215550D01*
X98766Y215556D01*
X98673Y215565D01*
X98580Y215579D01*
X98488Y215596D01*
X98396Y215618D01*
X98306Y215642D01*
X98216Y215671D01*
X98128Y215703D01*
X98041Y215739D01*
X97956Y215779D01*
X97873Y215822D01*
X97791Y215868D01*
X97711Y215918D01*
X97634Y215971D01*
X97559Y216027D01*
X97486Y216086D01*
X97415Y216148D01*
X97347Y216213D01*
X97282Y216281D01*
X97220Y216352D01*
X97161Y216425D01*
X97105Y216500D01*
X97052Y216577D01*
X97002Y216657D01*
X96956Y216739D01*
X96913Y216822D01*
X96873Y216907D01*
X96837Y216994D01*
X96805Y217082D01*
X96776Y217172D01*
X96752Y217262D01*
X96730Y217354D01*
X96713Y217446D01*
X96699Y217539D01*
X96690Y217632D01*
X96684Y217726D01*
X96682Y217820D01*
X96682Y220741D01*
X102524Y220741D01*
X102524Y220740D02*
X102611Y220738D01*
X102699Y220732D01*
X102785Y220722D01*
X102872Y220709D01*
X102957Y220691D01*
X103042Y220670D01*
X103126Y220645D01*
X103208Y220616D01*
X103289Y220583D01*
X103369Y220547D01*
X103447Y220508D01*
X103523Y220464D01*
X103597Y220418D01*
X103668Y220368D01*
X103738Y220315D01*
X103805Y220259D01*
X103869Y220200D01*
X103931Y220138D01*
X103990Y220074D01*
X104046Y220007D01*
X104099Y219937D01*
X104149Y219866D01*
X104195Y219792D01*
X104239Y219716D01*
X104278Y219638D01*
X104314Y219558D01*
X104347Y219477D01*
X104376Y219395D01*
X104401Y219311D01*
X104422Y219226D01*
X104440Y219141D01*
X104453Y219054D01*
X104463Y218968D01*
X104469Y218880D01*
X104471Y218793D01*
X104471Y216197D01*
X104471Y226341D02*
X96682Y226341D01*
X104471Y226341D02*
X104471Y230236D01*
X103173Y230236D01*
X96682Y235842D02*
X96682Y239087D01*
X96682Y235842D02*
X96684Y235755D01*
X96690Y235667D01*
X96700Y235581D01*
X96713Y235494D01*
X96731Y235409D01*
X96752Y235324D01*
X96777Y235240D01*
X96806Y235158D01*
X96839Y235077D01*
X96875Y234997D01*
X96914Y234919D01*
X96958Y234843D01*
X97004Y234769D01*
X97054Y234698D01*
X97107Y234628D01*
X97163Y234561D01*
X97222Y234497D01*
X97284Y234435D01*
X97348Y234376D01*
X97415Y234320D01*
X97485Y234267D01*
X97556Y234217D01*
X97630Y234171D01*
X97706Y234127D01*
X97784Y234088D01*
X97864Y234052D01*
X97945Y234019D01*
X98027Y233990D01*
X98111Y233965D01*
X98196Y233944D01*
X98281Y233926D01*
X98368Y233913D01*
X98454Y233903D01*
X98542Y233897D01*
X98629Y233895D01*
X101875Y233895D01*
X101976Y233897D01*
X102076Y233903D01*
X102176Y233913D01*
X102276Y233926D01*
X102375Y233944D01*
X102474Y233965D01*
X102571Y233990D01*
X102668Y234019D01*
X102763Y234052D01*
X102857Y234088D01*
X102949Y234128D01*
X103040Y234171D01*
X103129Y234218D01*
X103216Y234268D01*
X103302Y234322D01*
X103385Y234379D01*
X103465Y234439D01*
X103544Y234502D01*
X103620Y234569D01*
X103693Y234638D01*
X103763Y234710D01*
X103831Y234784D01*
X103896Y234861D01*
X103957Y234941D01*
X104016Y235023D01*
X104071Y235107D01*
X104123Y235193D01*
X104172Y235281D01*
X104217Y235371D01*
X104259Y235463D01*
X104297Y235556D01*
X104331Y235651D01*
X104362Y235746D01*
X104389Y235843D01*
X104412Y235941D01*
X104432Y236040D01*
X104447Y236140D01*
X104459Y236240D01*
X104467Y236340D01*
X104471Y236441D01*
X104471Y236541D01*
X104467Y236642D01*
X104459Y236742D01*
X104447Y236842D01*
X104432Y236942D01*
X104412Y237041D01*
X104389Y237139D01*
X104362Y237236D01*
X104331Y237331D01*
X104297Y237426D01*
X104259Y237519D01*
X104217Y237611D01*
X104172Y237701D01*
X104123Y237789D01*
X104071Y237875D01*
X104016Y237959D01*
X103957Y238041D01*
X103896Y238121D01*
X103831Y238198D01*
X103763Y238272D01*
X103693Y238344D01*
X103620Y238413D01*
X103544Y238480D01*
X103465Y238543D01*
X103385Y238603D01*
X103302Y238660D01*
X103216Y238714D01*
X103129Y238764D01*
X103040Y238811D01*
X102949Y238854D01*
X102857Y238894D01*
X102763Y238930D01*
X102668Y238963D01*
X102571Y238992D01*
X102474Y239017D01*
X102375Y239038D01*
X102276Y239056D01*
X102176Y239069D01*
X102076Y239079D01*
X101976Y239085D01*
X101875Y239087D01*
X100577Y239087D01*
X100577Y233895D01*
M02*
